<svg width="218" height="51" viewBox="0 0 218 51" fill="none" xmlns="http://www.w3.org/2000/svg">
<g clip-path="url(#clip0_3343_9725)">
<g clip-path="url(#clip1_3343_9725)">
<g clip-path="url(#clip2_3343_9725)">
<path d="M56.9185 23.6456C56.8715 23.1859 56.6697 22.8288 56.3131 22.5743C55.9565 22.3198 55.4725 22.1926 54.8612 22.1926C54.4458 22.1926 54.0951 22.2495 53.809 22.3635C53.5229 22.4737 53.3035 22.6275 53.1507 22.825C53.0017 23.0226 52.9273 23.2467 52.9273 23.4974C52.9195 23.7063 52.9645 23.8887 53.0625 24.0444C53.1644 24.2002 53.3035 24.335 53.4798 24.449C53.6562 24.5591 53.8599 24.656 54.0912 24.7396C54.3224 24.8193 54.5692 24.8877 54.8318 24.9447L55.9134 25.1954C56.4385 25.3094 56.9205 25.4613 57.3594 25.6512C57.7983 25.8412 58.1784 26.0748 58.4997 26.3521C58.8211 26.6294 59.0699 26.9561 59.2462 27.3322C59.4265 27.7082 59.5186 28.1394 59.5225 28.6256C59.5186 29.3398 59.3305 29.9589 58.9582 30.4832C58.5899 31.0036 58.0569 31.4081 57.3594 31.6968C56.6658 31.9817 55.8291 32.1242 54.8494 32.1242C53.8776 32.1242 53.0311 31.9798 52.3101 31.6911C51.593 31.4024 51.0326 30.9751 50.629 30.4091C50.2292 29.8393 50.0196 29.1346 50 28.2951H52.4629C52.4904 28.6864 52.606 29.0131 52.8097 29.2752C53.0174 29.5335 53.2937 29.7291 53.6385 29.8621C53.9873 29.9912 54.3811 30.0558 54.82 30.0558C55.2511 30.0558 55.6253 29.995 55.9428 29.8735C56.2641 29.7519 56.5129 29.5829 56.6893 29.3664C56.8656 29.1498 56.9538 28.901 56.9538 28.6199C56.9538 28.3578 56.8735 28.1375 56.7128 27.9589C56.556 27.7804 56.3248 27.6285 56.0192 27.5031C55.7174 27.3777 55.3471 27.2638 54.9082 27.1612L53.5974 26.8421C52.5824 26.6028 51.7811 26.2286 51.1933 25.7196C50.6054 25.2106 50.3135 24.5249 50.3174 23.6626C50.3135 22.9561 50.5075 22.3388 50.8993 21.8108C51.2951 21.2828 51.8379 20.8706 52.5276 20.5743C53.2173 20.278 54.001 20.1299 54.8788 20.1299C55.7723 20.1299 56.5521 20.278 57.2183 20.5743C57.8884 20.8706 58.4096 21.2828 58.7819 21.8108C59.1542 22.3388 59.3462 22.9504 59.3579 23.6456H56.9185Z" fill="#FAFAFA"/>
<path d="M63.0347 31.9589H60.3072L64.4631 20.2894H67.743L71.893 31.9589H69.1655L66.1501 22.9561H66.056L63.0347 31.9589ZM62.8642 27.372H69.3066V29.298H62.8642V27.372Z" fill="#FAFAFA"/>
<path d="M75.4169 31.9589H72.6894L76.8453 20.2894H80.1252L84.2752 31.9589H81.5477L78.5323 22.9561H78.4382L75.4169 31.9589ZM75.2464 27.372H81.6888V29.298H75.2464V27.372Z" fill="#FAFAFA"/>
<path d="M91.9799 23.6456C91.9329 23.1859 91.731 22.8288 91.3744 22.5743C91.0178 22.3198 90.5339 22.1926 89.9226 22.1926C89.5072 22.1926 89.1564 22.2495 88.8704 22.3635C88.5843 22.4737 88.3649 22.6275 88.212 22.825C88.0631 23.0226 87.9887 23.2467 87.9887 23.4974C87.9808 23.7063 88.0259 23.8887 88.1239 24.0444C88.2257 24.2002 88.3648 24.335 88.5412 24.449C88.7175 24.5591 88.9213 24.656 89.1525 24.7396C89.3837 24.8193 89.6306 24.8877 89.8932 24.9447L90.9747 25.1954C91.4998 25.3094 91.9818 25.4613 92.4207 25.6512C92.8596 25.8412 93.2397 26.0748 93.5611 26.3521C93.8824 26.6294 94.1313 26.9561 94.3076 27.3322C94.4879 27.7082 94.58 28.1394 94.5839 28.6256C94.58 29.3398 94.3919 29.9589 94.0196 30.4832C93.6512 31.0036 93.1183 31.4081 92.4207 31.6968C91.7271 31.9817 90.8905 32.1242 89.9108 32.1242C88.9389 32.1242 88.0925 31.9798 87.3715 31.6911C86.6543 31.4024 86.0939 30.9751 85.6903 30.4091C85.2906 29.8393 85.081 29.1346 85.0614 28.2951H87.5243C87.5517 28.6864 87.6673 29.0131 87.8711 29.2752C88.0788 29.5335 88.3551 29.7291 88.6999 29.8621C89.0487 29.9912 89.4425 30.0558 89.8814 30.0558C90.3125 30.0558 90.6867 29.995 91.0041 29.8735C91.3255 29.7519 91.5743 29.5829 91.7506 29.3664C91.927 29.1498 92.0152 28.901 92.0152 28.6199C92.0152 28.3578 91.9348 28.1375 91.7741 27.9589C91.6174 27.7804 91.3862 27.6285 91.0805 27.5031C90.7788 27.3777 90.4085 27.2638 89.9696 27.1612L88.6588 26.8421C87.6438 26.6028 86.8424 26.2286 86.2546 25.7196C85.6668 25.2106 85.3749 24.5249 85.3788 23.6626C85.3749 22.9561 85.5688 22.3388 85.9607 21.8108C86.3565 21.2828 86.8992 20.8706 87.5889 20.5743C88.2786 20.278 89.0624 20.1299 89.9402 20.1299C90.8336 20.1299 91.6135 20.278 92.2797 20.5743C92.9498 20.8706 93.471 21.2828 93.8432 21.8108C94.2155 22.3388 94.4075 22.9504 94.4193 23.6456H91.9799Z" fill="#FAFAFA"/>
<path d="M102.202 31.9589H99.4745L103.63 20.2894H106.91L111.06 31.9589H108.333L105.317 22.9561H105.223L102.202 31.9589ZM102.031 27.372H108.474V29.298H102.031V27.372Z" fill="#FAFAFA"/>
<path d="M115.054 20.2894V31.9589H112.509V20.2894H115.054Z" fill="#FAFAFA"/>
<path d="M131.601 24.3749H129.027C128.98 24.052 128.884 23.7652 128.739 23.5145C128.594 23.26 128.407 23.0435 128.18 22.8649C127.953 22.6864 127.69 22.5496 127.392 22.4547C127.099 22.3597 126.779 22.3122 126.434 22.3122C125.811 22.3122 125.269 22.4623 124.806 22.7624C124.344 23.0587 123.985 23.4917 123.73 24.0615C123.476 24.6275 123.348 25.3151 123.348 26.1242C123.348 26.9561 123.476 27.655 123.73 28.2211C123.989 28.7871 124.35 29.2144 124.812 29.5031C125.274 29.7918 125.809 29.9362 126.417 29.9362C126.758 29.9362 127.073 29.8925 127.363 29.8051C127.657 29.7177 127.918 29.5905 128.145 29.4233C128.372 29.2524 128.56 29.0454 128.709 28.8022C128.862 28.5591 128.968 28.2818 129.027 27.9703L131.601 27.9817C131.535 28.5173 131.368 29.034 131.102 29.5316C130.839 30.0254 130.484 30.468 130.038 30.8592C129.595 31.2467 129.066 31.5544 128.451 31.7823C127.839 32.0064 127.148 32.1185 126.376 32.1185C125.302 32.1185 124.342 31.883 123.495 31.4119C122.653 30.9409 121.987 30.259 121.497 29.3664C121.011 28.4737 120.768 27.3929 120.768 26.1242C120.768 24.8516 121.015 23.769 121.508 22.8763C122.002 21.9836 122.672 21.3037 123.519 20.8364C124.365 20.3654 125.317 20.1299 126.376 20.1299C127.073 20.1299 127.72 20.2248 128.315 20.4148C128.915 20.6047 129.446 20.882 129.908 21.2467C130.371 21.6076 130.747 22.0501 131.037 22.5743C131.331 23.0985 131.519 23.6987 131.601 24.3749Z" fill="#FAFAFA"/>
<path d="M135.883 26.8991V31.9589H133.379V20.2894H135.813V24.751H135.919C136.122 24.2343 136.452 23.8298 136.906 23.5373C137.361 23.241 137.931 23.0928 138.617 23.0928C139.244 23.0928 139.79 23.2258 140.257 23.4917C140.727 23.7538 141.091 24.1318 141.35 24.6256C141.613 25.1156 141.742 25.7025 141.738 26.3863V31.9589H139.234V26.8193C139.238 26.2799 139.097 25.8602 138.811 25.5601C138.529 25.26 138.133 25.1099 137.623 25.1099C137.282 25.1099 136.981 25.1802 136.718 25.3208C136.459 25.4613 136.256 25.6664 136.107 25.9362C135.962 26.2021 135.887 26.523 135.883 26.8991Z" fill="#FAFAFA"/>
<path d="M146.283 32.1242C145.707 32.1242 145.194 32.0273 144.743 31.8336C144.292 31.6361 143.936 31.3455 143.673 30.9618C143.415 30.5743 143.285 30.0919 143.285 29.5145C143.285 29.0283 143.377 28.6199 143.562 28.2894C143.746 27.9589 143.997 27.693 144.314 27.4917C144.631 27.2904 144.992 27.1384 145.396 27.0359C145.803 26.9333 146.23 26.8611 146.677 26.8193C147.202 26.7662 147.625 26.7168 147.947 26.6712C148.268 26.6218 148.501 26.5496 148.646 26.4547C148.791 26.3597 148.864 26.2192 148.864 26.033V25.9988C148.864 25.638 148.746 25.3588 148.511 25.1612C148.28 24.9637 147.951 24.8649 147.523 24.8649C147.073 24.8649 146.714 24.9618 146.448 25.1555C146.181 25.3455 146.005 25.5848 145.919 25.8735L143.603 25.6911C143.72 25.1593 143.952 24.6997 144.296 24.3122C144.641 23.921 145.086 23.6209 145.631 23.4119C146.179 23.1992 146.814 23.0928 147.535 23.0928C148.037 23.0928 148.517 23.1498 148.975 23.2638C149.438 23.3777 149.847 23.5544 150.204 23.7937C150.564 24.033 150.849 24.3407 151.056 24.7168C151.264 25.089 151.368 25.5354 151.368 26.0558V31.9589H148.993V30.7453H148.922C148.777 31.0188 148.583 31.26 148.341 31.4689C148.098 31.674 147.806 31.8355 147.465 31.9532C147.124 32.0672 146.73 32.1242 146.283 32.1242ZM147 30.449C147.369 30.449 147.694 30.3787 147.976 30.2381C148.258 30.0938 148.48 29.9001 148.64 29.6569C148.801 29.4138 148.881 29.1384 148.881 28.8307V27.902C148.803 27.9513 148.695 27.9969 148.558 28.0387C148.425 28.0767 148.274 28.1128 148.105 28.147C147.937 28.1774 147.768 28.2059 147.6 28.2324C147.431 28.2552 147.279 28.2761 147.141 28.2951C146.847 28.3369 146.591 28.4034 146.371 28.4946C146.152 28.5857 145.981 28.7092 145.86 28.8649C145.738 29.0169 145.678 29.2068 145.678 29.4347C145.678 29.7652 145.801 30.0178 146.048 30.1926C146.299 30.3635 146.616 30.449 147 30.449Z" fill="#FAFAFA"/>
<path d="M158.113 23.2068V25.0302H152.676V23.2068H158.113ZM153.91 21.1099H156.414V29.2695C156.414 29.4936 156.449 29.6683 156.52 29.7937C156.59 29.9153 156.688 30.0007 156.814 30.0501C156.943 30.0995 157.092 30.1242 157.261 30.1242C157.378 30.1242 157.496 30.1147 157.613 30.0957C157.731 30.0729 157.821 30.0558 157.884 30.0444L158.277 31.8507C158.152 31.8887 157.976 31.9324 157.748 31.9817C157.521 32.0349 157.245 32.0672 156.92 32.0786C156.316 32.1014 155.787 32.0235 155.333 31.845C154.882 31.6664 154.531 31.3891 154.28 31.0131C154.03 30.637 153.906 30.1622 153.91 29.5886V21.1099Z" fill="#FAFAFA"/>
<path d="M159.985 31.9589V20.2894H164.805C165.691 20.2894 166.429 20.4167 167.021 20.6712C167.613 20.9257 168.058 21.279 168.355 21.731C168.653 22.1793 168.802 22.6959 168.802 23.2809C168.802 23.7367 168.708 24.1375 168.52 24.4832C168.332 24.825 168.073 25.1061 167.744 25.3265C167.419 25.543 167.047 25.6968 166.627 25.788V25.902C167.086 25.921 167.515 26.0463 167.915 26.278C168.318 26.5097 168.645 26.8345 168.896 27.2524C169.147 27.6664 169.272 28.1603 169.272 28.7339C169.272 29.3531 169.114 29.9058 168.796 30.392C168.483 30.8744 168.018 31.2562 167.403 31.5373C166.788 31.8184 166.03 31.9589 165.128 31.9589H159.985ZM162.53 29.9418H164.605C165.314 29.9418 165.832 29.8108 166.157 29.5487C166.482 29.2828 166.645 28.9295 166.645 28.4889C166.645 28.166 166.565 27.8811 166.404 27.6342C166.243 27.3872 166.014 27.1935 165.716 27.053C165.422 26.9124 165.072 26.8421 164.664 26.8421H162.53V29.9418ZM162.53 25.1726H164.417C164.766 25.1726 165.075 25.1137 165.346 24.996C165.62 24.8744 165.836 24.7035 165.992 24.4832C166.153 24.2628 166.233 23.9988 166.233 23.6911C166.233 23.2695 166.079 22.9295 165.769 22.6712C165.463 22.4129 165.028 22.2837 164.464 22.2837H162.53V25.1726Z" fill="#FAFAFA"/>
<path d="M174.961 32.1299C174.048 32.1299 173.258 31.9418 172.592 31.5658C171.93 31.1859 171.418 30.6579 171.058 29.9817C170.697 29.3018 170.517 28.5135 170.517 27.6171C170.517 26.713 170.697 25.9229 171.058 25.2467C171.418 24.5667 171.93 24.0387 172.592 23.6626C173.258 23.2828 174.048 23.0928 174.961 23.0928C175.874 23.0928 176.662 23.2828 177.324 23.6626C177.99 24.0387 178.503 24.5667 178.864 25.2467C179.225 25.9229 179.405 26.713 179.405 27.6171C179.405 28.5135 179.225 29.3018 178.864 29.9817C178.503 30.6579 177.99 31.1859 177.324 31.5658C176.662 31.9418 175.874 32.1299 174.961 32.1299ZM174.973 30.2495C175.388 30.2495 175.735 30.1356 176.013 29.9077C176.291 29.6759 176.501 29.3607 176.642 28.9618C176.787 28.5629 176.86 28.109 176.86 27.6C176.86 27.0909 176.787 26.637 176.642 26.2381C176.501 25.8393 176.291 25.524 176.013 25.2923C175.735 25.0606 175.388 24.9447 174.973 24.9447C174.553 24.9447 174.201 25.0606 173.915 25.2923C173.632 25.524 173.419 25.8393 173.274 26.2381C173.133 26.637 173.062 27.0909 173.062 27.6C173.062 28.109 173.133 28.5629 173.274 28.9618C173.419 29.3607 173.632 29.6759 173.915 29.9077C174.201 30.1356 174.553 30.2495 174.973 30.2495Z" fill="#FAFAFA"/>
<path d="M185.835 23.2068V25.0302H180.398V23.2068H185.835ZM181.633 21.1099H184.137V29.2695C184.137 29.4936 184.172 29.6683 184.242 29.7937C184.313 29.9153 184.411 30.0007 184.536 30.0501C184.666 30.0995 184.815 30.1242 184.983 30.1242C185.101 30.1242 185.218 30.1147 185.336 30.0957C185.453 30.0729 185.543 30.0558 185.606 30.0444L186 31.8507C185.875 31.8887 185.698 31.9324 185.471 31.9817C185.244 32.0349 184.967 32.0672 184.642 32.0786C184.039 32.1014 183.51 32.0235 183.055 31.845C182.604 31.6664 182.254 31.3891 182.003 31.0131C181.752 30.637 181.629 30.1622 181.633 29.5886V21.1099Z" fill="#FAFAFA"/>
<path d="M33.9263 14.2166C36.3346 16.5841 36.3346 20.4227 33.9263 22.7903L33.1993 23.5049L22.614 13.098C20.2057 10.7305 16.3003 10.7305 13.892 13.098L3.30662 23.5057L2.57966 22.791C0.171363 20.4235 0.171363 16.5848 2.57966 14.2173L13.892 3.09572C16.3003 0.728184 20.2057 0.728184 22.614 3.09572L33.9263 14.2166Z" fill="white" fill-opacity="0.22"/>
<path d="M33.9263 24.2196C36.3346 26.5871 36.3346 30.4257 33.9263 32.7933L22.614 43.9148C20.2057 46.2824 16.3003 46.2824 13.892 43.9148L2.57966 32.7933C0.171363 30.4257 0.171363 26.5871 2.57966 24.2196L3.30662 23.5049L13.892 33.9118C16.3003 36.2793 20.2057 36.2793 22.614 33.9118L33.1993 23.5049L33.9263 24.2196Z" fill="white" fill-opacity="0.45"/>
<path d="M22.616 13.0976L33.2013 23.5045L22.616 33.9114C20.2077 36.2789 16.3022 36.2789 13.8939 33.9114L3.30859 23.5045L13.8939 13.0976C16.3022 10.7301 20.2077 10.7301 22.616 13.0976Z" fill="white" fill-opacity="0.77"/>
</g>
</g>
</g>
<defs>
<clipPath id="clip0_3343_9725">
<rect width="217" height="50" fill="white" transform="translate(0.5 0.629883)"/>
</clipPath>
<clipPath id="clip1_3343_9725">
<rect width="217" height="50" fill="white" transform="translate(0.5 0.629883)"/>
</clipPath>
<clipPath id="clip2_3343_9725">
<rect width="217" height="50" fill="white" transform="translate(0.5 0.629883)"/>
</clipPath>
</defs>
</svg>
