<svg width="560" height="374" viewBox="0 0 560 374" fill="none" xmlns="http://www.w3.org/2000/svg">
<rect width="560" height="374" fill="white"/>
<path d="M422.242 238.857C422.525 238.819 422.806 238.76 423.081 238.68C423.472 238.537 423.828 238.304 424.123 237.998C424.418 237.692 424.645 237.321 424.788 236.911C424.958 236.284 425.01 235.628 424.942 234.98C424.942 234.258 424.942 233.506 424.942 232.607C424.942 230.882 424.942 228.907 424.942 226.71C424.942 217.762 424.872 204.849 424.816 188.929C424.816 180.939 424.816 172.212 424.816 162.837C424.816 158.134 424.816 153.284 424.816 148.287C424.816 145.796 424.816 143.26 424.816 140.695C424.816 139.442 424.816 138.057 424.816 136.877C424.724 136.303 424.45 135.778 424.038 135.39C423.627 135.001 423.102 134.772 422.55 134.74H357.314C356.68 134.74 356.071 135 355.617 135.465C355.162 135.93 354.898 136.564 354.88 137.231C354.88 138.705 354.88 140.18 354.88 141.742V168.202C354.88 179.686 354.88 190.756 354.88 201.311C354.88 211.866 354.88 221.949 354.88 231.25V234.744C354.837 235.299 354.837 235.856 354.88 236.41C354.961 236.911 355.185 237.374 355.523 237.737C355.856 238.107 356.283 238.369 356.754 238.488C357.254 238.567 357.76 238.592 358.265 238.562H373.273L409.122 238.695L418.913 238.769H421.445H422.312C422.312 238.769 422.018 238.769 421.445 238.769H418.913L409.122 238.842L373.273 238.96H361.398H358.265C357.713 238.995 357.16 238.965 356.614 238.872C356.035 238.734 355.508 238.416 355.104 237.958C354.683 237.505 354.401 236.93 354.292 236.307C354.252 235.718 354.252 235.127 354.292 234.538V231.044C354.292 221.669 354.292 211.645 354.292 201.105C354.292 190.565 354.292 179.479 354.292 167.996C354.292 162.267 354.292 156.429 354.292 150.484V141.536C354.292 140.062 354.292 138.587 354.292 136.995C354.318 136.13 354.662 135.309 355.252 134.706C355.842 134.103 356.632 133.767 357.453 133.767H422.592C423.292 133.814 423.956 134.108 424.477 134.604C424.997 135.099 425.344 135.765 425.459 136.494C425.557 137.968 425.459 139.118 425.459 140.43V148.022C425.459 153.019 425.459 157.869 425.459 162.571C425.459 171.947 425.459 180.674 425.459 188.663C425.459 204.584 425.375 217.497 425.347 226.445C425.347 228.671 425.347 230.646 425.347 232.341C425.347 233.196 425.347 233.992 425.347 234.715C425.401 235.38 425.335 236.051 425.151 236.69C424.999 237.119 424.755 237.505 424.437 237.817C424.119 238.129 423.736 238.359 423.319 238.488C422.999 238.713 422.626 238.84 422.242 238.857Z" fill="#263238"/>
<path d="M394.379 154.979C384.867 152.753 374.419 158.193 371.748 168.526C369.174 178.447 375.398 190.034 384.839 192.731C389.496 193.907 394.4 193.244 398.625 190.867C402.849 188.491 406.101 184.565 407.764 179.833C411.149 169.234 404.701 157.809 394.966 154.434C393.847 154.036 393.4 155.908 394.491 156.291C402.785 159.49 408.744 168.924 406.254 178.403C403.904 187.395 393.903 193.409 385.371 191.021C377.161 188.722 371.859 179.435 372.908 170.782C374.181 160.183 384.826 153.844 394.295 155.569C394.645 155.569 394.798 155.082 394.449 155.009L394.379 154.979Z" fill="#263238"/>
<path d="M384.922 192.422C389.744 193.923 394.932 193.374 399.376 190.895C403.82 188.416 407.166 184.202 408.7 179.155C411.665 168.394 405.049 156.749 395.104 153.55C392.811 152.813 391.985 156.38 394.125 157.265C402.518 160.743 408.113 170.369 404.812 179.819C401.846 188.221 393.118 192.275 385.02 191.317C384.376 191.228 384.292 192.29 384.88 192.466L384.922 192.422Z" fill="url(#paint0_linear_3496_50725)"/>
<path d="M409.164 210.052C409.164 210.259 400.52 210.435 389.834 210.435C379.148 210.435 370.504 210.259 370.504 210.052C370.504 209.846 379.162 209.669 389.834 209.669C400.506 209.669 409.164 209.846 409.164 210.052Z" fill="url(#paint1_linear_3496_50725)"/>
<path d="M409.164 216.229C409.164 216.45 400.52 216.612 389.834 216.612C379.148 216.612 370.504 216.45 370.504 216.229C370.504 216.008 379.162 215.846 389.834 215.846C400.506 215.846 409.164 216.023 409.164 216.229Z" fill="url(#paint2_linear_3496_50725)"/>
<path d="M145.648 70.2029V206.5C145.652 207.953 146.201 209.346 147.176 210.373C148.151 211.401 149.473 211.98 150.852 211.984H323.118C324.496 211.98 325.818 211.401 326.793 210.373C327.768 209.346 328.317 207.953 328.321 206.5V65.4857C328.321 64.753 328.182 64.0277 327.912 63.3526C327.642 62.6774 327.246 62.0662 326.748 61.5551C326.25 61.0439 325.659 60.6431 325.012 60.3763C324.364 60.1096 323.673 59.9823 322.978 60.002L150.712 64.7192C149.357 64.7613 148.072 65.3571 147.127 66.3806C146.182 67.404 145.651 68.7748 145.648 70.2029Z" fill="#E0E0E0"/>
<path d="M312.929 94.0542C312.929 94.2016 310.733 92.8896 306.565 91.504C300.656 89.5619 294.405 89.0578 288.284 90.0299C284.102 90.7274 280.051 92.1206 276.283 94.1574C271.981 96.5948 267.998 99.6127 264.436 103.135C260.547 106.761 256.687 110.859 252.239 114.648C247.703 118.725 242.396 121.739 236.671 123.492C233.704 124.3 230.617 124.495 227.58 124.067C224.667 123.604 221.838 122.68 219.187 121.325C214.335 118.657 209.628 115.704 205.088 112.481C201.021 109.637 196.536 107.52 191.814 106.216C187.698 105.163 183.447 104.82 179.226 105.199C173.066 105.739 167.105 107.756 161.798 111.095C158.063 113.513 156.301 115.311 156.203 115.193C156.579 114.712 157.001 114.272 157.462 113.881C158.729 112.682 160.085 111.592 161.518 110.623C166 107.574 171.016 105.504 176.271 104.537C181.526 103.57 186.911 103.724 192.108 104.992C196.961 106.269 201.576 108.397 205.76 111.287C210.272 114.446 214.941 117.35 219.747 119.984C224.876 122.737 230.77 123.464 236.364 122.033C241.902 120.314 247.034 117.386 251.428 113.439C255.82 109.739 259.694 105.656 263.639 102.029C267.303 98.466 271.394 95.4232 275.807 92.9781C279.696 90.9917 283.861 89.673 288.144 89.0717C294.391 88.151 300.757 88.8027 306.719 90.9733C308.331 91.5516 309.897 92.2613 311.405 93.096C311.943 93.3592 312.454 93.6802 312.929 94.0542Z" fill="#455A64"/>
<path d="M203.187 126.072H186.332V174.099H203.187V126.072Z" fill="#455A64"/>
<path d="M274.69 126.072H257.836V174.099H274.69V126.072Z" fill="#455A64"/>
<path d="M298.511 97.8716H281.656V174.098H298.511V97.8716Z" fill="#455A64"/>
<path d="M181.382 158.975H164.527V175.131H181.382V158.975Z" fill="#455A64"/>
<path d="M227.019 147.756H210.164V174.098H227.019V147.756Z" fill="#455A64"/>
<path d="M250.858 141.712H234.004V174.098H250.858V141.712Z" fill="#455A64"/>
<path d="M203.86 179.76C203.86 180.158 199.789 180.467 194.754 180.467C189.719 180.467 185.648 180.158 185.648 179.76C185.648 179.362 189.733 179.052 194.754 179.052C199.775 179.052 203.86 179.362 203.86 179.76Z" fill="#263238"/>
<path d="M182.891 179.76C182.891 180.158 178.807 180.467 173.785 180.467C168.764 180.467 164.68 180.158 164.68 179.76C164.68 179.362 168.764 179.052 173.785 179.052C178.807 179.052 182.891 179.362 182.891 179.76Z" fill="#263238"/>
<path d="M301.839 179.76C301.839 180.158 297.223 180.467 291.545 180.467C285.866 180.467 281.25 180.158 281.25 179.76C281.25 179.362 285.852 179.052 291.545 179.052C297.237 179.052 301.839 179.362 301.839 179.76Z" fill="#263238"/>
<path d="M266.509 180.467C272.195 180.467 276.804 180.151 276.804 179.76C276.804 179.369 272.195 179.052 266.509 179.052C260.824 179.052 256.215 179.369 256.215 179.76C256.215 180.151 260.824 180.467 266.509 180.467Z" fill="#263238"/>
<path d="M250.846 179.76C250.846 180.158 246.775 180.467 241.74 180.467C236.705 180.467 232.648 180.158 232.648 179.76C232.648 179.362 236.719 179.052 241.74 179.052C246.761 179.052 250.846 179.362 250.846 179.76Z" fill="#263238"/>
<path d="M226.227 179.76C226.227 180.158 222.143 180.467 217.121 180.467C212.1 180.467 208.016 180.158 208.016 179.76C208.016 179.362 212.086 179.052 217.121 179.052C222.157 179.052 226.227 179.362 226.227 179.76Z" fill="#263238"/>
<path d="M281.152 239.623H281.432C281.72 239.65 282 239.735 282.257 239.874C282.687 240.105 283.038 240.471 283.264 240.921C283.535 241.558 283.636 242.261 283.558 242.955C283.558 246.08 283.558 250.664 283.628 256.546C283.698 262.428 283.628 269.681 283.698 278.068C283.698 282.274 283.698 286.756 283.698 291.512V296.922C283.778 297.592 283.661 298.271 283.362 298.868C283.03 299.484 282.483 299.939 281.837 300.136C281.215 300.254 280.581 300.294 279.949 300.254H276.284L276.536 299.988C276.536 304.234 276.536 308.833 276.536 313.58V314.361L276.047 313.771L264.619 300.195L264.843 300.298H147.043H138.805C138.343 300.298 137.937 300.298 137.406 300.298C136.894 300.231 136.41 300.017 136.007 299.679C135.603 299.325 135.298 298.861 135.126 298.337C135.049 298.069 135.007 297.792 135 297.512V266.113C135 258.816 135 251.637 135 244.621V241.967C135.016 241.473 135.154 240.993 135.399 240.571C135.644 240.15 135.989 239.803 136.399 239.564C136.834 239.341 137.314 239.235 137.797 239.255H151.141L218.797 239.343L264.395 239.461L276.802 239.535H264.395L218.797 239.653L151.141 239.741H137.811C137.454 239.714 137.096 239.791 136.776 239.962C136.462 240.133 136.196 240.387 136.004 240.7C135.813 241.013 135.703 241.374 135.685 241.746V266.113C135.685 273.415 135.685 280.84 135.685 288.387V296.922C135.65 297.362 135.683 297.805 135.783 298.234C135.897 298.617 136.116 298.956 136.413 299.207C136.713 299.464 137.077 299.623 137.462 299.664H147.029H264.829H264.969L265.053 299.767L276.452 313.388L275.963 313.58C275.963 308.818 275.963 304.234 275.963 299.988V299.708H279.935C280.519 299.753 281.105 299.728 281.683 299.635C282.201 299.473 282.642 299.109 282.914 298.617C283.194 298.104 283.321 297.513 283.278 296.922C283.278 296.303 283.278 295.684 283.278 295.08V291.453C283.278 286.692 283.278 282.211 283.278 278.009C283.278 269.622 283.278 262.398 283.278 256.487C283.278 250.576 283.278 246.021 283.278 242.896C283.369 242.227 283.286 241.544 283.04 240.921C282.831 240.487 282.505 240.128 282.103 239.889C281.802 239.745 281.481 239.655 281.152 239.623Z" fill="#263238"/>
<path d="M142.832 289.36C144.007 285.041 145.378 280.634 148.105 277.184C150.833 273.735 155.267 271.42 159.393 272.541C165.925 274.31 169.072 283.479 175.744 284.334C179.436 284.864 183.031 282.535 185.409 279.513C187.787 276.491 189.255 272.821 191.074 269.401C193.871 264.256 197.55 259.495 202.571 256.915C207.593 254.335 214.055 254.321 218.447 257.962C225.972 264.212 224.923 278.01 232.937 283.523C234.886 284.815 237.156 285.466 239.457 285.395C241.758 285.325 243.988 284.534 245.862 283.125C249.428 280.339 251.247 275.533 254.995 273.042C259.331 270.094 265.346 271.288 269.276 274.767C273.206 278.245 275.249 283.611 275.99 288.948" fill="url(#paint3_linear_3496_50725)"/>
<path d="M273.29 264.565C273.177 264.54 273.068 264.495 272.968 264.432L272.045 263.975C270.839 263.435 269.595 262.991 268.325 262.649C263.605 261.581 258.71 261.733 254.058 263.091C250.849 264.007 247.726 265.231 244.728 266.747C241.469 268.339 238.098 270.285 234.504 272.245C230.756 274.381 226.856 276.205 222.838 277.699C218.494 279.32 213.884 279.997 209.285 279.69C204.71 279.234 200.228 278.04 195.997 276.152C191.871 274.412 188.08 272.363 184.472 270.447C177.282 266.555 170.484 263.445 164.498 262.501C159.75 261.589 154.859 261.964 150.287 263.592C148.63 264.249 147.037 265.073 145.531 266.054C145.615 265.963 145.709 265.884 145.811 265.818L146.65 265.184C147.761 264.434 148.942 263.807 150.175 263.312C154.784 261.549 159.749 261.082 164.582 261.956C170.722 262.855 177.548 265.951 184.765 269.813C188.388 271.715 192.178 273.749 196.263 275.459C200.429 277.309 204.839 278.477 209.341 278.923C213.845 279.227 218.36 278.565 222.615 276.977C226.597 275.515 230.465 273.726 234.182 271.626C237.791 269.666 241.175 267.749 244.476 266.172C247.515 264.661 250.68 263.452 253.932 262.56C258.662 261.223 263.634 261.157 268.395 262.369C270.131 262.809 271.785 263.551 273.29 264.565Z" fill="#263238"/>
<path d="M210.881 255.16C210.895 255.469 210.821 255.775 210.668 256.039C210.516 256.303 210.291 256.513 210.024 256.642C209.758 256.77 209.46 256.812 209.171 256.76C208.882 256.709 208.614 256.568 208.401 256.355C208.189 256.141 208.042 255.866 207.979 255.564C207.917 255.262 207.941 254.947 208.05 254.66C208.159 254.373 208.347 254.126 208.59 253.953C208.832 253.779 209.119 253.686 209.412 253.686C209.789 253.689 210.15 253.843 210.423 254.117C210.696 254.391 210.86 254.764 210.881 255.16Z" fill="#455A64"/>
<path d="M158.179 261.721C158.179 262.027 158.093 262.326 157.932 262.581C157.771 262.835 157.541 263.034 157.273 263.151C157.005 263.268 156.709 263.298 156.424 263.239C156.139 263.179 155.878 263.032 155.672 262.815C155.467 262.599 155.327 262.323 155.27 262.023C155.214 261.722 155.243 261.411 155.354 261.128C155.465 260.846 155.653 260.604 155.895 260.434C156.136 260.264 156.42 260.173 156.711 260.173C156.906 260.162 157.102 260.195 157.285 260.269C157.467 260.343 157.633 260.457 157.772 260.603C157.91 260.749 158.018 260.923 158.088 261.116C158.158 261.309 158.19 261.515 158.179 261.721Z" fill="#455A64"/>
<path d="M263.051 261.735C263.051 262.044 262.964 262.346 262.801 262.603C262.638 262.86 262.407 263.06 262.136 263.179C261.865 263.297 261.567 263.328 261.279 263.267C260.992 263.207 260.728 263.058 260.52 262.84C260.313 262.621 260.172 262.343 260.114 262.04C260.057 261.737 260.087 261.422 260.199 261.137C260.311 260.851 260.501 260.607 260.745 260.436C260.989 260.264 261.275 260.172 261.569 260.172C261.962 260.172 262.339 260.337 262.617 260.63C262.895 260.923 263.051 261.321 263.051 261.735Z" fill="#455A64"/>
<defs>
<linearGradient id="paint0_linear_3496_50725" x1="385.22" y1="193.252" x2="417.848" y2="185.035" gradientUnits="userSpaceOnUse">
<stop stop-color="#001F3E"/>
<stop offset="0.588108" stop-color="#203DA3"/>
<stop offset="1" stop-color="#3752E9"/>
</linearGradient>
<linearGradient id="paint1_linear_3496_50725" x1="371.645" y1="210.435" x2="371.775" y2="207.789" gradientUnits="userSpaceOnUse">
<stop stop-color="#001F3E"/>
<stop offset="0.588108" stop-color="#203DA3"/>
<stop offset="1" stop-color="#3752E9"/>
</linearGradient>
<linearGradient id="paint2_linear_3496_50725" x1="371.645" y1="216.612" x2="371.775" y2="213.965" gradientUnits="userSpaceOnUse">
<stop stop-color="#001F3E"/>
<stop offset="0.588108" stop-color="#203DA3"/>
<stop offset="1" stop-color="#3752E9"/>
</linearGradient>
<linearGradient id="paint3_linear_3496_50725" x1="146.762" y1="289.36" x2="200.622" y2="205.21" gradientUnits="userSpaceOnUse">
<stop stop-color="#001F3E"/>
<stop offset="0.588108" stop-color="#203DA3"/>
<stop offset="1" stop-color="#3752E9"/>
</linearGradient>
</defs>
</svg>
