<svg width="560" height="374" viewBox="0 0 560 374" fill="none" xmlns="http://www.w3.org/2000/svg">
<rect width="560" height="374" fill="white"/>
<path d="M348.459 264.472H346.845V245.796C346.84 242.2 345.514 238.752 343.157 236.207C340.799 233.663 337.603 232.229 334.267 232.22H302.377C298.61 232.215 294.998 230.6 292.334 227.728C289.671 224.857 288.172 220.964 288.168 216.903V202.526H289.783V216.938C289.787 220.537 291.115 223.987 293.476 226.532C295.837 229.078 299.038 230.509 302.377 230.514H334.267C338.032 230.519 341.642 232.134 344.303 235.006C346.965 237.878 348.459 241.772 348.459 245.831V264.472Z" fill="#3ACBCC"/>
<path d="M359.926 264.837H338.936C336.9 264.837 334.948 265.708 333.507 267.258C332.066 268.808 331.254 270.911 331.25 273.105V295.732C331.254 297.927 332.066 300.029 333.507 301.579C334.948 303.129 336.9 304 338.936 304H359.926C361.962 304 363.914 303.129 365.355 301.579C366.796 300.029 367.608 297.927 367.612 295.732V273.105C367.608 270.911 366.796 268.808 365.355 267.258C363.914 265.708 361.962 264.837 359.926 264.837Z" fill="#001F3E"/>
<g opacity="0.4">
<path d="M359.926 264.837H338.936C336.9 264.837 334.948 265.708 333.507 267.258C332.066 268.808 331.254 270.911 331.25 273.105V295.732C331.254 297.927 332.066 300.029 333.507 301.579C334.948 303.129 336.9 304 338.936 304H359.926C361.962 304 363.914 303.129 365.355 301.579C366.796 300.029 367.608 297.927 367.612 295.732V273.105C367.608 270.911 366.796 268.808 365.355 267.258C363.914 265.708 361.962 264.837 359.926 264.837Z" fill="white"/>
</g>
<path d="M349.268 268.527C346.411 268.524 343.618 269.434 341.242 271.143C338.866 272.851 337.013 275.281 335.918 278.125C334.824 280.969 334.537 284.099 335.093 287.119C335.649 290.139 337.025 292.914 339.044 295.091C341.064 297.268 343.638 298.75 346.439 299.35C349.241 299.95 352.145 299.641 354.783 298.461C357.421 297.281 359.676 295.284 361.261 292.722C362.845 290.16 363.69 287.15 363.687 284.071C363.678 279.951 362.156 276.003 359.454 273.09C356.752 270.177 353.089 268.537 349.268 268.527ZM346.975 270.268C345.571 271.775 344.433 273.544 343.616 275.49H339.047C341.008 272.749 343.846 270.893 347.007 270.285L346.975 270.268ZM338.062 276.952H343.003C342.289 278.948 341.859 281.048 341.727 283.183V283.548H336.318C336.391 281.234 336.99 278.975 338.062 276.969V276.952ZM338.353 291.659C337.169 289.686 336.464 287.423 336.302 285.08H341.759C341.969 287.352 342.514 289.573 343.374 291.659H338.353ZM339.418 293.191H344.052C344.936 294.991 346.118 296.601 347.54 297.943C344.384 297.497 341.492 295.811 339.418 293.208V293.191ZM348.557 296.864C347.427 295.813 346.462 294.573 345.699 293.191H348.622L348.557 296.864ZM348.557 291.642H344.924C344.001 289.572 343.417 287.347 343.197 285.063H348.622L348.557 291.642ZM348.557 283.531H343.148C343.242 281.26 343.712 279.026 344.537 276.934H348.622L348.557 283.531ZM348.557 275.403H345.199C346.029 273.644 347.17 272.078 348.557 270.79V275.403ZM362.266 283.531H356.84V283.165C356.716 281.03 356.286 278.928 355.565 276.934H360.506C361.599 278.951 362.204 281.231 362.266 283.566V283.531ZM359.488 275.403H354.935C354.107 273.46 352.964 271.692 351.56 270.181C354.717 270.81 357.544 272.684 359.488 275.437V275.403ZM349.978 270.807C351.369 272.085 352.51 273.646 353.337 275.403H349.978V270.807ZM349.978 276.934H353.999C354.826 279.026 355.302 281.26 355.403 283.531H349.978V276.934ZM349.978 285.063H355.339C355.126 287.348 354.541 289.575 353.611 291.642H349.978V285.063ZM349.978 296.846V293.208H352.836C352.082 294.598 351.116 295.839 349.978 296.881V296.846ZM350.995 297.925C352.417 296.584 353.599 294.973 354.483 293.174H359.117C357.051 295.796 354.158 297.501 350.995 297.96V297.925ZM360.183 291.642H355.177C356.037 289.556 356.583 287.334 356.792 285.063H362.249C362.093 287.421 361.381 289.697 360.183 291.677V291.642Z" fill="white"/>
<path d="M413.612 235.596H411.998V216.92C411.998 213.324 410.672 209.875 408.313 207.332C405.955 204.789 402.755 203.361 399.419 203.361H323.32V201.62H399.419C403.182 201.625 406.79 203.238 409.45 206.106C412.111 208.975 413.608 212.863 413.612 216.92V235.596Z" fill="#3ACBCC"/>
<path d="M418.829 222.055H397.838C395.803 222.055 393.85 222.925 392.409 224.475C390.968 226.025 390.157 228.128 390.152 230.322V252.95C390.157 255.144 390.968 257.247 392.409 258.797C393.85 260.347 395.803 261.217 397.838 261.217H418.829C420.864 261.217 422.817 260.347 424.258 258.797C425.699 257.247 426.51 255.144 426.514 252.95V230.375C426.519 229.284 426.323 228.203 425.939 227.193C425.554 226.184 424.989 225.267 424.275 224.494C423.561 223.721 422.712 223.107 421.777 222.689C420.843 222.27 419.841 222.055 418.829 222.055Z" fill="#001F3E"/>
<g opacity="0.4">
<path d="M418.829 222.055H397.838C395.803 222.055 393.85 222.925 392.409 224.475C390.968 226.025 390.157 228.128 390.152 230.322V252.95C390.157 255.144 390.968 257.247 392.409 258.797C393.85 260.347 395.803 261.217 397.838 261.217H418.829C420.864 261.217 422.817 260.347 424.258 258.797C425.699 257.247 426.51 255.144 426.514 252.95V230.375C426.519 229.284 426.323 228.203 425.939 227.193C425.554 226.184 424.989 225.267 424.275 224.494C423.561 223.721 422.712 223.107 421.777 222.689C420.843 222.27 419.841 222.055 418.829 222.055Z" fill="white"/>
</g>
<path opacity="0.9" d="M410.786 230.827C409.602 229.55 408.105 228.663 406.47 228.27C404.835 227.876 403.131 227.993 401.555 228.607C399.98 229.22 398.599 230.305 397.575 231.733C396.551 233.162 395.925 234.875 395.772 236.673C395.618 238.471 395.943 240.279 396.708 241.885C397.473 243.492 398.646 244.83 400.091 245.743C401.536 246.656 403.192 247.107 404.866 247.042C406.54 246.978 408.162 246.4 409.543 245.378C409.608 245.814 409.801 246.216 410.092 246.527L415.565 252.427C415.749 252.625 415.967 252.782 416.206 252.889C416.446 252.996 416.703 253.051 416.962 253.051C417.221 253.051 417.478 252.996 417.718 252.889C417.958 252.782 418.175 252.625 418.359 252.427C418.542 252.229 418.688 251.995 418.787 251.736C418.886 251.478 418.937 251.201 418.937 250.921C418.937 250.642 418.886 250.365 418.787 250.107C418.688 249.848 418.542 249.614 418.359 249.416L412.885 243.515C412.592 243.198 412.213 242.991 411.803 242.924C412.97 241.096 413.507 238.887 413.321 236.677C413.136 234.468 412.239 232.398 410.786 230.827ZM408.913 242.245C408.049 243.179 406.947 243.815 405.747 244.074C404.547 244.332 403.303 244.201 402.172 243.697C401.041 243.193 400.074 242.338 399.394 241.242C398.714 240.145 398.351 238.856 398.351 237.537C398.351 236.217 398.714 234.928 399.394 233.831C400.074 232.735 401.041 231.88 402.172 231.376C403.303 230.872 404.547 230.741 405.747 231C406.947 231.258 408.049 231.895 408.913 232.828C409.488 233.446 409.944 234.18 410.255 234.988C410.566 235.796 410.726 236.662 410.726 237.537C410.726 238.411 410.566 239.278 410.255 240.085C409.944 240.893 409.488 241.627 408.913 242.245Z" fill="white"/>
<path d="M418.912 171.961H321.516V173.702H418.912V171.961Z" fill="#3ACBCC"/>
<path d="M434.314 142.093H413.404C412.395 142.093 411.397 142.308 410.465 142.724C409.534 143.141 408.687 143.751 407.975 144.521C407.263 145.291 406.698 146.204 406.314 147.209C405.929 148.214 405.732 149.291 405.734 150.378V172.936C405.732 174.023 405.929 175.1 406.314 176.105C406.698 177.11 407.263 178.024 407.975 178.793C408.687 179.563 409.534 180.173 410.465 180.59C411.397 181.006 412.395 181.221 413.404 181.221H434.314C436.352 181.221 438.307 180.348 439.749 178.794C441.19 177.241 442 175.133 442 172.936V150.309C441.983 148.123 441.165 146.034 439.726 144.495C438.286 142.957 436.341 142.093 434.314 142.093Z" fill="#001F3E"/>
<g opacity="0.4">
<path d="M434.314 142.093H413.404C412.395 142.093 411.397 142.308 410.465 142.724C409.534 143.141 408.687 143.751 407.975 144.521C407.263 145.291 406.698 146.204 406.314 147.209C405.929 148.214 405.732 149.291 405.734 150.378V172.936C405.732 174.023 405.929 175.1 406.314 176.105C406.698 177.11 407.263 178.024 407.975 178.793C408.687 179.563 409.534 180.173 410.465 180.59C411.397 181.006 412.395 181.221 413.404 181.221H434.314C436.352 181.221 438.307 180.348 439.749 178.794C441.19 177.241 442 175.133 442 172.936V150.309C441.983 148.123 441.165 146.034 439.726 144.495C438.286 142.957 436.341 142.093 434.314 142.093Z" fill="white"/>
</g>
<g opacity="0.5">
<path d="M418.766 172.832C418.766 173.414 418.606 173.982 418.306 174.466C418.006 174.95 417.58 175.327 417.082 175.549C416.583 175.772 416.034 175.83 415.505 175.717C414.976 175.603 414.489 175.323 414.108 174.912C413.726 174.5 413.466 173.976 413.361 173.406C413.256 172.835 413.31 172.244 413.516 171.706C413.723 171.169 414.073 170.709 414.521 170.386C414.97 170.063 415.498 169.89 416.037 169.89C416.396 169.888 416.752 169.962 417.084 170.109C417.416 170.256 417.718 170.473 417.972 170.747C418.226 171.02 418.426 171.345 418.563 171.703C418.699 172.061 418.768 172.445 418.766 172.832Z" fill="white"/>
<path d="M429.356 172.832C429.356 173.414 429.196 173.982 428.896 174.466C428.596 174.95 428.17 175.327 427.671 175.549C427.173 175.772 426.624 175.83 426.095 175.717C425.566 175.603 425.079 175.323 424.698 174.912C424.316 174.5 424.056 173.976 423.951 173.406C423.846 172.835 423.9 172.244 424.106 171.706C424.313 171.169 424.662 170.709 425.111 170.386C425.56 170.063 426.088 169.89 426.627 169.89C426.986 169.888 427.342 169.962 427.674 170.109C428.006 170.256 428.308 170.473 428.562 170.747C428.815 171.02 429.016 171.345 429.153 171.703C429.289 172.061 429.358 172.445 429.356 172.832Z" fill="white"/>
</g>
<path d="M428.906 168.393H413.05C412.894 168.39 412.744 168.335 412.62 168.235C412.495 168.135 412.403 167.996 412.355 167.836L409.029 155.948C408.995 155.831 408.987 155.707 409.007 155.585C409.026 155.464 409.073 155.35 409.142 155.252C409.21 155.155 409.298 155.076 409.399 155.022C409.499 154.967 409.611 154.939 409.723 154.939H432.232C432.347 154.939 432.461 154.967 432.564 155.021C432.668 155.076 432.758 155.155 432.829 155.252C432.895 155.352 432.94 155.466 432.959 155.587C432.979 155.707 432.973 155.831 432.942 155.948L429.6 167.836C429.555 167.997 429.463 168.138 429.338 168.239C429.213 168.339 429.062 168.393 428.906 168.393ZM413.599 166.827H428.373L431.263 156.505H410.692L413.599 166.827Z" fill="white"/>
<path d="M432.232 156.505H432.038C431.945 156.477 431.859 156.43 431.783 156.365C431.708 156.301 431.645 156.221 431.599 156.131C431.552 156.04 431.523 155.94 431.512 155.837C431.502 155.734 431.51 155.63 431.537 155.531L432.813 150.744C432.981 150.117 433.333 149.566 433.816 149.174C434.3 148.782 434.888 148.569 435.493 148.568H438.012C438.205 148.568 438.39 148.651 438.526 148.798C438.662 148.945 438.739 149.144 438.739 149.352C438.739 149.559 438.662 149.759 438.526 149.905C438.39 150.052 438.205 150.135 438.012 150.135H435.493C435.205 150.138 434.925 150.241 434.695 150.429C434.465 150.617 434.298 150.88 434.218 151.179L432.942 155.966C432.891 156.125 432.795 156.262 432.668 156.359C432.54 156.456 432.388 156.507 432.232 156.505Z" fill="white"/>
<path d="M350.238 148.708H318.559V146.967H350.238C353.574 146.967 356.773 145.538 359.132 142.996C361.491 140.453 362.816 137.004 362.816 133.408V114.732H364.431V133.408C364.427 137.464 362.93 141.353 360.269 144.221C357.609 147.09 354.001 148.703 350.238 148.708Z" fill="#3ACBCC"/>
<path d="M374.799 84.916H352.581C348.657 84.916 345.477 88.3448 345.477 92.5745V116.524C345.477 120.754 348.657 124.183 352.581 124.183H374.799C378.723 124.183 381.903 120.754 381.903 116.524V92.5745C381.903 88.3448 378.723 84.916 374.799 84.916Z" fill="#001F3E"/>
<g opacity="0.4">
<path d="M374.799 84.916H352.581C348.657 84.916 345.477 88.3448 345.477 92.5745V116.524C345.477 120.754 348.657 124.183 352.581 124.183H374.799C378.723 124.183 381.903 120.754 381.903 116.524V92.5745C381.903 88.3448 378.723 84.916 374.799 84.916Z" fill="white"/>
</g>
<path d="M377.494 108.657C377.494 109.075 377.493 110.554 377.413 110.972H364.964V104.567H366.659L363.155 100.772L359.635 104.567H361.331V110.972H349.641C349.641 110.763 349.641 109.475 349.641 109.232C349.642 107.557 350.221 105.943 351.266 104.704C352.31 103.466 353.746 102.69 355.292 102.53V102.269C355.278 100.376 355.895 98.5412 357.031 97.0973C358.166 95.6534 359.745 94.6969 361.479 94.4018C363.214 94.1067 364.989 94.4926 366.482 95.4892C367.975 96.4859 369.086 98.0271 369.614 99.8326C370.053 99.8427 370.49 99.8892 370.922 99.9718C372.791 100.353 374.475 101.433 375.677 103.022C376.88 104.611 377.523 106.607 377.494 108.657Z" fill="white"/>
<path d="M277.013 104.115H275.398V139.883H277.013V104.115Z" fill="#3ACBCC"/>
<path d="M286.67 70H265.76C263.722 70 261.767 70.8729 260.325 72.4266C258.884 73.9804 258.074 76.0877 258.074 78.285V100.825C258.074 103.023 258.884 105.13 260.325 106.684C261.767 108.237 263.722 109.11 265.76 109.11H286.67C287.678 109.11 288.677 108.896 289.609 108.479C290.54 108.063 291.386 107.452 292.099 106.683C292.811 105.913 293.376 105 293.76 103.994C294.145 102.989 294.342 101.912 294.34 100.825V78.285C294.342 77.1979 294.145 76.1209 293.76 75.1158C293.376 74.1107 292.811 73.1972 292.099 72.4277C291.386 71.6581 290.54 71.0476 289.609 70.631C288.677 70.2144 287.678 70 286.67 70Z" fill="#001F3E"/>
<g opacity="0.4">
<path d="M286.67 70H265.76C263.722 70 261.767 70.8729 260.325 72.4266C258.884 73.9804 258.074 76.0877 258.074 78.285V100.825C258.074 103.023 258.884 105.13 260.325 106.684C261.767 108.237 263.722 109.11 265.76 109.11H286.67C287.678 109.11 288.677 108.896 289.609 108.479C290.54 108.063 291.386 107.452 292.099 106.683C292.811 105.913 293.376 105 293.76 103.994C294.145 102.989 294.342 101.912 294.34 100.825V78.285C294.342 77.1979 294.145 76.1209 293.76 75.1158C293.376 74.1107 292.811 73.1972 292.099 72.4277C291.386 71.6581 290.54 71.0476 289.609 70.631C288.677 70.2144 287.678 70 286.67 70Z" fill="white"/>
</g>
<path d="M279.566 92.1224C279.566 91.8613 279.566 91.6002 279.566 91.3565L281.035 90.7299C281.023 90.0082 280.936 89.2902 280.777 88.589L279.162 88.3976C279.025 87.911 278.847 87.439 278.629 86.9877L279.614 85.6475C279.263 85.0268 278.858 84.444 278.403 83.9069L276.95 84.5858C276.598 84.2386 276.22 83.9241 275.82 83.6459L276.046 81.9053C275.465 81.5499 274.847 81.2695 274.205 81.0698L273.268 82.4449L272.736 82.4275H272.041L271.444 80.8262C270.78 80.8492 270.121 80.9424 269.474 81.1047L269.296 82.8452C268.838 82.9956 268.395 83.1938 267.972 83.437L266.729 82.3579C266.149 82.7367 265.608 83.1801 265.114 83.6807L265.744 85.2472C265.428 85.6273 265.142 86.0348 264.888 86.4656L263.274 86.2045C262.962 86.8378 262.707 87.5023 262.515 88.1887L263.79 89.2156C263.79 89.4593 263.694 89.703 263.661 89.9641C263.645 90.2191 263.645 90.4749 263.661 90.7299L262.176 91.3565C262.188 92.0783 262.275 92.7963 262.434 93.4974L264.049 93.6889C264.193 94.1728 264.371 94.6441 264.582 95.0987L263.597 96.4389C263.948 97.0596 264.353 97.6425 264.808 98.1795L266.277 97.5007C266.62 97.8517 266.993 98.1665 267.391 98.4406L267.165 100.181C267.748 100.528 268.366 100.802 269.006 100.999L269.942 99.6241L270.653 99.7634H271.363L271.944 101.347C272.609 101.334 273.269 101.241 273.914 101.069L274.092 99.3283C274.55 99.1779 274.994 98.9797 275.416 98.7365L276.659 99.7982C277.242 99.4317 277.784 98.9936 278.274 98.4928L277.644 96.9263C277.961 96.5472 278.247 96.1395 278.5 95.7079L280.115 95.969C280.427 95.3357 280.681 94.6711 280.874 93.9848L279.598 92.9578C279.485 92.6271 279.533 92.366 279.566 92.1224ZM271.121 94.3677C270.481 94.2905 269.877 94.0089 269.387 93.559C268.896 93.1091 268.542 92.5115 268.369 91.8428C268.196 91.1742 268.213 90.4651 268.416 89.8066C268.62 89.1481 269.002 88.5704 269.513 88.1475C270.023 87.7247 270.64 87.476 271.282 87.4335C271.925 87.3911 272.565 87.5567 273.12 87.9091C273.674 88.2616 274.119 88.7847 274.395 89.4114C274.672 90.0381 274.769 90.7397 274.673 91.4261C274.549 92.3165 274.11 93.1203 273.447 93.6687C272.785 94.2172 271.951 94.4677 271.121 94.3677Z" fill="#001F3E"/>
<path d="M279.566 92.1224C279.566 91.8613 279.566 91.6002 279.566 91.3565L281.035 90.7299C281.023 90.0082 280.936 89.2902 280.777 88.589L279.162 88.3976C279.025 87.911 278.847 87.439 278.629 86.9877L279.614 85.6475C279.263 85.0268 278.858 84.444 278.403 83.9069L276.95 84.5858C276.598 84.2386 276.22 83.9241 275.82 83.6459L276.046 81.9053C275.465 81.5499 274.847 81.2695 274.205 81.0698L273.268 82.4449L272.736 82.4275H272.041L271.444 80.8262C270.78 80.8492 270.121 80.9424 269.474 81.1047L269.296 82.8452C268.838 82.9956 268.395 83.1938 267.972 83.437L266.729 82.3579C266.149 82.7367 265.608 83.1801 265.114 83.6807L265.744 85.2472C265.428 85.6273 265.142 86.0348 264.888 86.4656L263.274 86.2045C262.962 86.8378 262.707 87.5023 262.515 88.1887L263.79 89.2156C263.79 89.4593 263.694 89.703 263.661 89.9641C263.645 90.2191 263.645 90.4749 263.661 90.7299L262.176 91.3565C262.188 92.0783 262.275 92.7963 262.434 93.4974L264.049 93.6889C264.193 94.1728 264.371 94.6441 264.582 95.0987L263.597 96.4389C263.948 97.0596 264.353 97.6425 264.808 98.1795L266.277 97.5007C266.62 97.8517 266.993 98.1665 267.391 98.4406L267.165 100.181C267.748 100.528 268.366 100.802 269.006 100.999L269.942 99.6241L270.653 99.7634H271.363L271.944 101.347C272.609 101.334 273.269 101.241 273.914 101.069L274.092 99.3283C274.55 99.1779 274.994 98.9797 275.416 98.7365L276.659 99.7982C277.242 99.4317 277.784 98.9936 278.274 98.4928L277.644 96.9263C277.961 96.5472 278.247 96.1395 278.5 95.7079L280.115 95.969C280.427 95.3357 280.681 94.6711 280.874 93.9848L279.598 92.9578C279.485 92.6271 279.533 92.366 279.566 92.1224ZM271.121 94.3677C270.481 94.2905 269.877 94.0089 269.387 93.559C268.896 93.1091 268.542 92.5115 268.369 91.8428C268.196 91.1742 268.213 90.4651 268.416 89.8066C268.62 89.1481 269.002 88.5704 269.513 88.1475C270.023 87.7247 270.64 87.476 271.282 87.4335C271.925 87.3911 272.565 87.5567 273.12 87.9091C273.674 88.2616 274.119 88.7847 274.395 89.4114C274.672 90.0381 274.769 90.7397 274.673 91.4261C274.549 92.3165 274.11 93.1203 273.447 93.6687C272.785 94.2172 271.951 94.4677 271.121 94.3677Z" fill="white"/>
<g opacity="0.5">
<path d="M286.185 86.8138C285.26 86.817 284.361 86.4842 283.632 85.8689C282.904 85.2536 282.389 84.3917 282.171 83.4224C281.953 82.453 282.044 81.4326 282.429 80.5259C282.815 79.6191 283.473 78.8788 284.296 78.4243V81.2266C284.302 81.7694 284.505 82.2881 284.861 82.6713C285.213 83.05 285.689 83.2628 286.185 83.2631C286.686 83.2631 287.167 83.0485 287.521 82.6666C287.876 82.2847 288.075 81.7667 288.075 81.2266V78.4243C288.898 78.8788 289.556 79.6191 289.942 80.5259C290.327 81.4326 290.418 82.453 290.2 83.4224C289.982 84.3917 289.467 85.2536 288.739 85.8689C288.01 86.4842 287.111 86.817 286.185 86.8138Z" fill="white"/>
<path d="M284.309 97.9011V85.5779C284.307 85.3113 284.353 85.0469 284.447 84.8C284.54 84.553 284.677 84.3283 284.851 84.139C285.026 83.9497 285.233 83.7994 285.461 83.6968C285.689 83.5943 285.934 83.5415 286.182 83.5415C286.429 83.5415 286.674 83.5943 286.902 83.6968C287.13 83.7994 287.338 83.9497 287.512 84.139C287.686 84.3283 287.824 84.553 287.917 84.8C288.01 85.0469 288.057 85.3113 288.055 85.5779V97.9011C288.055 98.1662 288.006 98.4288 287.912 98.6737C287.818 98.9187 287.68 99.1413 287.506 99.3288C287.332 99.5162 287.126 99.665 286.898 99.7664C286.671 99.8679 286.428 99.9201 286.182 99.9201C285.936 99.9201 285.692 99.8679 285.465 99.7664C285.238 99.665 285.031 99.5162 284.857 99.3288C284.683 99.1413 284.545 98.9187 284.451 98.6737C284.357 98.4288 284.309 98.1662 284.309 97.9011Z" fill="white"/>
</g>
<path d="M206.197 264.472H204.582V245.796C204.586 241.735 206.085 237.842 208.748 234.97C211.412 232.099 215.024 230.484 218.791 230.479H250.664C254.003 230.475 257.204 229.043 259.565 226.498C261.926 223.953 263.255 220.502 263.259 216.903V202.526H264.873V216.938C264.869 220.999 263.371 224.892 260.707 227.763C258.043 230.635 254.432 232.25 250.664 232.255H218.791C215.452 232.259 212.251 233.691 209.89 236.236C207.529 238.781 206.201 242.232 206.197 245.831V264.472Z" fill="#3ACBCC"/>
<path d="M215.044 262.279H194.053C192.015 262.279 190.06 263.152 188.618 264.705C187.177 266.259 186.367 268.367 186.367 270.564V293.034C186.367 294.122 186.566 295.198 186.953 296.202C187.339 297.207 187.905 298.119 188.619 298.887C189.333 299.655 190.181 300.263 191.113 300.678C192.045 301.092 193.044 301.304 194.053 301.302H215.044C217.072 301.293 219.015 300.418 220.446 298.868C221.877 297.319 222.681 295.221 222.681 293.034V270.564C222.681 268.376 221.878 266.276 220.447 264.724C219.016 263.172 217.074 262.293 215.044 262.279Z" fill="#001F3E"/>
<g opacity="0.4">
<path d="M215.044 262.279H194.053C192.015 262.279 190.06 263.152 188.618 264.705C187.177 266.259 186.367 268.367 186.367 270.564V293.034C186.367 294.122 186.566 295.198 186.953 296.202C187.339 297.207 187.905 298.119 188.619 298.887C189.333 299.655 190.181 300.263 191.113 300.678C192.045 301.092 193.044 301.304 194.053 301.302H215.044C217.072 301.293 219.015 300.418 220.446 298.868C221.877 297.319 222.681 295.221 222.681 293.034V270.564C222.681 268.376 221.878 266.276 220.447 264.724C219.016 263.172 217.074 262.293 215.044 262.279Z" fill="white"/>
</g>
<path d="M217.593 291.19C217.593 291.689 217.455 292.177 217.198 292.592C216.941 293.007 216.575 293.33 216.147 293.522C215.72 293.713 215.249 293.762 214.795 293.665C214.341 293.568 213.923 293.327 213.596 292.974C213.268 292.621 213.045 292.172 212.955 291.682C212.865 291.193 212.911 290.685 213.088 290.224C213.266 289.763 213.566 289.369 213.951 289.091C214.336 288.814 214.788 288.666 215.251 288.666C215.872 288.666 216.468 288.932 216.907 289.405C217.346 289.879 217.593 290.52 217.593 291.19Z" fill="white"/>
<path d="M207.225 291.19C207.225 291.689 207.088 292.177 206.831 292.592C206.574 293.007 206.208 293.33 205.78 293.522C205.352 293.713 204.882 293.762 204.427 293.665C203.973 293.568 203.556 293.327 203.229 292.974C202.901 292.621 202.678 292.172 202.588 291.682C202.498 291.193 202.544 290.685 202.721 290.224C202.898 289.763 203.198 289.369 203.583 289.091C203.969 288.814 204.421 288.666 204.884 288.666C205.505 288.666 206.101 288.932 206.54 289.405C206.979 289.879 207.225 290.52 207.225 291.19Z" fill="white"/>
<path d="M196.844 291.189C196.847 291.693 196.711 292.186 196.454 292.606C196.197 293.026 195.83 293.355 195.4 293.55C194.969 293.745 194.495 293.797 194.036 293.701C193.578 293.605 193.156 293.365 192.825 293.01C192.494 292.655 192.268 292.202 192.175 291.709C192.083 291.216 192.129 290.704 192.307 290.238C192.485 289.773 192.787 289.375 193.175 289.095C193.563 288.815 194.019 288.666 194.486 288.666C194.795 288.663 195.101 288.727 195.387 288.853C195.673 288.978 195.933 289.164 196.152 289.399C196.371 289.633 196.545 289.912 196.664 290.22C196.783 290.527 196.844 290.856 196.844 291.189Z" fill="white"/>
<path d="M215.785 296.237H193.874C192.666 296.237 191.508 295.72 190.654 294.799C189.8 293.879 189.32 292.63 189.32 291.328V291.05C189.32 289.748 189.8 288.5 190.654 287.579C191.508 286.659 192.666 286.142 193.874 286.142H215.785C216.992 286.142 218.15 286.659 219.004 287.579C219.858 288.5 220.338 289.748 220.338 291.05V291.294C220.342 291.941 220.228 292.583 220.001 293.183C219.774 293.782 219.439 294.327 219.016 294.787C218.593 295.246 218.089 295.611 217.535 295.86C216.98 296.109 216.385 296.237 215.785 296.237ZM193.874 287.708C193.051 287.708 192.263 288.06 191.682 288.687C191.1 289.314 190.774 290.164 190.774 291.05V291.294C190.774 292.18 191.1 293.03 191.682 293.657C192.263 294.283 193.051 294.636 193.874 294.636H215.785C216.607 294.636 217.395 294.283 217.977 293.657C218.558 293.03 218.885 292.18 218.885 291.294V291.015C218.885 290.129 218.558 289.279 217.977 288.652C217.395 288.025 216.607 287.673 215.785 287.673L193.874 287.708Z" fill="white"/>
<path d="M215.575 287.656C215.189 287.656 214.82 287.491 214.547 287.197C214.275 286.903 214.122 286.505 214.122 286.089V281.129L204.918 270.773L199.638 272.635C199.275 272.752 198.884 272.711 198.549 272.522C198.213 272.332 197.96 272.009 197.842 271.621C197.724 271.233 197.751 270.811 197.918 270.445C198.084 270.078 198.377 269.796 198.734 269.659L204.87 267.483C205.129 267.388 205.409 267.376 205.675 267.447C205.941 267.518 206.182 267.669 206.371 267.883L216.689 279.406C216.947 279.696 217.091 280.083 217.093 280.485V286.072C217.095 286.285 217.057 286.497 216.981 286.693C216.905 286.89 216.792 287.068 216.65 287.216C216.508 287.365 216.339 287.48 216.155 287.556C215.97 287.631 215.772 287.665 215.575 287.656Z" fill="white"/>
<path d="M198.715 275.838C198.522 275.838 198.337 275.755 198.201 275.609C198.065 275.462 197.988 275.262 197.988 275.055V271.156C197.988 270.948 198.065 270.749 198.201 270.602C198.337 270.455 198.522 270.373 198.715 270.373C198.908 270.373 199.092 270.455 199.229 270.602C199.365 270.749 199.441 270.948 199.441 271.156V275.055C199.441 275.262 199.365 275.462 199.229 275.609C199.092 275.755 198.908 275.838 198.715 275.838Z" fill="white"/>
<path d="M197.585 278.779C197.49 278.781 197.394 278.762 197.306 278.723C197.217 278.684 197.136 278.626 197.069 278.553C196.639 278.091 196.396 277.466 196.391 276.812C196.439 276.182 196.706 275.593 197.138 275.165C197.571 274.736 198.136 274.498 198.724 274.498C199.311 274.498 199.877 274.736 200.309 275.165C200.741 275.593 201.008 276.182 201.057 276.812C201.061 277.455 200.842 278.076 200.443 278.553C200.379 278.63 200.301 278.692 200.214 278.736C200.127 278.78 200.033 278.805 199.937 278.81C199.743 278.82 199.553 278.746 199.41 278.605C199.267 278.464 199.181 278.268 199.172 278.059C199.163 277.85 199.231 277.646 199.362 277.491C199.44 277.407 199.502 277.307 199.544 277.196C199.585 277.085 199.606 276.967 199.604 276.847C199.6 276.596 199.504 276.357 199.338 276.182C199.172 276.006 198.948 275.907 198.716 275.907C198.484 275.907 198.263 276.006 198.099 276.183C197.936 276.359 197.844 276.598 197.844 276.847C197.846 277.101 197.939 277.344 198.102 277.526C198.235 277.672 198.31 277.869 198.31 278.074C198.31 278.279 198.235 278.476 198.102 278.623C197.956 278.746 197.77 278.802 197.585 278.779Z" fill="white"/>
<path d="M205.807 269.05C205.81 269.174 205.779 269.297 205.717 269.402C205.655 269.508 205.565 269.591 205.459 269.641C205.354 269.691 205.236 269.706 205.122 269.684C205.009 269.661 204.904 269.603 204.821 269.516C204.738 269.429 204.681 269.318 204.657 269.196C204.633 269.074 204.644 268.947 204.687 268.831C204.731 268.716 204.805 268.617 204.901 268.547C204.997 268.478 205.11 268.44 205.226 268.44C205.377 268.44 205.522 268.504 205.631 268.618C205.74 268.732 205.803 268.886 205.807 269.05Z" fill="#001F3E"/>
<path d="M216.041 280.572C216.041 280.696 216.007 280.817 215.944 280.92C215.88 281.023 215.789 281.103 215.683 281.151C215.576 281.198 215.46 281.211 215.347 281.186C215.234 281.162 215.13 281.103 215.049 281.015C214.968 280.927 214.913 280.816 214.89 280.694C214.868 280.573 214.879 280.447 214.923 280.332C214.967 280.218 215.042 280.12 215.137 280.051C215.233 279.982 215.345 279.945 215.46 279.945C215.537 279.945 215.612 279.962 215.683 279.993C215.753 280.025 215.817 280.071 215.871 280.129C215.925 280.187 215.968 280.256 215.997 280.332C216.026 280.408 216.041 280.49 216.041 280.572Z" fill="#001F3E"/>
<path opacity="0.4" d="M200.928 280.52H196.52V285.272H200.928V280.52Z" fill="white"/>
<path d="M219.453 148.708H187.725C183.959 148.708 180.347 147.096 177.683 144.227C175.019 141.359 173.52 137.467 173.516 133.408V114.732H175.13V133.408C175.135 137.006 176.463 140.454 178.825 142.997C181.186 145.539 184.387 146.967 187.725 146.967H219.453V148.708Z" fill="#3ACBCC"/>
<path d="M187.806 83.1235H166.912C162.668 83.1235 159.227 86.8329 159.227 91.4086V113.931C159.227 118.507 162.668 122.216 166.912 122.216H187.806C192.051 122.216 195.492 118.507 195.492 113.931V91.4086C195.492 86.8329 192.051 83.1235 187.806 83.1235Z" fill="#001F3E"/>
<path opacity="0.4" d="M187.806 83.1235H166.912C162.668 83.1235 159.227 86.8329 159.227 91.4086V113.931C159.227 118.507 162.668 122.216 166.912 122.216H187.806C192.051 122.216 195.492 118.507 195.492 113.931V91.4086C195.492 86.8329 192.051 83.1235 187.806 83.1235Z" fill="white"/>
<path d="M177.356 91.1299C180.585 91.1299 182.2 93.88 182.2 97.2914C182.2 100.703 180.504 103.453 177.356 103.453C174.207 103.453 172.512 100.686 172.512 97.2914C172.512 93.8974 174.239 91.1299 177.356 91.1299Z" fill="white"/>
<path d="M189.985 114.227H164.732C164.532 114.223 164.341 114.136 164.199 113.984L165.814 109.215C166.323 107.718 167.247 106.426 168.46 105.514C169.673 104.602 171.117 104.113 172.595 104.115H182.122C183.601 104.111 185.046 104.598 186.259 105.511C187.473 106.423 188.396 107.717 188.904 109.215L190.518 113.984C190.376 114.136 190.185 114.223 189.985 114.227Z" fill="white"/>
<path d="M146.111 235.596H144.496V216.92C144.5 212.86 145.999 208.969 148.664 206.1C151.328 203.231 154.939 201.62 158.705 201.62H234.788V203.361H158.705C155.368 203.361 152.167 204.789 149.805 207.331C147.444 209.873 146.115 213.322 146.111 216.92V235.596Z" fill="#3ACBCC"/>
<path d="M156.38 221.793H135.487C131.242 221.793 127.801 225.503 127.801 230.078V252.601C127.801 257.177 131.242 260.886 135.487 260.886H156.38C160.625 260.886 164.066 257.177 164.066 252.601V230.078C164.066 225.503 160.625 221.793 156.38 221.793Z" fill="#001F3E"/>
<path opacity="0.4" d="M156.38 221.793H135.487C131.242 221.793 127.801 225.503 127.801 230.078V252.601C127.801 257.177 131.242 260.886 135.487 260.886H156.38C160.625 260.886 164.066 257.177 164.066 252.601V230.078C164.066 225.503 160.625 221.793 156.38 221.793Z" fill="white"/>
<path opacity="0.6" d="M138.474 244.908H133.969V254.254H138.474V244.908Z" fill="white"/>
<path opacity="0.6" d="M151.247 241.757H146.742V254.255H151.247V241.757Z" fill="white"/>
<path d="M144.626 238.607H140.121V254.255H144.626V238.607Z" fill="white"/>
<path d="M157.657 235.457H153.152V254.255H157.657V235.457Z" fill="white"/>
<path d="M240.877 171.962H143.48V173.702H240.877V171.962Z" fill="#3ACBCC"/>
<path d="M146.596 141.606H125.686C123.647 141.606 121.692 142.479 120.251 144.033C118.81 145.587 118 147.694 118 149.891V172.432C118 174.629 118.81 176.736 120.251 178.29C121.692 179.844 123.647 180.717 125.686 180.717H146.596C147.604 180.717 148.603 180.502 149.534 180.086C150.466 179.669 151.312 179.059 152.025 178.289C152.737 177.519 153.302 176.606 153.686 175.601C154.071 174.596 154.267 173.519 154.265 172.432V149.944C154.274 148.852 154.082 147.77 153.7 146.758C153.318 145.747 152.755 144.828 152.042 144.053C151.329 143.277 150.48 142.662 149.546 142.242C148.611 141.823 147.608 141.606 146.596 141.606Z" fill="#001F3E"/>
<g opacity="0.4">
<path d="M146.596 141.606H125.686C123.647 141.606 121.692 142.479 120.251 144.033C118.81 145.587 118 147.694 118 149.891V172.432C118 174.629 118.81 176.736 120.251 178.29C121.692 179.844 123.647 180.717 125.686 180.717H146.596C147.604 180.717 148.603 180.502 149.534 180.086C150.466 179.669 151.312 179.059 152.025 178.289C152.737 177.519 153.302 176.606 153.686 175.601C154.071 174.596 154.267 173.519 154.265 172.432V149.944C154.274 148.852 154.082 147.77 153.7 146.758C153.318 145.747 152.755 144.828 152.042 144.053C151.329 143.277 150.48 142.662 149.546 142.242C148.611 141.823 147.608 141.606 146.596 141.606Z" fill="white"/>
</g>
<path d="M136.941 146.828V150.448C139.041 150.634 141.034 151.522 142.641 152.99L145.015 150.431C142.774 148.289 139.931 147.02 136.941 146.828Z" fill="#001F3E"/>
<path opacity="0.6" d="M136.941 146.828V150.448C139.041 150.634 141.034 151.522 142.641 152.99L145.015 150.431C142.774 148.289 139.931 147.02 136.941 146.828Z" fill="white"/>
<path d="M135.312 172.014C132.934 171.811 130.701 170.7 129.014 168.882C127.327 167.063 126.297 164.656 126.108 162.093H122.75C122.949 165.614 124.336 168.935 126.65 171.43C128.965 173.924 132.045 175.42 135.312 175.634V172.014Z" fill="#001F3E"/>
<path opacity="0.8" d="M135.312 172.014C132.934 171.811 130.701 170.7 129.014 168.882C127.327 167.063 126.297 164.656 126.108 162.093H122.75C122.949 165.614 124.336 168.935 126.65 171.43C128.965 173.924 132.045 175.42 135.312 175.634V172.014Z" fill="white"/>
<path d="M126.108 160.335C126.3 157.773 127.331 155.367 129.018 153.55C130.704 151.732 132.935 150.62 135.312 150.414V146.828C132.045 147.043 128.965 148.538 126.65 151.033C124.336 153.527 122.949 156.848 122.75 160.37L126.108 160.335Z" fill="#001F3E"/>
<path opacity="0.7" d="M126.108 160.335C126.3 157.773 127.331 155.367 129.018 153.55C130.704 151.732 132.935 150.62 135.312 150.414V146.828C132.045 147.043 128.965 148.538 126.65 151.033C124.336 153.527 122.949 156.848 122.75 160.37L126.108 160.335Z" fill="white"/>
<path d="M146.161 151.632L143.788 154.19C144.984 155.711 145.769 157.557 146.055 159.527C146.342 161.496 146.119 163.513 145.412 165.355C144.704 167.197 143.539 168.793 142.045 169.968C140.551 171.143 138.785 171.85 136.941 172.014V175.634C139.45 175.47 141.865 174.55 143.911 172.977C145.958 171.405 147.552 169.244 148.514 166.741C149.475 164.238 149.764 161.494 149.348 158.822C148.932 156.151 147.828 153.659 146.161 151.632Z" fill="white"/>
<path d="M221.823 140.092L226.36 139.883L232.738 215.789H227.894C225.489 215.545 224.923 212.621 224.261 207.086L219.805 154.086C218.772 141.606 220.758 140.092 221.823 140.092Z" fill="#001F3E"/>
<path opacity="0.3" d="M221.823 140.092L226.36 139.883L232.738 215.789H227.894C225.489 215.545 224.923 212.621 224.261 207.086L219.805 154.086C218.772 141.606 220.758 140.092 221.823 140.092Z" fill="#3ACBCC"/>
<path d="M229.136 215.789H324.578C324.841 215.77 325.098 215.69 325.33 215.556C325.562 215.421 325.765 215.235 325.926 215.009C326.086 214.784 326.2 214.524 326.26 214.247C326.32 213.971 326.325 213.683 326.274 213.404L320.316 142.25C320.287 141.647 320.057 141.076 319.668 140.641C319.28 140.206 318.758 139.937 318.2 139.883H222.677C222.414 139.901 222.158 139.978 221.925 140.11C221.692 140.243 221.488 140.427 221.326 140.651C221.164 140.875 221.048 141.133 220.986 141.409C220.924 141.685 220.917 141.971 220.965 142.25L226.94 213.404C226.963 214.026 227.202 214.615 227.608 215.056C228.015 215.498 228.559 215.759 229.136 215.789Z" fill="#001F3E"/>
<path d="M232.722 206.79H319.397L314.585 147.559H227.91L232.722 206.79Z" fill="#001F3E"/>
<path d="M233.979 211.437H319.379C319.941 211.448 320.499 211.33 321.016 211.09C321.532 210.85 321.996 210.494 322.374 210.046C322.753 209.598 323.039 209.068 323.213 208.492C323.387 207.915 323.445 207.305 323.383 206.703L318.62 147.837C318.503 146.542 317.942 145.34 317.045 144.467C316.149 143.594 314.983 143.114 313.776 143.12H228.376C227.815 143.107 227.257 143.223 226.74 143.46C226.224 143.698 225.76 144.052 225.381 144.499C225.002 144.946 224.716 145.475 224.541 146.05C224.367 146.626 224.31 147.235 224.372 147.837L229.135 206.703C229.248 208.001 229.808 209.208 230.704 210.084C231.601 210.96 232.769 211.443 233.979 211.437Z" fill="#263238"/>
<path d="M232.722 206.79H319.397L314.585 147.559H227.91L232.722 206.79Z" fill="#001F3E"/>
<path opacity="0.4" d="M232.722 206.79H319.397L314.585 147.559H227.91L232.722 206.79Z" fill="white"/>
<path opacity="0.1" d="M257.652 143.138L240.73 211.403H246.43L263.174 143.138H257.652Z" fill="white"/>
<path opacity="0.1" d="M266.453 143.138L249.516 211.403H260.818L277.562 143.138H266.453Z" fill="white"/>
<path d="M227.91 147.559L228.346 152.867H315.021L314.585 147.559H227.91Z" fill="#001F3E"/>
<path d="M231.898 149.926C231.911 150.062 231.898 150.199 231.859 150.329C231.819 150.458 231.755 150.577 231.669 150.678C231.583 150.779 231.479 150.858 231.362 150.912C231.246 150.965 231.12 150.991 230.993 150.988C230.723 150.985 230.464 150.875 230.264 150.679C230.065 150.483 229.939 150.215 229.911 149.926C229.898 149.789 229.911 149.651 229.95 149.521C229.99 149.39 230.054 149.27 230.139 149.168C230.225 149.066 230.329 148.985 230.446 148.929C230.562 148.874 230.688 148.846 230.816 148.847C231.087 148.854 231.347 148.967 231.546 149.166C231.745 149.365 231.87 149.635 231.898 149.926Z" fill="white"/>
<path d="M234.515 149.926C234.529 150.062 234.515 150.199 234.476 150.329C234.436 150.458 234.372 150.577 234.286 150.678C234.2 150.779 234.096 150.858 233.979 150.912C233.863 150.965 233.737 150.991 233.61 150.988C233.341 150.985 233.081 150.875 232.882 150.679C232.682 150.483 232.556 150.215 232.529 149.926C232.515 149.789 232.528 149.651 232.568 149.521C232.607 149.39 232.671 149.27 232.757 149.168C232.842 149.066 232.946 148.985 233.063 148.929C233.179 148.874 233.306 148.846 233.433 148.847C233.704 148.854 233.964 148.967 234.163 149.166C234.362 149.365 234.487 149.635 234.515 149.926Z" fill="white"/>
<path d="M237.21 149.926C237.224 150.062 237.211 150.199 237.171 150.329C237.132 150.458 237.067 150.577 236.981 150.678C236.896 150.779 236.791 150.858 236.675 150.912C236.558 150.965 236.432 150.991 236.306 150.988C236.036 150.985 235.776 150.875 235.577 150.679C235.377 150.483 235.252 150.215 235.224 149.926C235.21 149.789 235.224 149.651 235.263 149.521C235.302 149.39 235.367 149.27 235.452 149.168C235.537 149.066 235.642 148.985 235.758 148.929C235.875 148.874 236.001 148.846 236.128 148.847C236.399 148.854 236.659 148.967 236.858 149.166C237.057 149.365 237.183 149.635 237.21 149.926Z" fill="white"/>
<path d="M327.502 215.998H230.219C229.078 215.998 228.152 216.995 228.152 218.225V219.566C228.152 220.796 229.078 221.794 230.219 221.794H327.502C328.644 221.794 329.569 220.796 329.569 219.566V218.225C329.569 216.995 328.644 215.998 327.502 215.998Z" fill="#001F3E"/>
<path d="M266.746 215.998H367.323V217.32C367.323 218.507 366.886 219.645 366.108 220.483C365.33 221.322 364.274 221.794 363.174 221.794H270.896C269.795 221.794 268.74 221.322 267.962 220.483C267.183 219.645 266.746 218.507 266.746 217.32V215.998Z" fill="#001F3E"/>
<path opacity="0.3" d="M266.746 215.998H367.323V217.32C367.323 218.507 366.886 219.645 366.108 220.483C365.33 221.322 364.274 221.794 363.174 221.794H270.896C269.795 221.794 268.74 221.322 267.962 220.483C267.183 219.645 266.746 218.507 266.746 217.32V215.998Z" fill="white"/>
<path opacity="0.3" d="M308.84 216.154C308.844 216.922 309.13 217.657 309.635 218.198C310.141 218.74 310.824 219.044 311.536 219.044H323.84C324.551 219.044 325.233 218.739 325.735 218.197C326.238 217.656 326.52 216.921 326.52 216.154H308.84Z" fill="#3ACBCC"/>
<path d="M264.886 169.316C264.838 168.972 264.731 168.66 264.565 168.379C264.399 168.086 264.192 167.831 263.942 167.614C263.693 167.397 263.409 167.231 263.088 167.116C262.78 166.989 262.454 166.925 262.11 166.925C261.481 166.925 260.947 167.059 260.508 167.327C260.069 167.582 259.714 167.933 259.441 168.379C259.168 168.813 258.966 169.31 258.836 169.871C258.717 170.432 258.658 171.013 258.658 171.612C258.658 172.186 258.717 172.747 258.836 173.296C258.966 173.831 259.168 174.316 259.441 174.75C259.714 175.183 260.069 175.534 260.508 175.802C260.947 176.057 261.481 176.184 262.11 176.184C262.964 176.184 263.628 175.904 264.103 175.343C264.589 174.781 264.886 174.042 264.992 173.123H267.697C267.626 173.978 267.442 174.75 267.145 175.438C266.849 176.127 266.457 176.714 265.971 177.198C265.485 177.683 264.915 178.053 264.263 178.308C263.61 178.563 262.893 178.69 262.11 178.69C261.137 178.69 260.259 178.512 259.476 178.155C258.705 177.785 258.053 177.281 257.519 176.643C256.985 176.006 256.576 175.26 256.291 174.405C256.007 173.538 255.864 172.607 255.864 171.612C255.864 170.592 256.007 169.648 256.291 168.781C256.576 167.901 256.985 167.136 257.519 166.485C258.053 165.835 258.705 165.325 259.476 164.955C260.259 164.585 261.137 164.4 262.11 164.4C262.81 164.4 263.468 164.508 264.085 164.725C264.714 164.942 265.271 165.261 265.757 165.682C266.256 166.09 266.665 166.6 266.985 167.212C267.305 167.824 267.507 168.526 267.59 169.316H264.886Z" fill="white"/>
<path d="M272.398 170.904H275.459C276.099 170.904 276.58 170.751 276.9 170.445C277.22 170.139 277.38 169.642 277.38 168.953C277.38 168.29 277.22 167.812 276.9 167.518C276.58 167.212 276.099 167.059 275.459 167.059H272.398V170.904ZM269.605 164.725H276.455C277.024 164.725 277.535 164.827 277.985 165.031C278.448 165.223 278.839 165.49 279.16 165.835C279.492 166.179 279.741 166.581 279.907 167.04C280.085 167.486 280.174 167.971 280.174 168.494C280.174 169.297 280.014 169.992 279.693 170.579C279.385 171.166 278.875 171.612 278.163 171.918V171.956C278.507 172.058 278.792 172.218 279.017 172.435C279.243 172.639 279.427 172.887 279.569 173.181C279.711 173.461 279.812 173.774 279.871 174.118C279.943 174.463 279.99 174.807 280.014 175.151C280.026 175.368 280.037 175.623 280.049 175.916C280.061 176.21 280.079 176.51 280.103 176.816C280.138 177.122 280.186 177.415 280.245 177.696C280.316 177.963 280.417 178.193 280.548 178.384H277.754C277.6 177.951 277.505 177.434 277.469 176.835C277.434 176.235 277.38 175.661 277.309 175.113C277.214 174.399 277.013 173.876 276.704 173.544C276.396 173.213 275.892 173.047 275.192 173.047H272.398V178.384H269.605V164.725Z" fill="white"/>
<path d="M282.446 164.725H286.378L289.35 174.118H289.385L292.197 164.725H296.129V178.384H293.513V168.704H293.478L290.364 178.384H288.211L285.097 168.8H285.061V178.384H282.446V164.725Z" fill="white"/>
<path d="M241.727 183.967H243.356V191.935H241.727V183.967Z" fill="white"/>
<path d="M244.788 183.967H246.407L249.5 189.313H249.521V183.967H251.047V191.935H249.417L246.334 186.601H246.314V191.935H244.788V183.967Z" fill="white"/>
<path d="M254.121 185.44H251.9V183.967H257.972V185.44H255.751V191.935H254.121V185.44Z" fill="white"/>
<path d="M258.826 183.967H264.369V185.44H260.456V187.148H264.047V188.509H260.456V190.462H264.452V191.935H258.826V183.967Z" fill="white"/>
<path d="M270.913 191.031C270.622 191.433 270.3 191.716 269.947 191.879C269.595 192.036 269.238 192.114 268.878 192.114C268.311 192.114 267.799 192.009 267.342 191.801C266.892 191.585 266.512 191.292 266.2 190.92C265.889 190.548 265.65 190.112 265.484 189.614C265.318 189.108 265.235 188.565 265.235 187.985C265.235 187.389 265.318 186.839 265.484 186.333C265.65 185.82 265.889 185.373 266.2 184.994C266.512 184.614 266.892 184.317 267.342 184.101C267.799 183.885 268.311 183.778 268.878 183.778C269.259 183.778 269.626 183.841 269.979 183.967C270.338 184.086 270.66 184.265 270.944 184.503C271.234 184.741 271.473 185.035 271.66 185.384C271.847 185.734 271.961 186.136 272.003 186.59H270.446C270.349 186.143 270.162 185.809 269.885 185.585C269.608 185.362 269.273 185.251 268.878 185.251C268.512 185.251 268.2 185.329 267.944 185.485C267.688 185.634 267.481 185.838 267.321 186.099C267.162 186.352 267.045 186.642 266.969 186.969C266.899 187.296 266.865 187.635 266.865 187.985C266.865 188.319 266.899 188.647 266.969 188.967C267.045 189.279 267.162 189.562 267.321 189.815C267.481 190.068 267.688 190.272 267.944 190.429C268.2 190.577 268.512 190.652 268.878 190.652C269.418 190.652 269.833 190.507 270.124 190.217C270.421 189.919 270.594 189.491 270.643 188.933H269.003V187.628H272.117V191.935H271.079L270.913 191.031Z" fill="white"/>
<path d="M275.062 187.572H276.848C277.221 187.572 277.502 187.482 277.688 187.304C277.875 187.125 277.969 186.835 277.969 186.433C277.969 186.047 277.875 185.768 277.688 185.596C277.502 185.418 277.221 185.329 276.848 185.329H275.062V187.572ZM273.433 183.967H277.429C277.761 183.967 278.059 184.027 278.322 184.146C278.591 184.257 278.82 184.414 279.007 184.614C279.2 184.815 279.346 185.05 279.443 185.318C279.546 185.578 279.598 185.861 279.598 186.166C279.598 186.634 279.505 187.04 279.318 187.382C279.138 187.724 278.84 187.985 278.425 188.163V188.185C278.626 188.245 278.792 188.338 278.924 188.464C279.055 188.584 279.162 188.729 279.245 188.9C279.328 189.063 279.387 189.246 279.422 189.447C279.463 189.647 279.491 189.848 279.505 190.049C279.512 190.176 279.519 190.324 279.526 190.495C279.532 190.667 279.543 190.841 279.557 191.02C279.577 191.199 279.605 191.37 279.64 191.533C279.681 191.69 279.74 191.823 279.816 191.935H278.187C278.097 191.682 278.041 191.381 278.021 191.031C278 190.681 277.969 190.347 277.927 190.027C277.872 189.61 277.754 189.305 277.574 189.112C277.394 188.918 277.1 188.822 276.692 188.822H275.062V191.935H273.433V183.967Z" fill="white"/>
<path d="M282.792 188.855H284.712L283.778 185.931H283.757L282.792 188.855ZM282.947 183.967H284.619L287.39 191.935H285.698L285.138 190.161H282.366L281.785 191.935H280.145L282.947 183.967Z" fill="white"/>
<path d="M288.716 185.44H286.495V183.967H292.567V185.44H290.346V191.935H288.716V185.44Z" fill="white"/>
<path d="M293.421 183.967H295.051V191.935H293.421V183.967Z" fill="white"/>
<path d="M297.79 187.985C297.79 188.319 297.825 188.647 297.894 188.967C297.97 189.279 298.088 189.562 298.247 189.815C298.406 190.068 298.614 190.272 298.87 190.429C299.126 190.577 299.437 190.652 299.804 190.652C300.171 190.652 300.482 190.577 300.738 190.429C300.994 190.272 301.202 190.068 301.361 189.815C301.52 189.562 301.634 189.279 301.704 188.967C301.78 188.647 301.818 188.319 301.818 187.985C301.818 187.635 301.78 187.296 301.704 186.969C301.634 186.642 301.52 186.352 301.361 186.099C301.202 185.838 300.994 185.634 300.738 185.485C300.482 185.329 300.171 185.251 299.804 185.251C299.437 185.251 299.126 185.329 298.87 185.485C298.614 185.634 298.406 185.838 298.247 186.099C298.088 186.352 297.97 186.642 297.894 186.969C297.825 187.296 297.79 187.635 297.79 187.985ZM296.161 187.985C296.161 187.389 296.244 186.839 296.41 186.333C296.576 185.82 296.815 185.373 297.126 184.994C297.438 184.614 297.818 184.317 298.268 184.101C298.725 183.885 299.237 183.778 299.804 183.778C300.378 183.778 300.89 183.885 301.34 184.101C301.79 184.317 302.171 184.614 302.482 184.994C302.793 185.373 303.032 185.82 303.198 186.333C303.364 186.839 303.447 187.389 303.447 187.985C303.447 188.565 303.364 189.108 303.198 189.614C303.032 190.112 302.793 190.548 302.482 190.92C302.171 191.292 301.79 191.585 301.34 191.801C300.89 192.009 300.378 192.114 299.804 192.114C299.237 192.114 298.725 192.009 298.268 191.801C297.818 191.585 297.438 191.292 297.126 190.92C296.815 190.548 296.576 190.112 296.41 189.614C296.244 189.108 296.161 188.565 296.161 187.985Z" fill="white"/>
<path d="M304.561 183.967H306.18L309.274 189.313H309.294V183.967H310.82V191.935H309.19L306.108 186.601H306.087V191.935H304.561V183.967Z" fill="white"/>
</svg>
