<svg width="560" height="374" viewBox="0 0 560 374" fill="none" xmlns="http://www.w3.org/2000/svg">
<g clip-path="url(#clip0_3496_50578)">
<rect width="560" height="374" fill="white"/>
<path d="M80.5696 126.957H60V148.908H80.5696V126.957Z" fill="#455A64"/>
<path d="M86.8281 126.957C105.01 126.521 125.023 126.521 143.206 126.957C125.023 127.393 105.01 127.379 86.8281 126.957Z" fill="#263238"/>
<path d="M86.8281 131.049C102.178 130.614 119.074 130.614 134.436 131.049C119.074 131.485 102.178 131.485 86.8281 131.049Z" fill="#263238"/>
<path d="M195.232 126.798H175.43V135.312H195.232V126.798Z" fill="#EBEBEB"/>
<path d="M182.765 131.102C182.746 131.104 182.727 131.101 182.709 131.095C182.691 131.088 182.675 131.078 182.661 131.064C182.647 131.051 182.635 131.034 182.628 131.015C182.62 130.997 182.616 130.977 182.616 130.957C182.616 130.915 182.632 130.874 182.66 130.845C182.688 130.815 182.725 130.798 182.765 130.798H184.002C184.037 130.804 184.068 130.824 184.091 130.853C184.114 130.882 184.126 130.919 184.125 130.957V132.409C184.137 132.443 184.137 132.48 184.125 132.514C183.827 132.757 183.472 132.907 183.099 132.949C182.726 132.99 182.35 132.921 182.011 132.75C181.673 132.578 181.385 132.31 181.18 131.975C180.974 131.64 180.859 131.251 180.848 130.851C180.851 130.572 180.906 130.296 181.009 130.04C181.112 129.783 181.261 129.551 181.448 129.356C181.636 129.161 181.857 129.007 182.1 128.904C182.343 128.8 182.602 128.749 182.864 128.752C183.312 128.758 183.747 128.92 184.101 129.214C184.115 129.227 184.126 129.243 184.134 129.261C184.142 129.278 184.147 129.297 184.148 129.317C184.149 129.337 184.147 129.356 184.141 129.375C184.135 129.393 184.125 129.411 184.113 129.425C184.101 129.44 184.086 129.452 184.07 129.461C184.053 129.469 184.035 129.474 184.017 129.476C183.998 129.477 183.98 129.474 183.962 129.468C183.945 129.461 183.929 129.452 183.915 129.439C183.703 129.247 183.451 129.113 183.18 129.048C182.909 128.983 182.627 128.989 182.359 129.065C182.091 129.142 181.844 129.287 181.639 129.487C181.435 129.688 181.279 129.939 181.185 130.218C181.091 130.497 181.062 130.796 181.1 131.089C181.138 131.383 181.242 131.662 181.404 131.904C181.565 132.145 181.779 132.341 182.027 132.475C182.274 132.609 182.549 132.677 182.827 132.673C183.199 132.672 183.562 132.547 183.866 132.316V131.102H182.765Z" fill="#C7C7C7"/>
<path d="M185.223 131.524C185.238 131.171 185.376 130.837 185.611 130.588C185.845 130.338 186.159 130.191 186.489 130.177C186.82 130.162 187.144 130.28 187.398 130.507C187.651 130.735 187.815 131.055 187.858 131.406C187.858 131.424 187.854 131.442 187.847 131.459C187.84 131.476 187.83 131.492 187.817 131.504C187.804 131.516 187.789 131.526 187.773 131.532C187.756 131.537 187.739 131.54 187.722 131.538H185.483C185.489 131.835 185.604 132.119 185.802 132.328C186.001 132.537 186.268 132.656 186.547 132.66C186.723 132.657 186.895 132.608 187.049 132.515C187.202 132.423 187.332 132.291 187.425 132.132C187.448 132.107 187.479 132.094 187.511 132.094C187.544 132.094 187.575 132.107 187.598 132.132C187.619 132.16 187.631 132.195 187.631 132.231C187.631 132.267 187.619 132.302 187.598 132.33C187.487 132.535 187.326 132.705 187.132 132.821C186.939 132.937 186.719 132.995 186.497 132.99C186.147 132.973 185.818 132.809 185.579 132.535C185.341 132.261 185.213 131.898 185.223 131.524ZM185.508 131.287H187.573C187.531 131.027 187.405 130.79 187.218 130.617C187.031 130.444 186.794 130.345 186.547 130.336C186.296 130.339 186.055 130.436 185.865 130.61C185.675 130.784 185.548 131.023 185.508 131.287Z" fill="#C7C7C7"/>
<path d="M189.542 130.204C189.536 130.239 189.52 130.271 189.495 130.295C189.47 130.319 189.439 130.333 189.406 130.336H189.059V132.461C189.059 132.517 189.08 132.571 189.117 132.61C189.154 132.65 189.205 132.672 189.257 132.672C189.293 132.678 189.326 132.697 189.351 132.726C189.376 132.755 189.391 132.792 189.393 132.831C189.388 132.866 189.371 132.898 189.347 132.922C189.322 132.946 189.29 132.96 189.257 132.963C189.194 132.964 189.132 132.953 189.073 132.928C189.015 132.904 188.962 132.867 188.917 132.821C188.872 132.774 188.836 132.718 188.812 132.656C188.787 132.594 188.775 132.528 188.775 132.461V130.336H188.441C188.305 130.336 188.305 130.336 188.305 130.204C188.305 130.072 188.305 130.059 188.441 130.059H188.775V128.976C188.775 128.938 188.789 128.901 188.815 128.874C188.84 128.846 188.875 128.831 188.911 128.831C188.948 128.831 188.984 128.846 189.012 128.873C189.039 128.9 189.056 128.937 189.059 128.976V130.059H189.406C189.441 130.062 189.474 130.078 189.499 130.105C189.523 130.131 189.539 130.166 189.542 130.204Z" fill="#C7C7C7"/>
<path d="M80.5696 158.967H60V180.919H80.5696V158.967Z" fill="#001F3E"/>
<path d="M86.8281 158.967C105.01 158.545 125.023 158.532 143.206 158.967C125.023 159.403 105.01 159.403 86.8281 158.967Z" fill="#263238"/>
<path d="M86.8281 163.072C102.178 162.637 119.074 162.637 134.436 163.072C119.074 163.508 102.178 163.495 86.8281 163.072Z" fill="#263238"/>
<path d="M195.232 158.809H175.43V167.323H195.232V158.809Z" fill="#EBEBEB"/>
<path d="M182.762 163.112C182.743 163.114 182.724 163.112 182.706 163.105C182.688 163.099 182.671 163.088 182.657 163.075C182.643 163.061 182.632 163.044 182.625 163.026C182.617 163.007 182.613 162.987 182.613 162.967C182.613 162.947 182.617 162.927 182.625 162.908C182.632 162.89 182.643 162.873 182.657 162.859C182.671 162.846 182.688 162.835 182.706 162.829C182.724 162.822 182.743 162.82 182.762 162.822H183.998C184.031 162.828 184.062 162.845 184.084 162.872C184.106 162.898 184.12 162.932 184.122 162.967V164.419C184.129 164.436 184.133 164.454 184.133 164.472C184.133 164.49 184.129 164.508 184.122 164.525C183.77 164.821 183.334 164.984 182.885 164.987C182.625 164.987 182.368 164.932 182.128 164.826C181.888 164.72 181.67 164.564 181.486 164.368C181.302 164.172 181.156 163.939 181.057 163.683C180.957 163.427 180.906 163.152 180.906 162.875C180.906 162.597 180.957 162.323 181.057 162.066C181.156 161.81 181.302 161.577 181.486 161.381C181.67 161.185 181.888 161.03 182.128 160.923C182.368 160.817 182.625 160.763 182.885 160.763C183.335 160.773 183.769 160.94 184.122 161.238C184.146 161.265 184.159 161.3 184.159 161.337C184.159 161.374 184.146 161.409 184.122 161.436C184.109 161.45 184.094 161.462 184.077 161.47C184.06 161.477 184.042 161.481 184.023 161.481C184.005 161.481 183.986 161.477 183.969 161.47C183.952 161.462 183.937 161.45 183.924 161.436C183.669 161.224 183.364 161.092 183.043 161.054C182.721 161.015 182.396 161.072 182.104 161.218C181.811 161.364 181.561 161.594 181.383 161.881C181.204 162.169 181.104 162.504 181.092 162.848C181.098 163.336 181.285 163.801 181.612 164.143C181.939 164.484 182.379 164.673 182.836 164.67C183.208 164.669 183.572 164.545 183.875 164.314V163.086L182.762 163.112Z" fill="#C7C7C7"/>
<path d="M185.223 163.535C185.24 163.183 185.38 162.85 185.616 162.602C185.851 162.354 186.165 162.21 186.495 162.196C186.826 162.183 187.149 162.302 187.401 162.53C187.653 162.759 187.816 163.079 187.858 163.429C187.858 163.448 187.854 163.466 187.847 163.483C187.84 163.5 187.83 163.515 187.817 163.528C187.804 163.54 187.789 163.549 187.773 163.555C187.756 163.561 187.739 163.563 187.722 163.561H185.483C185.489 163.858 185.604 164.14 185.803 164.347C186.002 164.554 186.269 164.67 186.547 164.67C186.723 164.67 186.897 164.622 187.051 164.529C187.205 164.437 187.333 164.303 187.425 164.142C187.448 164.118 187.479 164.104 187.511 164.104C187.544 164.104 187.575 164.118 187.598 164.142C187.622 164.169 187.635 164.204 187.635 164.241C187.635 164.278 187.622 164.313 187.598 164.34C187.481 164.54 187.319 164.705 187.127 164.821C186.935 164.936 186.718 164.998 186.497 165C186.147 164.983 185.818 164.82 185.579 164.546C185.341 164.272 185.213 163.909 185.223 163.535ZM185.508 163.31H187.573C187.545 163.039 187.425 162.788 187.234 162.606C187.043 162.423 186.796 162.322 186.541 162.322C186.285 162.322 186.038 162.423 185.847 162.606C185.656 162.788 185.536 163.039 185.508 163.31Z" fill="#C7C7C7"/>
<path d="M189.542 162.215C189.539 162.252 189.523 162.287 189.499 162.314C189.474 162.341 189.441 162.357 189.406 162.36H189.059V164.485C189.059 164.541 189.08 164.595 189.117 164.634C189.154 164.674 189.205 164.696 189.257 164.696C189.291 164.702 189.323 164.719 189.348 164.745C189.372 164.771 189.388 164.805 189.393 164.841C189.39 164.879 189.375 164.914 189.35 164.941C189.325 164.967 189.292 164.984 189.257 164.987C189.194 164.988 189.132 164.977 189.073 164.952C189.015 164.928 188.962 164.891 188.917 164.844C188.872 164.798 188.836 164.742 188.812 164.68C188.787 164.618 188.775 164.552 188.775 164.485V162.36H188.441C188.305 162.36 188.305 162.36 188.305 162.215C188.305 162.069 188.305 162.083 188.441 162.083H188.775V161C188.775 160.962 188.789 160.925 188.815 160.898C188.84 160.87 188.875 160.855 188.911 160.855C188.948 160.855 188.984 160.87 189.012 160.897C189.039 160.924 189.056 160.961 189.059 161V162.135H189.406C189.433 162.134 189.46 162.141 189.484 162.155C189.508 162.169 189.528 162.189 189.542 162.215Z" fill="#C7C7C7"/>
<path d="M80.5696 190.991H60V212.943H80.5696V190.991Z" fill="#263238"/>
<path d="M86.8281 190.991C105.01 190.555 125.023 190.555 143.206 190.991C125.023 191.426 105.01 191.426 86.8281 190.991Z" fill="#263238"/>
<path d="M86.8281 195.136C102.178 194.713 119.074 194.7 134.436 195.136C119.074 195.571 102.178 195.571 86.8281 195.136Z" fill="#263238"/>
<path d="M195.232 190.832H175.43V199.346H195.232V190.832Z" fill="#EBEBEB"/>
<path d="M182.765 195.136C182.729 195.136 182.694 195.121 182.669 195.093C182.643 195.066 182.629 195.029 182.629 194.991C182.629 194.952 182.643 194.915 182.669 194.888C182.694 194.861 182.729 194.845 182.765 194.845H184.002C184.019 194.845 184.036 194.849 184.052 194.857C184.068 194.864 184.082 194.875 184.094 194.889C184.106 194.902 184.114 194.918 184.12 194.936C184.125 194.954 184.127 194.972 184.125 194.991V196.456C184.137 196.49 184.137 196.527 184.125 196.561C183.829 196.809 183.473 196.964 183.098 197.008C182.724 197.052 182.345 196.984 182.005 196.811C181.664 196.639 181.376 196.368 181.171 196.03C180.967 195.692 180.855 195.3 180.848 194.898C180.857 194.336 181.075 193.8 181.452 193.407C181.829 193.014 182.337 192.796 182.864 192.799C183.314 192.81 183.748 192.977 184.101 193.275C184.124 193.301 184.137 193.337 184.137 193.374C184.137 193.41 184.124 193.446 184.101 193.473C184.072 193.496 184.038 193.509 184.002 193.509C183.966 193.509 183.931 193.496 183.903 193.473C183.691 193.281 183.439 193.147 183.168 193.082C182.897 193.017 182.615 193.023 182.347 193.099C182.078 193.176 181.831 193.321 181.627 193.522C181.422 193.722 181.267 193.973 181.173 194.252C181.079 194.531 181.05 194.83 181.088 195.123C181.126 195.417 181.23 195.696 181.391 195.938C181.553 196.179 181.766 196.375 182.014 196.509C182.262 196.643 182.537 196.711 182.814 196.707C183.187 196.706 183.55 196.581 183.853 196.35V195.136H182.765Z" fill="#C7C7C7"/>
<path d="M185.222 195.558C185.198 195.364 185.213 195.166 185.266 194.978C185.318 194.79 185.406 194.616 185.525 194.466C185.644 194.317 185.791 194.195 185.956 194.109C186.121 194.024 186.301 193.976 186.485 193.968C186.668 193.961 186.851 193.994 187.022 194.067C187.193 194.139 187.348 194.248 187.477 194.388C187.606 194.528 187.706 194.694 187.771 194.878C187.837 195.061 187.866 195.257 187.856 195.453C187.855 195.47 187.85 195.487 187.842 195.502C187.834 195.518 187.824 195.531 187.811 195.542C187.799 195.553 187.784 195.562 187.768 195.567C187.753 195.572 187.736 195.573 187.72 195.571H185.481C185.485 195.87 185.598 196.156 185.797 196.366C185.996 196.576 186.265 196.693 186.545 196.693C186.722 196.693 186.895 196.645 187.049 196.552C187.203 196.46 187.332 196.327 187.423 196.165C187.448 196.144 187.478 196.132 187.51 196.132C187.541 196.132 187.572 196.144 187.596 196.165C187.618 196.196 187.63 196.233 187.63 196.271C187.63 196.309 187.618 196.346 187.596 196.377C187.48 196.577 187.318 196.742 187.125 196.857C186.933 196.973 186.716 197.034 186.496 197.037C186.143 197.019 185.812 196.854 185.573 196.577C185.335 196.301 185.208 195.934 185.222 195.558ZM185.506 195.321H187.572C187.526 195.064 187.398 194.833 187.209 194.666C187.021 194.5 186.784 194.408 186.539 194.408C186.294 194.408 186.057 194.5 185.869 194.666C185.68 194.833 185.552 195.064 185.506 195.321Z" fill="#C7C7C7"/>
<path d="M189.542 194.238C189.537 194.275 189.521 194.309 189.496 194.335C189.472 194.361 189.44 194.378 189.406 194.383H189.059V196.456C189.059 196.513 189.08 196.568 189.116 196.61C189.153 196.652 189.203 196.677 189.257 196.68C189.293 196.68 189.328 196.695 189.353 196.723C189.379 196.75 189.393 196.787 189.393 196.825C189.393 196.864 189.379 196.901 189.353 196.928C189.328 196.955 189.293 196.971 189.257 196.971C189.193 196.972 189.13 196.96 189.07 196.935C189.011 196.91 188.957 196.872 188.912 196.824C188.867 196.776 188.832 196.718 188.808 196.655C188.784 196.592 188.773 196.524 188.775 196.456V194.344H188.441C188.305 194.344 188.305 194.264 188.305 194.198C188.305 194.132 188.305 194.053 188.441 194.053H188.775V192.971C188.778 192.933 188.793 192.898 188.818 192.872C188.843 192.845 188.876 192.829 188.911 192.826C188.947 192.828 188.982 192.844 189.009 192.87C189.036 192.897 189.054 192.932 189.059 192.971V194.053H189.406C189.446 194.06 189.483 194.083 189.508 194.117C189.533 194.151 189.545 194.195 189.542 194.238Z" fill="#C7C7C7"/>
<path d="M80.5696 223.015H60V244.966H80.5696V223.015Z" fill="#455A64"/>
<path d="M86.8281 223.014C105.01 222.579 125.023 222.579 143.206 223.014C125.023 223.45 105.01 223.45 86.8281 223.014Z" fill="#263238"/>
<path d="M86.8281 227.106C102.178 226.671 119.074 226.671 134.436 227.106C119.074 227.542 102.178 227.542 86.8281 227.106Z" fill="#263238"/>
<path d="M195.232 222.856H175.43V231.37H195.232V222.856Z" fill="#EBEBEB"/>
<path d="M182.765 227.159C182.729 227.159 182.694 227.144 182.669 227.117C182.643 227.09 182.629 227.053 182.629 227.014C182.629 226.976 182.643 226.939 182.669 226.911C182.694 226.884 182.729 226.869 182.765 226.869H184.002C184.019 226.869 184.036 226.873 184.052 226.88C184.068 226.888 184.082 226.898 184.094 226.912C184.106 226.926 184.114 226.942 184.12 226.96C184.125 226.977 184.127 226.996 184.125 227.014V228.466C184.137 228.5 184.137 228.538 184.125 228.572C183.827 228.815 183.472 228.965 183.099 229.006C182.726 229.048 182.35 228.979 182.011 228.807C181.673 228.635 181.385 228.367 181.18 228.032C180.974 227.697 180.859 227.309 180.848 226.909C180.851 226.629 180.906 226.354 181.009 226.097C181.112 225.841 181.261 225.608 181.448 225.413C181.636 225.219 181.857 225.065 182.1 224.961C182.343 224.858 182.602 224.806 182.864 224.81C183.312 224.815 183.747 224.978 184.101 225.272C184.115 225.285 184.126 225.301 184.134 225.318C184.142 225.336 184.147 225.355 184.148 225.375C184.149 225.394 184.147 225.414 184.141 225.432C184.135 225.451 184.125 225.468 184.113 225.483C184.101 225.498 184.086 225.51 184.07 225.518C184.053 225.527 184.035 225.532 184.017 225.533C183.998 225.535 183.98 225.532 183.962 225.525C183.945 225.519 183.929 225.509 183.915 225.496C183.603 225.239 183.221 225.1 182.827 225.1C182.591 225.079 182.354 225.11 182.13 225.191C181.907 225.273 181.701 225.403 181.527 225.573C181.353 225.744 181.214 225.951 181.119 226.182C181.024 226.413 180.975 226.663 180.975 226.915C180.975 227.167 181.024 227.417 181.119 227.648C181.214 227.879 181.353 228.086 181.527 228.257C181.701 228.428 181.907 228.558 182.13 228.639C182.354 228.721 182.591 228.752 182.827 228.73C183.199 228.729 183.562 228.605 183.866 228.374V227.159H182.765Z" fill="#C7C7C7"/>
<path d="M185.223 227.582C185.238 227.229 185.376 226.894 185.611 226.645C185.845 226.395 186.159 226.249 186.489 226.234C186.82 226.219 187.144 226.337 187.398 226.564C187.651 226.792 187.815 227.112 187.858 227.463C187.858 227.481 187.854 227.5 187.847 227.517C187.84 227.533 187.83 227.549 187.817 227.561C187.804 227.574 187.789 227.583 187.773 227.589C187.756 227.595 187.739 227.597 187.722 227.595H185.483C185.489 227.892 185.604 228.176 185.802 228.385C186.001 228.595 186.268 228.713 186.547 228.717C186.723 228.717 186.897 228.668 187.051 228.576C187.205 228.483 187.333 228.35 187.425 228.189C187.448 228.165 187.479 228.151 187.511 228.151C187.544 228.151 187.575 228.165 187.598 228.189C187.619 228.217 187.631 228.252 187.631 228.288C187.631 228.324 187.619 228.359 187.598 228.387C187.487 228.592 187.326 228.762 187.132 228.878C186.939 228.994 186.719 229.052 186.497 229.047C186.147 229.03 185.818 228.866 185.579 228.592C185.341 228.318 185.213 227.955 185.223 227.582ZM185.508 227.344H187.573C187.531 227.084 187.405 226.847 187.218 226.674C187.031 226.501 186.794 226.402 186.547 226.394C186.296 226.396 186.055 226.493 185.865 226.667C185.675 226.841 185.548 227.08 185.508 227.344Z" fill="#C7C7C7"/>
<path d="M189.542 226.261C189.536 226.296 189.52 226.328 189.495 226.352C189.47 226.376 189.439 226.391 189.406 226.393H189.059V228.518C189.059 228.574 189.08 228.628 189.117 228.668C189.154 228.707 189.205 228.729 189.257 228.729C189.293 228.735 189.326 228.754 189.351 228.783C189.376 228.812 189.391 228.849 189.393 228.888C189.388 228.923 189.371 228.955 189.347 228.979C189.322 229.003 189.29 229.017 189.257 229.02C189.194 229.022 189.132 229.01 189.073 228.986C189.015 228.961 188.962 228.924 188.917 228.878C188.872 228.831 188.836 228.775 188.812 228.713C188.787 228.652 188.775 228.585 188.775 228.518V226.393H188.441C188.305 226.393 188.305 226.327 188.305 226.261C188.305 226.195 188.305 226.116 188.441 226.116H188.775V225.033C188.778 224.996 188.793 224.961 188.818 224.934C188.843 224.907 188.876 224.891 188.911 224.888C188.947 224.891 188.982 224.907 189.009 224.933C189.036 224.959 189.054 224.995 189.059 225.033V226.116H189.406C189.441 226.119 189.474 226.135 189.499 226.162C189.523 226.188 189.539 226.224 189.542 226.261Z" fill="#C7C7C7"/>
<path d="M80.5696 255.038H60V276.99H80.5696V255.038Z" fill="#001F3E"/>
<path d="M86.8281 255.038C105.01 254.602 125.023 254.602 143.206 255.038C125.023 255.473 105.01 255.46 86.8281 255.038Z" fill="#263238"/>
<path d="M86.8281 259.13C102.178 258.694 119.074 258.694 134.436 259.13C119.074 259.566 102.178 259.566 86.8281 259.13Z" fill="#263238"/>
<path d="M195.232 254.866H175.43V263.38H195.232V254.866Z" fill="#EBEBEB"/>
<path d="M182.758 259.169C182.671 259.169 182.609 259.169 182.609 259.037C182.609 258.995 182.625 258.955 182.653 258.925C182.681 258.895 182.718 258.879 182.758 258.879H183.995C184.03 258.885 184.061 258.905 184.084 258.934C184.107 258.963 184.119 258.999 184.118 259.037V260.463C184.126 260.479 184.13 260.497 184.13 260.516C184.13 260.534 184.126 260.552 184.118 260.568C183.768 260.87 183.331 261.033 182.881 261.03C182.609 261.053 182.336 261.016 182.077 260.921C181.819 260.825 181.583 260.674 181.382 260.476C181.182 260.279 181.022 260.039 180.912 259.772C180.803 259.505 180.746 259.216 180.746 258.925C180.746 258.634 180.803 258.345 180.912 258.078C181.022 257.811 181.182 257.571 181.382 257.374C181.583 257.176 181.819 257.025 182.077 256.929C182.336 256.834 182.609 256.797 182.881 256.82C183.33 256.825 183.764 256.988 184.118 257.282C184.142 257.308 184.155 257.344 184.155 257.381C184.155 257.417 184.142 257.453 184.118 257.48C184.106 257.494 184.09 257.505 184.073 257.513C184.056 257.521 184.038 257.525 184.019 257.525C184.001 257.525 183.983 257.521 183.966 257.513C183.949 257.505 183.933 257.494 183.92 257.48C183.665 257.268 183.36 257.136 183.039 257.097C182.718 257.059 182.393 257.116 182.1 257.262C181.807 257.408 181.557 257.637 181.379 257.925C181.2 258.213 181.1 258.547 181.088 258.892C181.094 259.38 181.282 259.845 181.608 260.186C181.935 260.528 182.375 260.717 182.832 260.714C183.205 260.713 183.568 260.588 183.871 260.357V259.13L182.758 259.169Z" fill="#C7C7C7"/>
<path d="M185.22 259.592C185.237 259.24 185.377 258.907 185.612 258.659C185.848 258.411 186.161 258.267 186.492 258.253C186.822 258.24 187.145 258.359 187.397 258.588C187.65 258.816 187.813 259.136 187.854 259.486C187.854 259.505 187.851 259.523 187.844 259.54C187.837 259.557 187.827 259.572 187.814 259.585C187.801 259.597 187.786 259.607 187.769 259.612C187.753 259.618 187.736 259.62 187.718 259.618H185.479C185.486 259.916 185.6 260.2 185.799 260.409C185.997 260.618 186.264 260.737 186.543 260.74C186.719 260.738 186.892 260.688 187.045 260.596C187.199 260.504 187.328 260.372 187.421 260.212C187.445 260.188 187.476 260.175 187.508 260.175C187.54 260.175 187.571 260.188 187.595 260.212C187.616 260.24 187.627 260.275 187.627 260.311C187.627 260.347 187.616 260.382 187.595 260.41C187.478 260.61 187.316 260.776 187.123 260.891C186.931 261.007 186.714 261.068 186.494 261.07C186.142 261.053 185.81 260.888 185.571 260.611C185.333 260.334 185.206 259.968 185.22 259.592ZM185.504 259.368H187.57C187.542 259.096 187.421 258.845 187.231 258.663C187.04 258.48 186.793 258.38 186.537 258.38C186.281 258.38 186.034 258.48 185.844 258.663C185.653 258.845 185.532 259.096 185.504 259.368Z" fill="#C7C7C7"/>
<path d="M189.542 258.272C189.539 258.31 189.523 258.345 189.499 258.372C189.474 258.398 189.441 258.414 189.406 258.417H189.059V260.543C189.059 260.599 189.08 260.652 189.117 260.692C189.154 260.732 189.205 260.754 189.257 260.754C189.291 260.759 189.323 260.776 189.348 260.802C189.372 260.829 189.388 260.862 189.393 260.899C189.39 260.937 189.375 260.972 189.35 260.998C189.325 261.025 189.292 261.041 189.257 261.044C189.194 261.046 189.132 261.034 189.073 261.01C189.015 260.986 188.962 260.949 188.917 260.902C188.872 260.855 188.836 260.799 188.812 260.738C188.787 260.676 188.775 260.61 188.775 260.543V258.417H188.441C188.305 258.417 188.305 258.351 188.305 258.272C188.305 258.193 188.305 258.14 188.441 258.14H188.775V257.058C188.775 257.039 188.778 257.02 188.785 257.002C188.792 256.985 188.802 256.969 188.815 256.955C188.827 256.942 188.842 256.931 188.859 256.924C188.875 256.916 188.893 256.913 188.911 256.913C188.948 256.912 188.984 256.927 189.012 256.954C189.039 256.981 189.056 257.018 189.059 257.058V258.14H189.406C189.439 258.143 189.47 258.157 189.495 258.181C189.52 258.205 189.536 258.237 189.542 258.272Z" fill="#C7C7C7"/>
<path d="M80.5696 287.048H60V309H80.5696V287.048Z" fill="#455A64"/>
<path d="M86.8281 287.048C105.01 286.626 125.023 286.613 143.206 287.048C125.023 287.484 105.01 287.484 86.8281 287.048Z" fill="#263238"/>
<path d="M86.8281 291.14C102.178 290.718 119.074 290.705 134.436 291.14C119.074 291.576 102.178 291.576 86.8281 291.14Z" fill="#263238"/>
<path d="M195.232 286.89H175.43V295.404H195.232V286.89Z" fill="#EBEBEB"/>
<path d="M182.762 291.193C182.743 291.195 182.724 291.193 182.706 291.186C182.688 291.18 182.671 291.17 182.657 291.156C182.643 291.142 182.632 291.126 182.625 291.107C182.617 291.088 182.613 291.068 182.613 291.048C182.613 291.028 182.617 291.008 182.625 290.989C182.632 290.971 182.643 290.954 182.657 290.941C182.671 290.927 182.688 290.916 182.706 290.91C182.724 290.904 182.743 290.901 182.762 290.903H183.998C184.016 290.903 184.033 290.907 184.049 290.914C184.065 290.922 184.079 290.933 184.091 290.946C184.102 290.96 184.111 290.976 184.117 290.994C184.122 291.011 184.124 291.03 184.122 291.048V292.5C184.134 292.534 184.134 292.572 184.122 292.606C183.77 292.902 183.334 293.065 182.885 293.068C182.36 293.068 181.857 292.845 181.486 292.449C181.115 292.053 180.906 291.516 180.906 290.956C180.906 290.396 181.115 289.858 181.486 289.462C181.857 289.066 182.36 288.844 182.885 288.844C183.335 288.854 183.769 289.021 184.122 289.319C184.146 289.346 184.159 289.381 184.159 289.418C184.159 289.455 184.146 289.49 184.122 289.517C184.109 289.531 184.094 289.543 184.077 289.551C184.06 289.558 184.042 289.563 184.023 289.563C184.005 289.563 183.986 289.558 183.969 289.551C183.952 289.543 183.937 289.531 183.924 289.517C183.712 289.325 183.46 289.191 183.189 289.126C182.918 289.061 182.636 289.067 182.368 289.144C182.1 289.22 181.853 289.365 181.648 289.566C181.444 289.767 181.288 290.017 181.194 290.296C181.1 290.575 181.071 290.874 181.109 291.168C181.147 291.461 181.251 291.741 181.413 291.982C181.574 292.223 181.788 292.419 182.036 292.553C182.284 292.687 182.558 292.755 182.836 292.751C183.208 292.75 183.572 292.626 183.875 292.395V291.167L182.762 291.193Z" fill="#C7C7C7"/>
<path d="M185.222 291.615C185.198 291.421 185.213 291.223 185.266 291.035C185.318 290.847 185.406 290.673 185.525 290.523C185.644 290.374 185.791 290.252 185.956 290.167C186.121 290.081 186.301 290.033 186.485 290.025C186.668 290.018 186.851 290.052 187.022 290.124C187.193 290.196 187.348 290.306 187.477 290.445C187.606 290.585 187.706 290.752 187.771 290.935C187.837 291.118 187.866 291.314 187.856 291.51C187.856 291.528 187.853 291.546 187.846 291.563C187.839 291.58 187.828 291.596 187.816 291.608C187.803 291.62 187.788 291.63 187.771 291.636C187.755 291.642 187.737 291.644 187.72 291.642H185.481C185.488 291.938 185.603 292.22 185.801 292.427C186 292.635 186.267 292.751 186.545 292.751C186.722 292.751 186.895 292.702 187.049 292.609C187.203 292.517 187.332 292.384 187.423 292.222C187.446 292.198 187.477 292.185 187.51 292.185C187.542 292.185 187.573 292.198 187.596 292.222C187.62 292.249 187.633 292.285 187.633 292.321C187.633 292.358 187.62 292.394 187.596 292.421C187.48 292.621 187.318 292.786 187.125 292.901C186.933 293.017 186.716 293.078 186.496 293.081C186.146 293.063 185.816 292.9 185.578 292.626C185.339 292.352 185.211 291.989 185.222 291.615ZM185.506 291.378H187.572C187.526 291.121 187.398 290.89 187.209 290.723C187.021 290.557 186.784 290.466 186.539 290.466C186.294 290.466 186.057 290.557 185.869 290.723C185.68 290.89 185.552 291.121 185.506 291.378Z" fill="#C7C7C7"/>
<path d="M189.542 290.296C189.539 290.333 189.523 290.368 189.499 290.395C189.474 290.422 189.441 290.438 189.406 290.441H189.059V292.566C189.062 292.621 189.084 292.673 189.12 292.712C189.157 292.751 189.206 292.774 189.257 292.777C189.293 292.777 189.328 292.793 189.353 292.82C189.379 292.847 189.393 292.884 189.393 292.922C189.393 292.961 189.379 292.998 189.353 293.025C189.328 293.052 189.293 293.068 189.257 293.068C189.194 293.069 189.132 293.058 189.073 293.033C189.015 293.009 188.962 292.972 188.917 292.926C188.872 292.879 188.836 292.823 188.812 292.761C188.787 292.699 188.775 292.633 188.775 292.566V290.441H188.441C188.305 290.441 188.305 290.375 188.305 290.296C188.305 290.216 188.305 290.15 188.441 290.15H188.775V289.068C188.778 289.032 188.793 288.998 188.819 288.974C188.844 288.949 188.877 288.936 188.911 288.936C188.946 288.936 188.981 288.949 189.008 288.973C189.035 288.997 189.053 289.031 189.059 289.068V290.177H189.406C189.437 290.18 189.466 290.194 189.49 290.215C189.514 290.236 189.532 290.264 189.542 290.296Z" fill="#C7C7C7"/>
<path d="M271.396 226.458H191.195V225.798H270.777V173.644H288.873V174.304H271.396V226.458Z" fill="#001F3E"/>
<path d="M191.281 227.871C192.183 227.871 192.914 227.09 192.914 226.128C192.914 225.166 192.183 224.386 191.281 224.386C190.379 224.386 189.648 225.166 189.648 226.128C189.648 227.09 190.379 227.871 191.281 227.871Z" fill="#001F3E"/>
<path d="M288.824 175.703C289.147 175.703 289.463 175.601 289.731 175.409C290 175.218 290.209 174.946 290.333 174.627C290.456 174.309 290.488 173.959 290.425 173.621C290.362 173.283 290.207 172.972 289.979 172.729C289.75 172.485 289.459 172.319 289.143 172.252C288.826 172.185 288.498 172.219 288.199 172.351C287.901 172.483 287.646 172.706 287.467 172.993C287.287 173.279 287.191 173.616 287.191 173.961C287.191 174.423 287.363 174.866 287.67 175.193C287.976 175.52 288.391 175.703 288.824 175.703Z" fill="#001F3E"/>
<path d="M457.733 225.138H319.832V224.478H457.115V152.603H474.184V153.263H457.733V225.138Z" fill="#001F3E"/>
<path d="M319.919 226.55C319.595 226.553 319.278 226.453 319.008 226.263C318.738 226.073 318.527 225.802 318.401 225.484C318.276 225.166 318.242 224.815 318.303 224.476C318.365 224.137 318.519 223.825 318.747 223.58C318.975 223.335 319.266 223.168 319.583 223.1C319.9 223.032 320.229 223.065 320.528 223.197C320.827 223.328 321.083 223.552 321.263 223.838C321.443 224.125 321.539 224.463 321.539 224.808C321.539 225.268 321.369 225.709 321.065 226.035C320.761 226.362 320.349 226.547 319.919 226.55Z" fill="#001F3E"/>
<path d="M474.094 154.675C474.417 154.675 474.732 154.573 475.001 154.382C475.269 154.19 475.478 153.918 475.602 153.6C475.726 153.281 475.758 152.931 475.695 152.593C475.632 152.255 475.476 151.944 475.248 151.701C475.02 151.457 474.729 151.291 474.412 151.224C474.095 151.157 473.767 151.191 473.469 151.323C473.17 151.455 472.916 151.678 472.736 151.965C472.557 152.251 472.461 152.588 472.461 152.933C472.461 153.395 472.633 153.838 472.939 154.165C473.245 154.492 473.661 154.675 474.094 154.675Z" fill="#001F3E"/>
<path d="M338.396 134.079V177.098H321.612L318.235 184.318L314.871 177.098H298.086V134.079H338.396Z" fill="#001F3E"/>
<path d="M315.874 168.306L306.969 158.683L309.962 155.528L315.169 161.152L325.967 143.067L329.517 145.483L315.874 168.306Z" fill="white"/>
<path d="M615.001 136.942H479.004V175.579H615.001V136.942Z" fill="#EBEBEB"/>
<path d="M484.348 142.144C497.768 141.722 512.537 141.708 525.957 142.144C512.537 142.58 497.768 142.58 484.348 142.144Z" fill="#263238"/>
<path d="M484.629 157.363C524.581 156.954 569.406 156.954 609.357 157.363C569.406 157.772 524.581 157.772 484.629 157.363Z" fill="#C7C7C7"/>
<path d="M484.629 161.205C524.581 160.796 569.406 160.796 609.357 161.205C569.406 161.614 524.581 161.614 484.629 161.205Z" fill="#C7C7C7"/>
<path d="M484.629 165.046C524.581 164.636 569.406 164.636 609.357 165.046C569.406 165.455 524.581 165.455 484.629 165.046Z" fill="#C7C7C7"/>
<path d="M484.629 168.861C516.392 168.451 552.015 168.451 583.778 168.861C552.015 169.27 516.392 169.27 484.629 168.861Z" fill="#C7C7C7"/>
</g>
<defs>
<clipPath id="clip0_3496_50578">
<rect width="560" height="374" fill="white"/>
</clipPath>
</defs>
</svg>
