<svg width="325" height="284" viewBox="0 0 325 284" fill="none" xmlns="http://www.w3.org/2000/svg">
<g opacity="0.2">
<path d="M303.823 195.396C303.823 200.821 300.014 204.278 295.293 206.998L194.92 265.01C190.231 267.731 186.391 265.538 186.391 260.081V217.432C186.388 214.45 187.171 211.519 188.66 208.935C190.148 206.351 192.291 204.203 194.872 202.709L295.341 144.617C296.206 144.116 297.187 143.852 298.186 143.852C299.185 143.851 300.167 144.114 301.032 144.614C301.897 145.114 302.615 145.833 303.114 146.699C303.612 147.565 303.873 148.547 303.871 149.546L303.823 195.396Z" fill="black"/>
</g>
<path d="M324.1 162.493C323.951 160.74 323.406 159.044 322.505 157.533C321.604 156.022 320.371 154.735 318.899 153.771L316.963 152.651C315.338 151.831 313.542 151.403 311.722 151.403C309.901 151.403 308.106 151.831 306.481 152.651L207.436 209.895C205.912 210.889 204.643 212.229 203.734 213.805C202.825 215.382 202.3 217.151 202.203 218.968V267.603C202.3 269.418 202.825 271.184 203.734 272.759C204.644 274.333 205.912 275.67 207.436 276.66L209.373 277.781C210.995 278.609 212.792 279.042 214.614 279.042C216.436 279.042 218.232 278.609 219.855 277.781L219.407 277.989L262.856 253.023C263.589 252.602 264.367 252.264 265.176 252.015L273.178 259.121L273.786 259.585L278.171 262.065L286.173 266.722C287.129 267.165 288.181 267.365 289.233 267.303C290.286 267.242 291.307 266.921 292.206 266.37C294.462 265.058 296.303 261.297 296.303 257.953V239.693C296.399 237.875 296.922 236.106 297.832 234.529C298.741 232.952 300.01 231.612 301.536 230.619L318.899 220.633C320.424 219.638 321.692 218.299 322.602 216.722C323.511 215.145 324.035 213.376 324.132 211.559V162.877C324.13 162.748 324.119 162.62 324.1 162.493Z" fill="url(#paint0_linear_3487_1754)"/>
<path opacity="0.25" d="M324.1 162.493C323.951 160.74 323.406 159.044 322.505 157.533C321.604 156.022 320.371 154.735 318.899 153.771L316.963 152.651C315.338 151.831 313.542 151.403 311.722 151.403C309.901 151.403 308.106 151.831 306.481 152.651L207.436 209.895C205.912 210.889 204.643 212.229 203.734 213.805C202.825 215.382 202.3 217.151 202.203 218.968V267.603C202.3 269.418 202.825 271.184 203.734 272.759C204.644 274.333 205.912 275.67 207.436 276.66L209.373 277.781C210.995 278.609 212.792 279.042 214.614 279.042C216.436 279.042 218.232 278.609 219.855 277.781L219.407 277.989L262.856 253.023C263.589 252.602 264.367 252.264 265.176 252.015L273.178 259.121L273.786 259.585L278.171 262.065L286.173 266.722C287.129 267.165 288.181 267.365 289.233 267.303C290.286 267.242 291.307 266.921 292.206 266.37C294.462 265.058 296.303 261.297 296.303 257.953V239.693C296.399 237.875 296.922 236.106 297.832 234.529C298.741 232.952 300.01 231.612 301.536 230.619L318.899 220.633C320.424 219.638 321.692 218.299 322.602 216.722C323.511 215.145 324.035 213.376 324.132 211.559V162.877C324.13 162.748 324.119 162.62 324.1 162.493Z" fill="black"/>
<path d="M324.132 162.845C324.132 159.5 321.796 158.156 318.899 159.82L219.855 217.064C218.534 217.871 217.413 218.965 216.574 220.265L204.188 213.127C205 211.833 206.094 210.739 207.388 209.927L306.433 152.683C308.055 151.861 309.848 151.434 311.666 151.434C313.484 151.434 315.277 151.861 316.899 152.683L318.851 153.803C320.381 154.788 321.657 156.12 322.575 157.691C323.493 159.263 324.026 161.028 324.132 162.845Z" fill="url(#paint1_linear_3487_1754)"/>
<path opacity="0.45" d="M324.132 162.845C324.132 159.5 321.796 158.156 318.899 159.82L219.855 217.064C218.534 217.871 217.413 218.965 216.574 220.265L204.188 213.127C205 211.833 206.094 210.739 207.388 209.927L306.433 152.683C308.055 151.861 309.848 151.434 311.666 151.434C313.484 151.434 315.277 151.861 316.899 152.683L318.851 153.803C320.381 154.788 321.657 156.12 322.575 157.691C323.493 159.263 324.026 161.028 324.132 162.845Z" fill="white"/>
<path d="M217.517 277.429C215.821 277.429 215.645 275.54 215.645 274.724V226.09C215.747 224.455 216.226 222.866 217.045 221.447C217.864 220.028 219.001 218.818 220.365 217.912L319.41 160.748C319.958 160.402 320.587 160.204 321.234 160.172C322.931 160.172 323.107 162.061 323.107 162.877V211.511C322.997 213.153 322.506 214.748 321.672 216.167C320.839 217.586 319.686 218.792 318.306 219.689L300.942 229.739C299.26 230.819 297.861 232.287 296.861 234.018C295.862 235.75 295.291 237.696 295.197 239.693V257.953C295.197 260.913 293.597 264.354 291.612 265.474C290.694 266.008 289.65 266.289 288.588 266.29C287.708 266.338 286.841 266.059 286.155 265.506L271.304 251.743C270.322 250.907 269.055 250.482 267.767 250.559C265.826 250.617 263.932 251.168 262.262 252.159L219.261 276.885C218.733 277.207 218.134 277.393 217.517 277.429Z" fill="#FAFAFA"/>
<path d="M321.234 161.197C321.97 161.197 322.082 162.253 322.082 162.797V211.511C321.979 212.965 321.547 214.376 320.817 215.637C320.088 216.899 319.081 217.978 317.873 218.793L300.542 228.843C298.707 230.019 297.181 231.618 296.092 233.506C295.003 235.394 294.383 237.516 294.284 239.693V257.953C294.297 259.217 294.029 260.468 293.501 261.616C292.972 262.765 292.196 263.782 291.228 264.594C290.46 265.025 289.596 265.256 288.715 265.266C288.103 265.313 287.495 265.137 287.003 264.77L272.152 251.007C270.976 249.986 269.451 249.458 267.895 249.535C265.776 249.582 263.704 250.172 261.878 251.248L218.877 275.957C218.483 276.212 218.032 276.366 217.565 276.405C216.828 276.405 216.716 275.349 216.716 274.804V226.09C216.819 224.637 217.252 223.226 217.981 221.964C218.71 220.703 219.717 219.624 220.925 218.809L319.97 161.645C320.363 161.389 320.814 161.235 321.282 161.197M321.282 159.148C320.453 159.176 319.646 159.425 318.946 159.869L219.901 217.016C218.378 218.013 217.111 219.353 216.202 220.929C215.293 222.505 214.768 224.273 214.668 226.09V274.724C214.668 277.093 215.836 278.453 217.565 278.453C218.391 278.424 219.196 278.181 219.901 277.749L262.902 253.024C264.417 252.127 266.135 251.631 267.895 251.584C268.918 251.519 269.928 251.839 270.728 252.48L285.579 266.243C286.464 267.005 287.613 267.39 288.779 267.315C290.02 267.309 291.238 266.983 292.316 266.371C294.573 265.058 296.413 261.298 296.413 257.953V239.693C296.509 237.875 297.033 236.106 297.942 234.529C298.852 232.952 300.121 231.613 301.646 230.619L318.898 220.633C320.422 219.639 321.69 218.299 322.6 216.722C323.509 215.146 324.034 213.377 324.131 211.559V162.877C324.131 160.509 322.946 159.148 321.218 159.148H321.282Z" fill="#E6E6E6"/>
<path d="M293.275 198.948C296.604 197.044 299.308 198.596 299.308 202.437C299.192 204.526 298.585 206.557 297.536 208.367C296.488 210.177 295.028 211.715 293.275 212.855C289.962 214.776 287.258 213.223 287.258 209.383C287.373 207.293 287.977 205.261 289.022 203.448C290.068 201.636 291.524 200.094 293.275 198.948Z" fill="#455A64"/>
<path d="M269.209 212.84C272.537 210.919 275.226 212.472 275.226 216.312C275.115 218.402 274.512 220.437 273.466 222.25C272.421 224.063 270.962 225.603 269.209 226.746C265.88 228.651 263.191 227.099 263.191 223.258C263.305 221.17 263.909 219.139 264.955 217.329C266 215.519 267.457 213.981 269.209 212.84Z" fill="#455A64"/>
<path d="M245.123 226.714C248.451 224.794 251.14 226.362 251.14 230.203C251.026 232.29 250.422 234.321 249.377 236.131C248.331 237.942 246.874 239.48 245.123 240.621C241.81 242.542 239.105 240.989 239.105 237.148C239.22 235.059 239.825 233.026 240.87 231.214C241.915 229.401 243.372 227.86 245.123 226.714Z" fill="#455A64"/>
<g opacity="0.2">
<path d="M268.888 103.281C268.888 108.706 265.079 112.162 260.358 114.883L8.52977 260.305C3.8408 263.01 0 260.817 0 255.376V160.956C0.00363618 157.975 0.790585 155.048 2.28199 152.466C3.7734 149.885 5.91689 147.741 8.49776 146.249L260.342 0.763281C261.208 0.263455 262.19 0.000214537 263.189 1.31078e-07C264.189 -0.000214275 265.171 0.262606 266.037 0.76206C266.903 1.26151 267.622 1.98002 268.123 2.84542C268.623 3.71082 268.887 4.69265 268.888 5.6923V103.281Z" fill="black"/>
</g>
<path d="M23.0449 273.076L21.1085 271.955C19.5819 270.962 18.3111 269.623 17.399 268.046C16.487 266.469 15.9595 264.7 15.8594 262.881V162.573C15.9583 160.754 16.4852 158.984 17.3974 157.407C18.3095 155.83 19.581 154.491 21.1085 153.499L271.544 8.84482C273.167 8.02361 274.959 7.5957 276.777 7.5957C278.596 7.5957 280.388 8.02361 282.011 8.84482L283.947 9.96505C285.468 10.9528 286.736 12.2844 287.647 13.8522C288.559 15.4201 289.09 17.1803 289.196 18.9909V119.348C289.097 121.167 288.57 122.936 287.658 124.513C286.746 126.09 285.474 127.429 283.947 128.422L115.4 225.802C112.103 227.906 109.407 230.828 107.574 234.284L88.1783 275.348C86.6561 278.486 84.3594 281.185 81.505 283.19C79.2325 284.486 75.1037 284.198 72.1591 282.534L70.8628 281.765C69.3387 280.775 68.0702 279.438 67.1608 277.864C66.2514 276.289 65.7267 274.523 65.6297 272.707V260.641C65.6297 257.312 63.2772 255.952 60.3806 257.616L33.5111 273.14C31.8839 273.951 30.0885 274.368 28.2703 274.357C26.4521 274.346 24.662 273.907 23.0449 273.076Z" fill="url(#paint2_linear_3487_1754)"/>
<path opacity="0.25" d="M23.0449 273.076L21.1085 271.955C19.5819 270.962 18.3111 269.623 17.399 268.046C16.487 266.469 15.9595 264.7 15.8594 262.881V162.573C15.9583 160.754 16.4852 158.984 17.3974 157.407C18.3095 155.83 19.581 154.491 21.1085 153.499L271.544 8.84482C273.167 8.02361 274.959 7.5957 276.777 7.5957C278.596 7.5957 280.388 8.02361 282.011 8.84482L283.947 9.96505C285.468 10.9528 286.736 12.2844 287.647 13.8522C288.559 15.4201 289.09 17.1803 289.196 18.9909V119.348C289.097 121.167 288.57 122.936 287.658 124.513C286.746 126.09 285.474 127.429 283.947 128.422L115.4 225.802C112.103 227.906 109.407 230.828 107.574 234.284L88.1783 275.348C86.6561 278.486 84.3594 281.185 81.505 283.19C79.2325 284.486 75.1037 284.198 72.1591 282.534L70.8628 281.765C69.3387 280.775 68.0702 279.438 67.1608 277.864C66.2514 276.289 65.7267 274.523 65.6297 272.707V260.641C65.6297 257.312 63.2772 255.952 60.3806 257.616L33.5111 273.14C31.8839 273.951 30.0885 274.368 28.2703 274.357C26.4521 274.346 24.662 273.907 23.0449 273.076Z" fill="black"/>
<path d="M289.194 18.9909C289.194 15.6462 286.858 14.302 283.961 15.9663L33.5095 160.62C32.2103 161.426 31.1149 162.522 30.3088 163.821L17.9062 156.667C18.7181 155.373 19.8123 154.279 21.1069 153.467L271.543 8.84482C273.165 8.02361 274.958 7.5957 276.776 7.5957C278.594 7.5957 280.387 8.02361 282.009 8.84482L283.961 9.96505C285.48 10.9537 286.746 12.2858 287.655 13.8537C288.564 15.4216 289.091 17.1814 289.194 18.9909Z" fill="url(#paint3_linear_3487_1754)"/>
<path opacity="0.45" d="M289.194 18.9909C289.194 15.6462 286.858 14.302 283.961 15.9663L33.5095 160.62C32.2103 161.426 31.1149 162.522 30.3088 163.821L17.9062 156.667C18.7181 155.373 19.8123 154.279 21.1069 153.467L271.543 8.84482C273.165 8.02361 274.958 7.5957 276.776 7.5957C278.594 7.5957 280.387 8.02361 282.009 8.84482L283.961 9.96505C285.48 10.9537 286.746 12.2858 287.655 13.8537C288.564 15.4216 289.091 17.1814 289.194 18.9909Z" fill="white"/>
<path d="M80.0032 282.613C79.7935 282.605 79.5896 282.542 79.4125 282.43C79.2353 282.317 79.0912 282.16 78.995 281.973C78.5839 281.219 78.39 280.366 78.4348 279.509V253.775C78.4348 250.927 76.8345 248.974 74.5141 248.974C73.4995 249.003 72.5109 249.302 71.6494 249.838L33.0014 272.147C32.4544 272.496 31.8252 272.695 31.177 272.723C29.4807 272.723 29.3047 270.835 29.3047 270.019V169.742C29.4069 168.105 29.8861 166.513 30.7051 165.092C31.524 163.67 32.6605 162.458 34.0256 161.548L284.542 16.9101C285.088 16.5599 285.718 16.3611 286.366 16.334C287.966 16.334 288.222 18.2224 288.222 19.0385V119.347C288.121 120.983 287.642 122.572 286.823 123.991C286.004 125.41 284.867 126.62 283.501 127.525L114.906 224.905C111.42 227.11 108.576 230.196 106.665 233.851L87.2687 274.916C85.8298 277.862 83.6724 280.399 80.9954 282.293C80.6998 282.488 80.3568 282.598 80.0032 282.613Z" fill="#FAFAFA"/>
<path d="M286.299 17.3905C287.019 17.3905 287.131 18.4468 287.131 19.0709V119.348C287.03 120.804 286.599 122.218 285.87 123.483C285.14 124.747 284.132 125.829 282.922 126.645L114.359 224.025C110.704 226.343 107.723 229.583 105.717 233.419L86.3214 274.484C84.9622 277.236 82.9516 279.615 80.4642 281.413C80.3214 281.5 80.1642 281.559 80.0001 281.589C79.856 281.509 79.456 280.869 79.456 279.509V253.776C79.456 250.367 77.4236 247.982 74.5109 247.982C73.3175 248.009 72.1523 248.351 71.1342 248.975L32.4862 271.299C32.0942 271.556 31.6417 271.705 31.1739 271.731C30.4378 271.731 30.3258 270.675 30.3258 270.051V169.742C30.4265 168.286 30.8579 166.872 31.5872 165.607C32.3165 164.343 33.3245 163.261 34.5346 162.445L284.987 17.7906C285.379 17.5347 285.831 17.3858 286.299 17.3585M286.299 15.2941C285.466 15.3293 284.656 15.5773 283.946 16.0143L33.5105 160.668C31.9851 161.662 30.716 163.001 29.8066 164.578C28.8972 166.155 28.3732 167.924 28.2773 169.742V270.051C28.2773 272.419 29.4456 273.796 31.1739 273.796C32.0019 273.761 32.8068 273.513 33.5105 273.076L72.1585 250.671C72.8683 250.236 73.679 249.994 74.5109 249.967C76.2233 249.967 77.4075 251.327 77.4075 253.696V279.429C77.4075 281.989 78.4798 283.558 80.0001 283.558C80.5321 283.543 81.0508 283.388 81.5044 283.11C84.3588 281.105 86.6555 278.406 88.1777 275.268L107.574 234.203C109.406 230.748 112.102 227.826 115.399 225.722L283.946 128.342C285.474 127.349 286.745 126.01 287.657 124.433C288.57 122.856 289.097 121.087 289.195 119.268V18.9909C289.195 16.6224 288.011 15.2461 286.299 15.2461V15.2941Z" fill="#E6E6E6"/>
<path d="M50.8906 198.42V170.174C50.9167 169.671 51.0795 169.185 51.3615 168.768C51.6435 168.35 52.034 168.018 52.491 167.806L53.6912 167.102C54.7581 166.472 55.2915 166.632 55.2915 167.582V178.48L60.2046 175.647V164.749C60.2271 164.245 60.3885 163.757 60.6709 163.339C60.9533 162.921 61.3458 162.59 61.8049 162.381L62.9731 161.693C64.0773 161.052 64.5734 161.196 64.5734 162.141V190.403C64.5474 190.906 64.3846 191.392 64.1026 191.809C63.8206 192.227 63.4301 192.559 62.9731 192.771L61.8049 193.443C60.6847 194.083 60.2046 193.939 60.2046 192.995V181.473L55.2915 184.305V195.828C55.2679 196.329 55.1059 196.815 54.8234 197.23C54.541 197.645 54.1491 197.974 53.6912 198.18L52.491 198.884C51.4667 199.524 50.8906 199.364 50.8906 198.42Z" fill="#455A64"/>
<path d="M68.7188 188.146V167.71C68.7563 167.191 68.9359 166.693 69.2379 166.269C69.54 165.846 69.9528 165.514 70.4311 165.31L71.2312 164.846C72.3835 164.173 72.9596 164.317 72.9596 165.262V185.698C72.9225 186.219 72.7411 186.719 72.4359 187.143C72.1307 187.567 71.7136 187.898 71.2312 188.098L70.4311 188.562C69.2948 189.235 68.7188 189.091 68.7188 188.146ZM68.9108 162.429V159.82C68.9108 158.876 69.5509 158.028 70.8312 157.292C72.1114 156.556 72.8476 156.604 72.8476 157.548V160.189C72.8476 161.133 72.2074 161.981 70.9272 162.717C69.6469 163.453 68.9108 163.373 68.9108 162.429Z" fill="#455A64"/>
<path d="M76.4961 183.633V179.568C76.5186 179.064 76.68 178.577 76.9625 178.159C77.2449 177.741 77.6373 177.409 78.0964 177.2L79.0406 176.656C80.1448 176 80.6409 176.16 80.6409 177.104V181.169C80.6149 181.672 80.4521 182.158 80.1701 182.575C79.8881 182.993 79.4976 183.325 79.0406 183.537L78.0964 184.081C77.0882 184.721 76.4961 184.577 76.4961 183.633ZM77.3763 174.319C77.1682 174.207 77.0722 173.903 77.0722 173.407V155.019C77.0954 154.514 77.2569 154.024 77.539 153.603C77.8212 153.183 78.2132 152.848 78.6725 152.635L79.9848 151.883C80.3343 151.621 80.765 151.49 81.2011 151.515C81.5051 151.515 81.6492 151.771 81.6492 152.155L80.1929 171.535C80.1622 171.991 80.0426 172.437 79.8408 172.847C79.555 173.253 79.1691 173.578 78.7206 173.791L78.4965 173.935C78.0964 174.303 77.6163 174.415 77.4243 174.319H77.3763Z" fill="#455A64"/>
<path d="M50.8906 240.125V211.879C50.9156 211.374 51.0778 210.885 51.3597 210.464C51.6417 210.044 52.0327 209.709 52.491 209.494L53.6912 208.806C54.7794 208.182 55.2915 208.342 55.2915 209.27V220.185L60.2046 217.352V206.438C60.2289 205.934 60.391 205.447 60.6732 205.03C60.9554 204.612 61.3469 204.28 61.8049 204.069L62.9731 203.397C64.0773 202.757 64.5734 202.901 64.5734 203.845V232.091C64.5485 232.596 64.3864 233.085 64.1044 233.506C63.8224 233.926 63.4313 234.261 62.9731 234.476L61.8049 235.148C60.6847 235.788 60.2046 235.644 60.2046 234.7V223.177L55.2915 226.01V237.532C55.2679 238.034 55.1059 238.519 54.8234 238.934C54.541 239.35 54.1491 239.679 53.6912 239.885L52.491 240.573C51.4667 241.213 50.8906 241.069 50.8906 240.125Z" fill="#455A64"/>
<path d="M69.6621 227.914C68.6699 226.442 68.1738 223.769 68.1738 219.913C68.0866 216.65 68.5853 213.398 69.6461 210.311C70.4009 207.993 71.9477 206.016 74.015 204.726C75.9515 203.621 77.4077 203.797 78.3999 205.254C79.3921 206.71 79.8882 209.366 79.8882 213.255C79.9782 216.556 79.4741 219.847 78.3999 222.969C77.6444 225.295 76.0914 227.279 74.015 228.57C72.1107 229.563 70.6544 229.387 69.6621 227.914ZM75.2313 221.065C75.5229 219.272 75.6461 217.456 75.5994 215.64C75.6662 213.962 75.5427 212.281 75.2313 210.631C74.9912 209.767 74.6072 209.495 74.047 209.815C73.7054 210.081 73.4214 210.414 73.2123 210.794C73.0032 211.174 72.8734 211.592 72.8308 212.023C72.5383 213.81 72.4151 215.622 72.4627 217.432C72.397 219.116 72.5205 220.801 72.8308 222.457C73.0708 223.337 73.4709 223.609 74.047 223.273C74.3828 223.004 74.6608 222.669 74.8643 222.29C75.0678 221.91 75.1926 221.494 75.2313 221.065Z" fill="#455A64"/>
<path d="M85.3923 221.417C85.2003 221.417 85.0883 221.241 85.0562 220.889L82.0156 202.133C82.0156 201.957 82.0156 201.749 82.0156 201.477C82.0156 200.708 82.6077 199.988 83.776 199.316C84.9442 198.644 85.8084 198.452 85.8404 199.06L86.5765 209.526L86.8646 214.327H86.9766C87.0886 212.551 87.2487 210.759 87.4407 208.934L88.641 197.572C88.6805 197.216 88.8382 196.883 89.0891 196.628C89.3849 196.288 89.7367 196.001 90.1293 195.779L90.8814 195.347C91.1851 195.14 91.5389 195.019 91.9057 194.995C91.9647 194.986 92.0251 194.989 92.0825 195.006C92.1399 195.023 92.1928 195.052 92.2373 195.092C92.2818 195.132 92.3168 195.182 92.3397 195.237C92.3627 195.292 92.3729 195.352 92.3698 195.411L93.57 205.477C93.7141 206.55 93.8581 208.15 94.0021 210.278H94.1141C94.1141 209.846 94.1141 209.414 94.2101 208.95C94.3062 208.486 94.2101 208.086 94.2101 207.734L94.3542 205.221L95.1383 193.875C95.1383 193.219 95.8265 192.547 97.0587 191.827C98.291 191.106 98.8031 191.203 98.8031 191.971C98.8031 192.243 98.8031 192.467 98.8031 192.643L95.8264 214.903C95.7785 215.248 95.6451 215.575 95.4382 215.854C95.2313 216.134 94.9576 216.357 94.6422 216.504L93.73 217.032C93.4726 217.227 93.1566 217.328 92.8338 217.32C92.6738 217.32 92.5618 217.096 92.5298 216.808L90.7214 206.23C90.7214 205.525 90.6254 204.981 90.6094 204.629C90.6094 203.765 90.5294 203.237 90.4974 203.029H90.3694C90.3694 203.797 90.2733 204.389 90.2573 204.773C90.2573 205.718 90.2573 206.374 90.1453 206.566L88.3689 219.208C88.3437 219.525 88.2331 219.829 88.0489 220.089C87.8165 220.382 87.5282 220.627 87.2007 220.809L86.2405 221.353C85.9719 221.464 85.6746 221.487 85.3923 221.417Z" fill="#455A64"/>
<path d="M105.59 198.404C105.59 190.435 107.654 185.255 111.783 182.865C112.392 182.496 113.065 182.246 113.768 182.129C114.311 182.028 114.873 182.106 115.368 182.353C115.567 182.473 115.729 182.646 115.836 182.852C115.943 183.058 115.992 183.289 115.976 183.521C115.923 184.31 115.772 185.09 115.528 185.842C115.224 186.866 114.952 187.442 114.68 187.618C114.594 187.656 114.501 187.676 114.408 187.676C114.314 187.676 114.221 187.656 114.136 187.618C113.829 187.562 113.519 187.524 113.207 187.506C112.872 187.526 112.548 187.631 112.263 187.81C111.38 188.413 110.757 189.328 110.519 190.371C110.072 192.165 109.878 194.012 109.943 195.86C109.856 197.479 110.039 199.102 110.487 200.661C110.526 200.836 110.609 200.999 110.729 201.134C110.848 201.268 111 201.37 111.17 201.43C111.34 201.489 111.522 201.504 111.7 201.473C111.877 201.442 112.043 201.366 112.183 201.253C112.529 201.038 112.847 200.78 113.127 200.485C113.384 200.211 113.624 199.922 113.848 199.621L114.216 199.14C114.37 198.925 114.541 198.721 114.728 198.532C115.016 198.372 115.304 198.628 115.576 199.3C115.839 199.89 115.981 200.527 115.992 201.173C115.94 201.878 115.69 202.555 115.272 203.125C114.78 203.894 114.2 204.603 113.544 205.238C112.99 205.794 112.372 206.283 111.703 206.694C107.617 209.052 105.579 206.289 105.59 198.404Z" fill="#455A64"/>
<path d="M119.131 200.565C118.328 199.21 117.975 197.636 118.123 196.068C117.982 193.632 118.533 191.205 119.714 189.069C120.895 186.934 122.657 185.177 124.796 184.001V183.297C124.869 182.649 124.723 181.996 124.38 181.441C124.108 181.153 123.66 181.185 123.052 181.537C122.633 181.766 122.254 182.064 121.932 182.417C121.612 182.769 121.244 183.201 120.843 183.729C120.683 183.998 120.477 184.236 120.235 184.433C120.043 184.545 119.835 184.433 119.611 184.129C119.351 183.772 119.146 183.379 119.003 182.961C118.85 182.579 118.763 182.173 118.747 181.761C118.803 181.103 119.035 180.473 119.419 179.937C119.915 179.171 120.5 178.467 121.164 177.84C121.835 177.229 122.57 176.693 123.356 176.24C125.356 175.103 126.797 174.943 127.693 175.776C128.754 177.138 129.236 178.862 129.037 180.577V188.578C129.037 189.923 129.037 190.947 129.117 191.619C129.197 192.291 129.213 193.043 129.293 193.859C129.352 194.16 129.384 194.465 129.389 194.772C129.389 195.252 128.989 195.828 128.221 196.5C127.597 197.104 126.91 197.641 126.173 198.1C125.868 198.276 125.644 198.228 125.532 197.956C125.351 197.47 125.222 196.966 125.148 196.452C124.853 197.312 124.455 198.135 123.964 198.9C123.489 199.683 122.83 200.336 122.044 200.805C120.779 201.429 119.819 201.429 119.131 200.565ZM124.172 194.387C124.447 193.945 124.657 193.465 124.796 192.963V187.794C123.845 188.364 123.072 189.19 122.566 190.177C122.059 191.164 121.84 192.274 121.932 193.379C121.884 193.989 122.011 194.6 122.3 195.14C122.556 195.476 122.892 195.524 123.34 195.268C123.686 195.048 123.972 194.746 124.172 194.387Z" fill="#455A64"/>
<path d="M132.972 192.755V178.672C132.972 176.576 132.972 175.119 132.828 174.287C132.684 173.455 132.684 172.943 132.684 172.687C132.75 172.311 132.891 171.952 133.097 171.631C133.303 171.31 133.57 171.032 133.884 170.814C134.525 170.209 135.227 169.673 135.98 169.214C136.332 169.006 136.572 169.038 136.684 169.294C136.833 169.645 136.92 170.018 136.94 170.398C136.94 170.894 137.021 171.279 137.069 171.551C137.468 170.381 138.005 169.264 138.669 168.222C139.196 167.323 139.939 166.57 140.829 166.029C141.886 165.421 142.686 165.469 143.23 166.205C143.895 167.462 144.179 168.886 144.046 170.302V186.306C144.018 186.808 143.855 187.294 143.573 187.711C143.291 188.128 142.902 188.461 142.446 188.674L141.469 189.234C140.365 189.874 139.869 189.73 139.869 188.786V174.383C139.918 173.84 139.841 173.292 139.645 172.783C139.485 172.511 139.213 172.479 138.813 172.783C138.106 173.354 137.606 174.141 137.389 175.023V190.226C137.389 190.686 137.243 191.135 136.973 191.507C136.654 191.958 136.231 192.326 135.74 192.579L134.748 193.155C133.516 193.843 132.972 193.699 132.972 192.755Z" fill="#455A64"/>
<path d="M152.207 181.648V153.419C152.226 152.908 152.386 152.412 152.668 151.986C152.95 151.559 153.344 151.219 153.807 151.002L155.008 150.314C156.096 149.69 156.608 149.85 156.608 150.826V179.024C156.589 179.533 156.43 180.027 156.147 180.451C155.865 180.874 155.47 181.212 155.008 181.424L153.807 182.129C152.751 182.785 152.207 182.609 152.207 181.648Z" fill="#455A64"/>
<path d="M165.043 174.223V143.689C165.068 143.184 165.23 142.695 165.512 142.275C165.794 141.855 166.185 141.519 166.643 141.305L167.62 140.745C168.724 140.104 169.22 140.264 169.22 141.193V152.635C169.629 151.561 170.166 150.54 170.82 149.594C171.333 148.765 172.035 148.069 172.869 147.562C173.925 146.954 174.725 147.018 175.269 147.738C175.951 148.989 176.241 150.417 176.101 151.835V167.838C176.079 168.342 175.917 168.83 175.635 169.248C175.353 169.666 174.96 169.998 174.501 170.207L173.541 170.767C172.421 171.407 171.94 171.263 171.94 170.319V155.916C171.994 155.369 171.906 154.818 171.684 154.315C171.508 154.043 171.22 154.027 170.82 154.315C170.113 154.877 169.617 155.661 169.412 156.54V171.855C169.384 172.359 169.22 172.847 168.938 173.267C168.657 173.686 168.268 174.022 167.812 174.239L166.835 174.8C165.603 175.328 165.043 175.168 165.043 174.223Z" fill="#455A64"/>
<path d="M180.758 163.853C179.701 162.477 179.157 159.852 179.157 156.011C179.021 152.542 179.565 149.079 180.758 145.817C181.601 143.611 183.148 141.744 185.158 140.504C187.031 139.432 188.359 139.656 189.239 141.208C190.255 143.781 190.681 146.547 190.488 149.306C190.401 149.968 190.207 150.612 189.911 151.21C189.741 151.803 189.44 152.349 189.031 152.811L183.59 156.011C183.49 156.997 183.721 157.988 184.246 158.828C184.646 159.228 185.19 159.228 185.847 158.828C186.269 158.57 186.656 158.258 186.999 157.9C187.335 157.516 187.671 157.116 187.991 156.668C188.17 156.409 188.374 156.168 188.599 155.947C188.791 155.835 188.999 155.947 189.239 156.219C189.505 156.549 189.711 156.923 189.847 157.324C189.988 157.682 190.069 158.06 190.088 158.444C190.053 159.22 189.785 159.967 189.319 160.588C188.796 161.356 188.183 162.06 187.495 162.685C186.93 163.222 186.308 163.694 185.639 164.093C183.446 165.293 181.814 165.229 180.758 163.853ZM186.615 150.218C186.672 148.78 186.554 147.339 186.263 145.929C186.039 145.177 185.655 144.937 185.11 145.257C184.477 145.729 184.052 146.43 183.926 147.21C183.59 148.788 183.413 150.397 183.398 152.011L186.615 150.218Z" fill="#455A64"/>
<path d="M193.32 152.843V127.333C193.36 126.811 193.542 126.31 193.847 125.884C194.151 125.458 194.567 125.123 195.049 124.917L195.849 124.453C197.001 123.797 197.561 123.941 197.561 124.885V150.49C197.537 150.839 197.592 151.189 197.721 151.514C197.839 151.696 198.015 151.696 198.249 151.514C198.366 151.436 198.473 151.345 198.569 151.242C198.665 151.139 198.773 151.048 198.889 150.97C199.13 150.826 199.338 151.098 199.498 151.787C199.64 152.433 199.715 153.093 199.722 153.755C199.692 154.517 199.391 155.243 198.873 155.803C198.356 156.444 197.727 156.986 197.017 157.404C194.553 158.844 193.32 157.324 193.32 152.843Z" fill="#455A64"/>
<path d="M201.881 161.965V139.016C201.881 137.656 201.881 136.648 201.881 135.991C201.881 135.335 201.769 134.583 201.689 133.783C201.647 133.491 201.62 133.197 201.609 132.903C201.609 132.439 201.993 131.847 202.762 131.174C203.391 130.57 204.083 130.033 204.826 129.574C205.194 129.35 205.466 129.43 205.61 129.814C205.796 130.392 205.925 130.987 205.994 131.59C206.264 130.556 206.679 129.564 207.227 128.646C207.657 127.867 208.28 127.212 209.035 126.741C209.361 126.498 209.761 126.376 210.167 126.396C210.574 126.417 210.96 126.578 211.259 126.854C212.068 127.749 212.596 128.862 212.78 130.054C213.193 132.092 213.38 134.169 213.34 136.247C213.414 139.442 212.988 142.628 212.076 145.689C211.562 147.762 210.31 149.577 208.555 150.794C208.224 151.059 207.816 151.21 207.392 151.225C206.968 151.239 206.551 151.116 206.202 150.874V159.484C206.165 160.005 205.984 160.506 205.679 160.93C205.373 161.354 204.956 161.684 204.474 161.885L203.674 162.349C202.458 163.021 201.881 162.909 201.881 161.965ZM208.571 144.041C208.889 142.256 209.023 140.444 208.971 138.632C209.034 137.023 208.916 135.413 208.619 133.831C208.395 132.919 208.027 132.615 207.531 132.903C206.774 133.568 206.28 134.482 206.138 135.479V146.394C206.316 146.495 206.518 146.548 206.722 146.548C206.927 146.548 207.128 146.495 207.307 146.394C207.665 146.107 207.961 145.751 208.179 145.346C208.396 144.942 208.529 144.498 208.571 144.041Z" fill="#455A64"/>
<path d="M231.217 115.155C231.217 115.262 231.217 115.534 231.217 115.971L226.416 148.362C226.306 148.77 226.105 149.148 225.828 149.466C225.55 149.785 225.204 150.037 224.815 150.202L224.255 150.522C223.183 151.146 222.655 151.146 222.655 150.522C222.664 150.243 222.696 149.964 222.751 149.69L224.351 139.48C224.152 139.609 223.916 139.671 223.679 139.656C223.519 139.656 223.407 139.48 223.343 139.128L220.014 122.676C219.959 122.38 219.921 122.081 219.902 121.78C219.902 121.108 220.382 120.484 221.343 119.94L222.575 119.22C222.874 119.011 223.221 118.879 223.583 118.836C223.823 118.836 223.967 119.012 224.031 119.396L225.087 127.749C225.199 128.742 225.36 130.294 225.552 132.422H225.664C225.76 131.334 225.824 130.63 225.872 130.31C225.989 128.838 226.085 127.771 226.16 127.109L227.296 117.411C227.392 117.013 227.579 116.642 227.843 116.328C228.106 116.014 228.44 115.766 228.816 115.603L229.648 115.123C230.657 114.499 231.217 114.499 231.217 115.155Z" fill="#455A64"/>
<path d="M234.512 132.726C233.52 131.254 233.024 128.597 233.024 124.725C232.945 121.462 233.443 118.212 234.496 115.123C235.261 112.815 236.806 110.846 238.865 109.554C240.801 108.433 242.258 108.609 243.266 110.066C244.274 111.522 244.754 114.179 244.754 118.067C244.843 121.368 244.339 124.658 243.266 127.781C242.499 130.106 240.942 132.087 238.865 133.382C236.96 134.391 235.504 134.215 234.512 132.726ZM240.097 125.893C240.374 124.093 240.492 122.272 240.449 120.452C240.51 118.78 240.392 117.106 240.097 115.459C239.852 114.595 239.452 114.323 238.897 114.643C238.552 114.903 238.266 115.232 238.056 115.61C237.847 115.988 237.719 116.405 237.681 116.835C237.396 118.629 237.278 120.445 237.329 122.26C237.261 123.943 237.379 125.628 237.681 127.285C237.921 128.165 238.321 128.437 238.897 128.101C239.236 127.833 239.517 127.499 239.723 127.12C239.929 126.74 240.056 126.323 240.097 125.893Z" fill="#455A64"/>
<path d="M248.612 126.213C247.912 124.974 247.615 123.548 247.764 122.132V106.129C247.787 105.625 247.948 105.137 248.231 104.719C248.513 104.301 248.905 103.97 249.365 103.761L250.341 103.2C251.445 102.56 251.941 102.704 251.941 103.649V118.212C251.885 118.755 251.962 119.304 252.165 119.812C252.309 120.1 252.597 120.116 252.997 119.812C253.7 119.238 254.2 118.452 254.422 117.571V102.208C254.425 101.744 254.57 101.291 254.838 100.912C255.16 100.474 255.575 100.113 256.054 99.8558L257.062 99.2796C258.15 98.6395 258.662 98.7995 258.662 99.7437V113.827C258.662 115.96 258.711 117.433 258.807 118.244C258.903 119.108 258.951 119.636 258.951 119.844C258.951 120.372 258.55 120.98 257.75 121.684C257.107 122.287 256.405 122.823 255.654 123.285C255.302 123.493 255.062 123.477 254.934 123.285C254.798 122.925 254.717 122.548 254.694 122.164C254.694 121.684 254.614 121.3 254.566 121.028C254.157 122.183 253.62 123.289 252.965 124.325C252.465 125.205 251.749 125.943 250.885 126.469C250.005 126.901 249.172 126.853 248.612 126.213Z" fill="#455A64"/>
<path d="M264.119 108.273C263.895 108.273 263.783 107.937 263.783 107.473C263.787 106.219 263.926 104.968 264.199 103.744C264.514 102.395 264.92 101.069 265.415 99.7754L266.055 98.175C266.583 96.8948 266.967 95.9025 267.207 95.1664C267.424 94.5756 267.548 93.9548 267.575 93.326C267.575 91.6723 266.951 91.2082 265.703 91.9337C265.312 92.1635 264.965 92.4616 264.679 92.8139C264.369 93.1766 264.065 93.5767 263.767 94.0141C263.623 94.2849 263.434 94.5286 263.206 94.7343C262.966 94.8783 262.694 94.8143 262.422 94.5103C262.121 94.1681 261.878 93.7788 261.702 93.358C261.531 92.9796 261.434 92.5724 261.414 92.1578C261.441 91.3238 261.701 90.5142 262.166 89.8213C262.698 88.9728 263.332 88.1934 264.055 87.5008C264.725 86.8382 265.471 86.258 266.279 85.7725C268.039 84.7642 269.48 84.6042 270.488 85.3084C271.496 86.0125 272.088 87.5488 272.088 89.9013C272.093 90.9764 271.986 92.0491 271.768 93.102C271.57 94.0033 271.297 94.8865 270.952 95.7425C270.648 96.5107 270.216 97.4709 269.656 98.6071C269.084 99.7404 268.576 100.905 268.135 102.096C267.761 103.128 267.519 104.203 267.415 105.296C267.361 105.721 267.207 106.126 266.967 106.481C266.67 106.84 266.306 107.139 265.895 107.361L265.239 107.745C265.097 107.903 264.924 108.031 264.732 108.122C264.54 108.212 264.331 108.264 264.119 108.273ZM263.414 117.443V113.41C263.454 112.888 263.636 112.386 263.941 111.96C264.246 111.534 264.661 111.2 265.143 110.994L266.055 110.466C267.191 109.809 267.767 109.953 267.767 110.898V114.946C267.729 115.467 267.55 115.967 267.248 116.393C266.946 116.819 266.534 117.154 266.055 117.363L265.143 117.891C263.991 118.515 263.414 118.387 263.414 117.443Z" fill="#455A64"/>
<defs>
<linearGradient id="paint0_linear_3487_1754" x1="205.802" y1="279.042" x2="353.688" y2="222.234" gradientUnits="userSpaceOnUse">
<stop stop-color="#001F3E"/>
<stop offset="0.588108" stop-color="#203DA3"/>
<stop offset="1" stop-color="#3752E9"/>
</linearGradient>
<linearGradient id="paint1_linear_3487_1754" x1="207.728" y1="220.265" x2="319.695" y2="141.806" gradientUnits="userSpaceOnUse">
<stop stop-color="#001F3E"/>
<stop offset="0.588108" stop-color="#203DA3"/>
<stop offset="1" stop-color="#3752E9"/>
</linearGradient>
<linearGradient id="paint2_linear_3487_1754" x1="23.9266" y1="284" x2="352.426" y2="153.371" gradientUnits="userSpaceOnUse">
<stop stop-color="#001F3E"/>
<stop offset="0.588108" stop-color="#203DA3"/>
<stop offset="1" stop-color="#3752E9"/>
</linearGradient>
<linearGradient id="paint3_linear_3487_1754" x1="25.913" y1="163.821" x2="279.74" y2="-13.4224" gradientUnits="userSpaceOnUse">
<stop stop-color="#001F3E"/>
<stop offset="0.588108" stop-color="#203DA3"/>
<stop offset="1" stop-color="#3752E9"/>
</linearGradient>
</defs>
</svg>
