<svg width="60" height="61" viewBox="0 0 60 61" fill="none" xmlns="http://www.w3.org/2000/svg">
<path d="M31.25 3.625C31.25 3.12772 31.0525 2.65081 30.7008 2.29917C30.3492 1.94754 29.8723 1.75 29.375 1.75C28.8777 1.75 28.4008 1.94754 28.0492 2.29917C27.6975 2.65081 27.5 3.12772 27.5 3.625V25.35L16.1175 13.9625C15.9446 13.7833 15.7378 13.6404 15.5091 13.542C15.2804 13.4437 15.0344 13.3918 14.7854 13.3895C14.5364 13.3873 14.2895 13.4346 14.059 13.5287C13.8286 13.6229 13.6192 13.762 13.443 13.938C13.2669 14.114 13.1276 14.3233 13.0332 14.5536C12.9388 14.784 12.8912 15.0309 12.8933 15.2799C12.8953 15.5288 12.9469 15.7749 13.0451 16.0037C13.1433 16.2325 13.286 16.4395 13.465 16.6125L24.85 28H3.125C2.62772 28 2.15081 28.1975 1.79917 28.5492C1.44754 28.9008 1.25 29.3777 1.25 29.875C1.25 30.3723 1.44754 30.8492 1.79917 31.2008C2.15081 31.5525 2.62772 31.75 3.125 31.75H24.85L13.465 43.1325C13.1233 43.486 12.9341 43.9595 12.9381 44.4511C12.9421 44.9428 13.1391 45.4131 13.4866 45.7609C13.8341 46.1087 14.3043 46.3061 14.7959 46.3107C15.2875 46.3152 15.7612 46.1264 16.115 45.785L27.5 34.4025V56.125C27.5 56.6223 27.6975 57.0992 28.0492 57.4508C28.4008 57.8025 28.8777 58 29.375 58C29.8723 58 30.3492 57.8025 30.7008 57.4508C31.0525 57.0992 31.25 56.6223 31.25 56.125V34.4L42.6325 45.785C42.986 46.1267 43.4595 46.3159 43.9511 46.3119C44.4428 46.3079 44.9131 46.1109 45.2609 45.7634C45.6087 45.4159 45.8061 44.9457 45.8107 44.4541C45.8152 43.9625 45.6264 43.4888 45.285 43.135L33.9025 31.75H55.625C56.1223 31.75 56.5992 31.5525 56.9508 31.2008C57.3025 30.8492 57.5 30.3723 57.5 29.875C57.5 29.3777 57.3025 28.9008 56.9508 28.5492C56.5992 28.1975 56.1223 28 55.625 28H33.9L45.285 16.6175C45.4642 16.4446 45.6071 16.2378 45.7055 16.0091C45.8038 15.7804 45.8557 15.5344 45.858 15.2854C45.8602 15.0364 45.8129 14.7895 45.7188 14.559C45.6246 14.3286 45.4855 14.1192 45.3095 13.943C45.1335 13.7669 44.9242 13.6276 44.6939 13.5332C44.4635 13.4388 44.2166 13.3912 43.9676 13.3933C43.7187 13.3953 43.4726 13.4469 43.2438 13.5451C43.015 13.6433 42.808 13.786 42.635 13.965L31.25 25.3475V3.625Z" fill="#3ACBCC"/>
</svg>
