<svg width="27" height="26" viewBox="0 0 27 26" fill="none" xmlns="http://www.w3.org/2000/svg">
<path d="M9.02272 2.56982H18.031C21.4627 2.56982 24.251 5.29132 24.251 8.64085V17.4334C24.251 19.0435 23.5956 20.5877 22.4292 21.7262C21.2627 22.8648 19.6806 23.5044 18.031 23.5044H9.02272C5.591 23.5044 2.80273 20.7829 2.80273 17.4334V8.64085C2.80273 7.03072 3.45805 5.48653 4.62453 4.34799C5.791 3.20945 7.37308 2.56982 9.02272 2.56982ZM8.80824 4.66328C7.78432 4.66328 6.80234 5.06029 6.07832 5.76697C5.35431 6.47365 4.94756 7.43211 4.94756 8.43151V17.6427C4.94756 19.7257 6.67414 21.4109 8.80824 21.4109H18.2455C19.2694 21.4109 20.2514 21.0139 20.9754 20.3073C21.6994 19.6006 22.1061 18.6421 22.1061 17.6427V8.43151C22.1061 6.34852 20.3796 4.66328 18.2455 4.66328H8.80824ZM19.157 6.23338C19.5125 6.23338 19.8535 6.37123 20.1049 6.6166C20.3563 6.86198 20.4975 7.19477 20.4975 7.54179C20.4975 7.8888 20.3563 8.2216 20.1049 8.46697C19.8535 8.71235 19.5125 8.8502 19.157 8.8502C18.8015 8.8502 18.4605 8.71235 18.2091 8.46697C17.9577 8.2216 17.8165 7.8888 17.8165 7.54179C17.8165 7.19477 17.9577 6.86198 18.2091 6.6166C18.4605 6.37123 18.8015 6.23338 19.157 6.23338ZM13.5268 7.80347C14.949 7.80347 16.3128 8.35487 17.3184 9.33637C18.324 10.3179 18.8889 11.6491 18.8889 13.0371C18.8889 14.4252 18.324 15.7564 17.3184 16.7379C16.3128 17.7194 14.949 18.2708 13.5268 18.2708C12.1047 18.2708 10.7409 17.7194 9.7353 16.7379C8.72972 15.7564 8.16479 14.4252 8.16479 13.0371C8.16479 11.6491 8.72972 10.3179 9.7353 9.33637C10.7409 8.35487 12.1047 7.80347 13.5268 7.80347ZM13.5268 9.89693C12.6736 9.89693 11.8553 10.2278 11.2519 10.8167C10.6486 11.4056 10.3096 12.2043 10.3096 13.0371C10.3096 13.8699 10.6486 14.6687 11.2519 15.2576C11.8553 15.8465 12.6736 16.1773 13.5268 16.1773C14.3801 16.1773 15.1984 15.8465 15.8018 15.2576C16.4051 14.6687 16.7441 13.8699 16.7441 13.0371C16.7441 12.2043 16.4051 11.4056 15.8018 10.8167C15.1984 10.2278 14.3801 9.89693 13.5268 9.89693Z" fill="white"/>
</svg>
