<svg width="26" height="26" viewBox="0 0 26 26" fill="none" xmlns="http://www.w3.org/2000/svg">
<path d="M20.4008 3.25C20.9669 3.25 21.5098 3.47827 21.9101 3.8846C22.3104 4.29093 22.5352 4.84203 22.5352 5.41667V20.5833C22.5352 21.158 22.3104 21.7091 21.9101 22.1154C21.5098 22.5217 20.9669 22.75 20.4008 22.75H5.45964C4.89355 22.75 4.35065 22.5217 3.95036 22.1154C3.55007 21.7091 3.3252 21.158 3.3252 20.5833V5.41667C3.3252 4.84203 3.55007 4.29093 3.95036 3.8846C4.35065 3.47827 4.89355 3.25 5.45964 3.25H20.4008ZM19.8672 20.0417V14.3C19.8672 13.3633 19.5006 12.4651 18.8482 11.8027C18.1957 11.1404 17.3108 10.7683 16.388 10.7683C15.4809 10.7683 14.4243 11.3317 13.9121 12.1767V10.9742H10.9345V20.0417H13.9121V14.7008C13.9121 13.8667 14.5737 13.1842 15.3955 13.1842C15.7918 13.1842 16.1718 13.344 16.452 13.6284C16.7322 13.9128 16.8896 14.2986 16.8896 14.7008V20.0417H19.8672ZM7.46603 9.27333C7.94154 9.27333 8.39758 9.08158 8.73383 8.74027C9.07007 8.39895 9.25897 7.93603 9.25897 7.45333C9.25897 6.44583 8.45855 5.6225 7.46603 5.6225C6.98768 5.6225 6.52892 5.81539 6.19068 6.15874C5.85244 6.50209 5.66242 6.96777 5.66242 7.45333C5.66242 8.46083 6.47351 9.27333 7.46603 9.27333ZM8.94947 20.0417V10.9742H5.99326V20.0417H8.94947Z" fill="white"/>
</svg>
