<svg width="94" height="87" viewBox="0 0 94 87" fill="none" xmlns="http://www.w3.org/2000/svg">
<rect width="94" height="87" rx="10" fill="#722FFE"/>
<path d="M75.4375 66.9687H65.539C70.9538 62.5911 74.6465 56.4402 75.9645 49.6032C77.2826 42.7662 76.141 35.6834 72.7416 29.6067C69.3422 23.53 63.9039 18.8508 57.388 16.3962C50.8721 13.9416 43.6982 13.8697 37.1344 16.1932C30.5706 18.5167 25.0396 23.0859 21.5191 29.0932C17.9985 35.1005 16.7152 42.159 17.8959 49.0211C19.0766 55.8832 22.6452 62.1068 27.9711 66.592C33.297 71.0772 40.0371 73.5351 47 73.5312H75.4375C76.3077 73.5312 77.1423 73.1854 77.7577 72.5701C78.373 71.9547 78.7187 71.1201 78.7187 70.2499C78.7187 69.3797 78.373 68.5451 77.7577 67.9297C77.1423 67.3144 76.3077 66.9687 75.4375 66.9687ZM24.0312 43.9999C24.0312 39.4571 25.3783 35.0163 27.9022 31.2391C30.426 27.462 34.0132 24.518 38.2102 22.7795C42.4072 21.0411 47.0255 20.5862 51.481 21.4725C55.9365 22.3587 60.0291 24.5463 63.2413 27.7585C66.4536 30.9708 68.6411 35.0634 69.5274 39.5189C70.4137 43.9744 69.9588 48.5927 68.2203 52.7897C66.4819 56.9866 63.5379 60.5739 59.7607 63.0977C55.9835 65.6216 51.5428 66.9687 47 66.9687C40.9103 66.9621 35.0719 64.5401 30.7658 60.2341C26.4598 55.928 24.0377 50.0896 24.0312 43.9999ZM41.5312 31.9686C41.5312 30.887 41.852 29.8297 42.4529 28.9304C43.0538 28.031 43.9079 27.3301 44.9072 26.9162C45.9065 26.5023 47.0061 26.394 48.0669 26.605C49.1277 26.816 50.1022 27.3368 50.867 28.1017C51.6318 28.8665 52.1526 29.8409 52.3637 30.9017C52.5747 31.9626 52.4664 33.0622 52.0524 34.0614C51.6385 35.0607 50.9376 35.9148 50.0383 36.5157C49.1389 37.1167 48.0816 37.4374 47 37.4374C45.5496 37.4374 44.1586 36.8612 43.133 35.8356C42.1074 34.81 41.5312 33.4191 41.5312 31.9686ZM47 61.4999C45.9184 61.4999 44.861 61.1792 43.9617 60.5783C43.0624 59.9773 42.3614 59.1232 41.9475 58.124C41.5336 57.1247 41.4253 56.0251 41.6363 54.9642C41.8473 53.9034 42.3682 52.929 43.133 52.1642C43.8978 51.3993 44.8722 50.8785 45.9331 50.6675C46.9939 50.4565 48.0935 50.5648 49.0928 50.9787C50.0921 51.3926 50.9462 52.0935 51.5471 52.9929C52.148 53.8922 52.4687 54.9495 52.4687 56.0312C52.4687 56.7493 52.3273 57.4604 52.0524 58.124C51.7776 58.7874 51.3748 59.3903 50.867 59.8981C50.3592 60.406 49.7563 60.8088 49.0928 61.0836C48.4293 61.3584 47.7182 61.4999 47 61.4999ZM53.5625 43.9999C53.5625 42.9183 53.8832 41.861 54.4841 40.9616C55.085 40.0623 55.9392 39.3613 56.9384 38.9474C57.9377 38.5335 59.0373 38.4252 60.0981 38.6362C61.159 38.8472 62.1334 39.3681 62.8982 40.1329C63.663 40.8977 64.1839 41.8722 64.3949 42.933C64.6059 43.9938 64.4976 45.0934 64.0837 46.0927C63.6698 47.092 62.9688 47.9461 62.0695 48.547C61.1702 49.1479 60.1129 49.4686 59.0312 49.4686C57.5808 49.4686 56.1898 48.8925 55.1642 47.8669C54.1387 46.8413 53.5625 45.4503 53.5625 43.9999ZM40.4375 43.9999C40.4375 45.0815 40.1167 46.1388 39.5158 47.0382C38.9149 47.9375 38.0608 48.6384 37.0615 49.0524C36.0623 49.4663 34.9627 49.5746 33.9018 49.3636C32.841 49.1526 31.8666 48.6317 31.1017 47.8669C30.3369 47.1021 29.8161 46.1276 29.6051 45.0668C29.3941 44.006 29.5023 42.9064 29.9163 41.9071C30.3302 40.9078 31.0311 40.0537 31.9305 39.4528C32.8298 38.8519 33.8871 38.5311 34.9687 38.5311C36.4191 38.5311 37.8101 39.1073 38.8357 40.1329C39.8613 41.1585 40.4375 42.5495 40.4375 43.9999Z" fill="white"/>
</svg>
