<svg width="101" height="88" viewBox="0 0 101 88" fill="none" xmlns="http://www.w3.org/2000/svg">
<path d="M37.8605 88H0V50.1395C0 43.3178 0.682171 36.9509 2.04651 31.0388C3.63824 24.8992 5.91215 19.5556 8.86822 15.0078C12.0517 10.4599 16.031 6.82171 20.8062 4.09303C25.5814 1.36434 31.1525 0 37.5194 0V17.0543C33.6538 17.0543 30.4703 18.0775 27.969 20.124C25.4677 21.9432 23.4212 24.4445 21.8295 27.6279C20.2377 30.8114 19.1008 34.4496 18.4186 38.5426C17.9638 42.4083 17.7364 46.2739 17.7364 50.1395H37.8605V88ZM100.279 88H62.4186V50.1395C62.4186 43.3178 63.1008 36.9509 64.4651 31.0388C66.0569 24.8992 68.3308 19.5556 71.2868 15.0078C74.4703 10.4599 78.4496 6.82171 83.2248 4.09303C88 1.36434 93.5711 0 99.938 0V17.0543C96.0724 17.0543 92.8889 18.0775 90.3876 20.124C87.8863 21.9432 85.8398 24.4445 84.2481 27.6279C82.6563 30.8114 81.5194 34.4496 80.8372 38.5426C80.3824 42.4083 80.1551 46.2739 80.1551 50.1395H100.279V88Z" fill="url(#paint0_linear_1_2117)"/>
<defs>
<linearGradient id="paint0_linear_1_2117" x1="50.1395" y1="0" x2="50.1395" y2="88" gradientUnits="userSpaceOnUse">
<stop stop-color="#CFD7FE"/>
<stop offset="1" stop-color="#3ACBCC"/>
</linearGradient>
</defs>
</svg>
