<svg width="50" height="50" viewBox="0 0 50 50" fill="none" xmlns="http://www.w3.org/2000/svg">
<g clip-path="url(#clip0_2873_7203)">
<g clip-path="url(#clip1_2873_7203)">
<g clip-path="url(#clip2_2873_7203)">
<path d="M44.4444 0H5.55556C2.48731 0 0 2.48731 0 5.55556V44.4444C0 47.5127 2.48731 50 5.55556 50H44.4444C47.5127 50 50 47.5127 50 44.4444V5.55556C50 2.48731 47.5127 0 44.4444 0Z" fill="#7635DC" fill-opacity="0.1"/>
<g clip-path="url(#clip3_2873_7203)">
<path d="M25.3508 12.7501H19.4008C17.9011 12.7501 16.8808 12.7501 16.0933 12.8166C15.3268 12.8779 14.9331 12.9916 14.6601 13.1316C14.0015 13.4672 13.4661 14.0026 13.1306 14.6611C12.9906 14.9341 12.8768 15.3261 12.8156 16.0944C12.7508 16.8801 12.7491 17.8951 12.7491 19.4001V28.8501C12.7491 30.3499 12.7508 31.3701 12.8156 32.1576C12.8786 32.9241 12.9923 33.3179 13.1306 33.5909C13.4666 34.2489 14.0021 34.7844 14.6601 35.1204C14.9331 35.2604 15.3268 35.3741 16.0933 35.4354C16.5308 35.4704 17.0383 35.4879 17.6596 35.4949C17.8871 36.1249 18.2336 36.7234 18.7026 37.2449C16.2176 37.2414 14.9051 37.1976 13.8726 36.6726C12.8857 36.1695 12.0832 35.367 11.5801 34.3801C11.0078 33.2566 11.0078 31.7901 11.0078 28.8501V19.4001C11.0078 16.4601 11.0078 14.9901 11.5801 13.8701C12.0852 12.8846 12.8871 12.0827 13.8726 11.5776C14.9961 11.0054 16.4626 11.0054 19.4026 11.0054H25.3526C28.2926 11.0054 29.7626 11.0054 30.8826 11.5776C31.868 12.0827 32.6699 12.8846 33.1751 13.8701C33.5951 14.6926 33.7071 15.7076 33.7368 17.3526C33.5271 17.3488 33.3173 17.3576 33.1086 17.3789C32.7749 16.9702 32.3835 16.6123 31.9466 16.3166L31.9308 16.1066C31.8678 15.3401 31.7558 14.9464 31.6158 14.6716C31.28 14.0137 30.7446 13.479 30.0863 13.1439C29.8133 13.0039 29.4213 12.8901 28.6531 12.8289C27.8656 12.7641 26.8506 12.7624 25.3456 12.7624L25.3508 12.7501Z" fill="#7635DC"/>
<path d="M25.1217 16.25H15.3742C15.1421 16.25 14.9196 16.3422 14.7555 16.5063C14.5914 16.6704 14.4992 16.8929 14.4992 17.125C14.4992 17.3571 14.5914 17.5796 14.7555 17.7437C14.9196 17.9078 15.1421 18 15.3742 18H20.7467C21.7086 17.4756 22.8068 17.2547 23.8967 17.3665C24.2502 16.9343 24.6684 16.5563 25.1392 16.25H25.1217ZM15.3742 21.5H17.6667C17.4612 22.0609 17.3529 22.6527 17.3464 23.25H15.3864C15.1544 23.25 14.9318 23.1578 14.7677 22.9937C14.6036 22.8296 14.5114 22.6071 14.5114 22.375C14.5114 22.1429 14.6036 21.9204 14.7677 21.7563C14.9318 21.5922 15.1544 21.5 15.3864 21.5H15.3742ZM15.5317 26.75H15.3672C15.1351 26.75 14.9126 26.8422 14.7485 27.0063C14.5844 27.1704 14.4922 27.3929 14.4922 27.625C14.4922 27.8571 14.5844 28.0796 14.7485 28.2437C14.9126 28.4078 15.1351 28.5 15.3672 28.5V28.0835C15.3672 27.6227 15.422 27.1782 15.5317 26.75Z" fill="#7635DC"/>
<path fill-rule="evenodd" clip-rule="evenodd" d="M28.5 32C30.425 32 32 30.4338 32 28.5C32 26.575 30.4338 25 28.5 25C26.575 25 25 26.5662 25 28.5C25 30.425 26.5662 32 28.5 32ZM28.5 30.25C28.9641 30.25 29.4092 30.0656 29.7374 29.7374C30.0656 29.4092 30.25 28.9641 30.25 28.5C30.25 28.0359 30.0656 27.5908 29.7374 27.2626C29.4092 26.9344 28.9641 26.75 28.5 26.75C28.0359 26.75 27.5908 26.9344 27.2626 27.2626C26.9344 27.5908 26.75 28.0359 26.75 28.5C26.75 28.9641 26.9344 29.4092 27.2626 29.7374C27.5908 30.0656 28.0359 30.25 28.5 30.25Z" fill="#7635DC"/>
<path fill-rule="evenodd" clip-rule="evenodd" d="M28.8494 18.0001H28.0199C26.6374 18.0001 25.4824 19.0063 25.2724 20.3276C25.1481 20.3755 25.025 20.4263 24.9031 20.4798C24.3662 20.097 23.7108 19.9173 23.0538 19.9728C22.3968 20.0282 21.7808 20.3152 21.3156 20.7826L20.7259 21.3723C20.2598 21.8382 19.9737 22.454 19.9182 23.1107C19.8628 23.7673 20.0417 24.4224 20.4231 24.9598C20.3694 25.0823 20.3187 25.2054 20.2709 25.3291C19.6211 25.4389 19.0312 25.7749 18.6052 26.2777C18.1793 26.7804 17.9449 27.4176 17.9434 28.0766V28.9061C17.9434 30.2938 18.9531 31.4436 20.2709 31.6711C20.3175 31.7924 20.3671 31.9126 20.4196 32.0316C20.0351 32.5708 19.8541 33.2289 19.9089 33.8889C19.9637 34.5489 20.2507 35.1681 20.7189 35.6366L21.2964 36.2141C22.2799 37.1976 23.8164 37.2991 24.9189 36.5081C25.0332 36.5606 25.1487 36.609 25.2654 36.6533C25.3733 37.3086 25.7106 37.9042 26.2171 38.3337C26.7236 38.7633 27.3662 38.9988 28.0304 38.9983H28.8319C30.2319 38.9983 31.3869 37.9763 31.6144 36.6358C31.7287 36.5903 31.8419 36.5431 31.9539 36.4941C33.0529 37.2886 34.5964 37.1906 35.5939 36.2018L36.1556 35.6401C37.1444 34.6513 37.2424 33.1026 36.4479 32.0001C36.498 31.8869 36.5453 31.7737 36.5896 31.6606C37.2495 31.5526 37.8496 31.2134 38.2824 30.7036C38.7152 30.1939 38.9526 29.5468 38.9521 28.8781V28.0766C38.9521 26.6818 37.9354 25.5216 36.6071 25.3116C36.5618 25.1939 36.514 25.0772 36.4636 24.9616C37.2511 23.8678 37.1531 22.3366 36.1661 21.3391L35.5921 20.7651C35.1237 20.2969 34.5044 20.0099 33.8444 19.9551C33.1844 19.9004 32.5263 20.0813 31.9871 20.4658C31.8681 20.413 31.7479 20.3628 31.6266 20.3153C31.5163 19.6626 31.1777 19.0703 30.6713 18.644C30.1649 18.2178 29.5236 17.9852 28.8616 17.9878L28.8494 18.0001ZM26.9769 20.8001C26.9769 20.2243 27.4424 19.7588 28.0181 19.7588H28.8476C29.4251 19.7588 29.8941 20.2278 29.8941 20.8053C29.8941 21.2988 30.2424 21.7171 30.7096 21.8781C30.9849 21.9726 31.2521 22.084 31.5111 22.2123C31.9556 22.4311 32.5016 22.3821 32.8516 22.0321C33.0484 21.836 33.3149 21.7259 33.5927 21.7259C33.8706 21.7259 34.1371 21.836 34.3339 22.0321L34.9096 22.6078C35.1071 22.8057 35.218 23.0738 35.218 23.3533C35.218 23.6329 35.1071 23.901 34.9096 24.0988C34.5579 24.4506 34.5071 24.9966 34.7241 25.4428C34.8466 25.696 34.9539 25.9567 35.0461 26.2251C35.2089 26.6976 35.6306 27.0511 36.1294 27.0511C36.7121 27.0511 37.1846 27.5236 37.1846 28.1063V28.9078C37.1846 29.1891 37.0729 29.4588 36.874 29.6577C36.6751 29.8566 36.4054 29.9683 36.1241 29.9683C35.6236 29.9683 35.2001 30.3218 35.0356 30.7926C34.9446 31.0562 34.8384 31.3123 34.7171 31.5608C34.4984 32.0106 34.5474 32.5618 34.9026 32.9153C35.0013 33.0137 35.0796 33.1305 35.133 33.2592C35.1864 33.3879 35.2139 33.5259 35.2139 33.6652C35.2139 33.8045 35.1864 33.9425 35.133 34.0712C35.0796 34.1998 35.0013 34.3167 34.9026 34.4151L34.3409 34.9768C34.2425 35.0755 34.1256 35.1538 33.997 35.2072C33.8683 35.2606 33.7303 35.2881 33.591 35.2881C33.4517 35.2881 33.3137 35.2606 33.185 35.2072C33.0563 35.1538 32.9395 35.0755 32.8411 34.9768C32.4876 34.6233 31.9364 34.5726 31.4866 34.7913C31.2381 34.9126 30.982 35.0188 30.7184 35.1098C30.2459 35.2743 29.8924 35.6978 29.8924 36.1983C29.8924 36.4796 29.7806 36.7493 29.5817 36.9482C29.3829 37.1471 29.1131 37.2588 28.8319 37.2588H28.0304C27.7505 37.2588 27.4821 37.1476 27.2842 36.9497C27.0863 36.7518 26.9751 36.4834 26.9751 36.2036C26.9751 35.7048 26.6216 35.2813 26.1491 35.1203C25.8821 35.0288 25.6209 34.9213 25.3669 34.7983C24.9206 34.5813 24.3746 34.6321 24.0229 34.9821C23.825 35.1796 23.5569 35.2905 23.2774 35.2905C22.9978 35.2905 22.7297 35.1796 22.5319 34.9821L21.9561 34.4063C21.76 34.2095 21.6499 33.943 21.6499 33.6652C21.6499 33.3874 21.76 33.1209 21.9561 32.9241C22.3061 32.5741 22.3551 32.0281 22.1364 31.5836C22.0085 31.3236 21.8968 31.0559 21.8021 30.7821C21.6411 30.3148 21.2229 29.9666 20.7294 29.9666C20.4521 29.9656 20.1864 29.8551 19.9904 29.659C19.7943 29.463 19.6838 29.1973 19.6829 28.9201V28.0906C19.6829 27.5148 20.1484 27.0493 20.7241 27.0493C21.2176 27.0493 21.6341 26.7011 21.7934 26.2338C21.8887 25.9551 22.0015 25.6828 22.1311 25.4183C22.3481 24.9773 22.2991 24.4366 21.9509 24.0883C21.7557 23.8928 21.6461 23.6278 21.6461 23.3516C21.6461 23.0753 21.7557 22.8104 21.9509 22.6148L22.5406 22.0251C22.7361 21.8299 23.0011 21.7203 23.2774 21.7203C23.5536 21.7203 23.8186 21.8299 24.0141 22.0251C24.3624 22.3733 24.9031 22.4223 25.3441 22.2053C25.6066 22.077 25.8784 21.9644 26.1596 21.8676C26.6269 21.7101 26.9751 21.2918 26.9751 20.7983L26.9769 20.8001Z" fill="#7635DC"/>
</g>
</g>
</g>
</g>
<defs>
<clipPath id="clip0_2873_7203">
<rect width="50" height="50" fill="white"/>
</clipPath>
<clipPath id="clip1_2873_7203">
<rect width="50" height="50" fill="white"/>
</clipPath>
<clipPath id="clip2_2873_7203">
<rect width="50" height="50" fill="white"/>
</clipPath>
<clipPath id="clip3_2873_7203">
<rect width="28" height="28" fill="white" transform="translate(11 11)"/>
</clipPath>
</defs>
</svg>
