<svg width="1440" height="132" viewBox="0 0 1440 132" fill="none" xmlns="http://www.w3.org/2000/svg">
<g clip-path="url(#clip0_77_1188)">
<rect width="1440" height="80" transform="translate(-0.957375 51.152) rotate(-2)" fill="#CFD7FE"/>
<path d="M122.096 64.8658L128.743 81.0667L145.368 86.5669L129.167 93.2134L123.667 109.838L117.02 93.6375L100.395 88.1374L116.596 81.4909L122.096 64.8658Z" fill="#3752E9"/>
<path d="M189.353 85.4843L180.967 85.7771L181.122 90.2158L190.679 89.8821L190.787 92.9857L177.706 93.4425L177.103 76.1796L189.763 75.7375L189.87 78.7942L180.735 79.1132L180.863 82.779L189.248 82.4861L189.353 85.4843ZM192.033 84.6637L198.755 84.429L198.866 87.5911L192.143 87.8258L192.033 84.6637ZM213.721 90.895C212.473 92.1189 210.847 92.766 208.84 92.836C206.357 92.9227 204.377 92.1945 202.901 90.6514C201.424 89.1004 200.637 86.9312 200.539 84.1439C200.434 81.1301 201.161 78.7791 202.72 77.0908C204.076 75.6207 205.839 74.8478 208.01 74.772C210.914 74.6705 213.071 75.5489 214.481 77.4071C215.26 78.4509 215.696 79.5105 215.788 80.5861L212.181 80.7121C211.918 79.8926 211.595 79.2785 211.213 78.8697C210.531 78.1431 209.546 77.8022 208.258 77.8472C206.946 77.893 205.93 78.4601 205.21 79.5484C204.489 80.6289 204.163 82.1373 204.231 84.0736C204.298 86.0099 204.747 87.4482 205.577 88.3886C206.415 89.3209 207.451 89.7655 208.684 89.7224C209.949 89.6782 210.899 89.2307 211.534 88.3799C211.885 87.9221 212.166 87.2439 212.377 86.3453L215.949 86.2206C215.703 88.1132 214.96 89.6713 213.721 90.895ZM226.571 92.2168C224.104 92.303 222.195 91.6974 220.844 90.4C219.038 88.8136 218.081 86.4706 217.972 83.3709C217.862 80.2088 218.653 77.8047 220.347 76.1587C221.604 74.7702 223.466 74.0329 225.933 73.9467C228.401 73.8606 230.31 74.4662 231.66 75.7636C233.457 77.2878 234.41 79.6309 234.521 82.793C234.629 85.8927 233.841 88.2967 232.158 90.0049C230.901 91.3934 229.039 92.1307 226.571 92.2168ZM229.818 87.46C230.616 86.3768 230.982 84.8631 230.914 82.919C230.846 80.9827 230.372 79.5022 229.492 78.4776C228.62 77.445 227.469 76.9536 226.04 77.0035C224.611 77.0534 223.49 77.6202 222.676 78.7039C221.861 79.7877 221.488 81.3017 221.556 83.2458C221.624 85.1899 222.102 86.6741 222.99 87.6985C223.878 88.7228 225.036 89.21 226.465 89.1601C227.893 89.1102 229.011 88.5435 229.818 87.46ZM240.89 91.2361L237.528 91.3535L236.926 74.0905L242.172 73.9073L245.785 87.3715L248.426 73.6889L253.615 73.5077L254.217 90.7707L250.856 90.888L250.448 79.2116C250.437 78.8758 250.424 78.4072 250.411 77.8058C250.398 77.1965 250.385 76.7279 250.374 76.4L247.612 91.0013L244.11 91.1236L240.36 76.7496C240.372 77.0776 240.392 77.5459 240.421 78.1546C240.45 78.7555 240.47 79.2239 240.482 79.5596L240.89 91.2361ZM260.87 90.5384L257.508 90.6557L256.906 73.3928L262.152 73.2096L265.765 86.6737L268.406 72.9912L273.595 72.81L274.197 90.0729L270.836 90.1903L270.428 78.5138C270.417 78.1781 270.404 77.7095 270.391 77.108C270.378 76.4988 270.365 76.0302 270.354 75.7022L267.592 90.3036L264.09 90.4259L260.34 76.0519C260.352 76.3798 260.372 76.8482 260.401 77.4569C260.43 78.0578 260.45 78.5261 260.462 78.8619L260.87 90.5384ZM289.3 81.9941L280.914 82.2869L281.069 86.7256L290.626 86.3919L290.734 89.4955L277.652 89.9523L277.05 72.6894L289.71 72.2473L289.817 75.304L280.681 75.623L280.81 79.2887L289.195 78.9959L289.3 81.9941ZM300.64 82.372L296.916 82.502L297.152 89.2713L293.627 89.3944L293.024 72.1315L301.492 71.8358C302.703 71.817 303.637 71.9329 304.295 72.1835C304.96 72.4339 305.528 72.8167 306 73.3318C306.39 73.7559 306.703 74.2296 306.941 74.7529C307.178 75.2762 307.308 75.8775 307.332 76.5568C307.361 77.3766 307.182 78.1919 306.796 79.0027C306.41 79.8058 305.746 80.3879 304.805 80.7491C305.612 81.0414 306.19 81.4785 306.539 82.0604C306.895 82.6343 307.094 83.5263 307.137 84.7365L307.177 85.896C307.205 86.6846 307.255 87.2183 307.327 87.4972C307.436 87.939 307.666 88.2593 308.017 88.4581L308.032 88.8914L304.062 89.03C303.939 88.6513 303.851 88.3456 303.796 88.113C303.685 87.6322 303.617 87.1382 303.591 86.6309L303.512 85.0273C303.458 83.9269 303.229 83.2001 302.826 82.8468C302.431 82.4932 301.702 82.3349 300.64 82.372ZM302.721 79.1568C303.427 78.8038 303.764 78.1432 303.73 77.175C303.694 76.1288 303.322 75.4382 302.614 75.1033C302.217 74.914 301.628 74.8329 300.847 74.8602L296.654 75.0066L296.816 79.6444L300.903 79.5017C301.715 79.4733 302.321 79.3583 302.721 79.1568ZM323.013 87.0784C321.766 88.3024 320.139 88.9494 318.133 89.0194C315.65 89.1062 313.67 88.3779 312.194 86.8348C310.717 85.2838 309.93 83.1146 309.832 80.3273C309.727 77.3135 310.454 74.9625 312.013 73.2742C313.369 71.8041 315.132 71.0312 317.303 70.9554C320.207 70.854 322.364 71.7323 323.774 73.5905C324.553 74.6343 324.988 75.694 325.081 76.7695L321.473 76.8955C321.21 76.076 320.888 75.4619 320.506 75.0531C319.824 74.3265 318.839 73.9856 317.551 74.0306C316.239 74.0764 315.223 74.6435 314.503 75.7318C313.782 76.8123 313.456 78.3207 313.523 80.257C313.591 82.1933 314.04 83.6317 314.87 84.572C315.708 85.5043 316.744 85.9489 317.977 85.9058C319.242 85.8616 320.192 85.4141 320.827 84.5633C321.178 84.1055 321.459 83.4273 321.67 82.5288L325.242 82.404C324.996 84.2966 324.253 85.8547 323.013 87.0784ZM339.964 80.2248L331.579 80.5177L331.734 84.9564L341.29 84.6226L341.399 87.7262L328.317 88.1831L327.714 70.9201L340.374 70.478L340.481 73.5348L331.346 73.8538L331.474 77.5195L339.859 77.2267L339.964 80.2248Z" fill="#222222"/>
<path d="M599.805 48.1839L606.451 64.3847L623.076 69.8849L606.876 76.5314L601.375 93.1565L594.729 76.9556L578.104 71.4554L594.305 64.8089L599.805 48.1839Z" fill="#3752E9"/>
<path d="M663.335 76.484L655.512 76.7572L654.909 59.4942L663.295 59.2014C665.412 59.1588 666.932 59.7193 667.856 60.8831C668.413 61.5985 668.709 62.4676 668.744 63.4904C668.781 64.5444 668.545 65.4008 668.037 66.0596C667.753 66.4291 667.327 66.7723 666.759 67.0892C667.653 67.3785 668.334 67.8628 668.804 68.5422C669.281 69.2213 669.537 70.0566 669.571 71.0482C669.607 72.071 669.381 72.9974 668.894 73.8274C668.585 74.3776 668.191 74.8447 667.712 75.2289C667.172 75.6699 666.527 75.9817 665.775 76.1643C665.031 76.3466 664.218 76.4532 663.335 76.484ZM662.988 68.886L658.69 69.0361L658.85 73.6387L663.09 73.4907C663.847 73.4643 664.433 73.3422 664.848 73.1244C665.6 72.7229 665.957 71.9913 665.92 70.9294C665.889 70.0315 665.497 69.4277 664.743 69.1178C664.323 68.9449 663.738 68.8676 662.988 68.886ZM664.665 65.5325C665.123 65.235 665.34 64.7232 665.315 63.9971C665.287 63.1929 664.956 62.6729 664.322 62.4371C663.777 62.2763 663.087 62.2105 662.252 62.2397L658.457 62.3722L658.59 66.1785L662.829 66.0304C663.587 66.004 664.199 65.838 664.665 65.5325ZM679.882 69.1286L676.157 69.2586L676.394 76.028L672.868 76.1511L672.266 58.8881L680.733 58.5924C681.944 58.5736 682.878 58.6895 683.536 58.9402C684.201 59.1905 684.77 59.5733 685.241 60.0884C685.631 60.5125 685.945 60.9862 686.182 61.5095C686.419 62.0328 686.55 62.6341 686.573 63.3134C686.602 64.1332 686.423 64.9485 686.037 65.7594C685.651 66.5624 684.987 67.1445 684.046 67.5057C684.854 67.798 685.432 68.2351 685.781 68.8171C686.137 69.3909 686.336 70.2829 686.378 71.4931L686.419 72.6526C686.446 73.4412 686.496 73.9749 686.568 74.2538C686.678 74.6956 686.908 75.0159 687.259 75.2147L687.274 75.648L683.304 75.7867C683.181 75.4079 683.092 75.1022 683.037 74.8696C682.926 74.3888 682.858 73.8948 682.833 73.3876L682.753 71.7839C682.699 70.6835 682.471 69.9567 682.067 69.6034C681.672 69.2498 680.943 69.0915 679.882 69.1286ZM681.962 65.9134C682.669 65.5604 683.005 64.8998 682.972 63.9316C682.935 62.8854 682.563 62.1948 681.856 61.86C681.458 61.6706 680.869 61.5895 680.088 61.6168L675.896 61.7632L676.058 66.401L680.145 66.2583C680.957 66.2299 681.563 66.115 681.962 65.9134ZM700.103 71.6471L693.743 71.8691L692.673 75.4595L688.902 75.5912L694.459 58.1131L698.535 57.9708L705.251 75.0202L701.339 75.1568L700.103 71.6471ZM698.992 68.7075L696.6 61.99L694.612 68.8604L698.992 68.7075ZM721.413 74.4558L717.806 74.5818L710.327 62.566L710.756 74.828L707.394 74.9454L706.791 57.6825L710.574 57.5504L717.87 69.3615L717.449 57.3103L720.81 57.1929L721.413 74.4558ZM732.223 74.0784L724.786 74.3381L724.183 57.0751L731.62 56.8154C732.69 56.7937 733.585 56.8875 734.303 57.097C735.528 57.4529 736.533 58.1487 737.32 59.1844C737.951 60.0222 738.393 60.937 738.647 61.9288C738.9 62.9206 739.043 63.8693 739.074 64.775C739.154 67.0705 738.762 69.0307 737.896 70.6556C736.722 72.8464 734.831 73.9873 732.223 74.0784ZM734.456 61.1253C733.869 60.2078 732.755 59.7776 731.116 59.8349L727.79 59.951L728.183 71.2176L731.509 71.1014C733.211 71.042 734.369 70.1612 734.982 68.4591C735.316 67.525 735.462 66.4216 735.417 65.1489C735.356 63.3922 735.035 62.051 734.456 61.1253ZM741.235 56.4797L744.819 56.3545L745.422 73.6174L741.838 73.7426L741.235 56.4797ZM762.755 73.0121L759.148 73.1381L751.669 61.1223L752.098 73.3843L748.736 73.5017L748.133 56.2388L751.916 56.1067L759.212 67.9179L758.791 55.8666L762.152 55.7492L762.755 73.0121ZM776.701 72.103C775.769 72.7219 774.608 73.0556 773.218 73.1041C770.93 73.184 769.029 72.4569 767.513 70.9229C765.935 69.3833 765.098 67.2316 765.001 64.4676C764.904 61.6724 765.594 59.4048 767.074 57.6646C768.553 55.9244 770.557 55.0101 773.087 54.9218C775.281 54.8452 777.061 55.3419 778.428 56.4121C779.801 57.4742 780.615 58.8333 780.868 60.4896L777.32 60.6135C777.005 59.4441 776.309 58.6437 775.231 58.2123C774.628 57.9753 773.964 57.8696 773.238 57.8949C771.848 57.9434 770.723 58.5104 769.862 59.5958C769.008 60.6731 768.618 62.2658 768.692 64.3739C768.766 66.4976 769.302 67.9837 770.301 68.8322C771.3 69.6806 772.417 70.0833 773.65 70.0403C774.86 69.998 775.84 69.6159 776.589 68.894C777.337 68.1644 777.781 67.2303 777.921 66.0919L773.928 66.2314L773.827 63.3503L781.018 63.0992L781.341 72.3631L778.952 72.4465L778.514 70.3043C777.848 71.1483 777.243 71.7479 776.701 72.103Z" fill="#222222"/>
<path d="M1040.54 32.7932L1047.18 48.9941L1063.81 54.4942L1047.61 61.1407L1042.11 77.7658L1035.46 61.5649L1018.84 56.0647L1035.04 49.4182L1040.54 32.7932Z" fill="#3752E9"/>
<path d="M1103.36 61.1181L1095.92 61.3778L1095.32 44.1149L1102.75 43.8552C1103.82 43.8334 1104.72 43.9273 1105.44 44.1367C1106.66 44.4926 1107.67 45.1884 1108.45 46.2241C1109.08 47.062 1109.53 47.9768 1109.78 48.9685C1110.03 49.9603 1110.18 50.909 1110.21 51.8147C1110.29 54.1102 1109.89 56.0704 1109.03 57.6954C1107.85 59.8861 1105.96 61.027 1103.36 61.1181ZM1105.59 48.1651C1105 47.2475 1103.89 46.8174 1102.25 46.8746L1098.92 46.9908L1099.32 58.2573L1102.64 58.1412C1104.34 58.0817 1105.5 57.201 1106.11 55.4989C1106.45 54.5647 1106.59 53.4613 1106.55 52.1887C1106.49 50.4319 1106.17 49.0907 1105.59 48.1651ZM1112.37 43.5194L1115.95 43.3943L1116.56 60.6572L1112.97 60.7823L1112.37 43.5194ZM1130.5 59.748C1129.57 60.3669 1128.41 60.7006 1127.02 60.7491C1124.73 60.829 1122.83 60.102 1121.31 58.568C1119.74 57.0284 1118.9 54.8766 1118.8 52.1126C1118.7 49.3175 1119.39 47.0498 1120.87 45.3096C1122.35 43.5694 1124.36 42.6552 1126.89 42.5668C1129.08 42.4902 1130.86 42.987 1132.23 44.0571C1133.6 45.1192 1134.41 46.4784 1134.67 48.1346L1131.12 48.2585C1130.81 47.0891 1130.11 46.2887 1129.03 45.8573C1128.43 45.6204 1127.76 45.5146 1127.04 45.5399C1125.65 45.5885 1124.52 46.1554 1123.66 47.2408C1122.81 48.3181 1122.42 49.9109 1122.49 52.0189C1122.57 54.1426 1123.1 55.6287 1124.1 56.4772C1125.1 57.3257 1126.22 57.7284 1127.45 57.6853C1128.66 57.643 1129.64 57.2609 1130.39 56.5391C1131.14 55.8094 1131.58 54.8753 1131.72 53.7369L1127.73 53.8764L1127.63 50.9953L1134.82 50.7442L1135.14 60.0081L1132.75 60.0916L1132.31 57.9493C1131.65 58.7934 1131.04 59.393 1130.5 59.748ZM1137.71 42.6344L1141.3 42.5092L1141.9 59.7721L1138.32 59.8973L1137.71 42.6344ZM1157.21 41.9534L1157.32 45.0102L1152.15 45.1905L1152.65 59.3967L1149.02 59.5235L1148.52 45.3173L1143.34 45.4985L1143.23 42.4417L1157.21 41.9534ZM1168.14 55.3029L1161.78 55.525L1160.71 59.1153L1156.94 59.247L1162.49 41.769L1166.57 41.6266L1173.29 58.6761L1169.37 58.8127L1168.14 55.3029ZM1167.03 52.3633L1164.63 45.6459L1162.65 52.5163L1167.03 52.3633ZM1174.89 41.3363L1178.49 41.2103L1178.99 55.3696L1187.54 55.0711L1187.64 58.1747L1175.49 58.5992L1174.89 41.3363ZM1199.71 57.7534L1196.35 57.8708L1195.74 40.6079L1200.99 40.4247L1204.6 53.8888L1207.24 40.2063L1212.43 40.0251L1213.04 57.288L1209.67 57.4054L1209.27 45.7289C1209.25 45.3932 1209.24 44.9246 1209.23 44.3231C1209.22 43.7138 1209.2 43.2452 1209.19 42.9173L1206.43 57.5187L1202.93 57.641L1199.18 43.267C1199.19 43.5949 1199.21 44.0632 1199.24 44.672C1199.27 45.2729 1199.29 45.7412 1199.3 46.0769L1199.71 57.7534ZM1226.37 53.2695L1220.01 53.4915L1218.94 57.0819L1215.17 57.2136L1220.72 39.7355L1224.8 39.5932L1231.52 56.6426L1227.6 56.7792L1226.37 53.2695ZM1225.26 50.3299L1222.86 43.6124L1220.88 50.4829L1225.26 50.3299ZM1240.81 49.5404L1237.09 49.6705L1237.33 56.4398L1233.8 56.5629L1233.2 39.3L1241.66 39.0043C1242.88 38.9854 1243.81 39.1013 1244.47 39.352C1245.13 39.6024 1245.7 39.9851 1246.17 40.5002C1246.56 40.9244 1246.88 41.3981 1247.11 41.9214C1247.35 42.4447 1247.48 43.0459 1247.5 43.7252C1247.53 44.545 1247.35 45.3604 1246.97 46.1712C1246.58 46.9742 1245.92 47.5563 1244.98 47.9175C1245.79 48.2098 1246.36 48.647 1246.71 49.2289C1247.07 49.8027 1247.27 50.6948 1247.31 51.905L1247.35 53.0644C1247.38 53.853 1247.43 54.3867 1247.5 54.6656C1247.61 55.1074 1247.84 55.4277 1248.19 55.6265L1248.21 56.0598L1244.24 56.1985C1244.11 55.8197 1244.02 55.514 1243.97 55.2814C1243.86 54.8006 1243.79 54.3066 1243.76 53.7994L1243.68 52.1957C1243.63 51.0954 1243.4 50.3685 1243 50.0152C1242.6 49.6616 1241.87 49.5033 1240.81 49.5404ZM1242.89 46.3252C1243.6 45.9722 1243.94 45.3116 1243.9 44.3435C1243.87 43.2972 1243.49 42.6067 1242.79 42.2718C1242.39 42.0824 1241.8 42.0014 1241.02 42.0286L1236.83 42.175L1236.99 46.8128L1241.08 46.6701C1241.89 46.6417 1242.49 46.5268 1242.89 46.3252ZM1266.35 55.4263L1261.71 55.5883L1256.12 48.2321L1254.46 50.0607L1254.66 55.8345L1251.11 55.9584L1250.51 38.6955L1254.06 38.5716L1254.3 45.6805L1260.72 38.3389L1265.38 38.1761L1258.56 45.5321L1266.35 55.4263ZM1280.14 47.3933L1271.75 47.6861L1271.91 52.1248L1281.46 51.7911L1281.57 54.8947L1268.49 55.3515L1267.89 38.0886L1280.55 37.6465L1280.65 40.7032L1271.52 41.0222L1271.65 44.6879L1280.03 44.3951L1280.14 47.3933ZM1296.32 37.0956L1296.43 40.1523L1291.26 40.3327L1291.76 54.5389L1288.13 54.6656L1287.63 40.4595L1282.45 40.6406L1282.34 37.5839L1296.32 37.0956ZM1298.16 37.0314L1301.75 36.9062L1302.35 54.1691L1298.76 54.2943L1298.16 37.0314ZM1319.68 53.5638L1316.07 53.6898L1308.6 41.674L1309.02 53.936L1305.66 54.0534L1305.06 36.7905L1308.84 36.6584L1316.14 48.4696L1315.72 36.4183L1319.08 36.3009L1319.68 53.5638ZM1333.63 52.6547C1332.69 53.2736 1331.53 53.6073 1330.14 53.6558C1327.86 53.7357 1325.95 53.0086 1324.44 51.4746C1322.86 49.935 1322.02 47.7833 1321.93 45.0193C1321.83 42.2241 1322.52 39.9565 1324 38.2163C1325.48 36.4761 1327.48 35.5618 1330.01 35.4735C1332.21 35.3969 1333.99 35.8937 1335.35 36.9638C1336.73 38.0259 1337.54 39.385 1337.79 41.0413L1334.25 41.1652C1333.93 39.9958 1333.23 39.1954 1332.16 38.764C1331.55 38.527 1330.89 38.4213 1330.16 38.4466C1328.77 38.4951 1327.65 39.0621 1326.79 40.1475C1325.93 41.2248 1325.54 42.8175 1325.62 44.9256C1325.69 47.0493 1326.23 48.5354 1327.23 49.3839C1328.23 50.2323 1329.34 50.635 1330.58 50.592C1331.79 50.5497 1332.77 50.1676 1333.51 49.4457C1334.26 48.7161 1334.71 47.782 1334.85 46.6436L1330.85 46.7831L1330.75 43.902L1337.94 43.6509L1338.27 52.9148L1335.88 52.9982L1335.44 50.856C1334.77 51.7001 1334.17 52.2996 1333.63 52.6547Z" fill="#222222"/>
</g>
<defs>
<clipPath id="clip0_77_1188">
<rect width="1440" height="80" fill="white" transform="translate(-0.957375 51.152) rotate(-2)"/>
</clipPath>
</defs>
</svg>
