<svg width="1240" height="647" viewBox="0 0 1240 647" fill="none" xmlns="http://www.w3.org/2000/svg">
<path d="M0 20C0 8.95432 8.9543 0 20 0H1220C1231.05 0 1240 8.95431 1240 20V647H0V20Z" fill="#EFF6FF"/>
<path d="M0 20C0 8.95431 8.9543 0 20 0H1220C1231.05 0 1240 8.9543 1240 20V54H0V20Z" fill="white"/>
<circle cx="38" cy="27" r="6" fill="#E11D48"/>
<circle cx="66" cy="27" r="6" fill="#F59E0B"/>
<circle cx="94" cy="27" r="6" fill="#059669"/>
<rect width="1160" height="515" transform="translate(40 97)" fill="white"/>
<path d="M146.586 284.938H156.867L166.867 319.906L176.961 284.938H186.961L171.242 331H162.149L146.586 284.938ZM198.072 296.938V331H189.041V296.938H198.072ZM198.072 284.656V292.875H189.041V284.656H198.072ZM235.809 285V331H227.152V326.281C225.882 328.302 224.434 329.771 222.809 330.688C221.184 331.604 219.163 332.062 216.746 332.062C212.767 332.062 209.413 330.458 206.684 327.25C203.975 324.021 202.621 319.885 202.621 314.844C202.621 309.031 203.955 304.458 206.621 301.125C209.309 297.792 212.892 296.125 217.371 296.125C219.434 296.125 221.267 296.583 222.871 297.5C224.475 298.396 225.777 299.646 226.777 301.25V285H235.809ZM211.809 314.188C211.809 317.333 212.434 319.844 213.684 321.719C214.913 323.615 216.788 324.562 219.309 324.562C221.83 324.562 223.746 323.625 225.059 321.75C226.371 319.875 227.027 317.448 227.027 314.469C227.027 310.302 225.975 307.323 223.871 305.531C222.58 304.448 221.08 303.906 219.371 303.906C216.767 303.906 214.85 304.896 213.621 306.875C212.413 308.833 211.809 311.271 211.809 314.188ZM271.17 321C270.941 323.021 269.889 325.073 268.014 327.156C265.097 330.469 261.014 332.125 255.764 332.125C251.43 332.125 247.607 330.729 244.295 327.938C240.982 325.146 239.326 320.604 239.326 314.312C239.326 308.417 240.816 303.896 243.795 300.75C246.795 297.604 250.68 296.031 255.451 296.031C258.285 296.031 260.837 296.562 263.107 297.625C265.378 298.688 267.253 300.365 268.732 302.656C270.066 304.677 270.93 307.021 271.326 309.688C271.555 311.25 271.649 313.5 271.607 316.438H248.295C248.42 319.854 249.493 322.25 251.514 323.625C252.743 324.479 254.222 324.906 255.951 324.906C257.785 324.906 259.274 324.385 260.42 323.344C261.045 322.781 261.597 322 262.076 321H271.17ZM262.357 310.562C262.212 308.208 261.493 306.427 260.201 305.219C258.93 303.99 257.347 303.375 255.451 303.375C253.389 303.375 251.785 304.021 250.639 305.312C249.514 306.604 248.805 308.354 248.514 310.562H262.357ZM304.125 301.25C307 304.854 308.438 309.115 308.438 314.031C308.438 319.031 307 323.312 304.125 326.875C301.25 330.417 296.885 332.188 291.031 332.188C285.177 332.188 280.812 330.417 277.938 326.875C275.062 323.312 273.625 319.031 273.625 314.031C273.625 309.115 275.062 304.854 277.938 301.25C280.812 297.646 285.177 295.844 291.031 295.844C296.885 295.844 301.25 297.646 304.125 301.25ZM291 303.375C288.396 303.375 286.385 304.302 284.969 306.156C283.573 307.99 282.875 310.615 282.875 314.031C282.875 317.448 283.573 320.083 284.969 321.938C286.385 323.792 288.396 324.719 291 324.719C293.604 324.719 295.604 323.792 297 321.938C298.396 320.083 299.094 317.448 299.094 314.031C299.094 310.615 298.396 307.99 297 306.156C295.604 304.302 293.604 303.375 291 303.375ZM359.816 285V331H351.16V326.281C349.889 328.302 348.441 329.771 346.816 330.688C345.191 331.604 343.17 332.062 340.754 332.062C336.775 332.062 333.42 330.458 330.691 327.25C327.983 324.021 326.629 319.885 326.629 314.844C326.629 309.031 327.962 304.458 330.629 301.125C333.316 297.792 336.9 296.125 341.379 296.125C343.441 296.125 345.275 296.583 346.879 297.5C348.483 298.396 349.785 299.646 350.785 301.25V285H359.816ZM335.816 314.188C335.816 317.333 336.441 319.844 337.691 321.719C338.92 323.615 340.795 324.562 343.316 324.562C345.837 324.562 347.754 323.625 349.066 321.75C350.379 319.875 351.035 317.448 351.035 314.469C351.035 310.302 349.983 307.323 347.879 305.531C346.587 304.448 345.087 303.906 343.379 303.906C340.775 303.906 338.858 304.896 337.629 306.875C336.42 308.833 335.816 311.271 335.816 314.188ZM395.177 321C394.948 323.021 393.896 325.073 392.021 327.156C389.105 330.469 385.021 332.125 379.771 332.125C375.438 332.125 371.615 330.729 368.302 327.938C364.99 325.146 363.334 320.604 363.334 314.312C363.334 308.417 364.823 303.896 367.802 300.75C370.802 297.604 374.688 296.031 379.459 296.031C382.292 296.031 384.844 296.562 387.115 297.625C389.386 298.688 391.261 300.365 392.74 302.656C394.073 304.677 394.938 307.021 395.334 309.688C395.563 311.25 395.657 313.5 395.615 316.438H372.302C372.427 319.854 373.5 322.25 375.521 323.625C376.75 324.479 378.23 324.906 379.959 324.906C381.792 324.906 383.282 324.385 384.427 323.344C385.052 322.781 385.605 322 386.084 321H395.177ZM386.365 310.562C386.219 308.208 385.5 306.427 384.209 305.219C382.938 303.99 381.355 303.375 379.459 303.375C377.396 303.375 375.792 304.021 374.646 305.312C373.521 306.604 372.813 308.354 372.521 310.562H386.365ZM418.851 306.312C418.101 304.667 416.633 303.844 414.445 303.844C411.903 303.844 410.195 304.667 409.32 306.312C408.841 307.25 408.601 308.646 408.601 310.5V331H399.57V297H408.226V301.969C409.33 300.198 410.372 298.938 411.351 298.188C413.08 296.854 415.32 296.188 418.07 296.188C420.674 296.188 422.778 296.76 424.383 297.906C425.674 298.969 426.653 300.333 427.32 302C428.487 300 429.935 298.531 431.664 297.594C433.497 296.656 435.539 296.188 437.789 296.188C439.289 296.188 440.768 296.479 442.226 297.062C443.685 297.646 445.008 298.667 446.195 300.125C447.153 301.312 447.799 302.771 448.133 304.5C448.341 305.646 448.445 307.323 448.445 309.531L448.383 331H439.258V309.312C439.258 308.021 439.049 306.958 438.633 306.125C437.841 304.542 436.383 303.75 434.258 303.75C431.799 303.75 430.101 304.771 429.164 306.812C428.685 307.896 428.445 309.198 428.445 310.719V331H419.476V310.719C419.476 308.698 419.268 307.229 418.851 306.312ZM483.15 301.25C486.025 304.854 487.462 309.115 487.462 314.031C487.462 319.031 486.025 323.312 483.15 326.875C480.275 330.417 475.91 332.188 470.056 332.188C464.202 332.188 459.837 330.417 456.962 326.875C454.087 323.312 452.65 319.031 452.65 314.031C452.65 309.115 454.087 304.854 456.962 301.25C459.837 297.646 464.202 295.844 470.056 295.844C475.91 295.844 480.275 297.646 483.15 301.25ZM470.025 303.375C467.421 303.375 465.41 304.302 463.994 306.156C462.598 307.99 461.9 310.615 461.9 314.031C461.9 317.448 462.598 320.083 463.994 321.938C465.41 323.792 467.421 324.719 470.025 324.719C472.629 324.719 474.629 323.792 476.025 321.938C477.421 320.083 478.119 317.448 478.119 314.031C478.119 310.615 477.421 307.99 476.025 306.156C474.629 304.302 472.629 303.375 470.025 303.375ZM507.98 303.531C504.959 303.531 502.886 304.812 501.761 307.375C501.178 308.729 500.886 310.458 500.886 312.562V331H492.011V297H500.605V301.969C501.751 300.219 502.834 298.958 503.855 298.188C505.688 296.812 508.011 296.125 510.824 296.125C514.345 296.125 517.22 297.052 519.449 298.906C521.699 300.74 522.824 303.792 522.824 308.062V331H513.699V310.281C513.699 308.49 513.459 307.115 512.98 306.156C512.105 304.406 510.438 303.531 507.98 303.531ZM552.622 298.5C555.289 300.208 556.82 303.146 557.216 307.312H548.31C548.185 306.167 547.862 305.26 547.341 304.594C546.362 303.385 544.695 302.781 542.341 302.781C540.404 302.781 539.018 303.083 538.185 303.688C537.372 304.292 536.966 305 536.966 305.812C536.966 306.833 537.404 307.573 538.279 308.031C539.154 308.51 542.247 309.333 547.56 310.5C551.102 311.333 553.758 312.594 555.529 314.281C557.279 315.99 558.154 318.125 558.154 320.688C558.154 324.062 556.893 326.823 554.372 328.969C551.872 331.094 547.997 332.156 542.747 332.156C537.393 332.156 533.435 331.031 530.872 328.781C528.331 326.51 527.06 323.625 527.06 320.125H536.091C536.279 321.708 536.685 322.833 537.31 323.5C538.414 324.688 540.456 325.281 543.435 325.281C545.185 325.281 546.57 325.021 547.591 324.5C548.633 323.979 549.154 323.198 549.154 322.156C549.154 321.156 548.737 320.396 547.904 319.875C547.07 319.354 543.977 318.458 538.622 317.188C534.768 316.229 532.05 315.031 530.466 313.594C528.883 312.177 528.091 310.135 528.091 307.469C528.091 304.323 529.32 301.625 531.779 299.375C534.258 297.104 537.737 295.969 542.216 295.969C546.466 295.969 549.935 296.812 552.622 298.5ZM578.452 324.656V331.312L574.234 331.469C570.025 331.615 567.15 330.885 565.609 329.281C564.609 328.26 564.109 326.688 564.109 324.562V303.594H559.359V297.25H564.109V287.75H572.921V297.25H578.452V303.594H572.921V321.594C572.921 322.99 573.098 323.865 573.452 324.219C573.807 324.552 574.89 324.719 576.702 324.719C576.973 324.719 577.255 324.719 577.546 324.719C577.859 324.698 578.161 324.677 578.452 324.656ZM599.376 305.156C595.793 305.156 593.387 306.323 592.157 308.656C591.47 309.969 591.126 311.99 591.126 314.719V331H582.157V296.938H590.657V302.875C592.032 300.604 593.23 299.052 594.251 298.219C595.918 296.823 598.085 296.125 600.751 296.125C600.918 296.125 601.053 296.135 601.157 296.156C601.282 296.156 601.543 296.167 601.939 296.188V305.312C601.376 305.25 600.876 305.208 600.439 305.188C600.001 305.167 599.647 305.156 599.376 305.156ZM606.55 300.625C608.904 297.625 612.946 296.125 618.675 296.125C622.404 296.125 625.717 296.865 628.612 298.344C631.508 299.823 632.956 302.615 632.956 306.719V322.344C632.956 323.427 632.977 324.74 633.019 326.281C633.081 327.448 633.258 328.24 633.55 328.656C633.842 329.073 634.279 329.417 634.862 329.688V331H625.175C624.904 330.312 624.717 329.667 624.612 329.062C624.508 328.458 624.425 327.771 624.362 327C623.133 328.333 621.717 329.469 620.112 330.406C618.196 331.51 616.029 332.062 613.612 332.062C610.529 332.062 607.977 331.188 605.956 329.438C603.956 327.667 602.956 325.167 602.956 321.938C602.956 317.75 604.571 314.719 607.8 312.844C609.571 311.823 612.175 311.094 615.612 310.656L618.644 310.281C620.29 310.073 621.467 309.812 622.175 309.5C623.446 308.958 624.081 308.115 624.081 306.969C624.081 305.573 623.592 304.615 622.612 304.094C621.654 303.552 620.237 303.281 618.362 303.281C616.258 303.281 614.769 303.802 613.894 304.844C613.269 305.615 612.852 306.656 612.644 307.969H604.05C604.237 304.99 605.071 302.542 606.55 300.625ZM613.175 324.562C614.008 325.25 615.029 325.594 616.237 325.594C618.154 325.594 619.915 325.031 621.519 323.906C623.144 322.781 623.987 320.729 624.05 317.75V314.438C623.487 314.792 622.915 315.083 622.331 315.312C621.769 315.521 620.987 315.719 619.987 315.906L617.987 316.281C616.112 316.615 614.769 317.021 613.956 317.5C612.581 318.312 611.894 319.573 611.894 321.281C611.894 322.802 612.321 323.896 613.175 324.562ZM654.568 324.656V331.312L650.349 331.469C646.14 331.615 643.265 330.885 641.724 329.281C640.724 328.26 640.224 326.688 640.224 324.562V303.594H635.474V297.25H640.224V287.75H649.036V297.25H654.568V303.594H649.036V321.594C649.036 322.99 649.213 323.865 649.568 324.219C649.922 324.552 651.005 324.719 652.818 324.719C653.088 324.719 653.37 324.719 653.661 324.719C653.974 324.698 654.276 324.677 654.568 324.656ZM667.522 296.938V331H658.491V296.938H667.522ZM667.522 284.656V292.875H658.491V284.656H667.522ZM702.665 301.25C705.54 304.854 706.977 309.115 706.977 314.031C706.977 319.031 705.54 323.312 702.665 326.875C699.79 330.417 695.425 332.188 689.571 332.188C683.717 332.188 679.352 330.417 676.477 326.875C673.602 323.312 672.165 319.031 672.165 314.031C672.165 309.115 673.602 304.854 676.477 301.25C679.352 297.646 683.717 295.844 689.571 295.844C695.425 295.844 699.79 297.646 702.665 301.25ZM689.54 303.375C686.936 303.375 684.925 304.302 683.509 306.156C682.113 307.99 681.415 310.615 681.415 314.031C681.415 317.448 682.113 320.083 683.509 321.938C684.925 323.792 686.936 324.719 689.54 324.719C692.144 324.719 694.144 323.792 695.54 321.938C696.936 320.083 697.634 317.448 697.634 314.031C697.634 310.615 696.936 307.99 695.54 306.156C694.144 304.302 692.144 303.375 689.54 303.375ZM727.495 303.531C724.474 303.531 722.401 304.812 721.276 307.375C720.693 308.729 720.401 310.458 720.401 312.562V331H711.526V297H720.12V301.969C721.266 300.219 722.349 298.958 723.37 298.188C725.203 296.812 727.526 296.125 730.339 296.125C733.86 296.125 736.735 297.052 738.964 298.906C741.214 300.74 742.339 303.792 742.339 308.062V331H733.214V310.281C733.214 308.49 732.974 307.115 732.495 306.156C731.62 304.406 729.953 303.531 727.495 303.531ZM792.967 301.25C795.842 304.854 797.28 309.115 797.28 314.031C797.28 319.031 795.842 323.312 792.967 326.875C790.092 330.417 785.728 332.188 779.874 332.188C774.02 332.188 769.655 330.417 766.78 326.875C763.905 323.312 762.467 319.031 762.467 314.031C762.467 309.115 763.905 304.854 766.78 301.25C769.655 297.646 774.02 295.844 779.874 295.844C785.728 295.844 790.092 297.646 792.967 301.25ZM779.842 303.375C777.238 303.375 775.228 304.302 773.811 306.156C772.415 307.99 771.717 310.615 771.717 314.031C771.717 317.448 772.415 320.083 773.811 321.938C775.228 323.792 777.238 324.719 779.842 324.719C782.447 324.719 784.447 323.792 785.842 321.938C787.238 320.083 787.936 317.448 787.936 314.031C787.936 310.615 787.238 307.99 785.842 306.156C784.447 304.302 782.447 303.375 779.842 303.375ZM817.735 284.656V291.906C817.235 291.844 816.391 291.802 815.204 291.781C814.037 291.74 813.225 292 812.766 292.562C812.329 293.104 812.11 293.708 812.11 294.375V297.25H817.954V303.531H812.11V331H803.235V303.531H798.266V297.25H803.141V295.062C803.141 291.417 803.756 288.906 804.985 287.531C806.277 285.49 809.391 284.469 814.329 284.469C814.891 284.469 815.402 284.49 815.86 284.531C816.318 284.552 816.943 284.594 817.735 284.656ZM852.645 324.656V331.312L848.426 331.469C844.218 331.615 841.343 330.885 839.801 329.281C838.801 328.26 838.301 326.688 838.301 324.562V303.594H833.551V297.25H838.301V287.75H847.114V297.25H852.645V303.594H847.114V321.594C847.114 322.99 847.291 323.865 847.645 324.219C847.999 324.552 849.083 324.719 850.895 324.719C851.166 324.719 851.447 324.719 851.739 324.719C852.051 324.698 852.353 324.677 852.645 324.656ZM887.225 311V331H878.131V310.281C878.131 308.448 877.819 306.969 877.194 305.844C876.381 304.26 874.84 303.469 872.569 303.469C870.215 303.469 868.423 304.26 867.194 305.844C865.985 307.406 865.381 309.646 865.381 312.562V331H856.506V285.094H865.381V301.375C866.673 299.396 868.162 298.021 869.85 297.25C871.558 296.458 873.35 296.062 875.225 296.062C877.329 296.062 879.235 296.427 880.944 297.156C882.673 297.885 884.09 299 885.194 300.5C886.131 301.771 886.704 303.083 886.912 304.438C887.121 305.771 887.225 307.958 887.225 311ZM922.805 321C922.576 323.021 921.524 325.073 919.649 327.156C916.732 330.469 912.649 332.125 907.399 332.125C903.065 332.125 899.242 330.729 895.93 327.938C892.617 325.146 890.961 320.604 890.961 314.312C890.961 308.417 892.451 303.896 895.43 300.75C898.43 297.604 902.315 296.031 907.086 296.031C909.92 296.031 912.472 296.562 914.742 297.625C917.013 298.688 918.888 300.365 920.367 302.656C921.701 304.677 922.565 307.021 922.961 309.688C923.19 311.25 923.284 313.5 923.242 316.438H899.93C900.055 319.854 901.128 322.25 903.149 323.625C904.378 324.479 905.857 324.906 907.586 324.906C909.42 324.906 910.909 324.385 912.055 323.344C912.68 322.781 913.232 322 913.711 321H922.805ZM913.992 310.562C913.847 308.208 913.128 306.427 911.836 305.219C910.565 303.99 908.982 303.375 907.086 303.375C905.024 303.375 903.42 304.021 902.274 305.312C901.149 306.604 900.44 308.354 900.149 310.562H913.992ZM972.715 309.156H963.59C963.423 307.885 962.996 306.74 962.309 305.719C961.309 304.344 959.757 303.656 957.652 303.656C954.652 303.656 952.6 305.146 951.496 308.125C950.913 309.708 950.621 311.812 950.621 314.438C950.621 316.938 950.913 318.948 951.496 320.469C952.559 323.302 954.559 324.719 957.496 324.719C959.58 324.719 961.059 324.156 961.934 323.031C962.809 321.906 963.34 320.448 963.527 318.656H972.621C972.413 321.365 971.434 323.927 969.684 326.344C966.892 330.24 962.757 332.188 957.277 332.188C951.798 332.188 947.767 330.562 945.184 327.312C942.6 324.062 941.309 319.844 941.309 314.656C941.309 308.802 942.736 304.25 945.59 301C948.444 297.75 952.382 296.125 957.402 296.125C961.673 296.125 965.163 297.083 967.871 299C970.6 300.917 972.215 304.302 972.715 309.156ZM977.139 284.938H986.045V331H977.139V284.938ZM1002 296.938V331H992.969V296.938H1002ZM1002 284.656V292.875H992.969V284.656H1002ZM1037.89 321C1037.66 323.021 1036.61 325.073 1034.74 327.156C1031.82 330.469 1027.74 332.125 1022.49 332.125C1018.15 332.125 1014.33 330.729 1011.02 327.938C1007.71 325.146 1006.05 320.604 1006.05 314.312C1006.05 308.417 1007.54 303.896 1010.52 300.75C1013.52 297.604 1017.4 296.031 1022.17 296.031C1025.01 296.031 1027.56 296.562 1029.83 297.625C1032.1 298.688 1033.98 300.365 1035.46 302.656C1036.79 304.677 1037.65 307.021 1038.05 309.688C1038.28 311.25 1038.37 313.5 1038.33 316.438H1015.02C1015.14 319.854 1016.22 322.25 1018.24 323.625C1019.47 324.479 1020.94 324.906 1022.67 324.906C1024.51 324.906 1026 324.385 1027.14 323.344C1027.77 322.781 1028.32 322 1028.8 321H1037.89ZM1029.08 310.562C1028.93 308.208 1028.22 306.427 1026.92 305.219C1025.65 303.99 1024.07 303.375 1022.17 303.375C1020.11 303.375 1018.51 304.021 1017.36 305.312C1016.24 306.604 1015.53 308.354 1015.24 310.562H1029.08ZM1058.47 303.531C1055.45 303.531 1053.38 304.812 1052.25 307.375C1051.67 308.729 1051.38 310.458 1051.38 312.562V331H1042.5V297H1051.1V301.969C1052.24 300.219 1053.33 298.958 1054.35 298.188C1056.18 296.812 1058.5 296.125 1061.32 296.125C1064.84 296.125 1067.71 297.052 1069.94 298.906C1072.19 300.74 1073.32 303.792 1073.32 308.062V331H1064.19V310.281C1064.19 308.49 1063.95 307.115 1063.47 306.156C1062.6 304.406 1060.93 303.531 1058.47 303.531ZM1095.24 324.656V331.312L1091.02 331.469C1086.81 331.615 1083.94 330.885 1082.4 329.281C1081.4 328.26 1080.9 326.688 1080.9 324.562V303.594H1076.15V297.25H1080.9V287.75H1089.71V297.25H1095.24V303.594H1089.71V321.594C1089.71 322.99 1089.89 323.865 1090.24 324.219C1090.59 324.552 1091.68 324.719 1093.49 324.719C1093.76 324.719 1094.04 324.719 1094.33 324.719C1094.65 324.698 1094.95 324.677 1095.24 324.656ZM250.568 374.594C253.318 377.531 254.693 381.844 254.693 387.531C254.693 393.531 253.338 398.104 250.63 401.25C247.943 404.396 244.474 405.969 240.224 405.969C237.515 405.969 235.265 405.292 233.474 403.938C232.495 403.188 231.536 402.094 230.599 400.656V418.406H221.786V370.938H230.318V375.969C231.276 374.49 232.297 373.323 233.38 372.469C235.359 370.948 237.713 370.188 240.443 370.188C244.422 370.188 247.797 371.656 250.568 374.594ZM245.505 387.969C245.505 385.344 244.901 383.021 243.693 381C242.505 378.979 240.568 377.969 237.88 377.969C234.651 377.969 232.432 379.5 231.224 382.562C230.599 384.188 230.286 386.25 230.286 388.75C230.286 392.708 231.338 395.49 233.443 397.094C234.693 398.031 236.172 398.5 237.88 398.5C240.359 398.5 242.245 397.542 243.536 395.625C244.849 393.708 245.505 391.156 245.505 387.969ZM287.648 375.25C290.523 378.854 291.96 383.115 291.96 388.031C291.96 393.031 290.523 397.312 287.648 400.875C284.773 404.417 280.408 406.188 274.554 406.188C268.7 406.188 264.335 404.417 261.46 400.875C258.585 397.312 257.148 393.031 257.148 388.031C257.148 383.115 258.585 378.854 261.46 375.25C264.335 371.646 268.7 369.844 274.554 369.844C280.408 369.844 284.773 371.646 287.648 375.25ZM274.523 377.375C271.918 377.375 269.908 378.302 268.491 380.156C267.095 381.99 266.398 384.615 266.398 388.031C266.398 391.448 267.095 394.083 268.491 395.938C269.908 397.792 271.918 398.719 274.523 398.719C277.127 398.719 279.127 397.792 280.523 395.938C281.918 394.083 282.616 391.448 282.616 388.031C282.616 384.615 281.918 381.99 280.523 380.156C279.127 378.302 277.127 377.375 274.523 377.375ZM313.571 379.156C309.988 379.156 307.582 380.323 306.353 382.656C305.665 383.969 305.321 385.99 305.321 388.719V405H296.353V370.938H304.853V376.875C306.228 374.604 307.425 373.052 308.446 372.219C310.113 370.823 312.28 370.125 314.946 370.125C315.113 370.125 315.248 370.135 315.353 370.156C315.478 370.156 315.738 370.167 316.134 370.188V379.312C315.571 379.25 315.071 379.208 314.634 379.188C314.196 379.167 313.842 379.156 313.571 379.156ZM335.057 398.656V405.312L330.839 405.469C326.63 405.615 323.755 404.885 322.214 403.281C321.214 402.26 320.714 400.688 320.714 398.562V377.594H315.964V371.25H320.714V361.75H329.526V371.25H335.057V377.594H329.526V395.594C329.526 396.99 329.703 397.865 330.057 398.219C330.412 398.552 331.495 398.719 333.307 398.719C333.578 398.719 333.86 398.719 334.151 398.719C334.464 398.698 334.766 398.677 335.057 398.656ZM340.138 374.625C342.492 371.625 346.533 370.125 352.263 370.125C355.992 370.125 359.304 370.865 362.2 372.344C365.096 373.823 366.544 376.615 366.544 380.719V396.344C366.544 397.427 366.565 398.74 366.606 400.281C366.669 401.448 366.846 402.24 367.138 402.656C367.429 403.073 367.867 403.417 368.45 403.688V405H358.763C358.492 404.312 358.304 403.667 358.2 403.062C358.096 402.458 358.013 401.771 357.95 401C356.721 402.333 355.304 403.469 353.7 404.406C351.783 405.51 349.617 406.062 347.2 406.062C344.117 406.062 341.565 405.188 339.544 403.438C337.544 401.667 336.544 399.167 336.544 395.938C336.544 391.75 338.158 388.719 341.388 386.844C343.158 385.823 345.763 385.094 349.2 384.656L352.231 384.281C353.877 384.073 355.054 383.812 355.763 383.5C357.033 382.958 357.669 382.115 357.669 380.969C357.669 379.573 357.179 378.615 356.2 378.094C355.242 377.552 353.825 377.281 351.95 377.281C349.846 377.281 348.356 377.802 347.481 378.844C346.856 379.615 346.44 380.656 346.231 381.969H337.638C337.825 378.99 338.658 376.542 340.138 374.625ZM346.763 398.562C347.596 399.25 348.617 399.594 349.825 399.594C351.742 399.594 353.502 399.031 355.106 397.906C356.731 396.781 357.575 394.729 357.638 391.75V388.438C357.075 388.792 356.502 389.083 355.919 389.312C355.356 389.521 354.575 389.719 353.575 389.906L351.575 390.281C349.7 390.615 348.356 391.021 347.544 391.5C346.169 392.312 345.481 393.573 345.481 395.281C345.481 396.802 345.908 397.896 346.763 398.562ZM372.749 358.938H381.655V405H372.749V358.938ZM430.19 405L424.846 380.188L419.44 405H410.19L400.628 370.938H410.19L415.503 395.375L420.409 370.938H429.44L434.628 395.469L439.94 370.938H449.221L439.346 405H430.19ZM461.395 370.938V405H452.364V370.938H461.395ZM461.395 358.656V366.875H452.364V358.656H461.395ZM468.319 358.938H477.225V405H468.319V358.938ZM484.211 358.938H493.117V405H484.211V358.938ZM534.309 405.906C531.496 405.906 529.236 405.344 527.527 404.219C526.507 403.552 525.402 402.385 524.215 400.719V405H515.496V359H524.371V375.375C525.496 373.792 526.736 372.583 528.09 371.75C529.694 370.708 531.736 370.188 534.215 370.188C538.694 370.188 542.194 371.802 544.715 375.031C547.257 378.26 548.527 382.427 548.527 387.531C548.527 392.823 547.277 397.208 544.777 400.688C542.277 404.167 538.788 405.906 534.309 405.906ZM539.184 388.469C539.184 386.052 538.871 384.052 538.246 382.469C537.059 379.469 534.871 377.969 531.684 377.969C528.455 377.969 526.236 379.438 525.027 382.375C524.402 383.938 524.09 385.958 524.09 388.438C524.09 391.354 524.736 393.771 526.027 395.688C527.319 397.604 529.288 398.562 531.934 398.562C534.225 398.562 536.007 397.635 537.277 395.781C538.548 393.927 539.184 391.49 539.184 388.469ZM582.17 395C581.941 397.021 580.889 399.073 579.014 401.156C576.097 404.469 572.014 406.125 566.764 406.125C562.43 406.125 558.608 404.729 555.295 401.938C551.983 399.146 550.326 394.604 550.326 388.312C550.326 382.417 551.816 377.896 554.795 374.75C557.795 371.604 561.68 370.031 566.451 370.031C569.285 370.031 571.837 370.562 574.108 371.625C576.378 372.688 578.253 374.365 579.733 376.656C581.066 378.677 581.93 381.021 582.326 383.688C582.555 385.25 582.649 387.5 582.608 390.438H559.295C559.42 393.854 560.493 396.25 562.514 397.625C563.743 398.479 565.222 398.906 566.951 398.906C568.785 398.906 570.274 398.385 571.42 397.344C572.045 396.781 572.597 396 573.076 395H582.17ZM573.358 384.562C573.212 382.208 572.493 380.427 571.201 379.219C569.93 377.99 568.347 377.375 566.451 377.375C564.389 377.375 562.785 378.021 561.639 379.312C560.514 380.604 559.805 382.354 559.514 384.562H573.358ZM633.611 359V405H624.955V400.281C623.684 402.302 622.236 403.771 620.611 404.688C618.986 405.604 616.965 406.062 614.549 406.062C610.57 406.062 607.215 404.458 604.486 401.25C601.778 398.021 600.424 393.885 600.424 388.844C600.424 383.031 601.757 378.458 604.424 375.125C607.111 371.792 610.695 370.125 615.174 370.125C617.236 370.125 619.07 370.583 620.674 371.5C622.278 372.396 623.58 373.646 624.58 375.25V359H633.611ZM609.611 388.188C609.611 391.333 610.236 393.844 611.486 395.719C612.715 397.615 614.59 398.562 617.111 398.562C619.632 398.562 621.549 397.625 622.861 395.75C624.174 393.875 624.83 391.448 624.83 388.469C624.83 384.302 623.778 381.323 621.674 379.531C620.382 378.448 618.882 377.906 617.174 377.906C614.57 377.906 612.653 378.896 611.424 380.875C610.215 382.833 609.611 385.271 609.611 388.188ZM648.973 370.938V405H639.941V370.938H648.973ZM648.973 358.656V366.875H639.941V358.656H648.973ZM679.177 372.5C681.844 374.208 683.375 377.146 683.771 381.312H674.865C674.74 380.167 674.417 379.26 673.896 378.594C672.917 377.385 671.25 376.781 668.896 376.781C666.959 376.781 665.573 377.083 664.74 377.688C663.927 378.292 663.521 379 663.521 379.812C663.521 380.833 663.959 381.573 664.834 382.031C665.709 382.51 668.802 383.333 674.115 384.5C677.657 385.333 680.313 386.594 682.084 388.281C683.834 389.99 684.709 392.125 684.709 394.688C684.709 398.062 683.448 400.823 680.927 402.969C678.427 405.094 674.552 406.156 669.302 406.156C663.948 406.156 659.99 405.031 657.427 402.781C654.886 400.51 653.615 397.625 653.615 394.125H662.646C662.834 395.708 663.24 396.833 663.865 397.5C664.969 398.688 667.011 399.281 669.99 399.281C671.74 399.281 673.125 399.021 674.146 398.5C675.188 397.979 675.709 397.198 675.709 396.156C675.709 395.156 675.292 394.396 674.459 393.875C673.625 393.354 670.532 392.458 665.177 391.188C661.323 390.229 658.605 389.031 657.021 387.594C655.438 386.177 654.646 384.135 654.646 381.469C654.646 378.323 655.875 375.625 658.334 373.375C660.813 371.104 664.292 369.969 668.771 369.969C673.021 369.969 676.49 370.812 679.177 372.5ZM717.945 374.594C720.695 377.531 722.07 381.844 722.07 387.531C722.07 393.531 720.716 398.104 718.008 401.25C715.32 404.396 711.851 405.969 707.601 405.969C704.893 405.969 702.643 405.292 700.851 403.938C699.872 403.188 698.914 402.094 697.976 400.656V418.406H689.164V370.938H697.695V375.969C698.653 374.49 699.674 373.323 700.758 372.469C702.737 370.948 705.091 370.188 707.82 370.188C711.799 370.188 715.174 371.656 717.945 374.594ZM712.883 387.969C712.883 385.344 712.278 383.021 711.07 381C709.883 378.979 707.945 377.969 705.258 377.969C702.028 377.969 699.81 379.5 698.601 382.562C697.976 384.188 697.664 386.25 697.664 388.75C697.664 392.708 698.716 395.49 700.82 397.094C702.07 398.031 703.549 398.5 705.258 398.5C707.737 398.5 709.622 397.542 710.914 395.625C712.226 393.708 712.883 391.156 712.883 387.969ZM726.806 358.938H735.713V405H726.806V358.938ZM743.792 374.625C746.147 371.625 750.188 370.125 755.917 370.125C759.647 370.125 762.959 370.865 765.855 372.344C768.751 373.823 770.199 376.615 770.199 380.719V396.344C770.199 397.427 770.22 398.74 770.261 400.281C770.324 401.448 770.501 402.24 770.792 402.656C771.084 403.073 771.522 403.417 772.105 403.688V405H762.417C762.147 404.312 761.959 403.667 761.855 403.062C761.751 402.458 761.667 401.771 761.605 401C760.376 402.333 758.959 403.469 757.355 404.406C755.438 405.51 753.272 406.062 750.855 406.062C747.772 406.062 745.22 405.188 743.199 403.438C741.199 401.667 740.199 399.167 740.199 395.938C740.199 391.75 741.813 388.719 745.042 386.844C746.813 385.823 749.417 385.094 752.855 384.656L755.886 384.281C757.532 384.073 758.709 383.812 759.417 383.5C760.688 382.958 761.324 382.115 761.324 380.969C761.324 379.573 760.834 378.615 759.855 378.094C758.897 377.552 757.48 377.281 755.605 377.281C753.501 377.281 752.011 377.802 751.136 378.844C750.511 379.615 750.095 380.656 749.886 381.969H741.292C741.48 378.99 742.313 376.542 743.792 374.625ZM750.417 398.562C751.251 399.25 752.272 399.594 753.48 399.594C755.397 399.594 757.157 399.031 758.761 397.906C760.386 396.781 761.23 394.729 761.292 391.75V388.438C760.73 388.792 760.157 389.083 759.574 389.312C759.011 389.521 758.23 389.719 757.23 389.906L755.23 390.281C753.355 390.615 752.011 391.021 751.199 391.5C749.824 392.312 749.136 393.573 749.136 395.281C749.136 396.802 749.563 397.896 750.417 398.562ZM790.06 396.062L797.091 370.938H806.56L794.872 404.438C792.622 410.896 790.841 414.896 789.529 416.438C788.216 418 785.591 418.781 781.654 418.781C780.862 418.781 780.227 418.771 779.747 418.75C779.268 418.75 778.55 418.719 777.591 418.656V411.531L778.716 411.594C779.591 411.635 780.425 411.604 781.216 411.5C782.008 411.396 782.675 411.156 783.216 410.781C783.737 410.427 784.216 409.688 784.654 408.562C785.112 407.438 785.3 406.75 785.216 406.5L772.716 370.938H782.622L790.06 396.062ZM839.078 395C838.848 397.021 837.796 399.073 835.921 401.156C833.005 404.469 828.921 406.125 823.671 406.125C819.338 406.125 815.515 404.729 812.203 401.938C808.89 399.146 807.234 394.604 807.234 388.312C807.234 382.417 808.723 377.896 811.703 374.75C814.703 371.604 818.588 370.031 823.359 370.031C826.192 370.031 828.744 370.562 831.015 371.625C833.286 372.688 835.161 374.365 836.64 376.656C837.973 378.677 838.838 381.021 839.234 383.688C839.463 385.25 839.557 387.5 839.515 390.438H816.203C816.328 393.854 817.4 396.25 819.421 397.625C820.65 398.479 822.13 398.906 823.859 398.906C825.692 398.906 827.182 398.385 828.328 397.344C828.953 396.781 829.505 396 829.984 395H839.078ZM830.265 384.562C830.119 382.208 829.4 380.427 828.109 379.219C826.838 377.99 825.255 377.375 823.359 377.375C821.296 377.375 819.692 378.021 818.546 379.312C817.421 380.604 816.713 382.354 816.421 384.562H830.265ZM874.626 359V405H865.97V400.281C864.699 402.302 863.251 403.771 861.626 404.688C860.001 405.604 857.98 406.062 855.564 406.062C851.585 406.062 848.23 404.458 845.501 401.25C842.793 398.021 841.439 393.885 841.439 388.844C841.439 383.031 842.772 378.458 845.439 375.125C848.126 371.792 851.71 370.125 856.189 370.125C858.251 370.125 860.085 370.583 861.689 371.5C863.293 372.396 864.595 373.646 865.595 375.25V359H874.626ZM850.626 388.188C850.626 391.333 851.251 393.844 852.501 395.719C853.73 397.615 855.605 398.562 858.126 398.562C860.647 398.562 862.564 397.625 863.876 395.75C865.189 393.875 865.845 391.448 865.845 388.469C865.845 384.302 864.793 381.323 862.689 379.531C861.397 378.448 859.897 377.906 858.189 377.906C855.585 377.906 853.668 378.896 852.439 380.875C851.23 382.833 850.626 385.271 850.626 388.188ZM927.505 385V405H918.411V384.281C918.411 382.448 918.099 380.969 917.474 379.844C916.661 378.26 915.12 377.469 912.849 377.469C910.495 377.469 908.703 378.26 907.474 379.844C906.265 381.406 905.661 383.646 905.661 386.562V405H896.786V359.094H905.661V375.375C906.953 373.396 908.443 372.021 910.13 371.25C911.838 370.458 913.63 370.062 915.505 370.062C917.609 370.062 919.515 370.427 921.224 371.156C922.953 371.885 924.37 373 925.474 374.5C926.411 375.771 926.984 377.083 927.193 378.438C927.401 379.771 927.505 381.958 927.505 385ZM963.085 395C962.856 397.021 961.804 399.073 959.929 401.156C957.012 404.469 952.929 406.125 947.679 406.125C943.345 406.125 939.523 404.729 936.21 401.938C932.898 399.146 931.241 394.604 931.241 388.312C931.241 382.417 932.731 377.896 935.71 374.75C938.71 371.604 942.595 370.031 947.366 370.031C950.2 370.031 952.752 370.562 955.023 371.625C957.293 372.688 959.168 374.365 960.648 376.656C961.981 378.677 962.845 381.021 963.241 383.688C963.47 385.25 963.564 387.5 963.523 390.438H940.21C940.335 393.854 941.408 396.25 943.429 397.625C944.658 398.479 946.137 398.906 947.866 398.906C949.7 398.906 951.189 398.385 952.335 397.344C952.96 396.781 953.512 396 953.991 395H963.085ZM954.273 384.562C954.127 382.208 953.408 380.427 952.116 379.219C950.845 377.99 949.262 377.375 947.366 377.375C945.304 377.375 943.7 378.021 942.554 379.312C941.429 380.604 940.72 382.354 940.429 384.562H954.273ZM984.759 379.156C981.175 379.156 978.769 380.323 977.54 382.656C976.852 383.969 976.509 385.99 976.509 388.719V405H967.54V370.938H976.04V376.875C977.415 374.604 978.613 373.052 979.634 372.219C981.3 370.823 983.467 370.125 986.134 370.125C986.3 370.125 986.436 370.135 986.54 370.156C986.665 370.156 986.925 370.167 987.321 370.188V379.312C986.759 379.25 986.259 379.208 985.821 379.188C985.384 379.167 985.03 379.156 984.759 379.156ZM1019.81 395C1019.58 397.021 1018.53 399.073 1016.65 401.156C1013.73 404.469 1009.65 406.125 1004.4 406.125C1000.07 406.125 996.245 404.729 992.932 401.938C989.62 399.146 987.964 394.604 987.964 388.312C987.964 382.417 989.453 377.896 992.432 374.75C995.432 371.604 999.318 370.031 1004.09 370.031C1006.92 370.031 1009.47 370.562 1011.74 371.625C1014.02 372.688 1015.89 374.365 1017.37 376.656C1018.7 378.677 1019.57 381.021 1019.96 383.688C1020.19 385.25 1020.29 387.5 1020.24 390.438H996.932C997.057 393.854 998.13 396.25 1000.15 397.625C1001.38 398.479 1002.86 398.906 1004.59 398.906C1006.42 398.906 1007.91 398.385 1009.06 397.344C1009.68 396.781 1010.23 396 1010.71 395H1019.81ZM1010.99 384.562C1010.85 382.208 1010.13 380.427 1008.84 379.219C1007.57 377.99 1005.98 377.375 1004.09 377.375C1002.03 377.375 1000.42 378.021 999.276 379.312C998.151 380.604 997.443 382.354 997.151 384.562H1010.99Z" fill="black"/>
</svg>
