<svg width="1440" height="974" viewBox="0 0 1440 974" fill="none" xmlns="http://www.w3.org/2000/svg">
<rect width="1440" height="974" fill="#FAFAFA"/>
<rect x="69" y="111" width="692" height="180" rx="90" fill="#001F3E"/>
<path d="M137.047 244.109C126.227 244.109 118.629 240.32 114.254 232.742C109.918 225.164 107.75 214.363 107.75 200.34C107.75 186.316 109.918 175.496 114.254 167.879C118.629 160.262 126.227 156.453 137.047 156.453C147.867 156.453 155.465 160.262 159.84 167.879C164.176 175.496 166.344 186.316 166.344 200.34C166.344 214.363 164.156 225.164 159.781 232.742C155.445 240.32 147.867 244.109 137.047 244.109ZM146.832 222.723C148.355 217.566 149.117 210.105 149.117 200.34C149.117 190.105 148.336 182.527 146.773 177.605C145.25 172.684 142.008 170.223 137.047 170.223C132.086 170.223 128.805 172.684 127.203 177.605C125.602 182.527 124.801 190.105 124.801 200.34C124.801 210.105 125.602 217.586 127.203 222.781C128.805 227.938 132.086 230.516 137.047 230.516C142.008 230.516 145.27 227.918 146.832 222.723ZM210.207 242H193.098V183.406H173.117V172.039C178.391 171.805 182.082 171.453 184.191 170.984C187.551 170.242 190.285 168.758 192.395 166.531C193.84 165.008 194.934 162.977 195.676 160.438C196.105 158.914 196.32 157.781 196.32 157.039H210.207V242Z" fill="#CFD7FE"/>
<path d="M532.536 204.536C534.488 202.583 534.488 199.417 532.536 197.464L500.716 165.645C498.763 163.692 495.597 163.692 493.645 165.645C491.692 167.597 491.692 170.763 493.645 172.716L521.929 201L493.645 229.284C491.692 231.237 491.692 234.403 493.645 236.355C495.597 238.308 498.763 238.308 500.716 236.355L532.536 204.536ZM279 206H529V196H279V206Z" fill="#CFD7FE"/>
<path d="M584.438 190.008C585.227 190.008 585.875 189.926 586.383 189.762C587.289 189.457 588.031 188.871 588.609 188.004C589.07 187.309 589.402 186.418 589.605 185.332C589.723 184.684 589.781 184.082 589.781 183.527C589.781 181.395 589.355 179.738 588.504 178.559C587.66 177.379 586.297 176.789 584.414 176.789H580.277V190.008H584.438ZM577.934 174.785H584.906C587.273 174.785 589.109 175.625 590.414 177.305C591.578 178.82 592.16 180.762 592.16 183.129C592.16 184.957 591.816 186.609 591.129 188.086C589.918 190.695 587.836 192 584.883 192H577.934V174.785ZM594.891 179.508H597.035V192H594.891V179.508ZM594.891 174.785H597.035V177.176H594.891V174.785ZM601.488 188.062C601.551 188.766 601.727 189.305 602.016 189.68C602.547 190.359 603.469 190.699 604.781 190.699C605.562 190.699 606.25 190.531 606.844 190.195C607.438 189.852 607.734 189.324 607.734 188.613C607.734 188.074 607.496 187.664 607.02 187.383C606.715 187.211 606.113 187.012 605.215 186.785L603.539 186.363C602.469 186.098 601.68 185.801 601.172 185.473C600.266 184.902 599.812 184.113 599.812 183.105C599.812 181.918 600.238 180.957 601.09 180.223C601.949 179.488 603.102 179.121 604.547 179.121C606.438 179.121 607.801 179.676 608.637 180.785C609.16 181.488 609.414 182.246 609.398 183.059H607.406C607.367 182.582 607.199 182.148 606.902 181.758C606.418 181.203 605.578 180.926 604.383 180.926C603.586 180.926 602.98 181.078 602.566 181.383C602.16 181.688 601.957 182.09 601.957 182.59C601.957 183.137 602.227 183.574 602.766 183.902C603.078 184.098 603.539 184.27 604.148 184.418L605.543 184.758C607.059 185.125 608.074 185.48 608.59 185.824C609.41 186.363 609.82 187.211 609.82 188.367C609.82 189.484 609.395 190.449 608.543 191.262C607.699 192.074 606.41 192.48 604.676 192.48C602.809 192.48 601.484 192.059 600.703 191.215C599.93 190.363 599.516 189.312 599.461 188.062H601.488ZM617.074 179.086C618.488 179.086 619.637 179.43 620.52 180.117C621.41 180.805 621.945 181.988 622.125 183.668H620.074C619.949 182.895 619.664 182.254 619.219 181.746C618.773 181.23 618.059 180.973 617.074 180.973C615.73 180.973 614.77 181.629 614.191 182.941C613.816 183.793 613.629 184.844 613.629 186.094C613.629 187.352 613.895 188.41 614.426 189.27C614.957 190.129 615.793 190.559 616.934 190.559C617.809 190.559 618.5 190.293 619.008 189.762C619.523 189.223 619.879 188.488 620.074 187.559H622.125C621.891 189.223 621.305 190.441 620.367 191.215C619.43 191.98 618.23 192.363 616.77 192.363C615.129 192.363 613.82 191.766 612.844 190.57C611.867 189.367 611.379 187.867 611.379 186.07C611.379 183.867 611.914 182.152 612.984 180.926C614.055 179.699 615.418 179.086 617.074 179.086ZM629.215 190.641C630.613 190.641 631.57 190.113 632.086 189.059C632.609 187.996 632.871 186.816 632.871 185.52C632.871 184.348 632.684 183.395 632.309 182.66C631.715 181.504 630.691 180.926 629.238 180.926C627.949 180.926 627.012 181.418 626.426 182.402C625.84 183.387 625.547 184.574 625.547 185.965C625.547 187.301 625.84 188.414 626.426 189.305C627.012 190.195 627.941 190.641 629.215 190.641ZM629.297 179.086C630.914 179.086 632.281 179.625 633.398 180.703C634.516 181.781 635.074 183.367 635.074 185.461C635.074 187.484 634.582 189.156 633.598 190.477C632.613 191.797 631.086 192.457 629.016 192.457C627.289 192.457 625.918 191.875 624.902 190.711C623.887 189.539 623.379 187.969 623.379 186C623.379 183.891 623.914 182.211 624.984 180.961C626.055 179.711 627.492 179.086 629.297 179.086ZM638.625 179.449L641.977 189.668L645.48 179.449H647.789L643.055 192H640.805L636.176 179.449H638.625ZM654.82 179.168C655.711 179.168 656.574 179.379 657.41 179.801C658.246 180.215 658.883 180.754 659.32 181.418C659.742 182.051 660.023 182.789 660.164 183.633C660.289 184.211 660.352 185.133 660.352 186.398H651.152C651.191 187.672 651.492 188.695 652.055 189.469C652.617 190.234 653.488 190.617 654.668 190.617C655.77 190.617 656.648 190.254 657.305 189.527C657.68 189.105 657.945 188.617 658.102 188.062H660.176C660.121 188.523 659.938 189.039 659.625 189.609C659.32 190.172 658.977 190.633 658.594 190.992C657.953 191.617 657.16 192.039 656.215 192.258C655.707 192.383 655.133 192.445 654.492 192.445C652.93 192.445 651.605 191.879 650.52 190.746C649.434 189.605 648.891 188.012 648.891 185.965C648.891 183.949 649.438 182.312 650.531 181.055C651.625 179.797 653.055 179.168 654.82 179.168ZM658.184 184.723C658.098 183.809 657.898 183.078 657.586 182.531C657.008 181.516 656.043 181.008 654.691 181.008C653.723 181.008 652.91 181.359 652.254 182.062C651.598 182.758 651.25 183.645 651.211 184.723H658.184ZM663.012 179.449H665.016V181.617C665.18 181.195 665.582 180.684 666.223 180.082C666.863 179.473 667.602 179.168 668.438 179.168C668.477 179.168 668.543 179.172 668.637 179.18C668.73 179.188 668.891 179.203 669.117 179.227V181.453C668.992 181.43 668.875 181.414 668.766 181.406C668.664 181.398 668.551 181.395 668.426 181.395C667.363 181.395 666.547 181.738 665.977 182.426C665.406 183.105 665.121 183.891 665.121 184.781V192H663.012V179.449ZM678.785 179.449H681.117C680.82 180.254 680.16 182.09 679.137 184.957C678.371 187.113 677.73 188.871 677.215 190.23C675.996 193.434 675.137 195.387 674.637 196.09C674.137 196.793 673.277 197.145 672.059 197.145C671.762 197.145 671.531 197.133 671.367 197.109C671.211 197.086 671.016 197.043 670.781 196.98V195.059C671.148 195.16 671.414 195.223 671.578 195.246C671.742 195.27 671.887 195.281 672.012 195.281C672.402 195.281 672.688 195.215 672.867 195.082C673.055 194.957 673.211 194.801 673.336 194.613C673.375 194.551 673.516 194.23 673.758 193.652C674 193.074 674.176 192.645 674.285 192.363L669.645 179.449H672.035L675.398 189.668L678.785 179.449ZM579.164 223.66C579.164 224.27 579.387 224.75 579.832 225.102C580.277 225.453 580.805 225.629 581.414 225.629C582.156 225.629 582.875 225.457 583.57 225.113C584.742 224.543 585.328 223.609 585.328 222.312V220.613C585.07 220.777 584.738 220.914 584.332 221.023C583.926 221.133 583.527 221.211 583.137 221.258L581.859 221.422C581.094 221.523 580.52 221.684 580.137 221.902C579.488 222.27 579.164 222.855 579.164 223.66ZM584.273 219.395C584.758 219.332 585.082 219.129 585.246 218.785C585.34 218.598 585.387 218.328 585.387 217.977C585.387 217.258 585.129 216.738 584.613 216.418C584.105 216.09 583.375 215.926 582.422 215.926C581.32 215.926 580.539 216.223 580.078 216.816C579.82 217.145 579.652 217.633 579.574 218.281H577.605C577.645 216.734 578.145 215.66 579.105 215.059C580.074 214.449 581.195 214.145 582.469 214.145C583.945 214.145 585.145 214.426 586.066 214.988C586.98 215.551 587.438 216.426 587.438 217.613V224.844C587.438 225.062 587.48 225.238 587.566 225.371C587.66 225.504 587.852 225.57 588.141 225.57C588.234 225.57 588.34 225.566 588.457 225.559C588.574 225.543 588.699 225.523 588.832 225.5V227.059C588.504 227.152 588.254 227.211 588.082 227.234C587.91 227.258 587.676 227.27 587.379 227.27C586.652 227.27 586.125 227.012 585.797 226.496C585.625 226.223 585.504 225.836 585.434 225.336C585.004 225.898 584.387 226.387 583.582 226.801C582.777 227.215 581.891 227.422 580.922 227.422C579.758 227.422 578.805 227.07 578.062 226.367C577.328 225.656 576.961 224.77 576.961 223.707C576.961 222.543 577.324 221.641 578.051 221C578.777 220.359 579.73 219.965 580.91 219.816L584.273 219.395ZM590.906 214.449H592.91V216.23C593.504 215.496 594.133 214.969 594.797 214.648C595.461 214.328 596.199 214.168 597.012 214.168C598.793 214.168 599.996 214.789 600.621 216.031C600.965 216.711 601.137 217.684 601.137 218.949V227H598.992V219.09C598.992 218.324 598.879 217.707 598.652 217.238C598.277 216.457 597.598 216.066 596.613 216.066C596.113 216.066 595.703 216.117 595.383 216.219C594.805 216.391 594.297 216.734 593.859 217.25C593.508 217.664 593.277 218.094 593.168 218.539C593.066 218.977 593.016 219.605 593.016 220.426V227H590.906V214.449ZM605.602 220.871C605.602 222.215 605.887 223.34 606.457 224.246C607.027 225.152 607.941 225.605 609.199 225.605C610.176 225.605 610.977 225.188 611.602 224.352C612.234 223.508 612.551 222.301 612.551 220.73C612.551 219.145 612.227 217.973 611.578 217.215C610.93 216.449 610.129 216.066 609.176 216.066C608.113 216.066 607.25 216.473 606.586 217.285C605.93 218.098 605.602 219.293 605.602 220.871ZM608.777 214.227C609.738 214.227 610.543 214.43 611.191 214.836C611.566 215.07 611.992 215.48 612.469 216.066V209.727H614.496V227H612.598V225.254C612.105 226.027 611.523 226.586 610.852 226.93C610.18 227.273 609.41 227.445 608.543 227.445C607.145 227.445 605.934 226.859 604.91 225.688C603.887 224.508 603.375 222.941 603.375 220.988C603.375 219.16 603.84 217.578 604.77 216.242C605.707 214.898 607.043 214.227 608.777 214.227ZM632.59 217.672C633.684 217.672 634.547 217.453 635.18 217.016C635.82 216.578 636.141 215.789 636.141 214.648C636.141 213.422 635.695 212.586 634.805 212.141C634.328 211.906 633.691 211.789 632.895 211.789H627.199V217.672H632.59ZM624.867 209.785H632.836C634.148 209.785 635.23 209.977 636.082 210.359C637.699 211.094 638.508 212.449 638.508 214.426C638.508 215.457 638.293 216.301 637.863 216.957C637.441 217.613 636.848 218.141 636.082 218.539C636.754 218.812 637.258 219.172 637.594 219.617C637.938 220.062 638.129 220.785 638.168 221.785L638.25 224.094C638.273 224.75 638.328 225.238 638.414 225.559C638.555 226.105 638.805 226.457 639.164 226.613V227H636.305C636.227 226.852 636.164 226.66 636.117 226.426C636.07 226.191 636.031 225.738 636 225.066L635.859 222.195C635.805 221.07 635.387 220.316 634.605 219.934C634.16 219.723 633.461 219.617 632.508 219.617H627.199V227H624.867V209.785ZM646.875 214.168C647.766 214.168 648.629 214.379 649.465 214.801C650.301 215.215 650.938 215.754 651.375 216.418C651.797 217.051 652.078 217.789 652.219 218.633C652.344 219.211 652.406 220.133 652.406 221.398H643.207C643.246 222.672 643.547 223.695 644.109 224.469C644.672 225.234 645.543 225.617 646.723 225.617C647.824 225.617 648.703 225.254 649.359 224.527C649.734 224.105 650 223.617 650.156 223.062H652.23C652.176 223.523 651.992 224.039 651.68 224.609C651.375 225.172 651.031 225.633 650.648 225.992C650.008 226.617 649.215 227.039 648.27 227.258C647.762 227.383 647.188 227.445 646.547 227.445C644.984 227.445 643.66 226.879 642.574 225.746C641.488 224.605 640.945 223.012 640.945 220.965C640.945 218.949 641.492 217.312 642.586 216.055C643.68 214.797 645.109 214.168 646.875 214.168ZM650.238 219.723C650.152 218.809 649.953 218.078 649.641 217.531C649.062 216.516 648.098 216.008 646.746 216.008C645.777 216.008 644.965 216.359 644.309 217.062C643.652 217.758 643.305 218.645 643.266 219.723H650.238ZM656.262 223.062C656.324 223.766 656.5 224.305 656.789 224.68C657.32 225.359 658.242 225.699 659.555 225.699C660.336 225.699 661.023 225.531 661.617 225.195C662.211 224.852 662.508 224.324 662.508 223.613C662.508 223.074 662.27 222.664 661.793 222.383C661.488 222.211 660.887 222.012 659.988 221.785L658.312 221.363C657.242 221.098 656.453 220.801 655.945 220.473C655.039 219.902 654.586 219.113 654.586 218.105C654.586 216.918 655.012 215.957 655.863 215.223C656.723 214.488 657.875 214.121 659.32 214.121C661.211 214.121 662.574 214.676 663.41 215.785C663.934 216.488 664.188 217.246 664.172 218.059H662.18C662.141 217.582 661.973 217.148 661.676 216.758C661.191 216.203 660.352 215.926 659.156 215.926C658.359 215.926 657.754 216.078 657.34 216.383C656.934 216.688 656.73 217.09 656.73 217.59C656.73 218.137 657 218.574 657.539 218.902C657.852 219.098 658.312 219.27 658.922 219.418L660.316 219.758C661.832 220.125 662.848 220.48 663.363 220.824C664.184 221.363 664.594 222.211 664.594 223.367C664.594 224.484 664.168 225.449 663.316 226.262C662.473 227.074 661.184 227.48 659.449 227.48C657.582 227.48 656.258 227.059 655.477 226.215C654.703 225.363 654.289 224.312 654.234 223.062H656.262ZM672.234 214.168C673.125 214.168 673.988 214.379 674.824 214.801C675.66 215.215 676.297 215.754 676.734 216.418C677.156 217.051 677.438 217.789 677.578 218.633C677.703 219.211 677.766 220.133 677.766 221.398H668.566C668.605 222.672 668.906 223.695 669.469 224.469C670.031 225.234 670.902 225.617 672.082 225.617C673.184 225.617 674.062 225.254 674.719 224.527C675.094 224.105 675.359 223.617 675.516 223.062H677.59C677.535 223.523 677.352 224.039 677.039 224.609C676.734 225.172 676.391 225.633 676.008 225.992C675.367 226.617 674.574 227.039 673.629 227.258C673.121 227.383 672.547 227.445 671.906 227.445C670.344 227.445 669.02 226.879 667.934 225.746C666.848 224.605 666.305 223.012 666.305 220.965C666.305 218.949 666.852 217.312 667.945 216.055C669.039 214.797 670.469 214.168 672.234 214.168ZM675.598 219.723C675.512 218.809 675.312 218.078 675 217.531C674.422 216.516 673.457 216.008 672.105 216.008C671.137 216.008 670.324 216.359 669.668 217.062C669.012 217.758 668.664 218.645 668.625 219.723H675.598ZM681.984 223.66C681.984 224.27 682.207 224.75 682.652 225.102C683.098 225.453 683.625 225.629 684.234 225.629C684.977 225.629 685.695 225.457 686.391 225.113C687.562 224.543 688.148 223.609 688.148 222.312V220.613C687.891 220.777 687.559 220.914 687.152 221.023C686.746 221.133 686.348 221.211 685.957 221.258L684.68 221.422C683.914 221.523 683.34 221.684 682.957 221.902C682.309 222.27 681.984 222.855 681.984 223.66ZM687.094 219.395C687.578 219.332 687.902 219.129 688.066 218.785C688.16 218.598 688.207 218.328 688.207 217.977C688.207 217.258 687.949 216.738 687.434 216.418C686.926 216.09 686.195 215.926 685.242 215.926C684.141 215.926 683.359 216.223 682.898 216.816C682.641 217.145 682.473 217.633 682.395 218.281H680.426C680.465 216.734 680.965 215.66 681.926 215.059C682.895 214.449 684.016 214.145 685.289 214.145C686.766 214.145 687.965 214.426 688.887 214.988C689.801 215.551 690.258 216.426 690.258 217.613V224.844C690.258 225.062 690.301 225.238 690.387 225.371C690.48 225.504 690.672 225.57 690.961 225.57C691.055 225.57 691.16 225.566 691.277 225.559C691.395 225.543 691.52 225.523 691.652 225.5V227.059C691.324 227.152 691.074 227.211 690.902 227.234C690.73 227.258 690.496 227.27 690.199 227.27C689.473 227.27 688.945 227.012 688.617 226.496C688.445 226.223 688.324 225.836 688.254 225.336C687.824 225.898 687.207 226.387 686.402 226.801C685.598 227.215 684.711 227.422 683.742 227.422C682.578 227.422 681.625 227.07 680.883 226.367C680.148 225.656 679.781 224.77 679.781 223.707C679.781 222.543 680.145 221.641 680.871 221C681.598 220.359 682.551 219.965 683.73 219.816L687.094 219.395ZM693.785 214.449H695.789V216.617C695.953 216.195 696.355 215.684 696.996 215.082C697.637 214.473 698.375 214.168 699.211 214.168C699.25 214.168 699.316 214.172 699.41 214.18C699.504 214.188 699.664 214.203 699.891 214.227V216.453C699.766 216.43 699.648 216.414 699.539 216.406C699.438 216.398 699.324 216.395 699.199 216.395C698.137 216.395 697.32 216.738 696.75 217.426C696.18 218.105 695.895 218.891 695.895 219.781V227H693.785V214.449ZM706.559 214.086C707.973 214.086 709.121 214.43 710.004 215.117C710.895 215.805 711.43 216.988 711.609 218.668H709.559C709.434 217.895 709.148 217.254 708.703 216.746C708.258 216.23 707.543 215.973 706.559 215.973C705.215 215.973 704.254 216.629 703.676 217.941C703.301 218.793 703.113 219.844 703.113 221.094C703.113 222.352 703.379 223.41 703.91 224.27C704.441 225.129 705.277 225.559 706.418 225.559C707.293 225.559 707.984 225.293 708.492 224.762C709.008 224.223 709.363 223.488 709.559 222.559H711.609C711.375 224.223 710.789 225.441 709.852 226.215C708.914 226.98 707.715 227.363 706.254 227.363C704.613 227.363 703.305 226.766 702.328 225.57C701.352 224.367 700.863 222.867 700.863 221.07C700.863 218.867 701.398 217.152 702.469 215.926C703.539 214.699 704.902 214.086 706.559 214.086ZM713.719 209.727H715.828V216.148C716.328 215.516 716.777 215.07 717.176 214.812C717.855 214.367 718.703 214.145 719.719 214.145C721.539 214.145 722.773 214.781 723.422 216.055C723.773 216.75 723.949 217.715 723.949 218.949V227H721.781V219.09C721.781 218.168 721.664 217.492 721.43 217.062C721.047 216.375 720.328 216.031 719.273 216.031C718.398 216.031 717.605 216.332 716.895 216.934C716.184 217.535 715.828 218.672 715.828 220.344V227H713.719V209.727Z" fill="#CFD7FE"/>
<rect x="280" y="351" width="878" height="180" rx="90" fill="#001F3E"/>
<path d="M377.047 484.109C366.227 484.109 358.629 480.32 354.254 472.742C349.918 465.164 347.75 454.363 347.75 440.34C347.75 426.316 349.918 415.496 354.254 407.879C358.629 400.262 366.227 396.453 377.047 396.453C387.867 396.453 395.465 400.262 399.84 407.879C404.176 415.496 406.344 426.316 406.344 440.34C406.344 454.363 404.156 465.164 399.781 472.742C395.445 480.32 387.867 484.109 377.047 484.109ZM386.832 462.723C388.355 457.566 389.117 450.105 389.117 440.34C389.117 430.105 388.336 422.527 386.773 417.605C385.25 412.684 382.008 410.223 377.047 410.223C372.086 410.223 368.805 412.684 367.203 417.605C365.602 422.527 364.801 430.105 364.801 440.34C364.801 450.105 365.602 457.586 367.203 462.781C368.805 467.938 372.086 470.516 377.047 470.516C382.008 470.516 385.27 467.918 386.832 462.723ZM446.516 414.324C444.523 411.941 441.672 410.75 437.961 410.75C432.883 410.75 429.426 412.645 427.59 416.434C426.535 418.621 425.91 422.098 425.715 426.863H409.484C409.758 419.637 411.066 413.797 413.41 409.344C417.863 400.867 425.773 396.629 437.141 396.629C446.125 396.629 453.273 399.129 458.586 404.129C463.898 409.09 466.555 415.672 466.555 423.875C466.555 430.164 464.68 435.75 460.93 440.633C458.469 443.875 454.426 447.488 448.801 451.473L442.121 456.219C437.941 459.188 435.07 461.336 433.508 462.664C431.984 463.992 430.695 465.535 429.641 467.293H466.73V482H408.547C408.703 475.906 410.012 470.34 412.473 465.301C414.855 459.637 420.48 453.641 429.348 447.312C437.043 441.805 442.023 437.859 444.289 435.477C447.766 431.766 449.504 427.703 449.504 423.289C449.504 419.695 448.508 416.707 446.516 414.324Z" fill="#CFD7FE"/>
<path d="M850.536 444.536C852.488 442.583 852.488 439.417 850.536 437.464L818.716 405.645C816.763 403.692 813.597 403.692 811.645 405.645C809.692 407.597 809.692 410.763 811.645 412.716L839.929 441L811.645 469.284C809.692 471.237 809.692 474.403 811.645 476.355C813.597 478.308 816.763 478.308 818.716 476.355L850.536 444.536ZM597 446H847V436H597V446Z" fill="#CFD7FE"/>
<path d="M975.352 426.445C975.406 427.422 975.637 428.215 976.043 428.824C976.816 429.965 978.18 430.535 980.133 430.535C981.008 430.535 981.805 430.41 982.523 430.16C983.914 429.676 984.609 428.809 984.609 427.559C984.609 426.621 984.316 425.953 983.73 425.555C983.137 425.164 982.207 424.824 980.941 424.535L978.609 424.008C977.086 423.664 976.008 423.285 975.375 422.871C974.281 422.152 973.734 421.078 973.734 419.648C973.734 418.102 974.27 416.832 975.34 415.84C976.41 414.848 977.926 414.352 979.887 414.352C981.691 414.352 983.223 414.789 984.48 415.664C985.746 416.531 986.379 417.922 986.379 419.836H984.188C984.07 418.914 983.82 418.207 983.438 417.715C982.727 416.816 981.52 416.367 979.816 416.367C978.441 416.367 977.453 416.656 976.852 417.234C976.25 417.812 975.949 418.484 975.949 419.25C975.949 420.094 976.301 420.711 977.004 421.102C977.465 421.352 978.508 421.664 980.133 422.039L982.547 422.59C983.711 422.855 984.609 423.219 985.242 423.68C986.336 424.484 986.883 425.652 986.883 427.184C986.883 429.09 986.188 430.453 984.797 431.273C983.414 432.094 981.805 432.504 979.969 432.504C977.828 432.504 976.152 431.957 974.941 430.863C973.73 429.777 973.137 428.305 973.16 426.445H975.352ZM989.977 415.945H992.109V419.449H994.113V421.172H992.109V429.363C992.109 429.801 992.258 430.094 992.555 430.242C992.719 430.328 992.992 430.371 993.375 430.371C993.477 430.371 993.586 430.371 993.703 430.371C993.82 430.363 993.957 430.352 994.113 430.336V432C993.871 432.07 993.617 432.121 993.352 432.152C993.094 432.184 992.812 432.199 992.508 432.199C991.523 432.199 990.855 431.949 990.504 431.449C990.152 430.941 989.977 430.285 989.977 429.48V421.172H988.277V419.449H989.977V415.945ZM996.293 419.449H998.297V421.617C998.461 421.195 998.863 420.684 999.504 420.082C1000.14 419.473 1000.88 419.168 1001.72 419.168C1001.76 419.168 1001.82 419.172 1001.92 419.18C1002.01 419.188 1002.17 419.203 1002.4 419.227V421.453C1002.27 421.43 1002.16 421.414 1002.05 421.406C1001.95 421.398 1001.83 421.395 1001.71 421.395C1000.64 421.395 999.828 421.738 999.258 422.426C998.688 423.105 998.402 423.891 998.402 424.781V432H996.293V419.449ZM1005.84 428.66C1005.84 429.27 1006.07 429.75 1006.51 430.102C1006.96 430.453 1007.48 430.629 1008.09 430.629C1008.84 430.629 1009.55 430.457 1010.25 430.113C1011.42 429.543 1012.01 428.609 1012.01 427.312V425.613C1011.75 425.777 1011.42 425.914 1011.01 426.023C1010.61 426.133 1010.21 426.211 1009.82 426.258L1008.54 426.422C1007.77 426.523 1007.2 426.684 1006.82 426.902C1006.17 427.27 1005.84 427.855 1005.84 428.66ZM1010.95 424.395C1011.44 424.332 1011.76 424.129 1011.93 423.785C1012.02 423.598 1012.07 423.328 1012.07 422.977C1012.07 422.258 1011.81 421.738 1011.29 421.418C1010.79 421.09 1010.05 420.926 1009.1 420.926C1008 420.926 1007.22 421.223 1006.76 421.816C1006.5 422.145 1006.33 422.633 1006.25 423.281H1004.29C1004.32 421.734 1004.82 420.66 1005.79 420.059C1006.75 419.449 1007.88 419.145 1009.15 419.145C1010.62 419.145 1011.82 419.426 1012.75 419.988C1013.66 420.551 1014.12 421.426 1014.12 422.613V429.844C1014.12 430.062 1014.16 430.238 1014.25 430.371C1014.34 430.504 1014.53 430.57 1014.82 430.57C1014.91 430.57 1015.02 430.566 1015.14 430.559C1015.25 430.543 1015.38 430.523 1015.51 430.5V432.059C1015.18 432.152 1014.93 432.211 1014.76 432.234C1014.59 432.258 1014.36 432.27 1014.06 432.27C1013.33 432.27 1012.8 432.012 1012.48 431.496C1012.3 431.223 1012.18 430.836 1012.11 430.336C1011.68 430.898 1011.07 431.387 1010.26 431.801C1009.46 432.215 1008.57 432.422 1007.6 432.422C1006.44 432.422 1005.48 432.07 1004.74 431.367C1004.01 430.656 1003.64 429.77 1003.64 428.707C1003.64 427.543 1004 426.641 1004.73 426C1005.46 425.359 1006.41 424.965 1007.59 424.816L1010.95 424.395ZM1018.01 415.945H1020.14V419.449H1022.14V421.172H1020.14V429.363C1020.14 429.801 1020.29 430.094 1020.59 430.242C1020.75 430.328 1021.02 430.371 1021.41 430.371C1021.51 430.371 1021.62 430.371 1021.73 430.371C1021.85 430.363 1021.99 430.352 1022.14 430.336V432C1021.9 432.07 1021.65 432.121 1021.38 432.152C1021.12 432.184 1020.84 432.199 1020.54 432.199C1019.55 432.199 1018.89 431.949 1018.54 431.449C1018.18 430.941 1018.01 430.285 1018.01 429.48V421.172H1016.31V419.449H1018.01V415.945ZM1029.49 419.168C1030.38 419.168 1031.25 419.379 1032.08 419.801C1032.92 420.215 1033.55 420.754 1033.99 421.418C1034.41 422.051 1034.7 422.789 1034.84 423.633C1034.96 424.211 1035.02 425.133 1035.02 426.398H1025.82C1025.86 427.672 1026.16 428.695 1026.73 429.469C1027.29 430.234 1028.16 430.617 1029.34 430.617C1030.44 430.617 1031.32 430.254 1031.98 429.527C1032.35 429.105 1032.62 428.617 1032.77 428.062H1034.85C1034.79 428.523 1034.61 429.039 1034.3 429.609C1033.99 430.172 1033.65 430.633 1033.27 430.992C1032.62 431.617 1031.83 432.039 1030.89 432.258C1030.38 432.383 1029.8 432.445 1029.16 432.445C1027.6 432.445 1026.28 431.879 1025.19 430.746C1024.11 429.605 1023.56 428.012 1023.56 425.965C1023.56 423.949 1024.11 422.312 1025.2 421.055C1026.3 419.797 1027.73 419.168 1029.49 419.168ZM1032.86 424.723C1032.77 423.809 1032.57 423.078 1032.26 422.531C1031.68 421.516 1030.71 421.008 1029.36 421.008C1028.39 421.008 1027.58 421.359 1026.93 422.062C1026.27 422.758 1025.92 423.645 1025.88 424.723H1032.86ZM1042.05 419.227C1043.04 419.227 1043.9 419.469 1044.63 419.953C1045.03 420.227 1045.44 420.625 1045.85 421.148V419.566H1047.8V430.98C1047.8 432.574 1047.56 433.832 1047.09 434.754C1046.22 436.457 1044.57 437.309 1042.14 437.309C1040.79 437.309 1039.65 437.004 1038.73 436.395C1037.8 435.793 1037.29 434.848 1037.18 433.559H1039.32C1039.43 434.121 1039.63 434.555 1039.93 434.859C1040.41 435.328 1041.16 435.562 1042.18 435.562C1043.8 435.562 1044.86 434.992 1045.36 433.852C1045.66 433.18 1045.79 431.98 1045.77 430.254C1045.35 430.895 1044.84 431.371 1044.25 431.684C1043.65 431.996 1042.87 432.152 1041.89 432.152C1040.53 432.152 1039.34 431.672 1038.32 430.711C1037.3 429.742 1036.79 428.145 1036.79 425.918C1036.79 423.816 1037.3 422.176 1038.33 420.996C1039.36 419.816 1040.6 419.227 1042.05 419.227ZM1045.85 425.672C1045.85 424.117 1045.53 422.965 1044.89 422.215C1044.25 421.465 1043.43 421.09 1042.44 421.09C1040.96 421.09 1039.94 421.785 1039.39 423.176C1039.11 423.918 1038.96 424.891 1038.96 426.094C1038.96 427.508 1039.25 428.586 1039.82 429.328C1040.39 430.062 1041.17 430.43 1042.14 430.43C1043.65 430.43 1044.72 429.746 1045.34 428.379C1045.68 427.605 1045.85 426.703 1045.85 425.672ZM1058.82 419.449H1061.16C1060.86 420.254 1060.2 422.09 1059.18 424.957C1058.41 427.113 1057.77 428.871 1057.25 430.23C1056.04 433.434 1055.18 435.387 1054.68 436.09C1054.18 436.793 1053.32 437.145 1052.1 437.145C1051.8 437.145 1051.57 437.133 1051.41 437.109C1051.25 437.086 1051.05 437.043 1050.82 436.98V435.059C1051.19 435.16 1051.45 435.223 1051.62 435.246C1051.78 435.27 1051.93 435.281 1052.05 435.281C1052.44 435.281 1052.73 435.215 1052.91 435.082C1053.09 434.957 1053.25 434.801 1053.38 434.613C1053.41 434.551 1053.55 434.23 1053.8 433.652C1054.04 433.074 1054.21 432.645 1054.32 432.363L1049.68 419.449H1052.07L1055.44 429.668L1058.82 419.449ZM975.164 463.66C975.164 464.27 975.387 464.75 975.832 465.102C976.277 465.453 976.805 465.629 977.414 465.629C978.156 465.629 978.875 465.457 979.57 465.113C980.742 464.543 981.328 463.609 981.328 462.312V460.613C981.07 460.777 980.738 460.914 980.332 461.023C979.926 461.133 979.527 461.211 979.137 461.258L977.859 461.422C977.094 461.523 976.52 461.684 976.137 461.902C975.488 462.27 975.164 462.855 975.164 463.66ZM980.273 459.395C980.758 459.332 981.082 459.129 981.246 458.785C981.34 458.598 981.387 458.328 981.387 457.977C981.387 457.258 981.129 456.738 980.613 456.418C980.105 456.09 979.375 455.926 978.422 455.926C977.32 455.926 976.539 456.223 976.078 456.816C975.82 457.145 975.652 457.633 975.574 458.281H973.605C973.645 456.734 974.145 455.66 975.105 455.059C976.074 454.449 977.195 454.145 978.469 454.145C979.945 454.145 981.145 454.426 982.066 454.988C982.98 455.551 983.438 456.426 983.438 457.613V464.844C983.438 465.062 983.48 465.238 983.566 465.371C983.66 465.504 983.852 465.57 984.141 465.57C984.234 465.57 984.34 465.566 984.457 465.559C984.574 465.543 984.699 465.523 984.832 465.5V467.059C984.504 467.152 984.254 467.211 984.082 467.234C983.91 467.258 983.676 467.27 983.379 467.27C982.652 467.27 982.125 467.012 981.797 466.496C981.625 466.223 981.504 465.836 981.434 465.336C981.004 465.898 980.387 466.387 979.582 466.801C978.777 467.215 977.891 467.422 976.922 467.422C975.758 467.422 974.805 467.07 974.062 466.367C973.328 465.656 972.961 464.77 972.961 463.707C972.961 462.543 973.324 461.641 974.051 461C974.777 460.359 975.73 459.965 976.91 459.816L980.273 459.395ZM986.906 454.449H988.91V456.23C989.504 455.496 990.133 454.969 990.797 454.648C991.461 454.328 992.199 454.168 993.012 454.168C994.793 454.168 995.996 454.789 996.621 456.031C996.965 456.711 997.137 457.684 997.137 458.949V467H994.992V459.09C994.992 458.324 994.879 457.707 994.652 457.238C994.277 456.457 993.598 456.066 992.613 456.066C992.113 456.066 991.703 456.117 991.383 456.219C990.805 456.391 990.297 456.734 989.859 457.25C989.508 457.664 989.277 458.094 989.168 458.539C989.066 458.977 989.016 459.605 989.016 460.426V467H986.906V454.449ZM1001.6 460.871C1001.6 462.215 1001.89 463.34 1002.46 464.246C1003.03 465.152 1003.94 465.605 1005.2 465.605C1006.18 465.605 1006.98 465.188 1007.6 464.352C1008.23 463.508 1008.55 462.301 1008.55 460.73C1008.55 459.145 1008.23 457.973 1007.58 457.215C1006.93 456.449 1006.13 456.066 1005.18 456.066C1004.11 456.066 1003.25 456.473 1002.59 457.285C1001.93 458.098 1001.6 459.293 1001.6 460.871ZM1004.78 454.227C1005.74 454.227 1006.54 454.43 1007.19 454.836C1007.57 455.07 1007.99 455.48 1008.47 456.066V449.727H1010.5V467H1008.6V465.254C1008.11 466.027 1007.52 466.586 1006.85 466.93C1006.18 467.273 1005.41 467.445 1004.54 467.445C1003.14 467.445 1001.93 466.859 1000.91 465.688C999.887 464.508 999.375 462.941 999.375 460.988C999.375 459.16 999.84 457.578 1000.77 456.242C1001.71 454.898 1003.04 454.227 1004.78 454.227ZM1027.2 465.008C1027.98 465.008 1028.63 464.926 1029.14 464.762C1030.05 464.457 1030.79 463.871 1031.37 463.004C1031.83 462.309 1032.16 461.418 1032.36 460.332C1032.48 459.684 1032.54 459.082 1032.54 458.527C1032.54 456.395 1032.11 454.738 1031.26 453.559C1030.42 452.379 1029.05 451.789 1027.17 451.789H1023.04V465.008H1027.2ZM1020.69 449.785H1027.66C1030.03 449.785 1031.87 450.625 1033.17 452.305C1034.34 453.82 1034.92 455.762 1034.92 458.129C1034.92 459.957 1034.57 461.609 1033.89 463.086C1032.68 465.695 1030.59 467 1027.64 467H1020.69V449.785ZM1042.88 454.168C1043.77 454.168 1044.63 454.379 1045.46 454.801C1046.3 455.215 1046.94 455.754 1047.38 456.418C1047.8 457.051 1048.08 457.789 1048.22 458.633C1048.34 459.211 1048.41 460.133 1048.41 461.398H1039.21C1039.25 462.672 1039.55 463.695 1040.11 464.469C1040.67 465.234 1041.54 465.617 1042.72 465.617C1043.82 465.617 1044.7 465.254 1045.36 464.527C1045.73 464.105 1046 463.617 1046.16 463.062H1048.23C1048.18 463.523 1047.99 464.039 1047.68 464.609C1047.38 465.172 1047.03 465.633 1046.65 465.992C1046.01 466.617 1045.21 467.039 1044.27 467.258C1043.76 467.383 1043.19 467.445 1042.55 467.445C1040.98 467.445 1039.66 466.879 1038.57 465.746C1037.49 464.605 1036.95 463.012 1036.95 460.965C1036.95 458.949 1037.49 457.312 1038.59 456.055C1039.68 454.797 1041.11 454.168 1042.88 454.168ZM1046.24 459.723C1046.15 458.809 1045.95 458.078 1045.64 457.531C1045.06 456.516 1044.1 456.008 1042.75 456.008C1041.78 456.008 1040.96 456.359 1040.31 457.062C1039.65 457.758 1039.3 458.645 1039.27 459.723H1046.24ZM1052.26 463.062C1052.32 463.766 1052.5 464.305 1052.79 464.68C1053.32 465.359 1054.24 465.699 1055.55 465.699C1056.34 465.699 1057.02 465.531 1057.62 465.195C1058.21 464.852 1058.51 464.324 1058.51 463.613C1058.51 463.074 1058.27 462.664 1057.79 462.383C1057.49 462.211 1056.89 462.012 1055.99 461.785L1054.31 461.363C1053.24 461.098 1052.45 460.801 1051.95 460.473C1051.04 459.902 1050.59 459.113 1050.59 458.105C1050.59 456.918 1051.01 455.957 1051.86 455.223C1052.72 454.488 1053.88 454.121 1055.32 454.121C1057.21 454.121 1058.57 454.676 1059.41 455.785C1059.93 456.488 1060.19 457.246 1060.17 458.059H1058.18C1058.14 457.582 1057.97 457.148 1057.68 456.758C1057.19 456.203 1056.35 455.926 1055.16 455.926C1054.36 455.926 1053.75 456.078 1053.34 456.383C1052.93 456.688 1052.73 457.09 1052.73 457.59C1052.73 458.137 1053 458.574 1053.54 458.902C1053.85 459.098 1054.31 459.27 1054.92 459.418L1056.32 459.758C1057.83 460.125 1058.85 460.48 1059.36 460.824C1060.18 461.363 1060.59 462.211 1060.59 463.367C1060.59 464.484 1060.17 465.449 1059.32 466.262C1058.47 467.074 1057.18 467.48 1055.45 467.48C1053.58 467.48 1052.26 467.059 1051.48 466.215C1050.7 465.363 1050.29 464.312 1050.23 463.062H1052.26ZM1063.01 454.508H1065.15V467H1063.01V454.508ZM1063.01 449.785H1065.15V452.176H1063.01V449.785ZM1072.78 454.227C1073.77 454.227 1074.62 454.469 1075.36 454.953C1075.76 455.227 1076.16 455.625 1076.58 456.148V454.566H1078.52V465.98C1078.52 467.574 1078.29 468.832 1077.82 469.754C1076.95 471.457 1075.29 472.309 1072.86 472.309C1071.51 472.309 1070.38 472.004 1069.45 471.395C1068.53 470.793 1068.02 469.848 1067.91 468.559H1070.05C1070.15 469.121 1070.36 469.555 1070.66 469.859C1071.14 470.328 1071.89 470.562 1072.91 470.562C1074.53 470.562 1075.59 469.992 1076.09 468.852C1076.38 468.18 1076.52 466.98 1076.5 465.254C1076.07 465.895 1075.57 466.371 1074.97 466.684C1074.38 466.996 1073.59 467.152 1072.62 467.152C1071.26 467.152 1070.07 466.672 1069.04 465.711C1068.03 464.742 1067.52 463.145 1067.52 460.918C1067.52 458.816 1068.03 457.176 1069.05 455.996C1070.09 454.816 1071.33 454.227 1072.78 454.227ZM1076.58 460.672C1076.58 459.117 1076.26 457.965 1075.62 457.215C1074.98 456.465 1074.16 456.09 1073.17 456.09C1071.68 456.09 1070.67 456.785 1070.12 458.176C1069.83 458.918 1069.69 459.891 1069.69 461.094C1069.69 462.508 1069.97 463.586 1070.54 464.328C1071.12 465.062 1071.89 465.43 1072.86 465.43C1074.38 465.43 1075.45 464.746 1076.06 463.379C1076.41 462.605 1076.58 461.703 1076.58 460.672ZM1081.71 454.449H1083.71V456.23C1084.31 455.496 1084.94 454.969 1085.6 454.648C1086.27 454.328 1087 454.168 1087.82 454.168C1089.6 454.168 1090.8 454.789 1091.43 456.031C1091.77 456.711 1091.94 457.684 1091.94 458.949V467H1089.8V459.09C1089.8 458.324 1089.68 457.707 1089.46 457.238C1089.08 456.457 1088.4 456.066 1087.42 456.066C1086.92 456.066 1086.51 456.117 1086.19 456.219C1085.61 456.391 1085.1 456.734 1084.66 457.25C1084.31 457.664 1084.08 458.094 1083.97 458.539C1083.87 458.977 1083.82 459.605 1083.82 460.426V467H1081.71V454.449Z" fill="#CFD7FE"/>
<rect x="761" y="591" width="656" height="180" rx="90" fill="#001F3E"/>
<path d="M818.047 724.109C807.227 724.109 799.629 720.32 795.254 712.742C790.918 705.164 788.75 694.363 788.75 680.34C788.75 666.316 790.918 655.496 795.254 647.879C799.629 640.262 807.227 636.453 818.047 636.453C828.867 636.453 836.465 640.262 840.84 647.879C845.176 655.496 847.344 666.316 847.344 680.34C847.344 694.363 845.156 705.164 840.781 712.742C836.445 720.32 828.867 724.109 818.047 724.109ZM827.832 702.723C829.355 697.566 830.117 690.105 830.117 680.34C830.117 670.105 829.336 662.527 827.773 657.605C826.25 652.684 823.008 650.223 818.047 650.223C813.086 650.223 809.805 652.684 808.203 657.605C806.602 662.527 805.801 670.105 805.801 680.34C805.801 690.105 806.602 697.586 808.203 702.781C809.805 707.938 813.086 710.516 818.047 710.516C823.008 710.516 826.27 707.918 827.832 702.723ZM868.766 653.973C866.891 656.473 865.992 659.812 866.07 663.992H850.484C850.641 659.773 851.363 655.77 852.652 651.98C854.02 648.66 856.168 645.594 859.098 642.781C861.285 640.789 863.883 639.266 866.891 638.211C869.898 637.156 873.59 636.629 877.965 636.629C886.09 636.629 892.633 638.738 897.594 642.957C902.594 647.137 905.094 652.762 905.094 659.832C905.094 664.832 903.609 669.051 900.641 672.488C898.766 674.637 896.812 676.102 894.781 676.883C896.305 676.883 898.492 678.191 901.344 680.809C905.602 684.754 907.73 690.145 907.73 696.98C907.73 704.168 905.23 710.496 900.23 715.965C895.27 721.395 887.906 724.109 878.141 724.109C866.109 724.109 857.75 720.184 853.062 712.332C850.602 708.152 849.234 702.684 848.961 695.926H865.367C865.367 699.324 865.914 702.137 867.008 704.363C869.039 708.465 872.73 710.516 878.082 710.516C881.363 710.516 884.215 709.402 886.637 707.176C889.098 704.91 890.328 701.668 890.328 697.449C890.328 691.863 888.062 688.133 883.531 686.258C880.953 685.203 876.891 684.676 871.344 684.676V672.723C876.773 672.645 880.562 672.117 882.711 671.141C886.422 669.5 888.277 666.18 888.277 661.18C888.277 657.938 887.32 655.301 885.406 653.27C883.531 651.238 880.875 650.223 877.438 650.223C873.492 650.223 870.602 651.473 868.766 653.973Z" fill="#CFD7FE"/>
<path d="M1238.04 684.536C1239.99 682.583 1239.99 679.417 1238.04 677.464L1206.22 645.645C1204.26 643.692 1201.1 643.692 1199.14 645.645C1197.19 647.597 1197.19 650.763 1199.14 652.716L1227.43 681L1199.14 709.284C1197.19 711.237 1197.19 714.403 1199.14 716.355C1201.1 718.308 1204.26 718.308 1206.22 716.355L1238.04 684.536ZM984.5 686H1234.5V676H984.5V686Z" fill="#CFD7FE"/>
<path d="M1308.05 654.785H1319.99V656.895H1310.38V662.121H1318.83V664.172H1310.38V672H1308.05V654.785ZM1322.22 659.508H1324.36V672H1322.22V659.508ZM1322.22 654.785H1324.36V657.176H1322.22V654.785ZM1327.56 659.449H1329.57V661.23C1330.16 660.496 1330.79 659.969 1331.45 659.648C1332.12 659.328 1332.86 659.168 1333.67 659.168C1335.45 659.168 1336.65 659.789 1337.28 661.031C1337.62 661.711 1337.79 662.684 1337.79 663.949V672H1335.65V664.09C1335.65 663.324 1335.54 662.707 1335.31 662.238C1334.93 661.457 1334.25 661.066 1333.27 661.066C1332.77 661.066 1332.36 661.117 1332.04 661.219C1331.46 661.391 1330.95 661.734 1330.52 662.25C1330.16 662.664 1329.93 663.094 1329.82 663.539C1329.72 663.977 1329.67 664.605 1329.67 665.426V672H1327.56V659.449ZM1342.54 668.66C1342.54 669.27 1342.76 669.75 1343.21 670.102C1343.65 670.453 1344.18 670.629 1344.79 670.629C1345.53 670.629 1346.25 670.457 1346.95 670.113C1348.12 669.543 1348.7 668.609 1348.7 667.312V665.613C1348.45 665.777 1348.11 665.914 1347.71 666.023C1347.3 666.133 1346.9 666.211 1346.51 666.258L1345.23 666.422C1344.47 666.523 1343.89 666.684 1343.51 666.902C1342.86 667.27 1342.54 667.855 1342.54 668.66ZM1347.65 664.395C1348.13 664.332 1348.46 664.129 1348.62 663.785C1348.71 663.598 1348.76 663.328 1348.76 662.977C1348.76 662.258 1348.5 661.738 1347.99 661.418C1347.48 661.09 1346.75 660.926 1345.8 660.926C1344.7 660.926 1343.91 661.223 1343.45 661.816C1343.2 662.145 1343.03 662.633 1342.95 663.281H1340.98C1341.02 661.734 1341.52 660.66 1342.48 660.059C1343.45 659.449 1344.57 659.145 1345.84 659.145C1347.32 659.145 1348.52 659.426 1349.44 659.988C1350.36 660.551 1350.81 661.426 1350.81 662.613V669.844C1350.81 670.062 1350.86 670.238 1350.94 670.371C1351.04 670.504 1351.23 670.57 1351.52 670.57C1351.61 670.57 1351.71 670.566 1351.83 670.559C1351.95 670.543 1352.07 670.523 1352.21 670.5V672.059C1351.88 672.152 1351.63 672.211 1351.46 672.234C1351.29 672.258 1351.05 672.27 1350.75 672.27C1350.03 672.27 1349.5 672.012 1349.17 671.496C1349 671.223 1348.88 670.836 1348.81 670.336C1348.38 670.898 1347.76 671.387 1346.96 671.801C1346.15 672.215 1345.27 672.422 1344.3 672.422C1343.13 672.422 1342.18 672.07 1341.44 671.367C1340.7 670.656 1340.34 669.77 1340.34 668.707C1340.34 667.543 1340.7 666.641 1341.43 666C1342.15 665.359 1343.11 664.965 1344.29 664.816L1347.65 664.395ZM1354.34 654.785H1356.45V672H1354.34V654.785ZM1314.44 705.008C1315.23 705.008 1315.88 704.926 1316.38 704.762C1317.29 704.457 1318.03 703.871 1318.61 703.004C1319.07 702.309 1319.4 701.418 1319.61 700.332C1319.72 699.684 1319.78 699.082 1319.78 698.527C1319.78 696.395 1319.36 694.738 1318.5 693.559C1317.66 692.379 1316.3 691.789 1314.41 691.789H1310.28V705.008H1314.44ZM1307.93 689.785H1314.91C1317.27 689.785 1319.11 690.625 1320.41 692.305C1321.58 693.82 1322.16 695.762 1322.16 698.129C1322.16 699.957 1321.82 701.609 1321.13 703.086C1319.92 705.695 1317.84 707 1314.88 707H1307.93V689.785ZM1330.12 694.168C1331.01 694.168 1331.87 694.379 1332.71 694.801C1333.54 695.215 1334.18 695.754 1334.62 696.418C1335.04 697.051 1335.32 697.789 1335.46 698.633C1335.59 699.211 1335.65 700.133 1335.65 701.398H1326.45C1326.49 702.672 1326.79 703.695 1327.35 704.469C1327.91 705.234 1328.79 705.617 1329.96 705.617C1331.07 705.617 1331.95 705.254 1332.6 704.527C1332.98 704.105 1333.24 703.617 1333.4 703.062H1335.47C1335.42 703.523 1335.23 704.039 1334.92 704.609C1334.62 705.172 1334.27 705.633 1333.89 705.992C1333.25 706.617 1332.46 707.039 1331.51 707.258C1331 707.383 1330.43 707.445 1329.79 707.445C1328.23 707.445 1326.9 706.879 1325.82 705.746C1324.73 704.605 1324.19 703.012 1324.19 700.965C1324.19 698.949 1324.73 697.312 1325.83 696.055C1326.92 694.797 1328.35 694.168 1330.12 694.168ZM1333.48 699.723C1333.39 698.809 1333.2 698.078 1332.88 697.531C1332.3 696.516 1331.34 696.008 1329.99 696.008C1329.02 696.008 1328.21 696.359 1327.55 697.062C1326.89 697.758 1326.55 698.645 1326.51 699.723H1333.48ZM1338.31 689.785H1340.42V707H1338.31V689.785ZM1343.59 694.508H1345.74V707H1343.59V694.508ZM1343.59 689.785H1345.74V692.176H1343.59V689.785ZM1349.97 694.449L1353.32 704.668L1356.82 694.449H1359.13L1354.4 707H1352.15L1347.52 694.449H1349.97ZM1366.16 694.168C1367.05 694.168 1367.92 694.379 1368.75 694.801C1369.59 695.215 1370.23 695.754 1370.66 696.418C1371.09 697.051 1371.37 697.789 1371.51 698.633C1371.63 699.211 1371.7 700.133 1371.7 701.398H1362.5C1362.54 702.672 1362.84 703.695 1363.4 704.469C1363.96 705.234 1364.83 705.617 1366.01 705.617C1367.11 705.617 1367.99 705.254 1368.65 704.527C1369.02 704.105 1369.29 703.617 1369.45 703.062H1371.52C1371.46 703.523 1371.28 704.039 1370.97 704.609C1370.66 705.172 1370.32 705.633 1369.94 705.992C1369.3 706.617 1368.5 707.039 1367.56 707.258C1367.05 707.383 1366.48 707.445 1365.84 707.445C1364.27 707.445 1362.95 706.879 1361.86 705.746C1360.78 704.605 1360.23 703.012 1360.23 700.965C1360.23 698.949 1360.78 697.312 1361.88 696.055C1362.97 694.797 1364.4 694.168 1366.16 694.168ZM1369.53 699.723C1369.44 698.809 1369.24 698.078 1368.93 697.531C1368.35 696.516 1367.39 696.008 1366.04 696.008C1365.07 696.008 1364.25 696.359 1363.6 697.062C1362.94 697.758 1362.59 698.645 1362.55 699.723H1369.53ZM1374.36 694.449H1376.36V696.617C1376.52 696.195 1376.93 695.684 1377.57 695.082C1378.21 694.473 1378.95 694.168 1379.78 694.168C1379.82 694.168 1379.89 694.172 1379.98 694.18C1380.07 694.188 1380.23 694.203 1380.46 694.227V696.453C1380.34 696.43 1380.22 696.414 1380.11 696.406C1380.01 696.398 1379.89 696.395 1379.77 696.395C1378.71 696.395 1377.89 696.738 1377.32 697.426C1376.75 698.105 1376.46 698.891 1376.46 699.781V707H1374.36V694.449ZM1390.13 694.449H1392.46C1392.16 695.254 1391.5 697.09 1390.48 699.957C1389.71 702.113 1389.07 703.871 1388.56 705.23C1387.34 708.434 1386.48 710.387 1385.98 711.09C1385.48 711.793 1384.62 712.145 1383.4 712.145C1383.11 712.145 1382.88 712.133 1382.71 712.109C1382.55 712.086 1382.36 712.043 1382.12 711.98V710.059C1382.49 710.16 1382.76 710.223 1382.92 710.246C1383.09 710.27 1383.23 710.281 1383.36 710.281C1383.75 710.281 1384.03 710.215 1384.21 710.082C1384.4 709.957 1384.55 709.801 1384.68 709.613C1384.72 709.551 1384.86 709.23 1385.1 708.652C1385.34 708.074 1385.52 707.645 1385.63 707.363L1380.99 694.449H1383.38L1386.74 704.668L1390.13 694.449Z" fill="#CFD7FE"/>
<rect x="36" y="852" width="1369" height="80" rx="40" fill="#001F3E"/>
<path d="M136.707 897.696H136.755L140.523 882.72H142.203L137.667 900H135.867L131.859 884.736H131.811L127.803 900H126.003L121.539 882.72H123.171L126.891 897.696H126.939L130.947 882.72H132.771L136.707 897.696ZM152.837 892.92C152.837 892.312 152.749 891.744 152.573 891.216C152.413 890.672 152.165 890.208 151.829 889.824C151.509 889.424 151.101 889.112 150.605 888.888C150.109 888.648 149.541 888.528 148.901 888.528C148.261 888.528 147.693 888.648 147.197 888.888C146.717 889.128 146.301 889.448 145.949 889.848C145.613 890.248 145.341 890.712 145.133 891.24C144.925 891.768 144.789 892.328 144.725 892.92H152.837ZM144.725 894.12C144.725 894.792 144.813 895.432 144.989 896.04C145.165 896.632 145.421 897.152 145.757 897.6C146.109 898.032 146.549 898.384 147.077 898.656C147.605 898.912 148.213 899.04 148.901 899.04C149.845 899.04 150.653 898.792 151.325 898.296C151.997 897.8 152.445 897.096 152.669 896.184H154.277C154.101 896.776 153.869 897.328 153.581 897.84C153.293 898.336 152.933 898.776 152.501 899.16C152.069 899.528 151.557 899.816 150.965 900.024C150.373 900.232 149.685 900.336 148.901 900.336C147.909 900.336 147.053 900.168 146.333 899.832C145.613 899.496 145.021 899.04 144.557 898.464C144.093 897.872 143.749 897.184 143.525 896.4C143.301 895.6 143.189 894.744 143.189 893.832C143.189 892.92 143.317 892.064 143.573 891.264C143.845 890.464 144.221 889.768 144.701 889.176C145.197 888.568 145.797 888.096 146.501 887.76C147.205 887.408 148.005 887.232 148.901 887.232C150.613 887.232 151.957 887.824 152.933 889.008C153.909 890.176 154.389 891.88 154.373 894.12H144.725ZM166.173 892.92C166.173 892.312 166.085 891.744 165.909 891.216C165.749 890.672 165.501 890.208 165.165 889.824C164.845 889.424 164.437 889.112 163.941 888.888C163.445 888.648 162.877 888.528 162.237 888.528C161.597 888.528 161.029 888.648 160.533 888.888C160.053 889.128 159.637 889.448 159.285 889.848C158.949 890.248 158.677 890.712 158.469 891.24C158.261 891.768 158.125 892.328 158.061 892.92H166.173ZM158.061 894.12C158.061 894.792 158.149 895.432 158.325 896.04C158.501 896.632 158.757 897.152 159.093 897.6C159.445 898.032 159.885 898.384 160.413 898.656C160.941 898.912 161.549 899.04 162.237 899.04C163.181 899.04 163.989 898.792 164.661 898.296C165.333 897.8 165.781 897.096 166.005 896.184H167.613C167.437 896.776 167.205 897.328 166.917 897.84C166.629 898.336 166.269 898.776 165.837 899.16C165.405 899.528 164.893 899.816 164.301 900.024C163.709 900.232 163.021 900.336 162.237 900.336C161.245 900.336 160.389 900.168 159.669 899.832C158.949 899.496 158.357 899.04 157.893 898.464C157.429 897.872 157.085 897.184 156.861 896.4C156.637 895.6 156.525 894.744 156.525 893.832C156.525 892.92 156.653 892.064 156.909 891.264C157.181 890.464 157.557 889.768 158.037 889.176C158.533 888.568 159.133 888.096 159.837 887.76C160.541 887.408 161.341 887.232 162.237 887.232C163.949 887.232 165.293 887.824 166.269 889.008C167.245 890.176 167.725 891.88 167.709 894.12H158.061ZM170.413 900V882.72H171.853V893.472L177.949 887.568H179.917L175.261 892.056L180.469 900H178.861L174.205 893.064L171.853 895.296V900H170.413ZM194.709 887.424H190.341V886.416C190.981 886.368 191.557 886.304 192.069 886.224C192.597 886.144 193.053 885.992 193.437 885.768C193.837 885.544 194.165 885.224 194.421 884.808C194.693 884.376 194.893 883.8 195.021 883.08H196.245V900H194.709V887.424Z" fill="white"/>
<path d="M296.564 897.696H296.612L300.38 882.72H302.06L297.524 900H295.724L291.716 884.736H291.668L287.66 900H285.86L281.396 882.72H283.028L286.748 897.696H286.796L290.804 882.72H292.628L296.564 897.696ZM312.694 892.92C312.694 892.312 312.606 891.744 312.43 891.216C312.27 890.672 312.022 890.208 311.686 889.824C311.366 889.424 310.958 889.112 310.462 888.888C309.966 888.648 309.398 888.528 308.758 888.528C308.118 888.528 307.55 888.648 307.054 888.888C306.574 889.128 306.158 889.448 305.806 889.848C305.47 890.248 305.198 890.712 304.99 891.24C304.782 891.768 304.646 892.328 304.582 892.92H312.694ZM304.582 894.12C304.582 894.792 304.67 895.432 304.846 896.04C305.022 896.632 305.278 897.152 305.614 897.6C305.966 898.032 306.406 898.384 306.934 898.656C307.462 898.912 308.07 899.04 308.758 899.04C309.702 899.04 310.51 898.792 311.182 898.296C311.854 897.8 312.302 897.096 312.526 896.184H314.134C313.958 896.776 313.726 897.328 313.438 897.84C313.15 898.336 312.79 898.776 312.358 899.16C311.926 899.528 311.414 899.816 310.822 900.024C310.23 900.232 309.542 900.336 308.758 900.336C307.766 900.336 306.91 900.168 306.19 899.832C305.47 899.496 304.878 899.04 304.414 898.464C303.95 897.872 303.606 897.184 303.382 896.4C303.158 895.6 303.046 894.744 303.046 893.832C303.046 892.92 303.174 892.064 303.43 891.264C303.702 890.464 304.078 889.768 304.558 889.176C305.054 888.568 305.654 888.096 306.358 887.76C307.062 887.408 307.862 887.232 308.758 887.232C310.47 887.232 311.814 887.824 312.79 889.008C313.766 890.176 314.246 891.88 314.23 894.12H304.582ZM326.03 892.92C326.03 892.312 325.942 891.744 325.766 891.216C325.606 890.672 325.358 890.208 325.022 889.824C324.702 889.424 324.294 889.112 323.798 888.888C323.302 888.648 322.734 888.528 322.094 888.528C321.454 888.528 320.886 888.648 320.39 888.888C319.91 889.128 319.494 889.448 319.142 889.848C318.806 890.248 318.534 890.712 318.326 891.24C318.118 891.768 317.982 892.328 317.918 892.92H326.03ZM317.918 894.12C317.918 894.792 318.006 895.432 318.182 896.04C318.358 896.632 318.614 897.152 318.95 897.6C319.302 898.032 319.742 898.384 320.27 898.656C320.798 898.912 321.406 899.04 322.094 899.04C323.038 899.04 323.846 898.792 324.518 898.296C325.19 897.8 325.638 897.096 325.862 896.184H327.47C327.294 896.776 327.062 897.328 326.774 897.84C326.486 898.336 326.126 898.776 325.694 899.16C325.262 899.528 324.75 899.816 324.158 900.024C323.566 900.232 322.878 900.336 322.094 900.336C321.102 900.336 320.246 900.168 319.526 899.832C318.806 899.496 318.214 899.04 317.75 898.464C317.286 897.872 316.942 897.184 316.718 896.4C316.494 895.6 316.382 894.744 316.382 893.832C316.382 892.92 316.51 892.064 316.766 891.264C317.038 890.464 317.414 889.768 317.894 889.176C318.39 888.568 318.99 888.096 319.694 887.76C320.398 887.408 321.198 887.232 322.094 887.232C323.806 887.232 325.15 887.824 326.126 889.008C327.102 890.176 327.582 891.88 327.566 894.12H317.918ZM330.27 900V882.72H331.71V893.472L337.806 887.568H339.774L335.118 892.056L340.326 900H338.718L334.062 893.064L331.71 895.296V900H330.27ZM348.974 888.624C348.974 887.792 349.102 887.04 349.358 886.368C349.614 885.68 349.982 885.096 350.462 884.616C350.942 884.12 351.518 883.744 352.19 883.488C352.878 883.216 353.638 883.08 354.47 883.08C355.318 883.08 356.062 883.208 356.702 883.464C357.358 883.704 357.902 884.032 358.334 884.448C358.782 884.864 359.118 885.36 359.342 885.936C359.566 886.512 359.678 887.12 359.678 887.76C359.678 888.512 359.55 889.176 359.294 889.752C359.054 890.328 358.726 890.84 358.31 891.288C357.91 891.736 357.446 892.136 356.918 892.488C356.406 892.84 355.878 893.176 355.334 893.496C354.79 893.8 354.254 894.096 353.726 894.384C353.198 894.672 352.726 894.976 352.31 895.296C352.038 895.504 351.774 895.728 351.518 895.968C351.262 896.192 351.03 896.44 350.822 896.712C350.614 896.984 350.446 897.288 350.318 897.624C350.19 897.944 350.118 898.304 350.102 898.704H359.534V900H348.47C348.486 899.184 348.574 898.448 348.734 897.792C348.894 897.136 349.246 896.496 349.79 895.872C350.382 895.2 350.99 894.624 351.614 894.144C352.254 893.664 352.878 893.24 353.486 892.872C354.094 892.488 354.67 892.144 355.214 891.84C355.758 891.52 356.238 891.176 356.654 890.808C357.07 890.44 357.398 890.024 357.638 889.56C357.878 889.096 357.998 888.528 357.998 887.856C357.998 887.312 357.902 886.824 357.71 886.392C357.518 885.96 357.254 885.592 356.918 885.288C356.582 884.984 356.19 884.76 355.742 884.616C355.294 884.456 354.806 884.376 354.278 884.376C353.718 884.376 353.206 884.496 352.742 884.736C352.294 884.96 351.902 885.264 351.566 885.648C351.246 886.032 350.998 886.48 350.822 886.992C350.646 887.504 350.574 888.048 350.606 888.624H348.974Z" fill="white"/>
<path d="M456.421 897.696H456.469L460.237 882.72H461.917L457.381 900H455.581L451.573 884.736H451.525L447.517 900H445.717L441.253 882.72H442.885L446.605 897.696H446.653L450.661 882.72H452.485L456.421 897.696ZM472.552 892.92C472.552 892.312 472.464 891.744 472.288 891.216C472.128 890.672 471.88 890.208 471.544 889.824C471.224 889.424 470.816 889.112 470.32 888.888C469.824 888.648 469.256 888.528 468.616 888.528C467.976 888.528 467.408 888.648 466.912 888.888C466.432 889.128 466.016 889.448 465.664 889.848C465.328 890.248 465.056 890.712 464.848 891.24C464.64 891.768 464.504 892.328 464.44 892.92H472.552ZM464.44 894.12C464.44 894.792 464.528 895.432 464.704 896.04C464.88 896.632 465.136 897.152 465.472 897.6C465.824 898.032 466.264 898.384 466.792 898.656C467.32 898.912 467.928 899.04 468.616 899.04C469.56 899.04 470.368 898.792 471.04 898.296C471.712 897.8 472.16 897.096 472.384 896.184H473.992C473.816 896.776 473.584 897.328 473.296 897.84C473.008 898.336 472.648 898.776 472.216 899.16C471.784 899.528 471.272 899.816 470.68 900.024C470.088 900.232 469.4 900.336 468.616 900.336C467.624 900.336 466.768 900.168 466.048 899.832C465.328 899.496 464.736 899.04 464.272 898.464C463.808 897.872 463.464 897.184 463.24 896.4C463.016 895.6 462.904 894.744 462.904 893.832C462.904 892.92 463.032 892.064 463.288 891.264C463.56 890.464 463.936 889.768 464.416 889.176C464.912 888.568 465.512 888.096 466.216 887.76C466.92 887.408 467.72 887.232 468.616 887.232C470.328 887.232 471.672 887.824 472.648 889.008C473.624 890.176 474.104 891.88 474.088 894.12H464.44ZM485.888 892.92C485.888 892.312 485.8 891.744 485.624 891.216C485.464 890.672 485.216 890.208 484.88 889.824C484.56 889.424 484.152 889.112 483.656 888.888C483.16 888.648 482.592 888.528 481.952 888.528C481.312 888.528 480.744 888.648 480.248 888.888C479.768 889.128 479.352 889.448 479 889.848C478.664 890.248 478.392 890.712 478.184 891.24C477.976 891.768 477.84 892.328 477.776 892.92H485.888ZM477.776 894.12C477.776 894.792 477.864 895.432 478.04 896.04C478.216 896.632 478.472 897.152 478.808 897.6C479.16 898.032 479.6 898.384 480.128 898.656C480.656 898.912 481.264 899.04 481.952 899.04C482.896 899.04 483.704 898.792 484.376 898.296C485.048 897.8 485.496 897.096 485.72 896.184H487.328C487.152 896.776 486.92 897.328 486.632 897.84C486.344 898.336 485.984 898.776 485.552 899.16C485.12 899.528 484.608 899.816 484.016 900.024C483.424 900.232 482.736 900.336 481.952 900.336C480.96 900.336 480.104 900.168 479.384 899.832C478.664 899.496 478.072 899.04 477.608 898.464C477.144 897.872 476.8 897.184 476.576 896.4C476.352 895.6 476.24 894.744 476.24 893.832C476.24 892.92 476.368 892.064 476.624 891.264C476.896 890.464 477.272 889.768 477.752 889.176C478.248 888.568 478.848 888.096 479.552 887.76C480.256 887.408 481.056 887.232 481.952 887.232C483.664 887.232 485.008 887.824 485.984 889.008C486.96 890.176 487.44 891.88 487.424 894.12H477.776ZM490.128 900V882.72H491.568V893.472L497.664 887.568H499.632L494.976 892.056L500.184 900H498.576L493.92 893.064L491.568 895.296V900H490.128ZM512.479 890.592C513.199 890.592 513.855 890.552 514.447 890.472C515.039 890.376 515.543 890.208 515.959 889.968C516.391 889.712 516.727 889.376 516.967 888.96C517.207 888.544 517.327 888.008 517.327 887.352C517.327 886.824 517.231 886.376 517.039 886.008C516.847 885.624 516.583 885.312 516.247 885.072C515.927 884.832 515.543 884.656 515.095 884.544C514.663 884.432 514.207 884.376 513.727 884.376C513.183 884.376 512.687 884.464 512.239 884.64C511.807 884.816 511.431 885.072 511.111 885.408C510.791 885.728 510.543 886.112 510.367 886.56C510.191 886.992 510.103 887.472 510.103 888H508.567C508.567 887.232 508.695 886.544 508.951 885.936C509.223 885.312 509.639 884.736 510.199 884.208C510.727 883.728 511.319 883.424 511.975 883.296C512.647 883.152 513.335 883.08 514.039 883.08C514.711 883.08 515.335 883.168 515.911 883.344C516.503 883.504 517.015 883.76 517.447 884.112C517.879 884.448 518.223 884.88 518.479 885.408C518.735 885.936 518.863 886.552 518.863 887.256C518.863 888.136 518.663 888.896 518.263 889.536C517.879 890.176 517.279 890.672 516.463 891.024C517.071 891.216 517.567 891.472 517.951 891.792C518.351 892.096 518.663 892.44 518.887 892.824C519.111 893.192 519.263 893.584 519.343 894C519.423 894.416 519.463 894.816 519.463 895.2C519.463 895.904 519.343 896.56 519.103 897.168C518.863 897.776 518.511 898.312 518.047 898.776C517.583 899.24 517.007 899.616 516.319 899.904C515.647 900.176 514.879 900.32 514.015 900.336C513.039 900.336 512.191 900.248 511.471 900.072C510.751 899.896 510.151 899.608 509.671 899.208C509.191 898.792 508.815 898.256 508.543 897.6C508.271 896.928 508.087 896.096 507.991 895.104H509.527C509.527 896.4 509.911 897.384 510.679 898.056C511.463 898.712 512.479 899.04 513.727 899.04C514.335 899.04 514.903 898.936 515.431 898.728C515.959 898.52 516.407 898.24 516.775 897.888C517.159 897.536 517.447 897.128 517.639 896.664C517.847 896.2 517.943 895.72 517.927 895.224C517.895 894.536 517.735 893.968 517.447 893.52C517.159 893.056 516.767 892.696 516.271 892.44C515.791 892.168 515.223 891.992 514.567 891.912C513.911 891.816 513.215 891.792 512.479 891.84V890.592Z" fill="white"/>
<path d="M616.278 897.696H616.326L620.094 882.72H621.774L617.238 900H615.438L611.43 884.736H611.382L607.374 900H605.574L601.11 882.72H602.742L606.462 897.696H606.51L610.518 882.72H612.342L616.278 897.696ZM632.409 892.92C632.409 892.312 632.321 891.744 632.145 891.216C631.985 890.672 631.737 890.208 631.401 889.824C631.081 889.424 630.673 889.112 630.177 888.888C629.681 888.648 629.113 888.528 628.473 888.528C627.833 888.528 627.265 888.648 626.769 888.888C626.289 889.128 625.873 889.448 625.521 889.848C625.185 890.248 624.913 890.712 624.705 891.24C624.497 891.768 624.361 892.328 624.297 892.92H632.409ZM624.297 894.12C624.297 894.792 624.385 895.432 624.561 896.04C624.737 896.632 624.993 897.152 625.329 897.6C625.681 898.032 626.121 898.384 626.649 898.656C627.177 898.912 627.785 899.04 628.473 899.04C629.417 899.04 630.225 898.792 630.897 898.296C631.569 897.8 632.017 897.096 632.241 896.184H633.849C633.673 896.776 633.441 897.328 633.153 897.84C632.865 898.336 632.505 898.776 632.073 899.16C631.641 899.528 631.129 899.816 630.537 900.024C629.945 900.232 629.257 900.336 628.473 900.336C627.481 900.336 626.625 900.168 625.905 899.832C625.185 899.496 624.593 899.04 624.129 898.464C623.665 897.872 623.321 897.184 623.097 896.4C622.873 895.6 622.761 894.744 622.761 893.832C622.761 892.92 622.889 892.064 623.145 891.264C623.417 890.464 623.793 889.768 624.273 889.176C624.769 888.568 625.369 888.096 626.073 887.76C626.777 887.408 627.577 887.232 628.473 887.232C630.185 887.232 631.529 887.824 632.505 889.008C633.481 890.176 633.961 891.88 633.945 894.12H624.297ZM645.745 892.92C645.745 892.312 645.657 891.744 645.481 891.216C645.321 890.672 645.073 890.208 644.737 889.824C644.417 889.424 644.009 889.112 643.513 888.888C643.017 888.648 642.449 888.528 641.809 888.528C641.169 888.528 640.601 888.648 640.105 888.888C639.625 889.128 639.209 889.448 638.857 889.848C638.521 890.248 638.249 890.712 638.041 891.24C637.833 891.768 637.697 892.328 637.633 892.92H645.745ZM637.633 894.12C637.633 894.792 637.721 895.432 637.897 896.04C638.073 896.632 638.329 897.152 638.665 897.6C639.017 898.032 639.457 898.384 639.985 898.656C640.513 898.912 641.121 899.04 641.809 899.04C642.753 899.04 643.561 898.792 644.233 898.296C644.905 897.8 645.353 897.096 645.577 896.184H647.185C647.009 896.776 646.777 897.328 646.489 897.84C646.201 898.336 645.841 898.776 645.409 899.16C644.977 899.528 644.465 899.816 643.873 900.024C643.281 900.232 642.593 900.336 641.809 900.336C640.817 900.336 639.961 900.168 639.241 899.832C638.521 899.496 637.929 899.04 637.465 898.464C637.001 897.872 636.657 897.184 636.433 896.4C636.209 895.6 636.097 894.744 636.097 893.832C636.097 892.92 636.225 892.064 636.481 891.264C636.753 890.464 637.129 889.768 637.609 889.176C638.105 888.568 638.705 888.096 639.409 887.76C640.113 887.408 640.913 887.232 641.809 887.232C643.521 887.232 644.865 887.824 645.841 889.008C646.817 890.176 647.297 891.88 647.281 894.12H637.633ZM649.985 900V882.72H651.425V893.472L657.521 887.568H659.489L654.833 892.056L660.041 900H658.433L653.777 893.064L651.425 895.296V900H649.985ZM675.624 895.824H667.896V894.504L675.768 883.248H677.16V894.528H679.512V895.824H677.16V900H675.624V895.824ZM669.408 894.528H675.624V885.552L669.408 894.528Z" fill="white"/>
<path d="M776.136 897.696H776.184L779.952 882.72H781.632L777.096 900H775.296L771.288 884.736H771.24L767.232 900H765.432L760.968 882.72H762.6L766.32 897.696H766.368L770.376 882.72H772.2L776.136 897.696ZM792.266 892.92C792.266 892.312 792.178 891.744 792.002 891.216C791.842 890.672 791.594 890.208 791.258 889.824C790.938 889.424 790.53 889.112 790.034 888.888C789.538 888.648 788.97 888.528 788.33 888.528C787.69 888.528 787.122 888.648 786.626 888.888C786.146 889.128 785.73 889.448 785.378 889.848C785.042 890.248 784.77 890.712 784.562 891.24C784.354 891.768 784.218 892.328 784.154 892.92H792.266ZM784.154 894.12C784.154 894.792 784.242 895.432 784.418 896.04C784.594 896.632 784.85 897.152 785.186 897.6C785.538 898.032 785.978 898.384 786.506 898.656C787.034 898.912 787.642 899.04 788.33 899.04C789.274 899.04 790.082 898.792 790.754 898.296C791.426 897.8 791.874 897.096 792.098 896.184H793.706C793.53 896.776 793.298 897.328 793.01 897.84C792.722 898.336 792.362 898.776 791.93 899.16C791.498 899.528 790.986 899.816 790.394 900.024C789.802 900.232 789.114 900.336 788.33 900.336C787.338 900.336 786.482 900.168 785.762 899.832C785.042 899.496 784.45 899.04 783.986 898.464C783.522 897.872 783.178 897.184 782.954 896.4C782.73 895.6 782.618 894.744 782.618 893.832C782.618 892.92 782.746 892.064 783.002 891.264C783.274 890.464 783.65 889.768 784.13 889.176C784.626 888.568 785.226 888.096 785.93 887.76C786.634 887.408 787.434 887.232 788.33 887.232C790.042 887.232 791.386 887.824 792.362 889.008C793.338 890.176 793.818 891.88 793.802 894.12H784.154ZM805.602 892.92C805.602 892.312 805.514 891.744 805.338 891.216C805.178 890.672 804.93 890.208 804.594 889.824C804.274 889.424 803.866 889.112 803.37 888.888C802.874 888.648 802.306 888.528 801.666 888.528C801.026 888.528 800.458 888.648 799.962 888.888C799.482 889.128 799.066 889.448 798.714 889.848C798.378 890.248 798.106 890.712 797.898 891.24C797.69 891.768 797.554 892.328 797.49 892.92H805.602ZM797.49 894.12C797.49 894.792 797.578 895.432 797.754 896.04C797.93 896.632 798.186 897.152 798.522 897.6C798.874 898.032 799.314 898.384 799.842 898.656C800.37 898.912 800.978 899.04 801.666 899.04C802.61 899.04 803.418 898.792 804.09 898.296C804.762 897.8 805.21 897.096 805.434 896.184H807.042C806.866 896.776 806.634 897.328 806.346 897.84C806.058 898.336 805.698 898.776 805.266 899.16C804.834 899.528 804.322 899.816 803.73 900.024C803.138 900.232 802.45 900.336 801.666 900.336C800.674 900.336 799.818 900.168 799.098 899.832C798.378 899.496 797.786 899.04 797.322 898.464C796.858 897.872 796.514 897.184 796.29 896.4C796.066 895.6 795.954 894.744 795.954 893.832C795.954 892.92 796.082 892.064 796.338 891.264C796.61 890.464 796.986 889.768 797.466 889.176C797.962 888.568 798.562 888.096 799.266 887.76C799.97 887.408 800.77 887.232 801.666 887.232C803.378 887.232 804.722 887.824 805.698 889.008C806.674 890.176 807.154 891.88 807.138 894.12H797.49ZM809.842 900V882.72H811.282V893.472L817.378 887.568H819.346L814.69 892.056L819.898 900H818.29L813.634 893.064L811.282 895.296V900H809.842ZM829.266 895.608C829.426 896.76 829.882 897.624 830.634 898.2C831.402 898.76 832.338 899.04 833.442 899.04C834.066 899.04 834.626 898.928 835.122 898.704C835.634 898.48 836.066 898.176 836.418 897.792C836.77 897.392 837.034 896.936 837.21 896.424C837.402 895.896 837.498 895.328 837.498 894.72C837.498 894.096 837.394 893.52 837.186 892.992C836.994 892.464 836.714 892.008 836.346 891.624C835.994 891.24 835.554 890.944 835.026 890.736C834.514 890.528 833.938 890.424 833.298 890.424C832.53 890.424 831.842 890.568 831.234 890.856C830.626 891.128 830.09 891.568 829.626 892.176L828.354 892.008L829.722 883.248H838.122V884.544H831.018L829.962 890.232C830.298 890.024 830.602 889.848 830.874 889.704C831.162 889.56 831.45 889.448 831.738 889.368C832.026 889.272 832.322 889.208 832.626 889.176C832.946 889.144 833.298 889.128 833.682 889.128C834.45 889.128 835.162 889.256 835.818 889.512C836.474 889.768 837.042 890.136 837.522 890.616C838.002 891.096 838.37 891.688 838.626 892.392C838.898 893.08 839.034 893.856 839.034 894.72C839.034 895.616 838.882 896.416 838.578 897.12C838.29 897.808 837.898 898.392 837.402 898.872C836.906 899.352 836.33 899.72 835.674 899.976C835.034 900.216 834.37 900.336 833.682 900.336C832.882 900.336 832.13 900.256 831.426 900.096C830.738 899.936 830.13 899.672 829.602 899.304C829.074 898.92 828.642 898.432 828.306 897.84C827.986 897.232 827.794 896.488 827.73 895.608H829.266Z" fill="white"/>
<path d="M935.993 897.696H936.041L939.809 882.72H941.489L936.953 900H935.153L931.145 884.736H931.097L927.089 900H925.289L920.825 882.72H922.457L926.177 897.696H926.225L930.233 882.72H932.057L935.993 897.696ZM952.123 892.92C952.123 892.312 952.035 891.744 951.859 891.216C951.699 890.672 951.451 890.208 951.115 889.824C950.795 889.424 950.387 889.112 949.891 888.888C949.395 888.648 948.827 888.528 948.187 888.528C947.547 888.528 946.979 888.648 946.483 888.888C946.003 889.128 945.587 889.448 945.235 889.848C944.899 890.248 944.627 890.712 944.419 891.24C944.211 891.768 944.075 892.328 944.011 892.92H952.123ZM944.011 894.12C944.011 894.792 944.099 895.432 944.275 896.04C944.451 896.632 944.707 897.152 945.043 897.6C945.395 898.032 945.835 898.384 946.363 898.656C946.891 898.912 947.499 899.04 948.187 899.04C949.131 899.04 949.939 898.792 950.611 898.296C951.283 897.8 951.731 897.096 951.955 896.184H953.563C953.387 896.776 953.155 897.328 952.867 897.84C952.579 898.336 952.219 898.776 951.787 899.16C951.355 899.528 950.843 899.816 950.251 900.024C949.659 900.232 948.971 900.336 948.187 900.336C947.195 900.336 946.339 900.168 945.619 899.832C944.899 899.496 944.307 899.04 943.843 898.464C943.379 897.872 943.035 897.184 942.811 896.4C942.587 895.6 942.475 894.744 942.475 893.832C942.475 892.92 942.603 892.064 942.859 891.264C943.131 890.464 943.507 889.768 943.987 889.176C944.483 888.568 945.083 888.096 945.787 887.76C946.491 887.408 947.291 887.232 948.187 887.232C949.899 887.232 951.243 887.824 952.219 889.008C953.195 890.176 953.675 891.88 953.659 894.12H944.011ZM965.459 892.92C965.459 892.312 965.371 891.744 965.195 891.216C965.035 890.672 964.787 890.208 964.451 889.824C964.131 889.424 963.723 889.112 963.227 888.888C962.731 888.648 962.163 888.528 961.523 888.528C960.883 888.528 960.315 888.648 959.819 888.888C959.339 889.128 958.923 889.448 958.571 889.848C958.235 890.248 957.963 890.712 957.755 891.24C957.547 891.768 957.411 892.328 957.347 892.92H965.459ZM957.347 894.12C957.347 894.792 957.435 895.432 957.611 896.04C957.787 896.632 958.043 897.152 958.379 897.6C958.731 898.032 959.171 898.384 959.699 898.656C960.227 898.912 960.835 899.04 961.523 899.04C962.467 899.04 963.275 898.792 963.947 898.296C964.619 897.8 965.067 897.096 965.291 896.184H966.899C966.723 896.776 966.491 897.328 966.203 897.84C965.915 898.336 965.555 898.776 965.123 899.16C964.691 899.528 964.179 899.816 963.587 900.024C962.995 900.232 962.307 900.336 961.523 900.336C960.531 900.336 959.675 900.168 958.955 899.832C958.235 899.496 957.643 899.04 957.179 898.464C956.715 897.872 956.371 897.184 956.147 896.4C955.923 895.6 955.811 894.744 955.811 893.832C955.811 892.92 955.939 892.064 956.195 891.264C956.467 890.464 956.843 889.768 957.323 889.176C957.819 888.568 958.419 888.096 959.123 887.76C959.827 887.408 960.627 887.232 961.523 887.232C963.235 887.232 964.579 887.824 965.555 889.008C966.531 890.176 967.011 891.88 966.995 894.12H957.347ZM969.699 900V882.72H971.139V893.472L977.235 887.568H979.203L974.547 892.056L979.755 900H978.147L973.491 893.064L971.139 895.296V900H969.699ZM997.235 887.232C997.059 886.368 996.707 885.68 996.179 885.168C995.651 884.64 994.931 884.376 994.019 884.376C992.979 884.376 992.155 884.624 991.547 885.12C990.955 885.616 990.499 886.248 990.179 887.016C989.859 887.768 989.643 888.592 989.531 889.488C989.419 890.384 989.331 891.232 989.267 892.032C989.507 891.712 989.755 891.392 990.011 891.072C990.283 890.752 990.587 890.472 990.923 890.232C991.259 889.976 991.651 889.776 992.099 889.632C992.547 889.472 993.083 889.392 993.707 889.392C995.419 889.392 996.739 889.88 997.667 890.856C998.611 891.816 999.083 893.144 999.083 894.84C999.083 896.552 998.611 897.896 997.667 898.872C996.723 899.848 995.387 900.336 993.659 900.336C992.811 900.336 992.027 900.2 991.307 899.928C990.587 899.64 989.963 899.176 989.435 898.536C988.907 897.896 988.491 897.064 988.187 896.04C987.883 895 987.731 893.736 987.731 892.248C987.731 891.24 987.819 890.2 987.995 889.128C988.171 888.04 988.483 887.048 988.931 886.152C989.395 885.256 990.019 884.52 990.803 883.944C991.603 883.368 992.627 883.08 993.875 883.08C995.219 883.08 996.339 883.432 997.235 884.136C998.131 884.84 998.659 885.872 998.819 887.232H997.235ZM993.659 890.688C993.067 890.688 992.531 890.8 992.051 891.024C991.587 891.248 991.187 891.552 990.851 891.936C990.531 892.32 990.283 892.768 990.107 893.28C989.931 893.776 989.843 894.312 989.843 894.888C989.843 895.368 989.907 895.856 990.035 896.352C990.179 896.832 990.403 897.272 990.707 897.672C991.027 898.072 991.427 898.4 991.907 898.656C992.387 898.912 992.979 899.04 993.683 899.04C994.403 899.04 995.003 898.92 995.483 898.68C995.979 898.424 996.379 898.096 996.683 897.696C996.987 897.28 997.203 896.824 997.331 896.328C997.475 895.816 997.547 895.304 997.547 894.792C997.547 893.48 997.227 892.472 996.587 891.768C995.963 891.048 994.987 890.688 993.659 890.688Z" fill="white"/>
<path d="M1095.85 897.696H1095.9L1099.67 882.72H1101.35L1096.81 900H1095.01L1091 884.736H1090.95L1086.95 900H1085.15L1080.68 882.72H1082.31L1086.03 897.696H1086.08L1090.09 882.72H1091.91L1095.85 897.696ZM1111.98 892.92C1111.98 892.312 1111.89 891.744 1111.72 891.216C1111.56 890.672 1111.31 890.208 1110.97 889.824C1110.65 889.424 1110.24 889.112 1109.75 888.888C1109.25 888.648 1108.68 888.528 1108.04 888.528C1107.4 888.528 1106.84 888.648 1106.34 888.888C1105.86 889.128 1105.44 889.448 1105.09 889.848C1104.76 890.248 1104.48 890.712 1104.28 891.24C1104.07 891.768 1103.93 892.328 1103.87 892.92H1111.98ZM1103.87 894.12C1103.87 894.792 1103.96 895.432 1104.13 896.04C1104.31 896.632 1104.56 897.152 1104.9 897.6C1105.25 898.032 1105.69 898.384 1106.22 898.656C1106.75 898.912 1107.36 899.04 1108.04 899.04C1108.99 899.04 1109.8 898.792 1110.47 898.296C1111.14 897.8 1111.59 897.096 1111.81 896.184H1113.42C1113.24 896.776 1113.01 897.328 1112.72 897.84C1112.44 898.336 1112.08 898.776 1111.64 899.16C1111.21 899.528 1110.7 899.816 1110.11 900.024C1109.52 900.232 1108.83 900.336 1108.04 900.336C1107.05 900.336 1106.2 900.168 1105.48 899.832C1104.76 899.496 1104.16 899.04 1103.7 898.464C1103.24 897.872 1102.89 897.184 1102.67 896.4C1102.44 895.6 1102.33 894.744 1102.33 893.832C1102.33 892.92 1102.46 892.064 1102.72 891.264C1102.99 890.464 1103.36 889.768 1103.84 889.176C1104.34 888.568 1104.94 888.096 1105.64 887.76C1106.35 887.408 1107.15 887.232 1108.04 887.232C1109.76 887.232 1111.1 887.824 1112.08 889.008C1113.05 890.176 1113.53 891.88 1113.52 894.12H1103.87ZM1125.32 892.92C1125.32 892.312 1125.23 891.744 1125.05 891.216C1124.89 890.672 1124.64 890.208 1124.31 889.824C1123.99 889.424 1123.58 889.112 1123.08 888.888C1122.59 888.648 1122.02 888.528 1121.38 888.528C1120.74 888.528 1120.17 888.648 1119.68 888.888C1119.2 889.128 1118.78 889.448 1118.43 889.848C1118.09 890.248 1117.82 890.712 1117.61 891.24C1117.4 891.768 1117.27 892.328 1117.2 892.92H1125.32ZM1117.2 894.12C1117.2 894.792 1117.29 895.432 1117.47 896.04C1117.64 896.632 1117.9 897.152 1118.24 897.6C1118.59 898.032 1119.03 898.384 1119.56 898.656C1120.08 898.912 1120.69 899.04 1121.38 899.04C1122.32 899.04 1123.13 898.792 1123.8 898.296C1124.48 897.8 1124.92 897.096 1125.15 896.184H1126.76C1126.58 896.776 1126.35 897.328 1126.06 897.84C1125.77 898.336 1125.41 898.776 1124.98 899.16C1124.55 899.528 1124.04 899.816 1123.44 900.024C1122.85 900.232 1122.16 900.336 1121.38 900.336C1120.39 900.336 1119.53 900.168 1118.81 899.832C1118.09 899.496 1117.5 899.04 1117.04 898.464C1116.57 897.872 1116.23 897.184 1116 896.4C1115.78 895.6 1115.67 894.744 1115.67 893.832C1115.67 892.92 1115.8 892.064 1116.05 891.264C1116.32 890.464 1116.7 889.768 1117.18 889.176C1117.68 888.568 1118.28 888.096 1118.98 887.76C1119.68 887.408 1120.48 887.232 1121.38 887.232C1123.09 887.232 1124.44 887.824 1125.41 889.008C1126.39 890.176 1126.87 891.88 1126.85 894.12H1117.2ZM1129.56 900V882.72H1131V893.472L1137.09 887.568H1139.06L1134.4 892.056L1139.61 900H1138L1133.35 893.064L1131 895.296V900H1129.56ZM1148.02 883.248H1158.8V884.688C1157.58 886.064 1156.55 887.48 1155.7 888.936C1154.85 890.376 1154.16 891.784 1153.61 893.16C1153.07 894.52 1152.66 895.792 1152.39 896.976C1152.13 898.16 1151.98 899.168 1151.93 900H1150.25C1150.33 898.784 1150.57 897.496 1150.97 896.136C1151.39 894.76 1151.9 893.4 1152.51 892.056C1153.12 890.712 1153.8 889.416 1154.57 888.168C1155.34 886.904 1156.13 885.776 1156.95 884.784H1148.02V883.248Z" fill="white"/>
<path d="M1255.71 897.696H1255.76L1259.52 882.72H1261.2L1256.67 900H1254.87L1250.86 884.736H1250.81L1246.8 900H1245L1240.54 882.72H1242.17L1245.89 897.696H1245.94L1249.95 882.72H1251.77L1255.71 897.696ZM1271.84 892.92C1271.84 892.312 1271.75 891.744 1271.57 891.216C1271.41 890.672 1271.17 890.208 1270.83 889.824C1270.51 889.424 1270.1 889.112 1269.61 888.888C1269.11 888.648 1268.54 888.528 1267.9 888.528C1267.26 888.528 1266.69 888.648 1266.2 888.888C1265.72 889.128 1265.3 889.448 1264.95 889.848C1264.61 890.248 1264.34 890.712 1264.13 891.24C1263.93 891.768 1263.79 892.328 1263.73 892.92H1271.84ZM1263.73 894.12C1263.73 894.792 1263.81 895.432 1263.99 896.04C1264.17 896.632 1264.42 897.152 1264.76 897.6C1265.11 898.032 1265.55 898.384 1266.08 898.656C1266.61 898.912 1267.21 899.04 1267.9 899.04C1268.85 899.04 1269.65 898.792 1270.33 898.296C1271 897.8 1271.45 897.096 1271.67 896.184H1273.28C1273.1 896.776 1272.87 897.328 1272.58 897.84C1272.29 898.336 1271.93 898.776 1271.5 899.16C1271.07 899.528 1270.56 899.816 1269.97 900.024C1269.37 900.232 1268.69 900.336 1267.9 900.336C1266.91 900.336 1266.05 900.168 1265.33 899.832C1264.61 899.496 1264.02 899.04 1263.56 898.464C1263.09 897.872 1262.75 897.184 1262.53 896.4C1262.3 895.6 1262.19 894.744 1262.19 893.832C1262.19 892.92 1262.32 892.064 1262.57 891.264C1262.85 890.464 1263.22 889.768 1263.7 889.176C1264.2 888.568 1264.8 888.096 1265.5 887.76C1266.21 887.408 1267.01 887.232 1267.9 887.232C1269.61 887.232 1270.96 887.824 1271.93 889.008C1272.91 890.176 1273.39 891.88 1273.37 894.12H1263.73ZM1285.17 892.92C1285.17 892.312 1285.09 891.744 1284.91 891.216C1284.75 890.672 1284.5 890.208 1284.17 889.824C1283.85 889.424 1283.44 889.112 1282.94 888.888C1282.45 888.648 1281.88 888.528 1281.24 888.528C1280.6 888.528 1280.03 888.648 1279.53 888.888C1279.05 889.128 1278.64 889.448 1278.29 889.848C1277.95 890.248 1277.68 890.712 1277.47 891.24C1277.26 891.768 1277.13 892.328 1277.06 892.92H1285.17ZM1277.06 894.12C1277.06 894.792 1277.15 895.432 1277.33 896.04C1277.5 896.632 1277.76 897.152 1278.09 897.6C1278.45 898.032 1278.89 898.384 1279.41 898.656C1279.94 898.912 1280.55 899.04 1281.24 899.04C1282.18 899.04 1282.99 898.792 1283.66 898.296C1284.33 897.8 1284.78 897.096 1285.01 896.184H1286.61C1286.44 896.776 1286.21 897.328 1285.92 897.84C1285.63 898.336 1285.27 898.776 1284.84 899.16C1284.41 899.528 1283.89 899.816 1283.3 900.024C1282.71 900.232 1282.02 900.336 1281.24 900.336C1280.25 900.336 1279.39 900.168 1278.67 899.832C1277.95 899.496 1277.36 899.04 1276.89 898.464C1276.43 897.872 1276.09 897.184 1275.86 896.4C1275.64 895.6 1275.53 894.744 1275.53 893.832C1275.53 892.92 1275.65 892.064 1275.91 891.264C1276.18 890.464 1276.56 889.768 1277.04 889.176C1277.53 888.568 1278.13 888.096 1278.84 887.76C1279.54 887.408 1280.34 887.232 1281.24 887.232C1282.95 887.232 1284.29 887.824 1285.27 889.008C1286.25 890.176 1286.73 891.88 1286.71 894.12H1277.06ZM1289.41 900V882.72H1290.85V893.472L1296.95 887.568H1298.92L1294.26 892.056L1299.47 900H1297.86L1293.21 893.064L1290.85 895.296V900H1289.41ZM1313.16 891.72C1312.56 891.72 1312.02 891.792 1311.52 891.936C1311.03 892.08 1310.6 892.304 1310.23 892.608C1309.86 892.896 1309.57 893.272 1309.36 893.736C1309.16 894.184 1309.05 894.72 1309.05 895.344C1309.05 895.872 1309.15 896.36 1309.34 896.808C1309.55 897.256 1309.83 897.648 1310.18 897.984C1310.55 898.304 1310.99 898.56 1311.5 898.752C1312.03 898.944 1312.61 899.04 1313.25 899.04C1313.81 899.04 1314.33 898.952 1314.81 898.776C1315.29 898.584 1315.71 898.32 1316.06 897.984C1316.43 897.648 1316.71 897.248 1316.9 896.784C1317.11 896.32 1317.21 895.808 1317.21 895.248C1317.21 894.656 1317.11 894.144 1316.9 893.712C1316.69 893.264 1316.4 892.896 1316.04 892.608C1315.67 892.304 1315.24 892.08 1314.74 891.936C1314.24 891.792 1313.72 891.72 1313.16 891.72ZM1313.08 884.376C1312.6 884.376 1312.16 884.44 1311.74 884.568C1311.32 884.696 1310.96 884.888 1310.64 885.144C1310.33 885.4 1310.09 885.72 1309.92 886.104C1309.74 886.488 1309.65 886.928 1309.65 887.424C1309.65 887.952 1309.75 888.408 1309.94 888.792C1310.15 889.16 1310.42 889.464 1310.76 889.704C1311.09 889.944 1311.48 890.128 1311.91 890.256C1312.34 890.368 1312.79 890.424 1313.25 890.424C1313.72 890.424 1314.15 890.368 1314.55 890.256C1314.95 890.128 1315.29 889.928 1315.58 889.656C1315.87 889.384 1316.09 889.04 1316.25 888.624C1316.43 888.208 1316.52 887.696 1316.52 887.088C1316.52 886.224 1316.24 885.56 1315.68 885.096C1315.12 884.616 1314.25 884.376 1313.08 884.376ZM1310.47 890.904C1310.05 890.648 1309.69 890.408 1309.39 890.184C1309.1 889.944 1308.86 889.688 1308.67 889.416C1308.48 889.144 1308.33 888.84 1308.24 888.504C1308.16 888.152 1308.12 887.72 1308.12 887.208C1308.12 886.632 1308.24 886.088 1308.5 885.576C1308.76 885.064 1309.1 884.624 1309.53 884.256C1309.96 883.872 1310.47 883.576 1311.04 883.368C1311.64 883.16 1312.27 883.064 1312.94 883.08C1313.58 883.08 1314.2 883.16 1314.81 883.32C1315.44 883.48 1315.99 883.728 1316.47 884.064C1316.95 884.4 1317.33 884.832 1317.62 885.36C1317.91 885.872 1318.05 886.488 1318.05 887.208C1318.05 888.088 1317.87 888.84 1317.5 889.464C1317.15 890.088 1316.56 890.6 1315.75 891C1316.68 891.336 1317.4 891.872 1317.93 892.608C1318.48 893.344 1318.75 894.208 1318.75 895.2C1318.75 896.032 1318.6 896.768 1318.32 897.408C1318.04 898.048 1317.64 898.584 1317.12 899.016C1316.6 899.448 1315.98 899.776 1315.24 900C1314.51 900.224 1313.69 900.336 1312.8 900.336C1312.19 900.336 1311.56 900.232 1310.92 900.024C1310.3 899.816 1309.73 899.504 1309.22 899.088C1308.72 898.672 1308.32 898.152 1308 897.528C1307.68 896.904 1307.52 896.176 1307.52 895.344C1307.52 894.336 1307.76 893.44 1308.26 892.656C1308.77 891.856 1309.51 891.272 1310.47 890.904Z" fill="white"/>
<path d="M186.399 740.39C186.399 735.067 185.813 730.746 184.642 727.426C182.396 721.127 178.221 717.978 172.117 717.978C168.553 717.978 165.794 719.54 163.841 722.665C161.937 725.79 160.252 730.697 158.787 737.387L156.224 748.812C153.685 760.043 150.926 767.807 147.947 772.104C142.967 779.379 135.179 783.017 124.583 783.017C114.915 783.017 106.883 779.501 100.486 772.47C94.0898 765.438 90.8916 755.111 90.8916 741.488C90.8916 730.111 93.9189 720.419 99.9736 712.411C105.979 704.354 114.72 700.131 126.194 699.74V721.42C119.7 721.811 115.086 724.643 112.352 729.916C110.545 733.432 109.642 737.802 109.642 743.026C109.642 748.837 110.813 753.476 113.157 756.942C115.501 760.409 118.772 762.143 122.972 762.143C126.829 762.143 129.71 760.434 131.614 757.016C132.884 754.818 134.373 750.131 136.082 742.953L140.55 724.35C142.503 716.195 145.115 710.043 148.387 705.893C153.465 699.447 160.813 696.225 170.433 696.225C180.296 696.225 188.499 700.009 195.042 707.577C201.536 715.097 204.783 725.741 204.783 739.511C204.783 753.573 201.585 764.633 195.188 772.689C188.743 780.746 179.905 784.774 168.675 784.774V763.241C173.606 762.558 177.293 761.215 179.734 759.213C184.178 755.551 186.399 749.276 186.399 740.39ZM94.041 608.583H113.157V640.883H202V663.588H113.157V696.034H94.041L94.041 608.583ZM179.808 550.751V590.521L202 597.992V621.576L94.041 583.051V557.562L202 519.33V543.793L179.808 550.751ZM161.204 557.05L118.724 570.526L161.204 584.442V557.05ZM159.666 467.211V490.502H202V512.548H94.041V459.594C94.1875 452.025 95.1152 446.215 96.8242 442.162C98.5332 438.061 101.048 434.594 104.368 431.762C107.103 429.418 110.13 427.562 113.45 426.195C116.771 424.828 120.555 424.145 124.803 424.145C129.93 424.145 134.983 425.438 139.964 428.026C144.896 430.614 148.387 434.887 150.438 440.844C152.439 435.863 155.296 432.348 159.007 430.297C162.669 428.197 168.284 427.147 175.853 427.147H183.104C188.035 427.147 191.38 426.952 193.138 426.562C195.921 425.976 197.972 424.608 199.29 422.46H202L202 447.289C199.607 447.973 197.679 448.461 196.214 448.754C193.187 449.34 190.086 449.657 186.912 449.706L176.878 449.853C169.993 449.95 165.403 451.22 163.108 453.661C160.813 456.054 159.666 460.57 159.666 467.211ZM140.037 453.515C137.986 449.022 133.934 446.776 127.879 446.776C121.336 446.776 116.941 448.949 114.695 453.295C113.426 455.736 112.791 459.398 112.791 464.281L112.791 490.502H141.795V464.94C141.795 459.862 141.209 456.054 140.037 453.515ZM94.041 333.72H113.157V366.02H202V388.725H113.157V421.171H94.041V333.72Z" fill="#001F3E"/>
<path d="M1253.16 423.036V477.162H1277.99V429.774H1296.74V477.162H1342V499.574H1234.19V423.036H1253.16ZM1234.04 417.133V394.721H1342V417.133H1234.04ZM1342 293.822V316.381L1265.32 360.473H1342V381.493H1234.04V357.836L1309.41 314.843H1234.04V293.822H1342ZM1234.04 281.986V259.574H1342V281.986H1234.04ZM1326.4 206.796C1326.4 201.474 1325.81 197.152 1324.64 193.832C1322.4 187.533 1318.22 184.384 1312.12 184.384C1308.55 184.384 1305.79 185.946 1303.84 189.071C1301.94 192.196 1300.25 197.104 1298.79 203.793L1296.22 215.219C1293.68 226.449 1290.93 234.213 1287.95 238.51C1282.97 245.785 1275.18 249.423 1264.58 249.423C1254.92 249.423 1246.88 245.907 1240.49 238.876C1234.09 231.845 1230.89 221.518 1230.89 207.895C1230.89 196.518 1233.92 186.825 1239.97 178.817C1245.98 170.761 1254.72 166.537 1266.19 166.146V187.826C1259.7 188.217 1255.09 191.049 1252.35 196.322C1250.54 199.838 1249.64 204.208 1249.64 209.433C1249.64 215.243 1250.81 219.882 1253.16 223.349C1255.5 226.815 1258.77 228.549 1262.97 228.549C1266.83 228.549 1269.71 226.84 1271.61 223.422C1272.88 221.225 1274.37 216.537 1276.08 209.359L1280.55 190.756C1282.5 182.602 1285.12 176.449 1288.39 172.299C1293.46 165.854 1300.81 162.631 1310.43 162.631C1320.3 162.631 1328.5 166.415 1335.04 173.983C1341.54 181.503 1344.78 192.147 1344.78 205.917C1344.78 219.979 1341.58 231.039 1335.19 239.096C1328.74 247.152 1319.91 251.181 1308.67 251.181V229.647C1313.61 228.964 1317.29 227.621 1319.73 225.619C1324.18 221.957 1326.4 215.683 1326.4 206.796ZM1342 89.0518H1293.81V131.239H1342V153.578H1234.04V131.239H1275.2V89.0518H1234.04V66.6396H1342V89.0518Z" fill="#001F3E"/>
</svg>
