<svg width="153" height="121" viewBox="0 0 153 121" fill="none" xmlns="http://www.w3.org/2000/svg">
<path d="M0.0850193 1.93302C0.0850193 1.93302 -1.09163 73.0583 8.72409 120.898L131.135 120.518L99.0915 1.3624L0.0850193 1.93302Z" fill="#E0E0E0"/>
<path d="M0.0858278 1.93302L99.0923 1.2695H99.1631L99.1852 1.33585C108.311 35.264 119.33 76.2034 131.247 120.487L131.286 120.633H131.136L121.404 120.664L8.7249 121H8.64085V120.92C8.22799 118.72 7.8225 116.546 7.42439 114.396C7.23418 113.316 7.01301 112.25 6.84491 111.18C6.67682 110.109 6.522 109.048 6.35833 107.991C6.03984 105.87 5.72282 103.778 5.40728 101.714C5.14482 99.6493 4.88678 97.5998 4.63317 95.565C4.50636 94.5564 4.37956 93.5523 4.25275 92.5526C4.12889 91.5529 4.036 90.5576 3.92983 89.5711C3.72635 87.5924 3.52435 85.6431 3.32382 83.7233C3.10707 81.8035 2.97436 79.9014 2.80627 78.0303C2.63818 76.1591 2.48778 74.319 2.33296 72.5098C1.20939 57.9963 0.687421 45.3009 0.382201 34.8438C0.07698 24.3866 0.0327438 16.1545 0.0283203 10.5411C0.0283203 7.73222 0.0283202 5.5824 0.0592846 4.1315C0.0592846 3.40605 0.0681338 2.85753 0.0858278 2.48596C0.0858278 2.1365 0.0858278 1.98168 0.0858278 1.93302C0.0858278 2.14535 0.0858278 4.95427 0.0858278 10.5411C0.0858278 16.128 0.183144 24.3822 0.492788 34.8393C0.802432 45.2965 1.37748 57.9874 2.4922 72.4965C2.65145 74.3057 2.81069 76.1503 2.96994 78.017C3.12918 79.8837 3.27516 81.7858 3.49191 83.7056C3.70866 85.6254 3.89887 87.5761 4.10677 89.549C4.21294 90.5355 4.30583 91.5307 4.42969 92.5304C4.55355 93.5302 4.68183 94.5343 4.81011 95.5428C5.06667 97.5688 5.32618 99.6169 5.58864 101.687C5.90713 103.753 6.2212 105.845 6.54412 107.96C6.70926 109.015 6.87293 110.078 7.03512 111.149C7.19879 112.219 7.42439 113.285 7.6146 114.36C8.01566 116.51 8.42115 118.684 8.83105 120.881L8.73374 120.801L121.413 120.429L131.145 120.403L131.034 120.544C119.135 76.2609 108.129 35.3127 99.0127 1.38894L99.1056 1.45529L0.0858278 1.93302Z" fill="#263238"/>
<path d="M0.085297 1.93304C0.085297 1.93304 -0.0164463 11.3064 1.57159 27.9962C2.61995 39.0549 2.50494 53.5418 5.43329 72.0232C11.6262 111.069 14.8774 117.041 14.8774 117.041L134.267 116.231L102.493 0.18576L0.085297 1.93304Z" fill="#EBEBEB"/>
<path d="M0.0855953 1.93303L102.494 0.0884399H102.569V0.159217C111.708 33.3796 122.625 73.2617 134.396 116.231L134.436 116.377H134.29L127.783 116.422L14.8777 117.138H14.8335L14.807 117.085C14.3746 116.078 14.0082 115.044 13.7099 113.989C13.3914 112.958 13.1128 111.919 12.8252 110.892C12.5377 109.866 12.2944 108.831 12.0511 107.796C11.8078 106.761 11.5734 105.748 11.3434 104.73C10.4262 100.67 9.61231 96.6885 8.9016 92.787C7.44185 84.9707 6.21212 77.526 5.11952 70.5192C4.58428 67.0158 4.15962 63.6097 3.79248 60.3098C3.42533 57.0099 3.16434 53.8338 2.94759 50.7727C2.50524 44.6462 2.26195 39.0107 1.94346 33.9281C1.79306 31.3846 1.58958 28.9826 1.37725 26.7222C1.16493 24.4618 0.996832 22.343 0.850856 20.3701C0.554483 16.4199 0.364273 13.0581 0.249262 10.3288C0.134252 7.59952 0.0811705 5.50721 0.0634766 4.09612C0.0634766 3.38836 0.0634766 2.85312 0.0634766 2.49482C0.0634766 2.13652 0.0634766 1.95515 0.0634766 1.95515C0.0634766 2.05689 0.0634764 2.70715 0.0944408 4.0917C0.125405 5.47625 0.18291 7.59952 0.311191 10.3244C0.439472 13.0493 0.638529 16.4155 0.943749 20.3613C1.09415 22.3342 1.27109 24.4574 1.48342 26.7134C1.69574 28.9694 1.90365 31.3758 2.05847 33.9193C2.38581 39.0063 2.63794 44.6418 3.08914 50.7595C3.31031 53.8205 3.59489 56.9995 3.94287 60.2965C4.29233 63.5876 4.72141 66.9937 5.26992 70.4971C6.36694 77.4994 7.6011 84.9398 9.06969 92.7516C9.79515 96.662 10.6105 100.653 11.5159 104.726C11.7415 105.743 11.9582 106.77 12.2236 107.791C12.489 108.813 12.7279 109.848 12.9978 110.888C13.2676 111.927 13.5507 112.949 13.8824 113.984C14.178 115.021 14.54 116.038 14.9662 117.028L14.8777 116.975L127.778 116.214L134.285 116.17L134.175 116.316C122.413 73.3237 111.496 33.4327 102.419 0.212297L102.511 0.283074L0.0855953 1.93303Z" fill="#263238"/>
<path d="M113.296 5.70187L0.183281 7.62609C-0.294455 38.303 10.5077 86.1828 18.4257 111.366L137.134 110.123C124.979 77.8534 111.005 41.165 113.296 5.70187Z" fill="#F5F5F5"/>
<path d="M113.295 5.70187C113.295 5.80361 113.295 6.39194 113.238 7.67032C113.238 8.32058 113.189 9.13007 113.158 10.0944C113.127 11.0587 113.048 12.1779 113.101 13.4385C113.158 15.9644 113.136 19.0829 113.45 22.7279C113.512 23.6421 113.576 24.5902 113.64 25.5722C113.738 26.5498 113.857 27.5627 113.972 28.6067C114.087 29.6506 114.211 30.7255 114.335 31.8314C114.459 32.9373 114.662 34.0741 114.83 35.2375C114.998 36.4009 115.189 37.6041 115.379 38.8294C115.569 40.0547 115.843 41.3021 116.082 42.5849C116.321 43.8677 116.551 45.1815 116.852 46.5085C117.153 47.8356 117.453 49.198 117.763 50.587C117.922 51.2815 118.073 51.9848 118.245 52.6881L118.785 54.8203C119.154 56.2535 119.527 57.7147 119.904 59.2039C120.282 60.6932 120.706 62.1986 121.178 63.7203C121.395 64.4856 121.62 65.2597 121.837 66.0338L122.549 68.3738C126.331 80.9808 131.494 94.9147 137.226 110.087L137.275 110.22H137.134L22.3529 111.445L18.416 111.485H18.3276L18.3054 111.406C15.4435 102.183 12.9973 92.9905 10.8519 83.9401C8.70648 74.8896 6.82207 65.9719 5.23847 57.2488C3.65486 48.5256 2.3632 39.9972 1.43869 31.6987C0.487624 23.7103 0.031133 15.6708 0.0718351 7.62609V7.52877H0.169152L113.282 5.70187L0.173577 7.72783L0.270894 7.63051C0.234945 15.6667 0.695864 23.6973 1.65102 31.6766C2.57553 39.9618 3.86276 48.4858 5.45964 57.209C7.05652 65.9321 8.91438 74.841 11.073 83.887C13.2317 92.933 15.6646 102.121 18.5222 111.335L18.4116 111.255L22.3529 111.215L137.134 110.039L137.041 110.171C131.317 94.9988 126.168 81.0515 122.394 68.4358C122.156 67.6484 121.921 66.8654 121.682 66.0913C121.443 65.3172 121.24 64.5387 121.028 63.7734L119.758 59.257C119.384 57.7648 119.012 56.3021 118.643 54.8689C118.462 54.1523 118.285 53.4401 118.104 52.7368C117.922 52.0335 117.785 51.3257 117.63 50.6312C117.321 49.2423 117.016 47.8842 116.719 46.5483C116.423 45.2125 116.206 43.8943 115.954 42.6203C115.702 41.3463 115.467 40.0901 115.259 38.8648L114.715 35.2817C114.552 34.1139 114.344 32.9815 114.224 31.8756C114.105 30.7698 113.985 29.686 113.87 28.6421C113.755 27.5981 113.64 26.5852 113.548 25.6076C113.455 24.63 113.419 23.6745 113.362 22.7633C113.061 19.105 113.087 15.9865 113.039 13.4739C112.995 12.2088 113.092 11.103 113.114 10.1386C113.136 9.17431 113.185 8.36924 113.211 7.71898C113.269 6.40078 113.291 5.80361 113.295 5.70187Z" fill="#263238"/>
<path d="M113.504 0L0.0859858 1.93306C-0.391751 32.6055 4.63775 60.7875 12.5602 85.9793L45.294 106.248L140.297 104.629C128.133 72.3505 111.213 35.4631 113.504 0Z" fill="#FAFAFA"/>
<path d="M113.504 0C113.504 0.10174 113.477 0.698906 113.424 1.98614C113.393 2.64524 113.353 3.46801 113.349 4.43676C113.344 5.4055 113.305 6.53349 113.349 7.80745C113.476 15.1713 114.228 22.5111 115.596 29.7479C117.299 39.1169 120.298 50.3127 124.629 62.8577C126.783 69.1347 129.251 75.7522 131.927 82.7059C134.604 89.6596 137.497 96.9363 140.385 104.589L140.434 104.722H140.292L45.2935 106.358H45.2581H45.2316L31.0764 97.5821L12.5243 86.081L12.4889 86.0589V86.0191C8.0052 71.7785 4.68988 57.1961 2.57591 42.4168C0.681974 29.0098 -0.169887 15.4762 0.0279786 1.93748V1.84017H0.125296L113.543 0.00884211L0.12972 2.03923L0.227038 1.94191C0.029441 15.4594 0.875361 28.972 2.75727 42.3593C4.87191 57.1251 8.18574 71.6941 12.6659 85.9218L12.6172 85.8599L31.1693 97.3609L45.3245 106.142H45.2625L140.261 104.54L140.173 104.673C137.289 97.0203 134.4 89.7348 131.733 82.7811C129.065 75.8274 126.597 69.2054 124.447 62.9241C120.13 50.3702 117.144 39.1611 115.459 29.7833C114.088 22.5402 113.348 15.1918 113.247 7.82072C113.212 6.54676 113.247 5.41877 113.269 4.45003C113.291 3.48128 113.322 2.68063 113.358 2.00826C113.477 0.703331 113.499 0.10174 113.504 0Z" fill="#263238"/>
<path d="M12.6523 85.966L41.4713 82.8696L45.28 106.243L12.6523 85.966Z" fill="#E0E0E0"/>
<path d="M45.2801 106.243C45.2662 106.206 45.2572 106.168 45.2536 106.128C45.2536 106.035 45.2137 105.925 45.1828 105.783L44.9439 104.456C44.7449 103.275 44.4573 101.594 44.1035 99.5064C43.409 95.2952 42.4446 89.4606 41.3565 82.8962L41.4847 82.9935L38.7997 83.281L20.2476 85.2406L14.6253 85.8068L13.0948 85.9528L12.6967 85.9838H12.5596C12.6025 85.9693 12.6471 85.9604 12.6923 85.9572L13.0904 85.9041L14.6165 85.7183L20.2299 85.0769L38.7776 83.0554L41.4582 82.7679H41.5688V82.874C42.6216 89.4429 43.5594 95.2598 44.2229 99.4975C44.5458 101.585 44.8112 103.275 44.9926 104.456C45.0751 105.028 45.1415 105.471 45.1916 105.783L45.2359 106.133C45.2577 106.166 45.2728 106.204 45.2801 106.243Z" fill="#263238"/>
<path d="M92.2135 31.9906C92.2135 32.0526 76.9303 32.3666 58.0819 32.6896C39.2334 33.0125 23.9414 33.2159 23.9414 33.154C23.9414 33.0921 39.2201 32.778 58.0774 32.4595C76.9348 32.141 92.2135 31.9287 92.2135 31.9906Z" fill="#263238"/>
<path d="M94.1197 42.6291C94.1197 42.6911 78.8366 43.0051 59.9837 43.328C41.1308 43.651 25.8477 43.8544 25.8477 43.7925C25.8477 43.7306 41.1264 43.4165 59.9837 43.0936C78.841 42.7707 94.1153 42.5672 94.1197 42.6291Z" fill="#263238"/>
<path d="M98.3932 53.2278C98.3932 53.2897 83.11 53.6038 64.2616 53.9223C45.4131 54.2407 30.1211 54.4531 30.1211 54.3911C30.1211 54.3292 45.3998 54.0151 64.2571 53.6922C83.1145 53.3693 98.3932 53.1614 98.3932 53.2278Z" fill="#263238"/>
<path d="M102.861 65.242C102.861 65.3084 87.5778 65.618 68.7293 65.9409C49.8809 66.2638 34.5889 66.4717 34.5889 66.4054C34.5889 66.339 49.8676 66.0338 68.7249 65.7109C87.5822 65.388 102.861 65.1801 102.861 65.242Z" fill="#263238"/>
<path d="M107.93 76.4201C107.93 76.4821 92.6471 76.7961 73.7987 77.1146C54.9502 77.4331 39.6582 77.6455 39.6582 77.5835C39.6582 77.5216 54.9369 77.2075 73.7943 76.8846C92.6516 76.5617 107.93 76.3538 107.93 76.4201Z" fill="#263238"/>
<path d="M148.347 110.981C148.312 110.95 148.874 110.344 149.59 109.238C150.006 108.587 150.373 107.905 150.687 107.199C151.46 105.47 151.91 103.614 152.014 101.722C152.056 100.956 152.039 100.186 151.961 99.4223C151.833 98.0952 151.603 97.3167 151.652 97.3034C151.726 97.4819 151.784 97.667 151.824 97.8563C151.889 98.0726 151.941 98.2928 151.979 98.5155C152.028 98.7764 152.094 99.0728 152.125 99.4001C152.224 100.176 152.258 100.959 152.227 101.74C152.182 102.697 152.05 103.647 151.833 104.58C151.601 105.51 151.287 106.417 150.895 107.292C150.567 108.002 150.181 108.684 149.741 109.331C149.559 109.614 149.365 109.844 149.205 110.056C149.068 110.237 148.92 110.41 148.763 110.574C148.639 110.724 148.5 110.86 148.347 110.981Z" fill="#263238"/>
<path d="M141.544 113.502C141.517 113.476 142.07 112.971 142.871 112.069C144.927 109.712 146.396 106.902 147.157 103.868C147.449 102.709 147.547 101.97 147.6 101.979C147.597 102.161 147.576 102.341 147.538 102.519C147.485 102.992 147.405 103.461 147.299 103.925C146.613 107.016 145.122 109.869 142.977 112.197C142.656 112.55 142.315 112.883 141.955 113.197C141.832 113.317 141.694 113.419 141.544 113.502Z" fill="#263238"/>
</svg>
