<svg width="100" height="46" viewBox="0 0 100 46" fill="none" xmlns="http://www.w3.org/2000/svg">
<path d="M0.0605469 33.128L99.4728 45.8013L98.1382 9.41589L0.0605469 33.128Z" fill="#E0E0E0"/>
<path d="M98.0756 10.1442L2.64258 2.18082L-0.000293182 33.8528L95.4327 41.8162L98.0756 10.1442Z" fill="#455A64"/>
<path d="M84.6332 19.6461C84.6332 19.7253 68.6348 18.4585 48.9152 16.8185C29.1956 15.1785 13.2141 13.776 13.2197 13.6912C13.2254 13.6064 29.2182 14.8788 48.9435 16.5188C68.6687 18.1588 84.6615 19.5669 84.6332 19.6461Z" fill="#263238"/>
<path d="M84.4692 27.9139C84.4692 27.9931 68.4707 26.7264 48.7511 25.0864C29.0315 23.4464 13.0444 22.0439 13.0557 21.9591C13.067 21.8742 29.0485 23.1466 48.7737 24.7866C68.499 26.4266 84.4748 27.8348 84.4692 27.9139Z" fill="#263238"/>
<path d="M30.9318 0L67.911 3.08772L65.9599 4.73903L68.4934 6.94455L65.4792 8.3244L68.1768 10.7222L29.4219 7.48744L31.8423 5.44592L30.6377 3.25172L32.7188 2.1942L30.9318 0Z" fill="#EBEBEB"/>
</svg>
