<svg width="111" height="120" viewBox="0 0 111 120" fill="none" xmlns="http://www.w3.org/2000/svg">
<path d="M68.2662 4.36409C68.8811 4.80652 69.368 5.4038 69.6774 6.09529C69.9868 6.78679 70.1076 7.54784 70.0277 8.30116C69.9478 9.05448 69.6699 9.77323 69.2223 10.3844C68.7747 10.9956 68.1733 11.4774 67.4792 11.7809C66.7852 12.0845 66.0231 12.1989 65.2705 12.1126C64.5179 12.0263 63.8015 11.7424 63.1941 11.2896C62.5867 10.8369 62.11 10.2314 61.8124 9.53482C61.5147 8.8382 61.4067 8.07523 61.4993 7.32336L56.9397 9.31737C57.5547 9.7598 58.0415 10.3571 58.3509 11.0486C58.6603 11.7401 58.7812 12.5011 58.7012 13.2544C58.6213 14.0078 58.3434 14.7265 57.8958 15.3377C57.4482 15.9488 56.8468 16.4307 56.1527 16.7342C55.4587 17.0377 54.6966 17.1522 53.944 17.0659C53.1914 16.9796 52.475 16.6956 51.8676 16.2429C51.2603 15.7902 50.7836 15.1847 50.4859 14.4881C50.1882 13.7915 50.0802 13.0285 50.1729 12.2766L45.6133 14.2706C46.2282 14.7131 46.7151 15.3104 47.0244 16.0019C47.3338 16.6933 47.4547 17.4544 47.3748 18.2077C47.2948 18.961 47.0169 19.6798 46.5693 20.291C46.1217 20.9021 45.5203 21.3839 44.8263 21.6875C44.1322 21.991 43.3701 22.1054 42.6175 22.0192C41.8649 21.9329 41.1485 21.6489 40.5412 21.1962C39.9338 20.7434 39.4571 20.138 39.1594 19.4414C38.8617 18.7448 38.7537 17.9818 38.8464 17.2299L34.2868 19.2239C34.9017 19.6664 35.3886 20.2636 35.698 20.9551C36.0074 21.6466 36.1282 22.4077 36.0483 23.161C35.9683 23.9143 35.6905 24.6331 35.2429 25.2442C34.7953 25.8554 34.1939 26.3372 33.4998 26.6408C32.8057 26.9443 32.0437 27.0587 31.291 26.9724C30.5384 26.8861 29.8221 26.6022 29.2147 26.1495C28.6073 25.6967 28.1306 25.0913 27.8329 24.3947C27.5353 23.698 27.4273 22.9351 27.5199 22.1832L22.9551 24.1795C23.57 24.6219 24.0569 25.2192 24.3663 25.9107C24.6757 26.6022 24.7966 27.3632 24.7166 28.1165C24.6367 28.8699 24.3588 29.5886 23.9112 30.1998C23.4636 30.811 22.8622 31.2928 22.1681 31.5963C21.4741 31.8998 20.712 32.0143 19.9594 31.928C19.2068 31.8417 18.4904 31.5578 17.883 31.105C17.2757 30.6523 16.7989 30.0468 16.5013 29.3502C16.2036 28.6536 16.0956 27.8906 16.1883 27.1387L11.6286 29.1328C12.2436 29.5752 12.7304 30.1725 13.0398 30.864C13.3492 31.5555 13.4701 32.3165 13.3901 33.0698C13.3102 33.8231 13.0323 34.5419 12.5847 35.1531C12.1371 35.7642 11.5357 36.2461 10.8417 36.5496C10.1476 36.8531 9.38553 36.9676 8.63291 36.8813C7.88029 36.795 7.16391 36.511 6.55655 36.0583C5.94918 35.6055 5.47245 35.0001 5.17479 34.3035C4.87712 33.6069 4.76913 32.8439 4.86177 32.092L2.00684 33.3405L37.5816 114.688L110.441 87.4667L69.7711 3.71215L68.2662 4.36409Z" fill="#E0E0E0"/>
<mask id="mask0_408_3556" style="mask-type:luminance" maskUnits="userSpaceOnUse" x="0" y="1" width="104" height="112">
<path d="M66.2594 2.59401C66.8824 3.03299 67.3775 3.62975 67.6939 4.32312C68.0103 5.01648 68.1367 5.78151 68.06 6.53979C67.9833 7.29807 67.7064 8.02232 67.2576 8.63832C66.8088 9.25431 66.2043 9.73987 65.506 10.0453C64.8077 10.3506 64.0407 10.4648 63.2838 10.3761C62.5268 10.2875 61.807 9.99909 61.1982 9.54057C60.5894 9.08206 60.1135 8.46991 59.8192 7.76686C59.525 7.06382 59.4229 6.29516 59.5236 5.53969L54.9588 7.53596C55.4951 7.92178 55.935 8.42619 56.2444 9.00989C56.5538 9.59358 56.7243 10.2408 56.7426 10.9012C56.7609 11.5616 56.6265 12.2173 56.35 12.8172C56.0734 13.4171 55.662 13.9451 55.148 14.3601C54.6339 14.775 54.031 15.0657 53.3862 15.2095C52.7414 15.3533 52.0721 15.3463 51.4305 15.1891C50.7888 15.0319 50.1921 14.7287 49.6869 14.3031C49.1816 13.8775 48.7814 13.341 48.5174 12.7354C48.2082 12.0311 48.0974 11.2557 48.1971 10.493L43.6323 12.4892C44.1686 12.8751 44.6085 13.3795 44.9179 13.9632C45.2273 14.5469 45.3978 15.1941 45.4161 15.8545C45.4344 16.5149 45.3001 17.1705 45.0235 17.7705C44.7469 18.3704 44.3356 18.8984 43.8215 19.3134C43.3074 19.7283 42.7045 20.019 42.0597 20.1628C41.415 20.3066 40.7457 20.2996 40.104 20.1424C39.4624 19.9851 38.8657 19.6819 38.3604 19.2563C37.8551 18.8308 37.4549 18.2943 37.1909 17.6887C36.8817 16.9844 36.771 16.209 36.8706 15.4462L32.3059 17.4425C32.9208 17.8849 33.4077 18.4822 33.717 19.1737C34.0264 19.8652 34.1473 20.6263 34.0674 21.3796C33.9874 22.1329 33.7095 22.8517 33.2619 23.4628C32.8143 24.074 32.2129 24.5558 31.5189 24.8594C30.8248 25.1629 30.0627 25.2773 29.3101 25.191C28.5575 25.1047 27.8411 24.8208 27.2338 24.3681C26.6264 23.9153 26.1497 23.3099 25.852 22.6133C25.5543 21.9166 25.4463 21.1537 25.539 20.4018L20.9483 22.4094C21.5632 22.8518 22.0501 23.4491 22.3595 24.1406C22.6689 24.8321 22.7897 25.5932 22.7098 26.3465C22.6299 27.0998 22.352 27.8185 21.9044 28.4297C21.4568 29.0409 20.8554 29.5227 20.1613 29.8262C19.4672 30.1298 18.7052 30.2442 17.9526 30.1579C17.1999 30.0716 16.4836 29.7877 15.8762 29.3349C15.2688 28.8822 14.7921 28.2768 14.4944 27.5801C14.1968 26.8835 14.0888 26.1205 14.1814 25.3687L9.62181 27.3627C10.2367 27.8051 10.7236 28.4024 11.033 29.0939C11.3424 29.7854 11.4632 30.5464 11.3833 31.2998C11.3034 32.0531 11.0255 32.7718 10.5779 33.383C10.1303 33.9942 9.5289 34.476 8.83482 34.7795C8.14074 35.083 7.37869 35.1975 6.62608 35.1112C5.87346 35.0249 5.15708 34.741 4.54971 34.2882C3.94234 33.8355 3.46562 33.23 3.16796 32.5334C2.87029 31.8368 2.7623 31.0738 2.85494 30.3219L0 31.5705L35.5748 112.918L103.342 83.2821L67.7672 1.93462L66.2594 2.59401Z" fill="white"/>
</mask>
<g mask="url(#mask0_408_3556)">
<path d="M66.2584 2.59454C66.8814 3.03352 67.3765 3.63028 67.6929 4.32365C68.0093 5.01701 68.1357 5.78204 68.059 6.54032C67.9823 7.29861 67.7054 8.02286 67.2566 8.63885C66.8078 9.25484 66.2033 9.74041 65.505 10.0458C64.8067 10.3512 64.0397 10.4654 63.2828 10.3767C62.5258 10.288 61.806 9.99962 61.1972 9.54111C60.5884 9.0826 60.1125 8.47045 59.8182 7.7674C59.524 7.06435 59.4219 6.29569 59.5226 5.54022L54.9578 7.53649C55.4941 7.92232 55.934 8.42672 56.2434 9.01042C56.5528 9.59412 56.7233 10.2414 56.7416 10.9017C56.7599 11.5621 56.6256 12.2178 56.349 12.8177C56.0724 13.4177 55.6611 13.9457 55.147 14.3606C54.6329 14.7756 54.03 15.0662 53.3852 15.21C52.7405 15.3538 52.0712 15.3468 51.4295 15.1896C50.7879 15.0324 50.1912 14.7292 49.6859 14.3036C49.1806 13.878 48.7804 13.3415 48.5164 12.736C48.2072 12.0316 48.0965 11.2562 48.1961 10.4935L43.6314 12.4898C44.1676 12.8756 44.6076 13.38 44.917 13.9637C45.2264 14.5474 45.3969 15.1946 45.4152 15.855C45.4335 16.5154 45.2991 17.1711 45.0225 17.771C44.7459 18.371 44.3346 18.899 43.8205 19.3139C43.3065 19.7288 42.7036 20.0195 42.0588 20.1633C41.414 20.3071 40.7447 20.3001 40.103 20.1429C39.4614 19.9857 38.8647 19.6825 38.3594 19.2569C37.8541 18.8313 37.4539 18.2948 37.1899 17.6892C36.8807 16.9849 36.77 16.2095 36.8697 15.4468L32.3049 17.4431C32.9198 17.8855 33.4067 18.4828 33.7161 19.1743C34.0255 19.8658 34.1463 20.6268 34.0664 21.3801C33.9864 22.1335 33.7086 22.8522 33.261 23.4634C32.8133 24.0745 32.212 24.5564 31.5179 24.8599C30.8238 25.1634 30.0618 25.2779 29.3091 25.1916C28.5565 25.1053 27.8402 24.8213 27.2328 24.3686C26.6254 23.9158 26.1487 23.3104 25.851 22.6138C25.5534 21.9172 25.4454 21.1542 25.538 20.4023L20.9473 22.4099C21.5622 22.8524 22.0491 23.4496 22.3585 24.1411C22.6679 24.8326 22.7887 25.5937 22.7088 26.347C22.6289 27.1003 22.351 27.8191 21.9034 28.4302C21.4558 29.0414 20.8544 29.5232 20.1603 29.8268C19.4662 30.1303 18.7042 30.2447 17.9516 30.1584C17.199 30.0722 16.4826 29.7882 15.8752 29.3355C15.2678 28.8827 14.7911 28.2773 14.4935 27.5807C14.1958 26.8841 14.0878 26.1211 14.1804 25.3692L9.62083 27.3632C10.2358 27.8056 10.7226 28.4029 11.032 29.0944C11.3414 29.7859 11.4623 30.547 11.3823 31.3003C11.3024 32.0536 11.0245 32.7724 10.5769 33.3835C10.1293 33.9947 9.52792 34.4765 8.83384 34.78C8.13976 35.0836 7.37772 35.198 6.6251 35.1117C5.87248 35.0254 5.15611 34.7415 4.54874 34.2887C3.94137 33.836 3.46464 33.2306 3.16698 32.5339C2.86932 31.8373 2.76132 31.0743 2.85396 30.3225L-0.000976562 31.571L35.5738 112.919L103.341 83.2827L67.7662 1.93516L66.2584 2.59454Z" fill="#F5F5F5"/>
<path d="M33.0799 118.465C33.0074 118.497 24.1214 98.8974 13.2342 74.6796C2.34705 50.4619 -6.41464 30.8079 -6.33692 30.7739C-6.25919 30.74 2.60515 50.3181 13.5036 74.5618C24.4021 98.8055 33.1576 118.431 33.0799 118.465Z" fill="#E0E0E0"/>
<path d="M43.9056 113.595C43.8331 113.627 34.9636 94.0509 24.0651 69.8072C13.1666 45.5635 4.41107 25.9378 4.48879 25.9038C4.56651 25.8698 13.436 45.4457 24.3345 69.6894C35.233 93.9331 43.9834 113.561 43.9056 113.595Z" fill="#E0E0E0"/>
<path d="M49.2996 111.236C49.227 111.268 40.3523 91.6944 29.4538 67.4507C18.5553 43.2071 9.80499 23.579 9.87753 23.5473C9.95007 23.5156 18.8248 43.0892 29.7233 67.3329C40.6217 91.5766 49.3825 111.2 49.2996 111.236Z" fill="#E0E0E0"/>
<path d="M60.3002 106.426C60.2276 106.458 51.3581 86.8816 40.4596 62.6379C29.5611 38.3942 20.8056 18.7685 20.8833 18.7345C20.961 18.7005 29.8306 38.2764 40.7291 62.5201C51.6275 86.7638 60.3779 106.392 60.3002 106.426Z" fill="#E0E0E0"/>
<path d="M71.2947 101.618C71.2221 101.649 62.3474 82.0757 51.4489 57.832C40.5505 33.5883 31.8001 13.9603 31.8726 13.9286C31.9452 13.8968 40.8199 33.4705 51.7184 57.7142C62.6168 81.9578 71.3672 101.586 71.2947 101.618Z" fill="#E0E0E0"/>
<path d="M82.285 96.8114C82.2125 96.8431 73.3378 77.2695 62.4393 53.0258C51.5408 28.7821 42.7904 9.1541 42.8682 9.12011C42.9459 9.08612 51.8154 28.662 62.7139 52.9057C73.6124 77.1494 82.3627 96.7774 82.285 96.8114Z" fill="#E0E0E0"/>
<path d="M92.7147 92.2502C92.6422 92.2819 83.7675 72.7083 72.869 48.4646C61.9705 24.2209 53.2201 4.59289 53.2979 4.5589C53.3756 4.52491 62.2399 24.1031 73.1384 48.3468C84.0369 72.5905 92.7924 92.2162 92.7147 92.2502Z" fill="#E0E0E0"/>
<path d="M103.144 87.689C103.072 87.7207 94.1971 68.1471 83.2986 43.9034C72.4002 19.6597 63.6498 0.0316888 63.7275 -0.00229987C63.8053 -0.0362885 72.6748 19.5396 83.5733 43.7833C94.4718 68.027 103.222 87.655 103.144 87.689Z" fill="#E0E0E0"/>
<path d="M54.74 108.728C54.6623 108.762 45.7814 89.1599 34.8943 64.9421C24.0071 40.7244 15.2454 21.0704 15.318 21.0387C15.3905 21.007 24.2652 40.5806 35.1637 64.8243C46.0622 89.068 54.8125 108.696 54.74 108.728Z" fill="#E0E0E0"/>
<path d="M65.5652 103.858C65.4875 103.892 56.6179 84.3158 45.7194 60.0721C34.821 35.8284 26.0706 16.2004 26.1432 16.1687C26.2157 16.1369 35.0904 35.7106 45.9889 59.9543C56.8874 84.1979 65.6377 103.826 65.5652 103.858Z" fill="#E0E0E0"/>
<path d="M76.3933 98.9928C76.3208 99.0245 67.4347 79.425 56.5476 55.2072C45.6604 30.9894 36.8987 11.3355 36.9713 11.3038C37.0438 11.272 45.9185 30.8457 56.817 55.0894C67.7155 79.333 76.4658 98.9611 76.3933 98.9928Z" fill="#E0E0E0"/>
<path d="M87.2185 94.1227C87.146 94.1544 78.2712 74.5808 67.3728 50.3371C56.4743 26.0934 47.7239 6.4654 47.7965 6.43368C47.869 6.40196 56.7437 25.9756 67.6422 50.2193C78.5407 74.463 87.2962 94.0887 87.2185 94.1227Z" fill="#E0E0E0"/>
<path d="M97.8942 90.1209C97.8165 90.1549 88.9356 70.5531 78.0485 46.3353C67.1613 22.1176 58.3945 2.46588 58.4722 2.4319C58.5499 2.39791 67.4194 21.9738 78.3179 46.2175C89.2164 70.4612 97.9668 90.0892 97.8942 90.1209Z" fill="#E0E0E0"/>
<path d="M108.879 84.3853C108.801 84.4193 99.9313 64.8434 89.0329 40.5997C78.1344 16.356 69.3788 -3.26974 69.4566 -3.30373C69.5343 -3.33772 78.4038 16.2382 89.3023 40.4819C100.201 64.7255 108.951 84.3536 108.879 84.3853Z" fill="#E0E0E0"/>
<path d="M116.035 68.9665C116.067 69.039 96.4909 77.9085 72.245 88.8018C47.999 99.6951 28.3687 108.44 28.337 108.368C28.3053 108.295 47.8812 99.4257 72.1271 88.5324C96.3731 77.6391 116.001 68.8887 116.035 68.9665Z" fill="#E0E0E0"/>
<path d="M118.948 74.3152C118.982 74.3929 99.4041 83.2572 75.1582 94.1505C50.9122 105.044 31.2819 113.789 31.2502 113.716C31.2185 113.644 50.7944 104.774 75.0404 93.8811C99.2863 82.9878 118.917 74.2426 118.948 74.3152Z" fill="#E0E0E0"/>
<path d="M111.17 58.1382C111.202 58.2107 91.6 67.0916 67.3799 77.9736C43.1599 88.8555 23.5037 97.612 23.4697 97.5343C23.4357 97.4566 43.0139 88.5923 67.2599 77.699C91.5058 66.8057 111.136 58.0605 111.17 58.1382Z" fill="#E0E0E0"/>
<path d="M106.303 47.3051C106.337 47.3828 86.7586 56.2471 62.5127 67.1404C38.2667 78.0337 18.6387 86.7841 18.6047 86.7064C18.5707 86.6286 38.1489 77.7643 62.3949 66.871C86.6408 55.9777 106.271 47.2325 106.303 47.3051Z" fill="#E0E0E0"/>
<path d="M101.439 36.4768C101.473 36.5545 81.8685 45.4302 57.6484 56.3121C33.4284 67.1941 13.7722 75.9506 13.7405 75.8781C13.7087 75.8055 33.2847 66.936 57.5306 56.0427C81.7766 45.1494 101.407 36.4042 101.439 36.4768Z" fill="#E0E0E0"/>
<path d="M96.5733 25.6488C96.6051 25.7214 77.0032 34.6022 52.7832 45.4842C28.5632 56.3662 8.90695 65.1227 8.87523 65.0501C8.8435 64.9776 28.4194 56.1081 52.6654 45.2148C76.9113 34.3215 96.5416 25.5763 96.5733 25.6488Z" fill="#E0E0E0"/>
<path d="M91.6982 14.8251C91.7299 14.8977 72.154 23.7672 47.9081 34.6605C23.6621 45.5538 4.03181 54.299 4.00009 54.2264C3.96836 54.1539 23.5443 45.2843 47.7902 34.391C72.0362 23.4977 91.6642 14.7474 91.6982 14.8251Z" fill="#E0E0E0"/>
<path d="M86.8435 3.99258C86.8752 4.06512 67.2993 12.9346 43.0534 23.8279C18.8074 34.7213 -0.822877 43.4664 -0.856866 43.3887C-0.890854 43.311 18.6873 34.4466 42.9355 23.5585C67.1838 12.6704 86.8095 3.91486 86.8435 3.99258Z" fill="#E0E0E0"/>
<path d="M84.9375 -0.364967C84.9692 -0.292428 65.3933 8.5771 41.1473 19.4704C16.9014 30.3637 -2.72894 39.1089 -2.76066 39.0363C-2.79238 38.9638 16.7835 30.0943 41.0295 19.201C65.2754 8.30766 84.9035 -0.442688 84.9375 -0.364967Z" fill="#E0E0E0"/>
<path d="M89.2726 9.547C89.3065 9.62472 69.7284 18.4891 45.4824 29.3824C21.2365 40.2757 1.60616 49.0208 1.57444 48.9483C1.54272 48.8758 21.1186 40.0062 45.3646 29.1129C69.6105 18.2196 89.2408 9.47446 89.2726 9.547Z" fill="#E0E0E0"/>
<path d="M93.9925 20.3398C94.0243 20.4123 74.4484 29.2819 50.2024 40.1752C25.9565 51.0685 6.32616 59.8137 6.29217 59.7359C6.25818 59.6582 25.8364 50.7939 50.0846 39.9057C74.3328 29.0176 93.9518 20.2465 93.9925 20.3398Z" fill="#E0E0E0"/>
<path d="M98.7101 31.1274C98.7418 31.2 79.1659 40.0695 54.9199 50.9628C30.674 61.8561 11.0437 70.6013 11.0119 70.5287C10.9802 70.4562 30.5561 61.5867 54.8021 50.6934C79.048 39.8001 98.6783 31.0549 98.7101 31.1274Z" fill="#E0E0E0"/>
<path d="M103.43 41.9202C103.462 41.9927 83.8857 50.8623 59.6374 61.7504C35.3892 72.6385 15.7635 81.394 15.7295 81.3163C15.6955 81.2386 35.2737 72.3743 59.5196 61.481C83.7656 50.5877 103.396 41.8425 103.43 41.9202Z" fill="#E0E0E0"/>
<path d="M108.148 52.7078C108.179 52.7804 88.6034 61.6499 64.3574 72.5432C40.1115 83.4365 20.4812 92.1817 20.4494 92.1091C20.4177 92.0366 39.9936 83.1671 64.2396 72.2738C88.4855 61.3805 108.116 52.6353 108.148 52.7078Z" fill="#E0E0E0"/>
<path d="M112.865 63.4954C112.899 63.5732 93.3211 72.4375 69.0752 83.3308C44.8292 94.2241 25.2012 102.974 25.1672 102.897C25.1332 102.819 44.7114 93.9547 68.9574 83.0614C93.2033 72.1681 112.834 63.4229 112.865 63.4954Z" fill="#E0E0E0"/>
</g>
<path d="M34.3906 30.5667C35.929 32.7579 38.0659 34.7367 40.6693 35.2277C41.797 35.4462 42.9613 35.3818 44.058 35.0402C45.1548 34.6987 46.1497 34.0906 46.954 33.2704C47.7582 32.4502 48.3466 31.4435 48.6665 30.3402C48.9865 29.237 49.028 28.0717 48.7874 26.9485C48.5467 25.8252 48.0315 24.7792 47.2876 23.9038C46.5438 23.0285 45.5946 22.3512 44.525 21.9325C43.4553 21.5137 42.2985 21.3666 41.1581 21.5043C40.0177 21.642 38.9292 22.0603 37.99 22.7216" fill="#E0E0E0"/>
<path d="M34.2512 30.6027C34.7424 31.5799 35.5123 32.3895 36.4636 32.9291C37.4149 33.4688 38.5048 33.7143 39.5956 33.6346C40.6864 33.5549 41.7291 33.1536 42.5918 32.4814C43.4546 31.8092 44.0987 30.8963 44.4427 29.8581C44.7867 28.82 44.8152 27.7031 44.5245 26.6487C44.2338 25.5943 43.6371 24.6498 42.8097 23.9345C41.9824 23.2193 40.9615 22.7654 39.8762 22.6302C38.7909 22.495 37.6899 22.6846 36.7123 23.1751C36.0628 23.501 35.4839 23.9517 35.0086 24.5014C34.5334 25.0511 34.1711 25.6891 33.9426 26.3789C33.714 27.0687 33.6236 27.7968 33.6766 28.5215C33.7295 29.2463 33.9248 29.9535 34.2512 30.6027Z" fill="#FF725E"/>
<path d="M30.5194 30.0005C30.8137 30.5875 31.2755 31.074 31.8464 31.3984C32.4172 31.7229 33.0715 31.8708 33.7264 31.8234C34.3814 31.776 35.0075 31.5354 35.5257 31.1321C36.0439 30.7288 36.4308 30.1809 36.6376 29.5576C36.8443 28.9344 36.8615 28.2638 36.6871 27.6308C36.5127 26.9977 36.1545 26.4306 35.6577 26.0012C35.161 25.5718 34.548 25.2993 33.8964 25.2183C33.2448 25.1372 32.5838 25.2513 31.997 25.546C31.2105 25.941 30.6131 26.6321 30.336 27.4674C30.0589 28.3027 30.1249 29.2138 30.5194 30.0005Z" fill="#FF725E"/>
<path d="M34.5839 31.5745C34.9671 31.4059 35.3304 31.1953 35.6672 30.9465C36.0523 30.6312 36.3581 30.2299 36.56 29.775C36.762 29.3201 36.8545 28.8241 36.8301 28.327C36.7807 27.8309 36.6227 27.3518 36.3672 26.9238C36.1118 26.4957 35.7651 26.1292 35.3519 25.8503C34.9917 25.6329 34.612 25.4497 34.2177 25.3032C34.3354 25.2821 34.4563 25.2883 34.5713 25.3214C34.8885 25.386 35.1918 25.5062 35.4672 25.6764C35.9313 25.9537 36.3233 26.3367 36.6114 26.7943C36.8994 27.2518 37.0753 27.7709 37.1247 28.3093C37.1597 28.9078 37.0273 29.5043 36.7424 30.0319C36.5091 30.4567 36.1859 30.8256 35.7954 31.1126C35.5357 31.3056 35.2424 31.4485 34.9304 31.5341C34.7147 31.5914 34.5855 31.5923 34.5839 31.5745Z" fill="#263238"/>
<path d="M35.0238 25.6483C35.671 25.542 36.2902 25.3069 36.8447 24.9569C37.335 24.5276 37.7362 24.0062 38.0253 23.4222C38.0512 23.4108 38.0554 23.6744 37.9206 24.0296C37.7304 24.495 37.4161 24.8993 37.0121 25.1985C36.6087 25.5012 36.1278 25.6836 35.6251 25.7248C35.2427 25.7254 35.0083 25.6551 35.0238 25.6483Z" fill="#263238"/>
<path d="M39.1529 32.9899C39.1114 33.008 38.9687 32.7803 38.6679 32.4737C38.279 32.0754 37.8072 31.7675 37.286 31.5719C36.7597 31.3873 36.1983 31.3247 35.6443 31.3887C35.2191 31.4327 34.9539 31.5178 34.941 31.4741C34.928 31.4304 35.1608 31.2854 35.6093 31.1818C36.1988 31.053 36.8127 31.0926 37.3808 31.296C37.9488 31.4994 38.4483 31.8585 38.8221 32.3322C39.1099 32.6939 39.1995 32.9695 39.1529 32.9899Z" fill="#263238"/>
<path d="M72.8779 34.3138C72.9119 34.3916 62.1233 39.1775 48.7916 45.0077C35.46 50.8379 24.6163 55.5121 24.5823 55.4344C24.5484 55.3567 35.3318 50.573 48.6738 44.7383C62.0158 38.9036 72.8462 34.2413 72.8779 34.3138Z" fill="#263238"/>
<path d="M75.0732 39.3346C75.1049 39.4071 64.3186 44.1983 50.9869 50.0284C37.6553 55.8586 26.8094 60.5277 26.7777 60.4551C26.7459 60.3826 37.5271 55.5937 50.8691 49.759C64.2112 43.9243 75.0415 39.262 75.0732 39.3346Z" fill="#263238"/>
<path d="M77.2695 44.3553C77.3012 44.4279 66.5149 49.219 53.1832 55.0492C39.8516 60.8794 29.0057 65.5484 28.9739 65.4759C28.9422 65.4033 39.7234 60.6145 53.0654 54.7798C66.4074 48.945 77.2378 44.2828 77.2695 44.3553Z" fill="#263238"/>
<path d="M79.4648 49.3761C79.4965 49.4486 68.7102 54.2398 55.3785 60.0699C42.0469 65.9001 31.201 70.5692 31.1693 70.4966C31.1375 70.4241 41.9187 65.6352 55.2607 59.8005C68.6028 53.9658 79.4331 49.3035 79.4648 49.3761Z" fill="#263238"/>
<path d="M81.6601 54.3968C81.6919 54.4694 70.9055 59.2605 57.5739 65.0907C44.2422 70.9209 33.3963 75.5899 33.3646 75.5174C33.3329 75.4448 44.114 70.656 57.456 64.8213C70.7981 58.9865 81.6284 54.3243 81.6601 54.3968Z" fill="#263238"/>
<path d="M83.8564 59.4176C83.8882 59.4901 73.1018 64.2813 59.7702 70.1114C46.4385 75.9416 35.5926 80.6107 35.5609 80.5381C35.5291 80.4656 46.3103 75.6767 59.6523 69.842C72.9944 64.0073 83.8224 59.3399 83.8564 59.4176Z" fill="#263238"/>
<path d="M86.0517 64.4383C86.0835 64.5109 75.2971 69.302 61.9655 75.1322C48.6338 80.9624 37.7879 85.6314 37.7562 85.5589C37.7245 85.4863 48.5056 80.6975 61.8476 74.8628C75.1897 69.028 86.0178 64.3606 86.0517 64.4383Z" fill="#263238"/>
</svg>
