<svg width="120" height="121" viewBox="0 0 120 121" fill="none" xmlns="http://www.w3.org/2000/svg">
<path d="M54.8296 13.8629L12.9721 59.8442C14.8841 67.5939 17.2459 75.2475 24.4499 81.8788L59.9485 112.343L105.738 56.2728L54.8296 13.8629Z" fill="#E0E0E0"/>
<path d="M54.4858 9.29171L12.6284 55.2731L24.1061 77.3076L59.6048 107.772L106.328 55.5861L54.4858 9.29171Z" fill="white"/>
<path d="M21.6723 56.8529L12.6285 55.2731C12.6285 55.2731 12.712 61.2206 15.2045 65.8798C17.4204 70.2214 20.4413 74.0995 24.1062 77.3076C24.1062 77.3076 18.0083 67.863 21.6723 56.8529Z" fill="white"/>
<g opacity="0.3">
<path d="M21.6723 56.8529C17.6853 57.0732 13.1308 57.6068 12.6285 55.2731C12.6285 55.2731 12.712 61.2206 15.2045 65.8798C17.4204 70.2214 20.4413 74.0995 24.1062 77.3076C24.1062 77.3076 18.0083 67.863 21.6723 56.8529Z" fill="black"/>
</g>
<path d="M41.8004 16.9723L73.8827 24.5881L75.5411 17.8417L43.2504 9.5631L41.8004 16.9723Z" fill="#E0E0E0"/>
<path d="M102.642 72.5002L98.3163 39.7604L91.4353 40.6427L95.2163 73.821L102.642 72.5002Z" fill="#E0E0E0"/>
<path d="M85.8231 66.9527C85.7826 67.02 76.8982 59.1869 66.0108 49.4727C55.1235 39.7585 46.3393 31.8349 46.4 31.7666C46.4607 31.6984 55.3201 39.5296 66.2123 49.2467C77.1044 58.9637 85.878 66.894 85.8231 66.9527Z" fill="#263238"/>
<path d="M79.3074 73.9252C79.2668 73.9925 70.3825 66.1594 59.4951 56.4452C48.6077 46.731 39.8235 38.8074 39.8795 38.7363C39.9354 38.6651 48.8044 46.5021 59.6917 56.2163C70.5791 65.9305 79.3488 73.8781 79.3074 73.9252Z" fill="#263238"/>
<path d="M73.869 80.48C73.8285 80.5473 64.9441 72.7142 54.0615 63.0029C43.1789 53.2915 34.3852 45.3622 34.4459 45.2939C34.5066 45.2257 43.3708 53.0598 54.2581 62.774C65.1455 72.4882 73.9355 80.4021 73.869 80.48Z" fill="#263238"/>
<path d="M68.4188 86.5155C68.3783 86.5828 59.4939 78.7497 48.6065 69.0355C37.7192 59.3213 28.935 51.3978 28.9957 51.3295C29.0564 51.2612 37.9158 59.0924 48.808 68.8095C59.7001 78.5266 68.4737 86.4569 68.4188 86.5155Z" fill="#263238"/>
</svg>
