<svg width="1237" height="212" viewBox="0 0 1237 212" fill="none" xmlns="http://www.w3.org/2000/svg">
<path d="M56.5312 21.0938H33.4375V31.6875H53.6562V39.6875H33.4375V59H23.875V13H56.5312V21.0938ZM82.205 54.1875C82.1217 54.2917 81.9133 54.6042 81.58 55.125C81.2467 55.6458 80.8508 56.1042 80.3925 56.5C78.9967 57.75 77.6425 58.6042 76.33 59.0625C75.0383 59.5208 73.5175 59.75 71.7675 59.75C66.7258 59.75 63.33 57.9375 61.58 54.3125C60.6008 52.3125 60.1113 49.3646 60.1113 45.4688V24.9375H69.2363V45.4688C69.2363 47.4062 69.4654 48.8646 69.9238 49.8438C70.7363 51.5729 72.33 52.4375 74.705 52.4375C77.7467 52.4375 79.83 51.2083 80.955 48.75C81.5383 47.4167 81.83 45.6562 81.83 43.4688V24.9375H90.8613V59H82.205V54.1875ZM126.723 49C126.493 51.0208 125.441 53.0729 123.566 55.1562C120.65 58.4688 116.566 60.125 111.316 60.125C106.983 60.125 103.16 58.7292 99.8475 55.9375C96.535 53.1458 94.8788 48.6042 94.8788 42.3125C94.8788 36.4167 96.3683 31.8958 99.3475 28.75C102.348 25.6042 106.233 24.0312 111.004 24.0312C113.837 24.0312 116.389 24.5625 118.66 25.625C120.931 26.6875 122.806 28.3646 124.285 30.6562C125.618 32.6771 126.483 35.0208 126.879 37.6875C127.108 39.25 127.202 41.5 127.16 44.4375H103.848C103.973 47.8542 105.045 50.25 107.066 51.625C108.295 52.4792 109.775 52.9062 111.504 52.9062C113.337 52.9062 114.827 52.3854 115.973 51.3438C116.598 50.7812 117.15 50 117.629 49H126.723ZM117.91 38.5625C117.764 36.2083 117.045 34.4271 115.754 33.2188C114.483 31.9896 112.9 31.375 111.004 31.375C108.941 31.375 107.337 32.0208 106.191 33.3125C105.066 34.6042 104.358 36.3542 104.066 38.5625H117.91ZM131.459 12.9375H140.365V59H131.459V12.9375ZM147.351 12.9375H156.257V59H147.351V12.9375ZM172.212 24.9375V59H163.181V24.9375H172.212ZM172.212 12.6562V20.875H163.181V12.6562H172.212ZM194.98 31.5312C191.959 31.5312 189.886 32.8125 188.761 35.375C188.178 36.7292 187.886 38.4583 187.886 40.5625V59H179.011V25H187.605V29.9688C188.751 28.2188 189.834 26.9583 190.855 26.1875C192.688 24.8125 195.011 24.125 197.824 24.125C201.345 24.125 204.22 25.0521 206.449 26.9062C208.699 28.7396 209.824 31.7917 209.824 36.0625V59H200.699V38.2812C200.699 36.4896 200.459 35.1146 199.98 34.1562C199.105 32.4062 197.438 31.5312 194.98 31.5312ZM225.779 64.9688C226.737 65.7812 228.352 66.1875 230.622 66.1875C233.831 66.1875 235.977 65.1146 237.06 62.9688C237.768 61.5938 238.122 59.2812 238.122 56.0312V53.8438C237.268 55.3021 236.352 56.3958 235.372 57.125C233.602 58.4792 231.3 59.1562 228.466 59.1562C224.091 59.1562 220.591 57.625 217.966 54.5625C215.362 51.4792 214.06 47.3125 214.06 42.0625C214.06 37 215.32 32.75 217.841 29.3125C220.362 25.8542 223.935 24.125 228.56 24.125C230.268 24.125 231.758 24.3854 233.029 24.9062C235.195 25.8021 236.945 27.4479 238.279 29.8438V24.9375H246.935V57.25C246.935 61.6458 246.195 64.9583 244.716 67.1875C242.175 71.0208 237.3 72.9375 230.091 72.9375C225.737 72.9375 222.185 72.0833 219.435 70.375C216.685 68.6667 215.164 66.1146 214.872 62.7188H224.56C224.81 63.7604 225.216 64.5104 225.779 64.9688ZM224.279 47.375C225.487 50.25 227.654 51.6875 230.779 51.6875C232.862 51.6875 234.622 50.9062 236.06 49.3438C237.497 47.7604 238.216 45.25 238.216 41.8125C238.216 38.5833 237.529 36.125 236.154 34.4375C234.8 32.75 232.977 31.9062 230.685 31.9062C227.56 31.9062 225.404 33.375 224.216 36.3125C223.591 37.875 223.279 39.8021 223.279 42.0938C223.279 44.0729 223.612 45.8333 224.279 47.375ZM291.001 59H270.126V12.9375H292.501C298.147 13.0208 302.147 14.6562 304.501 17.8438C305.918 19.8021 306.626 22.1458 306.626 24.875C306.626 27.6875 305.918 29.9479 304.501 31.6562C303.71 32.6146 302.543 33.4896 301.001 34.2812C303.355 35.1354 305.126 36.4896 306.314 38.3438C307.522 40.1979 308.126 42.4479 308.126 45.0938C308.126 47.8229 307.439 50.2708 306.064 52.4375C305.189 53.875 304.095 55.0833 302.783 56.0625C301.303 57.1875 299.553 57.9583 297.533 58.375C295.533 58.7917 293.355 59 291.001 59ZM290.783 38.7188H279.314V51H290.626C292.647 51 294.22 50.7292 295.345 50.1875C297.387 49.1875 298.408 47.2708 298.408 44.4375C298.408 42.0417 297.418 40.3958 295.439 39.5C294.335 39 292.783 38.7396 290.783 38.7188ZM295.564 29.9375C296.814 29.1875 297.439 27.8438 297.439 25.9062C297.439 23.7604 296.605 22.3438 294.939 21.6562C293.501 21.1771 291.668 20.9375 289.439 20.9375H279.314V31.0938H290.626C292.647 31.0938 294.293 30.7083 295.564 29.9375ZM330.706 33.1562C327.123 33.1562 324.717 34.3229 323.487 36.6562C322.8 37.9688 322.456 39.9896 322.456 42.7188V59H313.487V24.9375H321.987V30.875C323.362 28.6042 324.56 27.0521 325.581 26.2188C327.248 24.8229 329.415 24.125 332.081 24.125C332.248 24.125 332.383 24.1354 332.487 24.1562C332.612 24.1562 332.873 24.1667 333.269 24.1875V33.3125C332.706 33.25 332.206 33.2083 331.769 33.1875C331.331 33.1667 330.977 33.1562 330.706 33.1562ZM337.88 28.625C340.234 25.625 344.276 24.125 350.005 24.125C353.734 24.125 357.047 24.8646 359.943 26.3438C362.838 27.8229 364.286 30.6146 364.286 34.7188V50.3438C364.286 51.4271 364.307 52.7396 364.349 54.2812C364.411 55.4479 364.588 56.2396 364.88 56.6562C365.172 57.0729 365.609 57.4167 366.193 57.6875V59H356.505C356.234 58.3125 356.047 57.6667 355.943 57.0625C355.838 56.4583 355.755 55.7708 355.693 55C354.463 56.3333 353.047 57.4688 351.443 58.4062C349.526 59.5104 347.359 60.0625 344.943 60.0625C341.859 60.0625 339.307 59.1875 337.286 57.4375C335.286 55.6667 334.286 53.1667 334.286 49.9375C334.286 45.75 335.901 42.7188 339.13 40.8438C340.901 39.8229 343.505 39.0938 346.943 38.6562L349.974 38.2812C351.62 38.0729 352.797 37.8125 353.505 37.5C354.776 36.9583 355.411 36.1146 355.411 34.9688C355.411 33.5729 354.922 32.6146 353.943 32.0938C352.984 31.5521 351.568 31.2812 349.693 31.2812C347.588 31.2812 346.099 31.8021 345.224 32.8438C344.599 33.6146 344.182 34.6562 343.974 35.9688H335.38C335.568 32.9896 336.401 30.5417 337.88 28.625ZM344.505 52.5625C345.338 53.25 346.359 53.5938 347.568 53.5938C349.484 53.5938 351.245 53.0312 352.849 51.9062C354.474 50.7812 355.318 48.7292 355.38 45.75V42.4375C354.818 42.7917 354.245 43.0833 353.661 43.3125C353.099 43.5208 352.318 43.7188 351.318 43.9062L349.318 44.2812C347.443 44.6146 346.099 45.0208 345.286 45.5C343.911 46.3125 343.224 47.5729 343.224 49.2812C343.224 50.8021 343.651 51.8958 344.505 52.5625ZM386.335 31.5312C383.314 31.5312 381.241 32.8125 380.116 35.375C379.533 36.7292 379.241 38.4583 379.241 40.5625V59H370.366V25H378.96V29.9688C380.106 28.2188 381.189 26.9583 382.21 26.1875C384.043 24.8125 386.366 24.125 389.179 24.125C392.7 24.125 395.575 25.0521 397.804 26.9062C400.054 28.7396 401.179 31.7917 401.179 36.0625V59H392.054V38.2812C392.054 36.4896 391.814 35.1146 391.335 34.1562C390.46 32.4062 388.793 31.5312 386.335 31.5312ZM438.509 13V59H429.853V54.2812C428.582 56.3021 427.134 57.7708 425.509 58.6875C423.884 59.6042 421.863 60.0625 419.446 60.0625C415.467 60.0625 412.113 58.4583 409.384 55.25C406.675 52.0208 405.321 47.8854 405.321 42.8438C405.321 37.0312 406.655 32.4583 409.321 29.125C412.009 25.7917 415.592 24.125 420.071 24.125C422.134 24.125 423.967 24.5833 425.571 25.5C427.175 26.3958 428.478 27.6458 429.478 29.25V13H438.509ZM414.509 42.1875C414.509 45.3333 415.134 47.8438 416.384 49.7188C417.613 51.6146 419.488 52.5625 422.009 52.5625C424.53 52.5625 426.446 51.625 427.759 49.75C429.071 47.875 429.728 45.4479 429.728 42.4688C429.728 38.3021 428.675 35.3229 426.571 33.5312C425.28 32.4479 423.78 31.9062 422.071 31.9062C419.467 31.9062 417.55 32.8958 416.321 34.875C415.113 36.8333 414.509 39.2708 414.509 42.1875ZM468.182 26.5C470.849 28.2083 472.38 31.1458 472.776 35.3125H463.87C463.745 34.1667 463.422 33.2604 462.901 32.5938C461.922 31.3854 460.255 30.7812 457.901 30.7812C455.964 30.7812 454.578 31.0833 453.745 31.6875C452.932 32.2917 452.526 33 452.526 33.8125C452.526 34.8333 452.964 35.5729 453.839 36.0312C454.714 36.5104 457.807 37.3333 463.12 38.5C466.662 39.3333 469.318 40.5938 471.089 42.2812C472.839 43.9896 473.714 46.125 473.714 48.6875C473.714 52.0625 472.453 54.8229 469.932 56.9688C467.432 59.0938 463.557 60.1562 458.307 60.1562C452.953 60.1562 448.995 59.0312 446.432 56.7812C443.891 54.5104 442.62 51.625 442.62 48.125H451.651C451.839 49.7083 452.245 50.8333 452.87 51.5C453.974 52.6875 456.016 53.2812 458.995 53.2812C460.745 53.2812 462.13 53.0208 463.151 52.5C464.193 51.9792 464.714 51.1979 464.714 50.1562C464.714 49.1562 464.297 48.3958 463.464 47.875C462.63 47.3542 459.537 46.4583 454.182 45.1875C450.328 44.2292 447.61 43.0312 446.026 41.5938C444.443 40.1771 443.651 38.1354 443.651 35.4688C443.651 32.3229 444.88 29.625 447.339 27.375C449.818 25.1042 453.297 23.9688 457.776 23.9688C462.026 23.9688 465.495 24.8125 468.182 26.5Z" fill="white"/>
<path d="M589.986 38.7332L558.862 60.7815C558.378 61.1245 557.762 61.3581 557.09 61.4528C556.419 61.5475 555.724 61.499 555.091 61.3134C554.459 61.1278 553.919 60.8135 553.539 60.4103C553.159 60.0071 552.956 59.5331 552.957 59.0483V39.4498H511.458C510.541 39.4498 509.661 39.1917 509.013 38.7323C508.364 38.2728 508 37.6497 508 37C508 36.3503 508.364 35.7272 509.013 35.2677C509.661 34.8083 510.541 34.5502 511.458 34.5502H552.957V14.9517C552.956 14.4669 553.159 13.9929 553.539 13.5897C553.919 13.1865 554.459 12.8722 555.091 12.6866C555.724 12.501 556.419 12.4525 557.09 12.5472C557.762 12.6419 558.378 12.8755 558.862 13.2185L589.986 35.2668C590.307 35.4943 590.562 35.7645 590.736 36.0619C590.91 36.3593 591 36.6781 591 37C591 37.3219 590.91 37.6407 590.736 37.9381C590.562 38.2355 590.307 38.5057 589.986 38.7332Z" fill="#3ACBCC"/>
<path d="M645.719 59H625.875V12.9375H645.719C648.573 12.9792 650.948 13.3125 652.844 13.9375C656.073 15 658.688 16.9479 660.688 19.7812C662.292 22.0729 663.385 24.5521 663.969 27.2188C664.552 29.8854 664.844 32.4271 664.844 34.8438C664.844 40.9688 663.615 46.1562 661.156 50.4062C657.823 56.1354 652.677 59 645.719 59ZM652.875 24.6875C651.396 22.1875 648.469 20.9375 644.094 20.9375H635.219V51H644.094C648.635 51 651.802 48.7604 653.594 44.2812C654.573 41.8229 655.062 38.8958 655.062 35.5C655.062 30.8125 654.333 27.2083 652.875 24.6875ZM686.611 33.1562C683.028 33.1562 680.622 34.3229 679.393 36.6562C678.705 37.9688 678.361 39.9896 678.361 42.7188V59H669.393V24.9375H677.893V30.875C679.268 28.6042 680.465 27.0521 681.486 26.2188C683.153 24.8229 685.32 24.125 687.986 24.125C688.153 24.125 688.288 24.1354 688.393 24.1562C688.518 24.1562 688.778 24.1667 689.174 24.1875V33.3125C688.611 33.25 688.111 33.2083 687.674 33.1875C687.236 33.1667 686.882 33.1562 686.611 33.1562ZM701.66 24.9375V59H692.629V24.9375H701.66ZM701.66 12.6562V20.875H692.629V12.6562H701.66ZM705.052 24.9375H715.052L722.146 50.0625L729.396 24.9375H738.959L726.677 59H717.271L705.052 24.9375ZM751.257 24.9375V59H742.226V24.9375H751.257ZM751.257 12.6562V20.875H742.226V12.6562H751.257ZM774.025 31.5312C771.004 31.5312 768.931 32.8125 767.806 35.375C767.223 36.7292 766.931 38.4583 766.931 40.5625V59H758.056V25H766.65V29.9688C767.796 28.2188 768.879 26.9583 769.9 26.1875C771.733 24.8125 774.056 24.125 776.869 24.125C780.39 24.125 783.265 25.0521 785.494 26.9062C787.744 28.7396 788.869 31.7917 788.869 36.0625V59H779.744V38.2812C779.744 36.4896 779.504 35.1146 779.025 34.1562C778.15 32.4062 776.483 31.5312 774.025 31.5312ZM804.824 64.9688C805.782 65.7812 807.397 66.1875 809.667 66.1875C812.876 66.1875 815.022 65.1146 816.105 62.9688C816.813 61.5938 817.167 59.2812 817.167 56.0312V53.8438C816.313 55.3021 815.397 56.3958 814.417 57.125C812.647 58.4792 810.345 59.1562 807.511 59.1562C803.136 59.1562 799.636 57.625 797.011 54.5625C794.407 51.4792 793.105 47.3125 793.105 42.0625C793.105 37 794.365 32.75 796.886 29.3125C799.407 25.8542 802.98 24.125 807.605 24.125C809.313 24.125 810.803 24.3854 812.074 24.9062C814.24 25.8021 815.99 27.4479 817.324 29.8438V24.9375H825.98V57.25C825.98 61.6458 825.24 64.9583 823.761 67.1875C821.22 71.0208 816.345 72.9375 809.136 72.9375C804.782 72.9375 801.23 72.0833 798.48 70.375C795.73 68.6667 794.209 66.1146 793.917 62.7188H803.605C803.855 63.7604 804.261 64.5104 804.824 64.9688ZM803.324 47.375C804.532 50.25 806.699 51.6875 809.824 51.6875C811.907 51.6875 813.667 50.9062 815.105 49.3438C816.542 47.7604 817.261 45.25 817.261 41.8125C817.261 38.5833 816.574 36.125 815.199 34.4375C813.845 32.75 812.022 31.9062 809.73 31.9062C806.605 31.9062 804.449 33.375 803.261 36.3125C802.636 37.875 802.324 39.8021 802.324 42.0938C802.324 44.0729 802.657 45.8333 803.324 47.375ZM865.734 52.3438C868.005 52.3438 869.848 52.0938 871.265 51.5938C873.952 50.6354 875.296 48.8542 875.296 46.25C875.296 44.7292 874.63 43.5521 873.296 42.7188C871.963 41.9062 869.869 41.1875 867.015 40.5625L862.14 39.4688C857.348 38.3854 854.036 37.2083 852.202 35.9375C849.098 33.8125 847.546 30.4896 847.546 25.9688C847.546 21.8438 849.046 18.4167 852.046 15.6875C855.046 12.9583 859.452 11.5938 865.265 11.5938C870.119 11.5938 874.255 12.8854 877.671 15.4688C881.109 18.0312 882.911 21.7604 883.077 26.6562H873.827C873.661 23.8854 872.452 21.9167 870.202 20.75C868.702 19.9792 866.838 19.5938 864.609 19.5938C862.13 19.5938 860.15 20.0938 858.671 21.0938C857.192 22.0938 856.452 23.4896 856.452 25.2812C856.452 26.9271 857.182 28.1562 858.64 28.9688C859.577 29.5104 861.577 30.1458 864.64 30.875L872.577 32.7812C876.057 33.6146 878.682 34.7292 880.452 36.125C883.202 38.2917 884.577 41.4271 884.577 45.5312C884.577 49.7396 882.963 53.2396 879.734 56.0312C876.525 58.8021 871.984 60.1875 866.109 60.1875C860.109 60.1875 855.39 58.8229 851.952 56.0938C848.515 53.3438 846.796 49.5729 846.796 44.7812H855.984C856.275 46.8854 856.848 48.4583 857.702 49.5C859.265 51.3958 861.942 52.3438 865.734 52.3438ZM890.345 28.625C892.699 25.625 896.741 24.125 902.47 24.125C906.199 24.125 909.512 24.8646 912.408 26.3438C915.303 27.8229 916.751 30.6146 916.751 34.7188V50.3438C916.751 51.4271 916.772 52.7396 916.814 54.2812C916.876 55.4479 917.053 56.2396 917.345 56.6562C917.637 57.0729 918.074 57.4167 918.658 57.6875V59H908.97C908.699 58.3125 908.512 57.6667 908.408 57.0625C908.303 56.4583 908.22 55.7708 908.158 55C906.928 56.3333 905.512 57.4688 903.908 58.4062C901.991 59.5104 899.824 60.0625 897.408 60.0625C894.324 60.0625 891.772 59.1875 889.751 57.4375C887.751 55.6667 886.751 53.1667 886.751 49.9375C886.751 45.75 888.366 42.7188 891.595 40.8438C893.366 39.8229 895.97 39.0938 899.408 38.6562L902.439 38.2812C904.085 38.0729 905.262 37.8125 905.97 37.5C907.241 36.9583 907.876 36.1146 907.876 34.9688C907.876 33.5729 907.387 32.6146 906.408 32.0938C905.449 31.5521 904.033 31.2812 902.158 31.2812C900.053 31.2812 898.564 31.8021 897.689 32.8438C897.064 33.6146 896.647 34.6562 896.439 35.9688H887.845C888.033 32.9896 888.866 30.5417 890.345 28.625ZM896.97 52.5625C897.803 53.25 898.824 53.5938 900.033 53.5938C901.949 53.5938 903.71 53.0312 905.314 51.9062C906.939 50.7812 907.783 48.7292 907.845 45.75V42.4375C907.283 42.7917 906.71 43.0833 906.126 43.3125C905.564 43.5208 904.783 43.7188 903.783 43.9062L901.783 44.2812C899.908 44.6146 898.564 45.0208 897.751 45.5C896.376 46.3125 895.689 47.5729 895.689 49.2812C895.689 50.8021 896.116 51.8958 896.97 52.5625ZM922.956 12.9375H931.862V59H922.956V12.9375ZM967.818 49C967.588 51.0208 966.536 53.0729 964.661 55.1562C961.745 58.4688 957.661 60.125 952.411 60.125C948.078 60.125 944.255 58.7292 940.943 55.9375C937.63 53.1458 935.974 48.6042 935.974 42.3125C935.974 36.4167 937.463 31.8958 940.443 28.75C943.443 25.6042 947.328 24.0312 952.099 24.0312C954.932 24.0312 957.484 24.5625 959.755 25.625C962.026 26.6875 963.901 28.3646 965.38 30.6562C966.713 32.6771 967.578 35.0208 967.974 37.6875C968.203 39.25 968.297 41.5 968.255 44.4375H944.943C945.068 47.8542 946.14 50.25 948.161 51.625C949.39 52.4792 950.87 52.9062 952.599 52.9062C954.432 52.9062 955.922 52.3854 957.068 51.3438C957.693 50.7812 958.245 50 958.724 49H967.818ZM959.005 38.5625C958.859 36.2083 958.14 34.4271 956.849 33.2188C955.578 31.9896 953.995 31.375 952.099 31.375C950.036 31.375 948.432 32.0208 947.286 33.3125C946.161 34.6042 945.453 36.3542 945.161 38.5625H959.005ZM995.835 26.5C998.502 28.2083 1000.03 31.1458 1000.43 35.3125H991.522C991.397 34.1667 991.075 33.2604 990.554 32.5938C989.575 31.3854 987.908 30.7812 985.554 30.7812C983.616 30.7812 982.231 31.0833 981.397 31.6875C980.585 32.2917 980.179 33 980.179 33.8125C980.179 34.8333 980.616 35.5729 981.491 36.0312C982.366 36.5104 985.46 37.3333 990.772 38.5C994.314 39.3333 996.97 40.5938 998.741 42.2812C1000.49 43.9896 1001.37 46.125 1001.37 48.6875C1001.37 52.0625 1000.11 54.8229 997.585 56.9688C995.085 59.0938 991.21 60.1562 985.96 60.1562C980.606 60.1562 976.647 59.0312 974.085 56.7812C971.543 54.5104 970.272 51.625 970.272 48.125H979.304C979.491 49.7083 979.897 50.8333 980.522 51.5C981.627 52.6875 983.668 53.2812 986.647 53.2812C988.397 53.2812 989.783 53.0208 990.804 52.5C991.845 51.9792 992.366 51.1979 992.366 50.1562C992.366 49.1562 991.95 48.3958 991.116 47.875C990.283 47.3542 987.189 46.4583 981.835 45.1875C977.981 44.2292 975.262 43.0312 973.679 41.5938C972.095 40.1771 971.304 38.1354 971.304 35.4688C971.304 32.3229 972.533 29.625 974.991 27.375C977.47 25.1042 980.95 23.9688 985.429 23.9688C989.679 23.9688 993.147 24.8125 995.835 26.5Z" fill="white"/>
<path d="M349.986 143.733L318.862 165.782C318.378 166.125 317.762 166.358 317.09 166.453C316.419 166.548 315.724 166.499 315.091 166.313C314.459 166.128 313.919 165.814 313.539 165.41C313.159 165.007 312.956 164.533 312.957 164.048V144.45H271.458C270.541 144.45 269.661 144.192 269.013 143.732C268.364 143.273 268 142.65 268 142C268 141.35 268.364 140.727 269.013 140.268C269.661 139.808 270.541 139.55 271.458 139.55H312.957V119.952C312.956 119.467 313.159 118.993 313.539 118.59C313.919 118.186 314.459 117.872 315.091 117.687C315.724 117.501 316.419 117.452 317.09 117.547C317.762 117.642 318.378 117.875 318.862 118.218L349.986 140.267C350.307 140.494 350.562 140.764 350.736 141.062C350.91 141.359 351 141.678 351 142C351 142.322 350.91 142.641 350.736 142.938C350.562 143.236 350.307 143.506 349.986 143.733Z" fill="#3ACBCC"/>
<path d="M417.938 143.875H395.562V155.719H421.062V164H386.156V117.938H419.938V126.094H395.562V135.875H417.938V143.875ZM426.111 117.938H435.018V164H426.111V117.938ZM470.972 154C470.743 156.021 469.691 158.073 467.816 160.156C464.9 163.469 460.816 165.125 455.566 165.125C451.233 165.125 447.41 163.729 444.097 160.938C440.785 158.146 439.129 153.604 439.129 147.312C439.129 141.417 440.618 136.896 443.597 133.75C446.597 130.604 450.483 129.031 455.254 129.031C458.087 129.031 460.639 129.562 462.91 130.625C465.181 131.688 467.056 133.365 468.535 135.656C469.868 137.677 470.733 140.021 471.129 142.688C471.358 144.25 471.452 146.5 471.41 149.438H448.097C448.222 152.854 449.295 155.25 451.316 156.625C452.545 157.479 454.025 157.906 455.754 157.906C457.587 157.906 459.077 157.385 460.222 156.344C460.847 155.781 461.4 155 461.879 154H470.972ZM462.16 143.562C462.014 141.208 461.295 139.427 460.004 138.219C458.733 136.99 457.15 136.375 455.254 136.375C453.191 136.375 451.587 137.021 450.441 138.312C449.316 139.604 448.608 141.354 448.316 143.562H462.16ZM472.177 129.938H482.177L489.271 155.062L496.521 129.938H506.084L493.802 164H484.396L472.177 129.938ZM510.507 133.625C512.862 130.625 516.903 129.125 522.632 129.125C526.362 129.125 529.674 129.865 532.57 131.344C535.466 132.823 536.914 135.615 536.914 139.719V155.344C536.914 156.427 536.935 157.74 536.976 159.281C537.039 160.448 537.216 161.24 537.507 161.656C537.799 162.073 538.237 162.417 538.82 162.688V164H529.132C528.862 163.312 528.674 162.667 528.57 162.062C528.466 161.458 528.382 160.771 528.32 160C527.091 161.333 525.674 162.469 524.07 163.406C522.153 164.51 519.987 165.062 517.57 165.062C514.487 165.062 511.935 164.188 509.914 162.438C507.914 160.667 506.914 158.167 506.914 154.938C506.914 150.75 508.528 147.719 511.757 145.844C513.528 144.823 516.132 144.094 519.57 143.656L522.601 143.281C524.247 143.073 525.424 142.812 526.132 142.5C527.403 141.958 528.039 141.115 528.039 139.969C528.039 138.573 527.549 137.615 526.57 137.094C525.612 136.552 524.195 136.281 522.32 136.281C520.216 136.281 518.726 136.802 517.851 137.844C517.226 138.615 516.81 139.656 516.601 140.969H508.007C508.195 137.99 509.028 135.542 510.507 133.625ZM517.132 157.562C517.966 158.25 518.987 158.594 520.195 158.594C522.112 158.594 523.872 158.031 525.476 156.906C527.101 155.781 527.945 153.729 528.007 150.75V147.438C527.445 147.792 526.872 148.083 526.289 148.312C525.726 148.521 524.945 148.719 523.945 148.906L521.945 149.281C520.07 149.615 518.726 150.021 517.914 150.5C516.539 151.312 515.851 152.573 515.851 154.281C515.851 155.802 516.278 156.896 517.132 157.562ZM558.525 157.656V164.312L554.306 164.469C550.098 164.615 547.223 163.885 545.681 162.281C544.681 161.26 544.181 159.688 544.181 157.562V136.594H539.431V130.25H544.181V120.75H552.994V130.25H558.525V136.594H552.994V154.594C552.994 155.99 553.171 156.865 553.525 157.219C553.879 157.552 554.962 157.719 556.775 157.719C557.046 157.719 557.327 157.719 557.619 157.719C557.931 157.698 558.233 157.677 558.525 157.656ZM571.48 129.938V164H562.449V129.938H571.48ZM571.48 117.656V125.875H562.449V117.656H571.48ZM594.247 136.531C591.227 136.531 589.154 137.812 588.029 140.375C587.445 141.729 587.154 143.458 587.154 145.562V164H578.279V130H586.872V134.969C588.018 133.219 589.102 131.958 590.122 131.188C591.956 129.812 594.279 129.125 597.091 129.125C600.612 129.125 603.487 130.052 605.716 131.906C607.966 133.74 609.091 136.792 609.091 141.062V164H599.966V143.281C599.966 141.49 599.727 140.115 599.247 139.156C598.372 137.406 596.706 136.531 594.247 136.531ZM625.046 169.969C626.005 170.781 627.619 171.188 629.89 171.188C633.098 171.188 635.244 170.115 636.327 167.969C637.036 166.594 637.39 164.281 637.39 161.031V158.844C636.536 160.302 635.619 161.396 634.64 162.125C632.869 163.479 630.567 164.156 627.734 164.156C623.359 164.156 619.859 162.625 617.234 159.562C614.63 156.479 613.327 152.312 613.327 147.062C613.327 142 614.588 137.75 617.109 134.312C619.63 130.854 623.202 129.125 627.827 129.125C629.536 129.125 631.025 129.385 632.296 129.906C634.463 130.802 636.213 132.448 637.546 134.844V129.938H646.202V162.25C646.202 166.646 645.463 169.958 643.984 172.188C641.442 176.021 636.567 177.938 629.359 177.938C625.005 177.938 621.452 177.083 618.702 175.375C615.952 173.667 614.432 171.115 614.14 167.719H623.827C624.077 168.76 624.484 169.51 625.046 169.969ZM623.546 152.375C624.755 155.25 626.921 156.688 630.046 156.688C632.13 156.688 633.89 155.906 635.327 154.344C636.765 152.76 637.484 150.25 637.484 146.812C637.484 143.583 636.796 141.125 635.421 139.438C634.067 137.75 632.244 136.906 629.952 136.906C626.827 136.906 624.671 138.375 623.484 141.312C622.859 142.875 622.546 144.802 622.546 147.094C622.546 149.073 622.88 150.833 623.546 152.375ZM689.081 164H669.237V117.938H689.081C691.935 117.979 694.31 118.312 696.206 118.938C699.435 120 702.05 121.948 704.05 124.781C705.654 127.073 706.748 129.552 707.331 132.219C707.915 134.885 708.206 137.427 708.206 139.844C708.206 145.969 706.977 151.156 704.519 155.406C701.185 161.135 696.04 164 689.081 164ZM696.237 129.688C694.758 127.188 691.831 125.938 687.456 125.938H678.581V156H687.456C691.998 156 695.165 153.76 696.956 149.281C697.935 146.823 698.425 143.896 698.425 140.5C698.425 135.812 697.696 132.208 696.237 129.688ZM722.005 129.938V164H712.974V129.938H722.005ZM722.005 117.656V125.875H712.974V117.656H722.005ZM738.366 169.969C739.325 170.781 740.939 171.188 743.21 171.188C746.418 171.188 748.564 170.115 749.647 167.969C750.356 166.594 750.71 164.281 750.71 161.031V158.844C749.856 160.302 748.939 161.396 747.96 162.125C746.189 163.479 743.887 164.156 741.054 164.156C736.679 164.156 733.179 162.625 730.554 159.562C727.95 156.479 726.647 152.312 726.647 147.062C726.647 142 727.908 137.75 730.429 134.312C732.95 130.854 736.522 129.125 741.147 129.125C742.856 129.125 744.345 129.385 745.616 129.906C747.783 130.802 749.533 132.448 750.866 134.844V129.938H759.522V162.25C759.522 166.646 758.783 169.958 757.304 172.188C754.762 176.021 749.887 177.938 742.679 177.938C738.325 177.938 734.772 177.083 732.022 175.375C729.272 173.667 727.752 171.115 727.46 167.719H737.147C737.397 168.76 737.804 169.51 738.366 169.969ZM736.866 152.375C738.075 155.25 740.241 156.688 743.366 156.688C745.45 156.688 747.21 155.906 748.647 154.344C750.085 152.76 750.804 150.25 750.804 146.812C750.804 143.583 750.116 141.125 748.741 139.438C747.387 137.75 745.564 136.906 743.272 136.906C740.147 136.906 737.991 138.375 736.804 141.312C736.179 142.875 735.866 144.802 735.866 147.094C735.866 149.073 736.2 150.833 736.866 152.375ZM775.103 129.938V164H766.071V129.938H775.103ZM775.103 117.656V125.875H766.071V117.656H775.103ZM797.432 157.656V164.312L793.214 164.469C789.005 164.615 786.13 163.885 784.589 162.281C783.589 161.26 783.089 159.688 783.089 157.562V136.594H778.339V130.25H783.089V120.75H791.901V130.25H797.432V136.594H791.901V154.594C791.901 155.99 792.078 156.865 792.432 157.219C792.787 157.552 793.87 157.719 795.682 157.719C795.953 157.719 796.235 157.719 796.526 157.719C796.839 157.698 797.141 157.677 797.432 157.656ZM802.513 133.625C804.867 130.625 808.908 129.125 814.638 129.125C818.367 129.125 821.679 129.865 824.575 131.344C827.471 132.823 828.919 135.615 828.919 139.719V155.344C828.919 156.427 828.94 157.74 828.981 159.281C829.044 160.448 829.221 161.24 829.513 161.656C829.804 162.073 830.242 162.417 830.825 162.688V164H821.138C820.867 163.312 820.679 162.667 820.575 162.062C820.471 161.458 820.388 160.771 820.325 160C819.096 161.333 817.679 162.469 816.075 163.406C814.158 164.51 811.992 165.062 809.575 165.062C806.492 165.062 803.94 164.188 801.919 162.438C799.919 160.667 798.919 158.167 798.919 154.938C798.919 150.75 800.533 147.719 803.763 145.844C805.533 144.823 808.138 144.094 811.575 143.656L814.606 143.281C816.252 143.073 817.429 142.812 818.138 142.5C819.408 141.958 820.044 141.115 820.044 139.969C820.044 138.573 819.554 137.615 818.575 137.094C817.617 136.552 816.2 136.281 814.325 136.281C812.221 136.281 810.731 136.802 809.856 137.844C809.231 138.615 808.815 139.656 808.606 140.969H800.013C800.2 137.99 801.033 135.542 802.513 133.625ZM809.138 157.562C809.971 158.25 810.992 158.594 812.2 158.594C814.117 158.594 815.877 158.031 817.481 156.906C819.106 155.781 819.95 153.729 820.013 150.75V147.438C819.45 147.792 818.877 148.083 818.294 148.312C817.731 148.521 816.95 148.719 815.95 148.906L813.95 149.281C812.075 149.615 810.731 150.021 809.919 150.5C808.544 151.312 807.856 152.573 807.856 154.281C807.856 155.802 808.283 156.896 809.138 157.562ZM835.124 117.938H844.03V164H835.124V117.938ZM899.503 143.875H877.128V155.719H902.628V164H867.721V117.938H901.503V126.094H877.128V135.875H899.503V143.875ZM937.833 164H926.739L920.864 153.781L914.958 164H904.145L915.77 146.75L904.645 130H915.551L921.239 139.875L926.801 130H937.395L926.208 146.594L937.833 164ZM969.725 133.594C972.475 136.531 973.85 140.844 973.85 146.531C973.85 152.531 972.496 157.104 969.787 160.25C967.1 163.396 963.631 164.969 959.381 164.969C956.673 164.969 954.423 164.292 952.631 162.938C951.652 162.188 950.694 161.094 949.756 159.656V177.406H940.944V129.938H949.475V134.969C950.433 133.49 951.454 132.323 952.537 131.469C954.517 129.948 956.871 129.188 959.6 129.188C963.579 129.188 966.954 130.656 969.725 133.594ZM964.662 146.969C964.662 144.344 964.058 142.021 962.85 140C961.662 137.979 959.725 136.969 957.037 136.969C953.808 136.969 951.59 138.5 950.381 141.562C949.756 143.188 949.444 145.25 949.444 147.75C949.444 151.708 950.496 154.49 952.6 156.094C953.85 157.031 955.329 157.5 957.037 157.5C959.517 157.5 961.402 156.542 962.694 154.625C964.006 152.708 964.662 150.156 964.662 146.969ZM1007.55 154C1007.33 156.021 1006.27 158.073 1004.4 160.156C1001.48 163.469 997.399 165.125 992.149 165.125C987.815 165.125 983.992 163.729 980.68 160.938C977.367 158.146 975.711 153.604 975.711 147.312C975.711 141.417 977.201 136.896 980.18 133.75C983.18 130.604 987.065 129.031 991.836 129.031C994.67 129.031 997.222 129.562 999.492 130.625C1001.76 131.688 1003.64 133.365 1005.12 135.656C1006.45 137.677 1007.32 140.021 1007.71 142.688C1007.94 144.25 1008.03 146.5 1007.99 149.438H984.68C984.805 152.854 985.878 155.25 987.899 156.625C989.128 157.479 990.607 157.906 992.336 157.906C994.17 157.906 995.659 157.385 996.805 156.344C997.43 155.781 997.982 155 998.461 154H1007.55ZM998.742 143.562C998.597 141.208 997.878 139.427 996.586 138.219C995.315 136.99 993.732 136.375 991.836 136.375C989.774 136.375 988.17 137.021 987.024 138.312C985.899 139.604 985.19 141.354 984.899 143.562H998.742ZM1029.23 138.156C1025.65 138.156 1023.24 139.323 1022.01 141.656C1021.32 142.969 1020.98 144.99 1020.98 147.719V164H1012.01V129.938H1020.51V135.875C1021.89 133.604 1023.08 132.052 1024.1 131.219C1025.77 129.823 1027.94 129.125 1030.6 129.125C1030.77 129.125 1030.91 129.135 1031.01 129.156C1031.14 129.156 1031.4 129.167 1031.79 129.188V138.312C1031.23 138.25 1030.73 138.208 1030.29 138.188C1029.85 138.167 1029.5 138.156 1029.23 138.156ZM1044.28 129.938V164H1035.25V129.938H1044.28ZM1044.28 117.656V125.875H1035.25V117.656H1044.28ZM1080.17 154C1079.94 156.021 1078.89 158.073 1077.01 160.156C1074.1 163.469 1070.01 165.125 1064.76 165.125C1060.43 165.125 1056.61 163.729 1053.29 160.938C1049.98 158.146 1048.33 153.604 1048.33 147.312C1048.33 141.417 1049.82 136.896 1052.79 133.75C1055.79 130.604 1059.68 129.031 1064.45 129.031C1067.28 129.031 1069.84 129.562 1072.11 130.625C1074.38 131.688 1076.25 133.365 1077.73 135.656C1079.07 137.677 1079.93 140.021 1080.33 142.688C1080.56 144.25 1080.65 146.5 1080.61 149.438H1057.29C1057.42 152.854 1058.49 155.25 1060.51 156.625C1061.74 157.479 1063.22 157.906 1064.95 157.906C1066.78 157.906 1068.27 157.385 1069.42 156.344C1070.04 155.781 1070.6 155 1071.08 154H1080.17ZM1071.36 143.562C1071.21 141.208 1070.49 139.427 1069.2 138.219C1067.93 136.99 1066.35 136.375 1064.45 136.375C1062.39 136.375 1060.78 137.021 1059.64 138.312C1058.51 139.604 1057.81 141.354 1057.51 143.562H1071.36ZM1100.75 136.531C1097.73 136.531 1095.66 137.812 1094.53 140.375C1093.95 141.729 1093.66 143.458 1093.66 145.562V164H1084.78V130H1093.38V134.969C1094.52 133.219 1095.6 131.958 1096.62 131.188C1098.46 129.812 1100.78 129.125 1103.59 129.125C1107.11 129.125 1109.99 130.052 1112.22 131.906C1114.47 133.74 1115.59 136.792 1115.59 141.062V164H1106.47V143.281C1106.47 141.49 1106.23 140.115 1105.75 139.156C1104.88 137.406 1103.21 136.531 1100.75 136.531ZM1151.39 142.156H1142.27C1142.1 140.885 1141.67 139.74 1140.99 138.719C1139.99 137.344 1138.43 136.656 1136.33 136.656C1133.33 136.656 1131.28 138.146 1130.17 141.125C1129.59 142.708 1129.3 144.812 1129.3 147.438C1129.3 149.938 1129.59 151.948 1130.17 153.469C1131.24 156.302 1133.24 157.719 1136.17 157.719C1138.26 157.719 1139.74 157.156 1140.61 156.031C1141.49 154.906 1142.02 153.448 1142.21 151.656H1151.3C1151.09 154.365 1150.11 156.927 1148.36 159.344C1145.57 163.24 1141.43 165.188 1135.96 165.188C1130.48 165.188 1126.44 163.562 1123.86 160.312C1121.28 157.062 1119.99 152.844 1119.99 147.656C1119.99 141.802 1121.41 137.25 1124.27 134C1127.12 130.75 1131.06 129.125 1136.08 129.125C1140.35 129.125 1143.84 130.083 1146.55 132C1149.28 133.917 1150.89 137.302 1151.39 142.156ZM1184.78 154C1184.56 156.021 1183.5 158.073 1181.63 160.156C1178.71 163.469 1174.63 165.125 1169.38 165.125C1165.05 165.125 1161.22 163.729 1157.91 160.938C1154.6 158.146 1152.94 153.604 1152.94 147.312C1152.94 141.417 1154.43 136.896 1157.41 133.75C1160.41 130.604 1164.3 129.031 1169.07 129.031C1171.9 129.031 1174.45 129.562 1176.72 130.625C1178.99 131.688 1180.87 133.365 1182.35 135.656C1183.68 137.677 1184.55 140.021 1184.94 142.688C1185.17 144.25 1185.26 146.5 1185.22 149.438H1161.91C1162.03 152.854 1163.11 155.25 1165.13 156.625C1166.36 157.479 1167.84 157.906 1169.57 157.906C1171.4 157.906 1172.89 157.385 1174.03 156.344C1174.66 155.781 1175.21 155 1175.69 154H1184.78ZM1175.97 143.562C1175.83 141.208 1175.11 139.427 1173.82 138.219C1172.55 136.99 1170.96 136.375 1169.07 136.375C1167 136.375 1165.4 137.021 1164.25 138.312C1163.13 139.604 1162.42 141.354 1162.13 143.562H1175.97ZM1212.8 131.5C1215.47 133.208 1217 136.146 1217.4 140.312H1208.49C1208.36 139.167 1208.04 138.26 1207.52 137.594C1206.54 136.385 1204.88 135.781 1202.52 135.781C1200.58 135.781 1199.2 136.083 1198.36 136.688C1197.55 137.292 1197.15 138 1197.15 138.812C1197.15 139.833 1197.58 140.573 1198.46 141.031C1199.33 141.51 1202.43 142.333 1207.74 143.5C1211.28 144.333 1213.94 145.594 1215.71 147.281C1217.46 148.99 1218.33 151.125 1218.33 153.688C1218.33 157.062 1217.07 159.823 1214.55 161.969C1212.05 164.094 1208.18 165.156 1202.93 165.156C1197.57 165.156 1193.61 164.031 1191.05 161.781C1188.51 159.51 1187.24 156.625 1187.24 153.125H1196.27C1196.46 154.708 1196.86 155.833 1197.49 156.5C1198.59 157.688 1200.64 158.281 1203.61 158.281C1205.36 158.281 1206.75 158.021 1207.77 157.5C1208.81 156.979 1209.33 156.198 1209.33 155.156C1209.33 154.156 1208.92 153.396 1208.08 152.875C1207.25 152.354 1204.16 151.458 1198.8 150.188C1194.95 149.229 1192.23 148.031 1190.65 146.594C1189.06 145.177 1188.27 143.135 1188.27 140.469C1188.27 137.323 1189.5 134.625 1191.96 132.375C1194.44 130.104 1197.92 128.969 1202.4 128.969C1206.65 128.969 1210.11 129.812 1212.8 131.5ZM1222.88 154.688H1232.35V164H1222.88V154.688Z" fill="white"/>
<path d="M8.0769 87L205.884 118.389L195.448 135.176L209 157.597L192.877 171.624L207.306 196L0 163.116L12.9472 142.362L6.50382 120.056L17.636 109.306L8.0769 87Z" fill="#3ACBCC"/>
<path d="M55.2896 110.248L64.6013 111.626L64.3698 113.191L56.7448 112.063L56.1711 115.941L63.2223 116.984L63.0036 118.462L55.9525 117.419L55.3119 121.749L63.0673 122.896L62.8422 124.417L53.4001 123.021L55.2896 110.248ZM66.2653 121.939C66.2345 122.467 66.3057 122.886 66.479 123.196C66.7986 123.759 67.4452 124.112 68.419 124.256C68.9987 124.342 69.5272 124.293 70.0046 124.109C70.4828 123.919 70.7609 123.56 70.839 123.033C70.8981 122.633 70.7664 122.302 70.4437 122.041C70.2365 121.88 69.812 121.667 69.1703 121.4L67.9733 120.903C67.2084 120.588 66.6556 120.282 66.3148 119.982C65.705 119.46 65.4555 118.825 65.5661 118.077C65.6964 117.196 66.1178 116.53 66.8302 116.078C67.5484 115.628 68.4437 115.482 69.516 115.64C70.9187 115.848 71.8692 116.409 72.3677 117.324C72.6789 117.903 72.7841 118.493 72.6833 119.094L71.2052 118.876C71.2286 118.518 71.1515 118.178 70.9741 117.855C70.6757 117.391 70.083 117.093 69.1962 116.961C68.6049 116.874 68.139 116.92 67.7984 117.101C67.4635 117.283 67.2686 117.559 67.2138 117.93C67.1537 118.335 67.3057 118.69 67.6696 118.992C67.88 119.171 68.2031 119.35 68.639 119.527L69.6363 119.932C70.7205 120.371 71.435 120.746 71.7798 121.057C72.3292 121.547 72.5405 122.221 72.4136 123.079C72.291 123.908 71.8692 124.577 71.1482 125.086C70.433 125.597 69.432 125.757 68.1453 125.566C66.76 125.361 65.8238 124.903 65.3368 124.191C64.8564 123.474 64.6645 122.649 64.7612 121.716L66.2653 121.939ZM75.8811 114.174L77.4635 114.408L77.0789 117.008L78.5656 117.228L78.3766 118.506L76.8898 118.286L75.9907 124.364C75.9427 124.688 76.0207 124.922 76.2246 125.065C76.3369 125.146 76.5351 125.208 76.8191 125.25C76.8944 125.261 76.9756 125.273 77.0625 125.286C77.1503 125.293 77.2531 125.3 77.3707 125.305L77.188 126.54C77.0006 126.565 76.8067 126.575 76.6062 126.569C76.4115 126.564 76.2011 126.545 75.975 126.511C75.2447 126.403 74.7766 126.144 74.5706 125.735C74.3655 125.32 74.3071 124.813 74.3955 124.216L75.3074 118.052L74.0467 117.866L74.2358 116.587L75.4965 116.774L75.8811 114.174ZM80.3282 124.472C80.2613 124.924 80.3737 125.305 80.6655 125.615C80.9573 125.925 81.3293 126.113 81.7814 126.18C82.332 126.261 82.8842 126.213 83.4378 126.034C84.3698 125.739 84.907 125.111 85.0493 124.149L85.2359 122.888C85.0266 122.982 84.7652 123.047 84.4518 123.083C84.1384 123.12 83.8342 123.134 83.5392 123.126L82.5735 123.107C81.9944 123.099 81.5508 123.154 81.2427 123.275C80.7213 123.476 80.4165 123.875 80.3282 124.472ZM84.5871 121.868C84.9534 121.875 85.2162 121.76 85.3757 121.523C85.4658 121.394 85.5301 121.199 85.5687 120.938C85.6476 120.405 85.5134 119.991 85.166 119.697C84.8252 119.398 84.3013 119.196 83.5941 119.091C82.7769 118.971 82.1647 119.105 81.7575 119.495C81.5302 119.71 81.352 120.054 81.2229 120.526L79.7622 120.31C79.961 119.167 80.4498 118.425 81.2288 118.084C82.0144 117.738 82.8796 117.635 83.8244 117.775C84.9199 117.937 85.7788 118.277 86.401 118.796C87.0174 119.314 87.2605 120.013 87.1301 120.894L86.3365 126.258C86.3125 126.421 86.3251 126.556 86.3743 126.664C86.4292 126.773 86.564 126.843 86.7784 126.875C86.848 126.885 86.9267 126.894 87.0145 126.901C87.1031 126.902 87.198 126.901 87.2991 126.898L87.128 128.055C86.8743 128.088 86.6824 128.104 86.5523 128.103C86.4222 128.101 86.247 128.084 86.0268 128.052C85.4877 127.972 85.1248 127.723 84.9379 127.304C84.8404 127.083 84.793 126.782 84.7957 126.404C84.4152 126.774 83.9037 127.068 83.2612 127.287C82.6188 127.506 81.9382 127.562 81.2194 127.456C80.3558 127.328 79.6872 126.963 79.2137 126.36C78.7469 125.752 78.5718 125.053 78.6885 124.265C78.8162 123.401 79.1848 122.772 79.7942 122.376C80.4035 121.981 81.154 121.793 82.0455 121.812L84.5871 121.868ZM90.4476 115.405L91.9691 115.63L91.2836 120.265C91.6916 119.869 92.1504 119.59 92.66 119.429C93.1704 119.261 93.7039 119.219 94.2603 119.301C95.4196 119.473 96.2994 120.012 96.8998 120.918C97.5069 121.819 97.6955 123.046 97.4657 124.6C97.2479 126.072 96.7105 127.242 95.8535 128.111C94.9965 128.979 93.9362 129.32 92.6726 129.133C91.9654 129.028 91.3937 128.769 90.9574 128.355C90.6976 128.109 90.4355 127.738 90.1712 127.243L89.9949 128.434L88.5517 128.221L90.4476 115.405ZM92.7814 127.736C93.6277 127.861 94.3092 127.619 94.826 127.008C95.3486 126.398 95.6914 125.543 95.8543 124.441C95.9992 123.462 95.9077 122.619 95.5798 121.913C95.2576 121.208 94.6879 120.795 93.8707 120.674C93.1577 120.568 92.4927 120.74 91.8756 121.187C91.2643 121.636 90.8691 122.466 90.6898 123.677C90.5603 124.553 90.5654 125.279 90.7051 125.856C90.9648 126.943 91.657 127.57 92.7814 127.736ZM100.518 116.94L102.083 117.171L100.194 129.943L98.6285 129.712L100.518 116.94ZM103.921 121.024L105.512 121.259L104.141 130.527L102.55 130.292L103.921 121.024ZM104.439 117.52L106.03 117.755L105.768 119.529L104.177 119.293L104.439 117.52ZM107.877 128.095C107.846 128.623 107.917 129.042 108.091 129.352C108.41 129.915 109.057 130.268 110.031 130.412C110.61 130.498 111.139 130.449 111.616 130.265C112.094 130.075 112.372 129.716 112.451 129.189C112.51 128.789 112.378 128.458 112.055 128.197C111.848 128.037 111.424 127.823 110.782 127.556L109.585 127.059C108.82 126.744 108.267 126.438 107.926 126.138C107.317 125.616 107.067 124.981 107.178 124.233C107.308 123.352 107.729 122.686 108.442 122.234C109.16 121.784 110.055 121.638 111.128 121.797C112.53 122.004 113.481 122.565 113.979 123.48C114.29 124.059 114.396 124.649 114.295 125.25L112.817 125.032C112.84 124.674 112.763 124.334 112.586 124.011C112.287 123.547 111.695 123.249 110.808 123.117C110.216 123.03 109.751 123.077 109.41 123.257C109.075 123.439 108.88 123.715 108.825 124.086C108.765 124.492 108.917 124.846 109.281 125.148C109.492 125.328 109.815 125.506 110.251 125.683L111.248 126.088C112.332 126.527 113.047 126.902 113.391 127.213C113.941 127.703 114.152 128.377 114.025 129.235C113.903 130.064 113.481 130.733 112.76 131.243C112.045 131.753 111.044 131.913 109.757 131.722C108.371 131.517 107.435 131.059 106.948 130.347C106.468 129.631 106.276 128.806 106.373 127.872L107.877 128.095ZM117.313 119.38L118.878 119.611L118.174 124.376C118.614 123.961 118.996 123.68 119.32 123.533C119.873 123.277 120.527 123.205 121.28 123.316C122.631 123.516 123.477 124.124 123.818 125.14C124.002 125.694 124.027 126.43 123.891 127.345L123.008 133.318L121.399 133.08L122.267 127.212C122.369 126.528 122.356 126.013 122.229 125.669C122.021 125.117 121.525 124.783 120.743 124.667C120.093 124.571 119.472 124.707 118.879 125.076C118.285 125.444 117.897 126.248 117.713 127.489L116.982 132.427L115.417 132.195L117.313 119.38ZM130.615 124.715C131.276 124.813 131.893 125.064 132.467 125.469C133.042 125.868 133.455 126.338 133.707 126.878C133.951 127.394 134.078 127.973 134.09 128.614C134.119 129.057 134.064 129.748 133.925 130.687L127.1 129.677C126.99 130.626 127.1 131.418 127.433 132.054C127.766 132.684 128.37 133.063 129.246 133.193C130.063 133.314 130.755 133.141 131.321 132.674C131.646 132.402 131.897 132.069 132.073 131.674L133.612 131.902C133.521 132.238 133.328 132.6 133.034 132.989C132.746 133.373 132.441 133.677 132.117 133.902C131.573 134.295 130.939 134.521 130.213 134.58C129.823 134.617 129.39 134.6 128.915 134.53C127.755 134.358 126.835 133.793 126.154 132.833C125.473 131.868 125.245 130.626 125.47 129.107C125.691 127.612 126.276 126.457 127.226 125.644C128.176 124.831 129.305 124.521 130.615 124.715ZM132.501 129.205C132.537 128.518 132.47 127.954 132.298 127.514C131.981 126.697 131.32 126.214 130.318 126.066C129.599 125.96 128.958 126.131 128.394 126.581C127.83 127.025 127.475 127.644 127.328 128.44L132.501 129.205ZM136.905 130.728C136.757 131.725 136.845 132.591 137.169 133.326C137.493 134.06 138.121 134.497 139.054 134.635C139.779 134.742 140.419 134.52 140.974 133.968C141.536 133.412 141.904 132.551 142.076 131.386C142.25 130.209 142.138 129.304 141.74 128.671C141.343 128.032 140.791 127.66 140.084 127.555C139.296 127.439 138.61 127.645 138.029 128.175C137.453 128.706 137.078 129.557 136.905 130.728ZM139.99 126.146C140.703 126.252 141.278 126.491 141.714 126.864C141.967 127.079 142.238 127.43 142.527 127.917L143.223 123.213L144.727 123.435L142.831 136.251L141.423 136.043L141.614 134.747C141.164 135.267 140.671 135.618 140.135 135.799C139.599 135.98 139.009 136.023 138.365 135.928C137.328 135.775 136.494 135.207 135.863 134.225C135.233 133.238 135.025 132.019 135.24 130.57C135.44 129.214 135.959 128.091 136.795 127.202C137.638 126.308 138.703 125.956 139.99 126.146ZM151.479 128.059L153.07 128.295L151.699 137.563L150.108 137.328L151.479 128.059ZM151.998 124.556L153.589 124.791L153.326 126.565L151.735 126.329L151.998 124.556ZM155.45 128.602L156.937 128.822L156.742 130.144C157.263 129.664 157.787 129.342 158.315 129.177C158.843 129.013 159.408 128.975 160.011 129.064C161.333 129.259 162.157 129.852 162.485 130.843C162.665 131.385 162.686 132.125 162.547 133.064L161.663 139.037L160.072 138.802L160.94 132.933C161.024 132.365 161.008 131.895 160.891 131.522C160.699 130.901 160.238 130.537 159.507 130.429C159.136 130.374 158.826 130.367 158.578 130.407C158.13 130.471 157.715 130.67 157.334 131.005C157.028 131.273 156.81 131.567 156.68 131.885C156.556 132.199 156.45 132.66 156.359 133.268L155.638 138.146L154.073 137.914L155.45 128.602Z" fill="white"/>
<path d="M76.5226 141.392C76.036 140.598 75.2421 140.119 74.1408 139.956C72.6338 139.733 71.5246 140.143 70.8134 141.187C70.4044 141.79 70.0663 142.794 69.7991 144.2L64.9824 143.488C65.3808 141.355 66.0255 139.679 66.9166 138.461C68.6103 136.141 71.1439 135.23 74.5173 135.729C77.1836 136.124 79.1953 137.179 80.5524 138.896C81.9112 140.602 82.4105 142.672 82.0503 145.106C81.7742 146.973 80.9725 148.548 79.6452 149.833C78.7726 150.687 77.4141 151.582 75.5698 152.517L73.3791 153.632C72.0084 154.33 71.062 154.841 70.54 155.167C70.0295 155.494 69.5793 155.895 69.1891 156.371L80.1962 157.999L79.5505 162.364L62.2834 159.809C62.5973 158.008 63.23 156.413 64.1816 155.026C65.1374 153.45 67.07 151.917 69.9794 150.428C72.5049 149.132 74.1562 148.18 74.9332 147.572C76.1278 146.623 76.8221 145.494 77.0159 144.184C77.1737 143.117 77.0092 142.187 76.5226 141.392ZM89.6401 164.496C86.429 164.021 84.3406 162.563 83.3749 160.122C82.4209 157.683 82.2517 154.382 82.8674 150.22C83.4831 146.059 84.6015 142.943 86.2227 140.873C87.8555 138.804 90.2775 138.007 93.4886 138.482C96.6998 138.958 98.7873 140.421 99.7513 142.874C100.704 145.325 100.872 148.631 100.256 152.793C99.6406 156.955 98.5172 160.064 96.8861 162.121C95.2666 164.18 92.8513 164.971 89.6401 164.496ZM93.483 158.579C94.1615 157.116 94.7152 154.935 95.1439 152.037C95.5933 148.999 95.6941 146.716 95.4465 145.187C95.2105 143.659 94.3564 142.787 92.8841 142.569C91.4118 142.351 90.33 142.937 89.6386 144.328C88.9472 145.718 88.3769 147.932 87.9275 150.969C87.4988 153.867 87.408 156.122 87.6552 157.735C87.9041 159.335 88.7647 160.244 90.237 160.462C91.7092 160.68 92.7912 160.052 93.483 158.579ZM114.033 146.941C113.546 146.147 112.752 145.668 111.651 145.505C110.144 145.282 109.034 145.693 108.323 146.737C107.914 147.339 107.576 148.344 107.309 149.749L102.492 149.037C102.891 146.904 103.535 145.229 104.426 144.01C106.12 141.69 108.654 140.779 112.027 141.278C114.693 141.673 116.705 142.729 118.062 144.446C119.421 146.151 119.92 148.221 119.56 150.656C119.284 152.522 118.482 154.097 117.155 155.382C116.282 156.236 114.924 157.131 113.08 158.066L110.889 159.182C109.518 159.879 108.572 160.391 108.05 160.716C107.539 161.043 107.089 161.445 106.699 161.92L117.706 163.549L117.06 167.913L99.7932 165.359C100.107 163.557 100.74 161.963 101.691 160.575C102.647 158.999 104.58 157.466 107.489 155.978C110.015 154.681 111.666 153.729 112.443 153.121C113.638 152.172 114.332 151.043 114.526 149.733C114.684 148.667 114.519 147.736 114.033 146.941ZM127.15 170.046C123.939 169.57 121.85 168.112 120.885 165.671C119.931 163.232 119.762 159.931 120.377 155.77C120.993 151.608 122.111 148.492 123.733 146.422C125.365 144.353 127.787 143.557 130.999 144.032C134.21 144.507 136.297 145.971 137.261 148.423C138.213 150.874 138.382 154.181 137.766 158.342C137.15 162.504 136.027 165.613 134.396 167.67C132.776 169.729 130.361 170.521 127.15 170.046ZM130.993 164.128C131.671 162.665 132.225 160.484 132.654 157.586C133.103 154.549 133.204 152.265 132.956 150.736C132.72 149.209 131.866 148.336 130.394 148.118C128.922 147.9 127.84 148.487 127.148 149.877C126.457 151.267 125.887 153.481 125.437 156.518C125.009 159.417 124.918 161.672 125.165 163.284C125.414 164.884 126.275 165.793 127.747 166.011C129.219 166.229 130.301 165.601 130.993 164.128Z" fill="white"/>
</svg>
