<svg width="1440" height="80" viewBox="0 0 1440 80" fill="none" xmlns="http://www.w3.org/2000/svg">
<rect width="1440" height="80" fill="#001F3E"/>
<path d="M122.5 18L128.577 34.423L145 40.5L128.577 46.577L122.5 63L116.423 46.577L100 40.5L116.423 34.423L122.5 18Z" fill="#3ACBCC"/>
<path d="M188.996 40.9531H180.605V45.3945H190.168V48.5H177.078V31.2266H189.746V34.2852H180.605V37.9531H188.996V40.9531ZM191.703 40.2266H198.43V43.3906H191.703V40.2266ZM213.16 47.2109C211.871 48.3906 210.223 48.9805 208.215 48.9805C205.73 48.9805 203.777 48.1836 202.355 46.5898C200.934 44.9883 200.223 42.793 200.223 40.0039C200.223 36.9883 201.031 34.6641 202.648 33.0312C204.055 31.6094 205.844 30.8984 208.016 30.8984C210.922 30.8984 213.047 31.8516 214.391 33.7578C215.133 34.8281 215.531 35.9023 215.586 36.9805H211.977C211.742 36.1523 211.441 35.5273 211.074 35.1055C210.418 34.3555 209.445 33.9805 208.156 33.9805C206.844 33.9805 205.809 34.5117 205.051 35.5742C204.293 36.6289 203.914 38.125 203.914 40.0625C203.914 42 204.312 43.4531 205.109 44.4219C205.914 45.3828 206.934 45.8633 208.168 45.8633C209.434 45.8633 210.398 45.4492 211.062 44.6211C211.43 44.1758 211.734 43.5078 211.977 42.6172H215.551C215.238 44.5 214.441 46.0312 213.16 47.2109ZM225.957 48.9805C223.488 48.9805 221.602 48.3086 220.297 46.9648C218.547 45.3164 217.672 42.9414 217.672 39.8398C217.672 36.6758 218.547 34.3008 220.297 32.7148C221.602 31.3711 223.488 30.6992 225.957 30.6992C228.426 30.6992 230.312 31.3711 231.617 32.7148C233.359 34.3008 234.23 36.6758 234.23 39.8398C234.23 42.9414 233.359 45.3164 231.617 46.9648C230.312 48.3086 228.426 48.9805 225.957 48.9805ZM229.367 44.3398C230.203 43.2852 230.621 41.7852 230.621 39.8398C230.621 37.9023 230.199 36.4062 229.355 35.3516C228.52 34.2891 227.387 33.7578 225.957 33.7578C224.527 33.7578 223.387 34.2852 222.535 35.3398C221.684 36.3945 221.258 37.8945 221.258 39.8398C221.258 41.7852 221.684 43.2852 222.535 44.3398C223.387 45.3945 224.527 45.9219 225.957 45.9219C227.387 45.9219 228.523 45.3945 229.367 44.3398ZM240.301 48.5H236.937V31.2266H242.187L245.328 44.8086L248.445 31.2266H253.637V48.5H250.273V36.8164C250.273 36.4805 250.277 36.0117 250.285 35.4102C250.293 34.8008 250.297 34.332 250.297 34.0039L247.027 48.5H243.523L240.277 34.0039C240.277 34.332 240.281 34.8008 240.289 35.4102C240.297 36.0117 240.301 36.4805 240.301 36.8164V48.5ZM260.293 48.5H256.93V31.2266H262.18L265.32 44.8086L268.437 31.2266H273.629V48.5H270.266V36.8164C270.266 36.4805 270.27 36.0117 270.277 35.4102C270.285 34.8008 270.289 34.332 270.289 34.0039L267.02 48.5H263.516L260.27 34.0039C260.27 34.332 260.273 34.8008 260.281 35.4102C260.289 36.0117 260.293 36.4805 260.293 36.8164V48.5ZM289.004 40.9531H280.613V45.3945H290.176V48.5H277.086V31.2266H289.754V34.2852H280.613V37.9531H289.004V40.9531ZM300.324 41.7266H296.598V48.5H293.07V31.2266H301.543C302.754 31.25 303.684 31.3984 304.332 31.6719C304.988 31.9453 305.543 32.3477 305.996 32.8789C306.371 33.3164 306.668 33.8008 306.887 34.332C307.105 34.8633 307.215 35.4687 307.215 36.1484C307.215 36.9687 307.008 37.7773 306.594 38.5742C306.18 39.3633 305.496 39.9219 304.543 40.25C305.34 40.5703 305.902 41.0273 306.23 41.6211C306.566 42.207 306.734 43.1055 306.734 44.3164V45.4766C306.734 46.2656 306.766 46.8008 306.828 47.082C306.922 47.5273 307.141 47.8555 307.484 48.0664V48.5H303.512C303.402 48.1172 303.324 47.8086 303.277 47.5742C303.184 47.0898 303.133 46.5937 303.125 46.0859L303.102 44.4805C303.086 43.3789 302.883 42.6445 302.492 42.2773C302.109 41.9102 301.387 41.7266 300.324 41.7266ZM302.516 38.5859C303.234 38.2578 303.594 37.6094 303.594 36.6406C303.594 35.5937 303.246 34.8906 302.551 34.5312C302.16 34.3281 301.574 34.2266 300.793 34.2266H296.598V38.8672H300.687C301.5 38.8672 302.109 38.7734 302.516 38.5859ZM322.52 47.2109C321.23 48.3906 319.582 48.9805 317.574 48.9805C315.09 48.9805 313.137 48.1836 311.715 46.5898C310.293 44.9883 309.582 42.793 309.582 40.0039C309.582 36.9883 310.391 34.6641 312.008 33.0312C313.414 31.6094 315.203 30.8984 317.375 30.8984C320.281 30.8984 322.406 31.8516 323.75 33.7578C324.492 34.8281 324.891 35.9023 324.945 36.9805H321.336C321.102 36.1523 320.801 35.5273 320.434 35.1055C319.777 34.3555 318.805 33.9805 317.516 33.9805C316.203 33.9805 315.168 34.5117 314.41 35.5742C313.652 36.6289 313.273 38.125 313.273 40.0625C313.273 42 313.672 43.4531 314.469 44.4219C315.273 45.3828 316.293 45.8633 317.527 45.8633C318.793 45.8633 319.758 45.4492 320.422 44.6211C320.789 44.1758 321.094 43.5078 321.336 42.6172H324.91C324.598 44.5 323.801 46.0312 322.52 47.2109ZM339.699 40.9531H331.309V45.3945H340.871V48.5H327.781V31.2266L340.449 31.2266V34.2852H331.309V37.9531H339.699V40.9531Z" fill="white"/>
<path d="M600.5 18L606.577 34.423L623 40.5L606.577 46.577L600.5 63L594.423 46.577L578 40.5L594.423 34.423L600.5 18Z" fill="#3ACBCC"/>
<path d="M663.004 48.5H655.176V31.2266H663.566C665.684 31.2578 667.184 31.8711 668.066 33.0664C668.598 33.8008 668.863 34.6797 668.863 35.7031C668.863 36.7578 668.598 37.6055 668.066 38.2461C667.769 38.6055 667.332 38.9336 666.754 39.2305C667.637 39.5508 668.301 40.0586 668.746 40.7539C669.199 41.4492 669.426 42.293 669.426 43.2852C669.426 44.3086 669.168 45.2266 668.652 46.0391C668.324 46.5781 667.914 47.0312 667.422 47.3984C666.867 47.8203 666.211 48.1094 665.453 48.2656C664.703 48.4219 663.887 48.5 663.004 48.5ZM662.922 40.8945H658.621V45.5H662.863C663.621 45.5 664.211 45.3984 664.633 45.1953C665.398 44.8203 665.781 44.1016 665.781 43.0391C665.781 42.1406 665.41 41.5234 664.668 41.1875C664.254 41 663.672 40.9023 662.922 40.8945ZM664.715 37.6016C665.184 37.3203 665.418 36.8164 665.418 36.0898C665.418 35.2852 665.105 34.7539 664.48 34.4961C663.941 34.3164 663.254 34.2266 662.418 34.2266H658.621V38.0352H662.863C663.621 38.0352 664.238 37.8906 664.715 37.6016ZM679.797 41.7266H676.07V48.5H672.543V31.2266H681.016C682.226 31.25 683.156 31.3984 683.805 31.6719C684.461 31.9453 685.016 32.3477 685.469 32.8789C685.844 33.3164 686.141 33.8008 686.359 34.332C686.578 34.8633 686.687 35.4687 686.687 36.1484C686.687 36.9687 686.48 37.7773 686.066 38.5742C685.652 39.3633 684.969 39.9219 684.016 40.25C684.812 40.5703 685.375 41.0273 685.703 41.6211C686.039 42.207 686.207 43.1055 686.207 44.3164V45.4766C686.207 46.2656 686.238 46.8008 686.301 47.082C686.394 47.5273 686.613 47.8555 686.957 48.0664V48.5H682.984C682.875 48.1172 682.797 47.8086 682.75 47.5742C682.656 47.0898 682.605 46.5937 682.598 46.0859L682.574 44.4805C682.559 43.3789 682.355 42.6445 681.965 42.2773C681.582 41.9102 680.859 41.7266 679.797 41.7266ZM681.988 38.5859C682.707 38.2578 683.066 37.6094 683.066 36.6406C683.066 35.5937 682.719 34.8906 682.023 34.5312C681.633 34.3281 681.047 34.2266 680.266 34.2266H676.07V38.8672H680.16C680.973 38.8672 681.582 38.7734 681.988 38.5859ZM699.918 44.9492H693.555L692.359 48.5H688.586L694.75 31.2266H698.828L704.945 48.5H701.031L699.918 44.9492ZM698.91 41.9727L696.754 35.1758L694.527 41.9727H698.91ZM721.117 48.5H717.508L710.453 36.2305V48.5H707.09V31.2266H710.875L717.754 43.2852V31.2266H721.117V48.5ZM731.934 48.5H724.492V31.2266H731.934C733.004 31.2422 733.894 31.3672 734.605 31.6016C735.816 32 736.797 32.7305 737.547 33.793C738.148 34.6523 738.559 35.582 738.777 36.582C738.996 37.582 739.105 38.5352 739.105 39.4414C739.105 41.7383 738.644 43.6836 737.723 45.2773C736.473 47.4258 734.543 48.5 731.934 48.5ZM734.617 35.6328C734.062 34.6953 732.965 34.2266 731.324 34.2266H727.996V45.5H731.324C733.027 45.5 734.215 44.6602 734.887 42.9805C735.254 42.0586 735.437 40.9609 735.437 39.6875C735.437 37.9297 735.164 36.5781 734.617 35.6328ZM741.555 31.2266H745.141V48.5H741.555V31.2266ZM762.484 48.5H758.875L751.82 36.2305V48.5H748.457V31.2266H752.242L759.121 43.2852V31.2266H762.484V48.5ZM776.453 48.0781C775.5 48.6641 774.328 48.957 772.937 48.957C770.648 48.957 768.773 48.1641 767.312 46.5781C765.789 44.9844 765.027 42.8047 765.027 40.0391C765.027 37.2422 765.797 35 767.336 33.3125C768.875 31.625 770.91 30.7812 773.441 30.7812C775.637 30.7812 777.398 31.3398 778.726 32.457C780.062 33.5664 780.828 34.9531 781.023 36.6172H777.473C777.199 35.4375 776.531 34.6133 775.469 34.1445C774.875 33.8867 774.215 33.7578 773.488 33.7578C772.098 33.7578 770.953 34.2852 770.055 35.3398C769.164 36.3867 768.719 37.9648 768.719 40.0742C768.719 42.1992 769.203 43.7031 770.172 44.5859C771.141 45.4687 772.242 45.9102 773.476 45.9102C774.687 45.9102 775.68 45.5625 776.453 44.8672C777.226 44.1641 777.703 43.2461 777.883 42.1133H773.887V39.2305H781.082V48.5H778.691L778.328 46.3437C777.633 47.1641 777.008 47.7422 776.453 48.0781Z" fill="white"/>
<path d="M1041.5 18L1047.58 34.423L1064 40.5L1047.58 46.577L1041.5 63L1035.42 46.577L1019 40.5L1035.42 34.423L1041.5 18Z" fill="#3ACBCC"/>
<path d="M1103.29 48.5H1095.85V31.2266H1103.29C1104.36 31.2422 1105.25 31.3672 1105.96 31.6016C1107.18 32 1108.16 32.7305 1108.91 33.793C1109.51 34.6523 1109.92 35.582 1110.14 36.582C1110.36 37.582 1110.46 38.5352 1110.46 39.4414C1110.46 41.7383 1110 43.6836 1109.08 45.2773C1107.83 47.4258 1105.9 48.5 1103.29 48.5ZM1105.98 35.6328C1105.42 34.6953 1104.32 34.2266 1102.68 34.2266H1099.36V45.5H1102.68C1104.39 45.5 1105.57 44.6602 1106.25 42.9805C1106.61 42.0586 1106.8 40.9609 1106.8 39.6875C1106.8 37.9297 1106.52 36.5781 1105.98 35.6328ZM1112.91 31.2266H1116.5V48.5H1112.91V31.2266ZM1130.47 48.0781C1129.52 48.6641 1128.34 48.957 1126.95 48.957C1124.66 48.957 1122.79 48.1641 1121.33 46.5781C1119.8 44.9844 1119.04 42.8047 1119.04 40.0391C1119.04 37.2422 1119.81 35 1121.35 33.3125C1122.89 31.625 1124.93 30.7812 1127.46 30.7812C1129.65 30.7812 1131.41 31.3398 1132.74 32.457C1134.08 33.5664 1134.84 34.9531 1135.04 36.6172H1131.49C1131.21 35.4375 1130.55 34.6133 1129.48 34.1445C1128.89 33.8867 1128.23 33.7578 1127.5 33.7578C1126.11 33.7578 1124.97 34.2852 1124.07 35.3398C1123.18 36.3867 1122.73 37.9648 1122.73 40.0742C1122.73 42.1992 1123.22 43.7031 1124.19 44.5859C1125.16 45.4687 1126.26 45.9102 1127.49 45.9102C1128.7 45.9102 1129.7 45.5625 1130.47 44.8672C1131.24 44.1641 1131.72 43.2461 1131.9 42.1133H1127.9V39.2305H1135.1V48.5H1132.71L1132.34 46.3437C1131.65 47.1641 1131.02 47.7422 1130.47 48.0781ZM1138.27 31.2266H1141.86V48.5H1138.27V31.2266ZM1157.79 31.2266V34.2852H1152.62V48.5H1148.98V34.2852H1143.79V31.2266H1157.79ZM1168.24 44.9492H1161.87L1160.68 48.5H1156.91L1163.07 31.2266H1167.15L1173.27 48.5H1169.35L1168.24 44.9492ZM1167.23 41.9727L1165.07 35.1758L1162.85 41.9727H1167.23ZM1175.47 31.2266H1179.08V45.3945H1187.63V48.5H1175.47V31.2266ZM1199.7 48.5H1196.34V31.2266H1201.59L1204.73 44.8086L1207.85 31.2266H1213.04V48.5H1209.68V36.8164C1209.68 36.4805 1209.68 36.0117 1209.69 35.4102C1209.7 34.8008 1209.7 34.332 1209.7 34.0039L1206.43 48.5H1202.93L1199.68 34.0039C1199.68 34.332 1199.68 34.8008 1199.69 35.4102C1199.7 36.0117 1199.7 36.4805 1199.7 36.8164V48.5ZM1226.5 44.9492H1220.14L1218.95 48.5H1215.17L1221.34 31.2266H1225.41L1231.53 48.5H1227.62L1226.5 44.9492ZM1225.5 41.9727L1223.34 35.1758L1221.11 41.9727H1225.5ZM1241.07 41.7266H1237.34V48.5H1233.82V31.2266H1242.29C1243.5 31.25 1244.43 31.3984 1245.08 31.6719C1245.73 31.9453 1246.29 32.3477 1246.74 32.8789C1247.12 33.3164 1247.41 33.8008 1247.63 34.332C1247.85 34.8633 1247.96 35.4687 1247.96 36.1484C1247.96 36.9687 1247.75 37.7773 1247.34 38.5742C1246.93 39.3633 1246.24 39.9219 1245.29 40.25C1246.09 40.5703 1246.65 41.0273 1246.98 41.6211C1247.31 42.207 1247.48 43.1055 1247.48 44.3164V45.4766C1247.48 46.2656 1247.51 46.8008 1247.57 47.082C1247.67 47.5273 1247.89 47.8555 1248.23 48.0664V48.5H1244.26C1244.15 48.1172 1244.07 47.8086 1244.02 47.5742C1243.93 47.0898 1243.88 46.5937 1243.87 46.0859L1243.85 44.4805C1243.83 43.3789 1243.63 42.6445 1243.24 42.2773C1242.86 41.9102 1242.13 41.7266 1241.07 41.7266ZM1243.26 38.5859C1243.98 38.2578 1244.34 37.6094 1244.34 36.6406C1244.34 35.5937 1243.99 34.8906 1243.3 34.5312C1242.91 34.3281 1242.32 34.2266 1241.54 34.2266H1237.34V38.8672H1241.43C1242.25 38.8672 1242.86 38.7734 1243.26 38.5859ZM1266.38 48.5H1261.74L1256.41 40.9531L1254.69 42.7227V48.5H1251.14V31.2266L1254.69 31.2266V38.3398L1261.36 31.2266H1266.02L1258.94 38.3398L1266.38 48.5ZM1280.45 40.9531H1272.05V45.3945H1281.62V48.5H1268.53V31.2266H1281.2V34.2852H1272.05V37.9531H1280.45V40.9531ZM1296.98 31.2266V34.2852H1291.81V48.5H1288.18V34.2852H1282.99V31.2266H1296.98ZM1298.82 31.2266H1302.41V48.5H1298.82V31.2266ZM1319.75 48.5H1316.14L1309.09 36.2305V48.5H1305.72V31.2266H1309.51L1316.39 43.2852V31.2266H1319.75V48.5ZM1333.72 48.0781C1332.77 48.6641 1331.59 48.957 1330.2 48.957C1327.91 48.957 1326.04 48.1641 1324.58 46.5781C1323.05 44.9844 1322.29 42.8047 1322.29 40.0391C1322.29 37.2422 1323.06 35 1324.6 33.3125C1326.14 31.625 1328.18 30.7812 1330.71 30.7812C1332.9 30.7812 1334.66 31.3398 1335.99 32.457C1337.33 33.5664 1338.09 34.9531 1338.29 36.6172H1334.74C1334.46 35.4375 1333.8 34.6133 1332.73 34.1445C1332.14 33.8867 1331.48 33.7578 1330.75 33.7578C1329.36 33.7578 1328.22 34.2852 1327.32 35.3398C1326.43 36.3867 1325.98 37.9648 1325.98 40.0742C1325.98 42.1992 1326.47 43.7031 1327.44 44.5859C1328.41 45.4687 1329.51 45.9102 1330.74 45.9102C1331.95 45.9102 1332.95 45.5625 1333.72 44.8672C1334.49 44.1641 1334.97 43.2461 1335.15 42.1133H1331.15V39.2305H1338.35V48.5H1335.96L1335.59 46.3437C1334.9 47.1641 1334.27 47.7422 1333.72 48.0781Z" fill="white"/>
</svg>
