<svg width="300" height="177" viewBox="0 0 300 177" fill="none" xmlns="http://www.w3.org/2000/svg">
<path d="M300 165.381H0V176.309H300V165.381Z" fill="#C7C7C7"/>
<path d="M273.405 0.275391H26.5904V165.38H273.405V0.275391Z" fill="#DBDBDB"/>
<path d="M271.618 2.28906H28.3873V163.364H271.618V2.28906Z" fill="#263238"/>
<path d="M260.841 12.6406H39.1536V153.005H260.841V12.6406Z" fill="white"/>
<path opacity="0.1" d="M260.846 80.442V152.996H39.1536V46.6055C48.9457 48.6275 56.231 51.5358 61.2838 55.0707C77.1175 66.1554 96.7115 90.4691 139.371 98.1559C184.718 106.322 213.193 79.5803 260.846 80.442Z" fill="#3752E9"/>
<path opacity="0.2" d="M260.846 125.211V152.996H39.1536V135.654C44.7449 133.206 51.6092 131.297 60.2066 130.171C102.758 124.638 147.983 140.565 179.572 143.679C205.923 146.283 234.702 141.593 260.846 125.211Z" fill="#3752E9"/>
<path d="M176.468 99.3711H123.537V107.043H176.468V99.3711Z" fill="#EBEBEB"/>
<path d="M129.437 101.922C129.146 102.466 128.773 102.961 128.33 103.391C127.9 103.834 127.405 104.209 126.861 104.502C127.153 103.959 127.526 103.464 127.968 103.033C128.399 102.592 128.894 102.217 129.437 101.922Z" fill="#263238"/>
<path d="M126.876 101.922C127.417 102.218 127.912 102.593 128.345 103.033C128.786 103.464 129.16 103.959 129.451 104.502C128.383 103.892 127.499 103.006 126.891 101.937L126.876 101.922Z" fill="#263238"/>
<path d="M129.965 103.203C129.377 103.375 128.767 103.458 128.154 103.447C127.541 103.46 126.93 103.377 126.342 103.203C126.93 103.03 127.541 102.948 128.154 102.958C128.766 102.95 129.377 103.032 129.965 103.203Z" fill="#263238"/>
<path d="M128.154 101.395C128.48 102.58 128.48 103.832 128.154 105.018C127.827 103.832 127.827 102.58 128.154 101.395Z" fill="#263238"/>
<path d="M135.684 101.922C135.076 102.991 134.192 103.878 133.123 104.487C133.415 103.944 133.788 103.449 134.23 103.019C134.659 102.584 135.149 102.215 135.684 101.922Z" fill="#263238"/>
<path d="M133.123 101.922C133.666 102.217 134.161 102.592 134.592 103.033C135.034 103.464 135.407 103.959 135.699 104.502C135.155 104.209 134.66 103.834 134.23 103.391C133.787 102.961 133.414 102.466 133.123 101.922Z" fill="#263238"/>
<path d="M136.218 103.203C135.63 103.375 135.019 103.457 134.406 103.448C133.793 103.461 133.182 103.378 132.595 103.203C133.183 103.03 133.793 102.947 134.406 102.958C135.019 102.95 135.629 103.033 136.218 103.203Z" fill="#263238"/>
<path d="M134.406 101.395C134.733 102.58 134.733 103.832 134.406 105.018C134.08 103.832 134.08 102.58 134.406 101.395Z" fill="#263238"/>
<path d="M141.936 101.922C141.642 102.465 141.268 102.96 140.825 103.391C140.397 103.836 139.901 104.212 139.356 104.502C139.968 103.434 140.853 102.548 141.922 101.937L141.936 101.922Z" fill="#263238"/>
<path d="M139.371 101.922C139.914 102.216 140.409 102.591 140.84 103.033C141.284 103.462 141.659 103.958 141.951 104.502C141.406 104.212 140.91 103.836 140.482 103.391C140.039 102.96 139.665 102.465 139.371 101.922Z" fill="#263238"/>
<path d="M142.465 103.203C141.877 103.375 141.266 103.458 140.653 103.447C140.041 103.46 139.429 103.378 138.842 103.203C139.43 103.03 140.041 102.948 140.653 102.958C141.266 102.95 141.876 103.033 142.465 103.203Z" fill="#263238"/>
<path d="M140.653 101.395C140.824 101.983 140.906 102.593 140.898 103.206C140.911 103.819 140.828 104.43 140.653 105.018C140.481 104.43 140.398 103.819 140.409 103.206C140.401 102.593 140.483 101.983 140.653 101.395Z" fill="#263238"/>
<path d="M148.184 101.922C147.576 102.991 146.691 103.878 145.623 104.487C145.915 103.944 146.288 103.449 146.729 103.019C147.157 102.583 147.647 102.214 148.184 101.922Z" fill="#263238"/>
<path d="M145.623 101.922C146.164 102.218 146.659 102.593 147.092 103.033C147.533 103.464 147.907 103.959 148.198 104.502C147.13 103.892 146.246 103.006 145.638 101.937L145.623 101.922Z" fill="#263238"/>
<path d="M148.712 103.203C148.124 103.375 147.514 103.458 146.901 103.447C146.288 103.46 145.677 103.377 145.089 103.203C145.677 103.03 146.288 102.948 146.901 102.958C147.513 102.95 148.124 103.032 148.712 103.203Z" fill="#263238"/>
<path d="M146.901 101.395C147.227 102.58 147.227 103.832 146.901 105.018C146.574 103.832 146.574 102.58 146.901 101.395Z" fill="#263238"/>
<path d="M185.105 103.207C185.105 103.788 184.932 104.356 184.61 104.839C184.287 105.322 183.828 105.699 183.291 105.921C182.754 106.144 182.164 106.202 181.594 106.088C181.024 105.975 180.501 105.695 180.09 105.284C179.679 104.874 179.399 104.35 179.286 103.78C179.172 103.21 179.231 102.62 179.453 102.083C179.675 101.546 180.052 101.087 180.535 100.765C181.018 100.442 181.586 100.27 182.167 100.27C182.946 100.27 183.693 100.579 184.244 101.13C184.795 101.681 185.105 102.428 185.105 103.207Z" fill="#3752E9"/>
<path d="M181.614 104.782L181.271 104.434L182.505 103.21L181.271 101.977L181.614 101.629L183.2 103.21L181.614 104.782Z" fill="white"/>
<path d="M132.237 94.9498C135.175 94.847 138.161 94.798 141.119 94.7588C144.076 94.7197 147.062 94.7344 150 94.705C152.938 94.6756 155.919 94.705 158.881 94.7588L163.322 94.8274C164.791 94.8666 166.26 94.891 167.763 94.9498C166.294 95.0036 164.825 95.0281 163.322 95.0673L158.881 95.1358C155.919 95.175 152.962 95.175 150 95.1946C147.038 95.2142 144.081 95.1946 141.119 95.1358C138.156 95.0771 135.199 95.0477 132.237 94.9498Z" fill="#263238"/>
<path d="M150 88.9219C158.284 88.9219 165 82.2062 165 73.9219C165 65.6376 158.284 58.9219 150 58.9219C141.716 58.9219 135 65.6376 135 73.9219C135 82.2062 141.716 88.9219 150 88.9219Z" fill="#EBEBEB"/>
<path d="M155.344 87.942C155.148 88.0211 154.948 88.0898 154.746 88.1551C154.738 88.1577 154.729 88.1577 154.722 88.1551C153.477 88.5679 152.182 88.8141 150.873 88.8871C150.801 88.6018 150.735 88.3166 150.67 88.0348C150.605 87.753 150.546 87.4472 150.509 87.1826C150.445 86.7896 150.419 86.3915 150.43 85.9936C150.426 85.9777 150.426 85.9613 150.43 85.9455C150.43 85.8974 150.43 85.8527 150.43 85.8115C150.43 85.7668 150.43 85.7255 150.43 85.6843C150.45 85.4957 150.497 85.3107 150.567 85.1345C150.578 85.1023 150.592 85.0713 150.608 85.0417V85.0176C150.691 84.837 150.833 84.6894 151.01 84.5985C151.187 84.5075 151.389 84.4785 151.584 84.5159C151.788 84.5484 151.985 84.6134 152.168 84.7084C152.288 84.762 152.403 84.8252 152.512 84.8974C153.444 85.5588 154.247 86.3858 154.88 87.3372C155.058 87.5468 155.199 87.7462 155.344 87.942Z" fill="#AD6359"/>
<path d="M155.536 87.8722C155.471 87.8963 155.409 87.9238 155.344 87.9444C155.148 88.0234 154.948 88.0922 154.746 88.1575C154.738 88.1601 154.729 88.1601 154.722 88.1575C153.477 88.5703 152.182 88.8164 150.873 88.8894H150.732C150.701 88.7314 150.667 88.5801 150.639 88.4324C150.577 88.1197 150.529 87.8276 150.495 87.5527C150.474 87.4083 150.457 87.2709 150.447 87.1403C150.413 86.8161 150.403 86.49 150.416 86.1643C150.416 86.1643 150.416 86.1643 150.416 86.1437C150.419 86.0288 150.428 85.9141 150.443 85.8001C150.443 85.7554 150.443 85.7142 150.443 85.6729C150.461 85.5627 150.485 85.4537 150.515 85.3465C150.515 85.2881 150.546 85.2331 150.564 85.1815C150.568 85.1616 150.573 85.1421 150.581 85.1231C150.592 85.091 150.605 85.0599 150.622 85.0303V85.0063C150.656 84.9286 150.696 84.8538 150.742 84.7829C150.778 84.7309 150.817 84.6815 150.859 84.6351L150.918 84.5767C150.944 84.5499 150.972 84.5257 151.003 84.5045C151.1 84.4324 151.21 84.3809 151.326 84.3533L151.447 84.3293C151.54 84.3173 151.635 84.3173 151.729 84.3293C152.013 84.3679 152.287 84.4651 152.533 84.6145C153.36 85.1414 154.071 85.8312 154.622 86.642L155.536 87.8722Z" fill="#3752E9"/>
<path opacity="0.1" d="M154.746 88.1568C154.738 88.1594 154.729 88.1594 154.722 88.1568C153.477 88.5696 152.183 88.8157 150.873 88.8887H150.732C150.701 88.7307 150.667 88.5795 150.639 88.4317C150.577 88.119 150.529 87.8269 150.495 87.552C150.474 87.4111 150.461 87.2736 150.45 87.143C150.414 86.8179 150.403 86.4905 150.416 86.1636C150.416 86.1636 150.416 86.1636 150.416 86.143C150.416 86.1224 150.416 86.0365 150.416 85.985C150.412 85.9691 150.412 85.9527 150.416 85.9368C150.431 85.7385 150.463 85.5419 150.512 85.3492C150.512 85.2908 150.543 85.2358 150.56 85.1843C150.577 85.1329 150.596 85.0824 150.619 85.0331V85.009C150.652 84.9313 150.693 84.8566 150.739 84.7856C150.774 84.7336 150.813 84.6842 150.856 84.6379L150.914 84.5795C150.94 84.5526 150.969 84.5284 151 84.5073C151.096 84.4351 151.206 84.3836 151.323 84.3561L151.443 84.332L151.595 84.5073L152.471 85.5382C153.124 86.2908 153.845 87.119 154.591 87.9987C154.66 88.0571 154.701 88.1087 154.746 88.1568Z" fill="black"/>
<path d="M154.722 88.1665C153.477 88.5793 152.182 88.8254 150.873 88.8984H150.732C150.488 88.8984 150.244 88.9156 150 88.9156C149.091 88.9166 148.183 88.8349 147.289 88.6716C147.241 88.6716 147.189 88.6545 147.141 88.6407C146.021 88.423 144.93 88.0771 143.89 87.6098C144.462 86.6937 145.124 85.8372 145.866 85.0531C146.038 84.8813 146.21 84.7232 146.381 84.5789C146.635 84.3625 146.906 84.1682 147.192 83.9981C147.401 83.8733 147.62 83.7653 147.845 83.6751C149.247 83.1184 150.567 83.4689 151.753 84.3349C151.907 84.4483 152.058 84.5686 152.206 84.6991L152.271 84.7541C152.367 84.851 152.455 84.9543 152.536 85.0634C152.945 85.5823 153.735 86.6785 154.619 87.9878L154.722 88.1665Z" fill="#3752E9"/>
<path d="M148.426 85.33C148.135 86.4859 147.703 87.6018 147.141 88.653C146.021 88.4353 144.93 88.0894 143.89 87.6221C143.591 87.4881 143.292 87.3437 143.003 87.1891C143.67 86.5691 144.37 85.9852 145.1 85.4399C145.505 85.1444 145.952 84.842 146.381 84.5911C146.82 84.298 147.317 84.1056 147.838 84.0276C148.34 84.0173 148.625 84.354 148.426 85.33Z" fill="#AD6359"/>
<path d="M148.498 85.4202C148.276 86.2903 147.977 87.139 147.605 87.9563C147.502 88.1934 147.399 88.4339 147.289 88.6813C147.241 88.6813 147.189 88.6642 147.141 88.6504C146.021 88.4327 144.93 88.0868 143.89 87.6195C143.591 87.4855 143.292 87.3411 143.003 87.1865C142.928 87.1487 142.856 87.1075 142.784 87.0662C143.199 86.6951 143.588 86.3789 143.935 86.1006C145.385 84.9803 146.45 84.3068 147.192 84.0078C147.4 83.92 147.618 83.861 147.842 83.8325C148.574 83.7707 148.735 84.3617 148.498 85.4202Z" fill="#3752E9"/>
<path d="M147.849 84.4002C147.942 84.8298 149.945 87.6339 151.9 87.572C152.54 87.548 152.588 84.0634 152.588 84.0634L152.649 83.8091L153.505 80.2146L149.313 77.438L148.704 77.0703C148.704 77.0703 148.536 78.0703 148.337 79.3143C148.337 79.3727 148.316 79.4311 148.309 79.493C148.302 79.5548 148.282 79.627 148.271 79.6957L148.179 80.2593C148.158 80.4036 148.137 80.5445 148.12 80.6957C148.103 80.8469 148.079 80.9981 148.058 81.1493C147.913 82.2268 147.843 83.313 147.849 84.4002Z" fill="#AD6359"/>
<path d="M148.323 79.3143C148.672 80.3319 149.239 81.2612 149.984 82.0375C150.728 82.8137 151.633 83.4183 152.636 83.8091L153.491 80.2146L149.313 77.438L148.704 77.0703C148.704 77.0703 148.522 78.0566 148.323 79.3143Z" fill="#263238"/>
<path d="M153.478 67.6236C153.479 67.6007 153.479 67.5777 153.478 67.5548C153.411 67.2148 153.222 66.9113 152.945 66.7026C152.833 66.6147 152.708 66.5452 152.574 66.4964L152.471 66.4552L152.498 66.4311C152.581 66.3657 152.652 66.2881 152.711 66.2009C152.838 66.0249 152.912 65.8162 152.924 65.5995C152.942 65.3737 152.892 65.1478 152.783 64.9495C152.674 64.7511 152.509 64.5889 152.309 64.4827C152.41 64.3698 152.476 64.2306 152.5 64.0813C152.523 63.9321 152.504 63.7792 152.443 63.6408C152.366 63.4844 152.259 63.3448 152.129 63.2298C151.998 63.1148 151.845 63.0268 151.68 62.9707C151.708 62.815 151.697 62.6549 151.647 62.5049C151.597 62.3548 151.511 62.2196 151.395 62.1115C151.24 61.9796 151.044 61.9072 150.84 61.9072C150.637 61.9072 150.44 61.9796 150.285 62.1115C150.025 61.5944 149.583 61.1908 149.045 60.9775C148.816 60.8998 148.57 60.8909 148.337 60.952C148.103 61.0131 147.893 61.1415 147.732 61.3212C147.582 61.134 147.393 60.9808 147.179 60.8719C146.965 60.763 146.731 60.7008 146.491 60.6894C146.251 60.678 146.012 60.7177 145.788 60.8059C145.565 60.8941 145.363 61.0287 145.196 61.2009C145.022 61.0844 144.821 61.0155 144.612 61.001C144.404 60.9865 144.195 61.027 144.007 61.1184C143.739 61.2328 143.503 61.4109 143.32 61.6373C143.157 61.5466 142.971 61.5088 142.786 61.5291C142.601 61.5495 142.427 61.6269 142.289 61.7507C142.162 61.8711 142.065 62.018 142.002 62.1809C141.94 62.3437 141.914 62.5184 141.928 62.6923C141.874 62.7795 141.801 62.8534 141.715 62.9088C141.499 63.0472 141.322 63.2366 141.197 63.4602C141.072 63.6838 141.005 63.9346 141 64.1906C140.855 64.2317 140.72 64.3032 140.604 64.4006C140.489 64.4979 140.396 64.6187 140.331 64.755C140.265 64.8913 140.23 65.0398 140.227 65.1908C140.224 65.3418 140.253 65.4916 140.313 65.6305C140.052 65.8037 139.869 66.0728 139.805 66.3796C139.74 66.6863 139.799 67.0061 139.969 67.2696C139.781 67.4252 139.628 67.6191 139.521 67.8383C139.414 68.0576 139.355 68.2972 139.347 68.5411C139.326 68.7365 139.362 68.9338 139.451 69.109C139.54 69.2842 139.678 69.4296 139.849 69.5274C139.754 69.6429 139.706 69.7893 139.713 69.9384C139.72 70.0875 139.782 70.2287 139.887 70.3349C139.961 70.4193 140.044 70.4953 140.134 70.5617C140.262 70.6308 140.378 70.7202 140.478 70.8263C140.53 70.9561 140.553 71.0956 140.546 71.2353C140.56 71.3305 140.584 71.4238 140.619 71.5136C140.748 71.8504 140.99 72.1322 141.303 72.3119C141.615 72.4915 141.981 72.5579 142.337 72.4999C142.396 72.742 142.525 72.9611 142.709 73.1299C142.892 73.2986 143.122 73.4094 143.368 73.4483C143.521 73.4871 143.677 73.5124 143.835 73.5239C143.978 73.526 144.116 73.5703 144.234 73.6511C144.306 73.7095 144.364 73.7851 144.44 73.8435L144.515 73.8985C144.755 74.0213 145.029 74.0589 145.292 74.005C145.302 74.062 145.316 74.1182 145.333 74.1734C145.387 74.3625 145.483 74.537 145.614 74.6835C145.745 74.83 145.907 74.9446 146.089 75.0188C146.129 75.0367 146.171 75.0516 146.213 75.0634L146.316 75.0909C146.383 75.1077 146.451 75.1191 146.519 75.1253C146.869 75.1547 147.22 75.0742 147.522 74.8951C147.604 74.8498 147.68 74.7957 147.749 74.7335C147.841 74.6583 147.924 74.573 147.997 74.4792C148.247 74.6557 148.543 74.7548 148.849 74.7645C149.101 74.7723 149.352 74.713 149.574 74.5927C149.774 74.4813 149.943 74.3219 150.065 74.1287C150.247 73.8632 150.34 73.5467 150.33 73.2249C150.502 73.339 150.696 73.4151 150.9 73.4483C151.104 73.4814 151.313 73.4709 151.512 73.4174C151.681 73.3657 151.837 73.2777 151.969 73.1597C152.019 73.1167 152.064 73.0683 152.103 73.0153C152.276 72.794 152.372 72.5228 152.378 72.2421C152.383 71.9615 152.298 71.6866 152.134 71.4586C152.282 71.7138 152.341 72.0114 152.3 72.3037C152.258 72.596 152.12 72.866 151.907 73.0703C151.73 73.223 151.511 73.3196 151.278 73.3477C151.046 73.3759 150.81 73.3344 150.601 73.2284C150.822 73.2472 151.044 73.2203 151.254 73.1493C151.464 73.0784 151.657 72.9649 151.821 72.816C151.999 72.6448 152.122 72.4248 152.174 72.1839C152.227 71.9429 152.207 71.6917 152.117 71.4621C152.389 71.3704 152.636 71.2164 152.838 71.0123C153.041 70.8083 153.192 70.5599 153.282 70.2868C153.346 70.0522 153.341 69.804 153.267 69.5723C153.194 69.3405 153.054 69.1351 152.866 68.981C153.135 68.8061 153.339 68.5477 153.447 68.2456C153.487 68.1468 153.513 68.0426 153.522 67.9363C153.527 67.9056 153.527 67.8742 153.522 67.8435C153.525 67.84 153.526 67.8358 153.526 67.8315C153.526 67.8272 153.525 67.823 153.522 67.8195C153.516 67.7524 153.501 67.6866 153.478 67.6236ZM143.271 61.7061C143.271 61.7061 143.141 61.7061 143.079 61.7061C142.962 61.7142 142.846 61.7385 142.735 61.7782C142.507 61.8613 142.308 62.0109 142.165 62.2078C142.104 62.2965 142.055 62.3923 142.017 62.493V62.5308C142.043 62.3199 142.126 62.1202 142.258 61.9535C142.382 61.8027 142.551 61.6945 142.74 61.644C142.929 61.5935 143.129 61.6032 143.313 61.6717L143.271 61.7061ZM151.337 62.1734C151.439 62.2675 151.514 62.3872 151.555 62.5201C151.595 62.653 151.599 62.7943 151.567 62.9294C151.537 62.7444 151.458 62.5709 151.337 62.4277C151.215 62.2867 151.053 62.1866 150.872 62.1411C150.691 62.0956 150.501 62.1069 150.326 62.1734C150.32 62.1647 150.314 62.1555 150.309 62.1459C150.457 62.0298 150.64 61.969 150.828 61.9741C151.016 61.9791 151.196 62.0496 151.337 62.1734ZM146.46 75.0222C146.399 75.0178 146.339 75.0098 146.278 74.9981L146.179 74.9707C146.122 74.954 146.067 74.9321 146.014 74.9054C145.848 74.8216 145.701 74.7045 145.583 74.5614C145.465 74.4183 145.378 74.2522 145.326 74.0737C145.316 74.0491 145.307 74.0239 145.299 73.9981L145.323 74.0463C145.466 74.3183 145.681 74.5455 145.945 74.7026C146.016 74.7436 146.089 74.7792 146.165 74.8091L146.265 74.8435C146.313 74.8609 146.362 74.8747 146.412 74.8847C146.758 74.964 147.12 74.9278 147.443 74.7817C147.144 74.9508 146.804 75.0341 146.46 75.0222Z" fill="#263238"/>
<path d="M158.199 74.4153C159.536 80.7556 155.887 82.2745 154.519 82.5597C153.275 82.8208 149.021 83.5494 147.031 77.3775C145.041 71.2057 147.574 68.5803 150.381 67.8346C153.189 67.0889 156.873 68.0717 158.199 74.4153Z" fill="#AD6359"/>
<path d="M156.636 73.593C156.487 73.6016 156.338 73.6016 156.189 73.593C156.031 73.6122 155.872 73.5784 155.735 73.4968C155.697 73.4627 155.671 73.4169 155.662 73.3664C155.652 73.316 155.66 73.2639 155.684 73.2184C155.743 73.1353 155.823 73.0696 155.916 73.0285C156.009 72.9873 156.112 72.9722 156.213 72.9847C156.42 72.9761 156.624 73.0446 156.783 73.1772C156.815 73.2103 156.837 73.2515 156.846 73.2962C156.856 73.3409 156.853 73.3874 156.837 73.4304C156.822 73.4735 156.795 73.5115 156.759 73.5402C156.724 73.5689 156.681 73.5871 156.636 73.593Z" fill="#263238"/>
<path d="M152.151 74.5265C152.293 74.4763 152.431 74.419 152.567 74.3546C152.721 74.3131 152.857 74.2226 152.955 74.0969C152.978 74.0515 152.985 73.9998 152.975 73.9499C152.965 73.9001 152.939 73.855 152.9 73.822C152.815 73.7661 152.717 73.734 152.615 73.7292C152.514 73.7243 152.413 73.7469 152.323 73.7945C152.126 73.8626 151.961 74.0008 151.859 74.1828C151.839 74.2258 151.831 74.2738 151.837 74.321C151.844 74.3683 151.863 74.4127 151.894 74.4489C151.925 74.4852 151.966 74.5118 152.011 74.5256C152.057 74.5393 152.105 74.5396 152.151 74.5265Z" fill="#263238"/>
<path d="M153.454 75.9023C153.454 75.8851 153.426 75.9298 153.43 75.947C153.536 76.3765 153.584 76.8851 153.223 77.1085C153.223 77.1085 153.223 77.1394 153.223 77.1325C153.694 76.9642 153.622 76.2906 153.454 75.9023Z" fill="#263238"/>
<path d="M152.972 75.5306C152.285 75.6268 152.509 77.0288 153.162 76.9429C153.814 76.857 153.564 75.4515 152.972 75.5306Z" fill="#263238"/>
<path d="M152.711 75.6537C152.601 75.7533 152.505 75.9148 152.368 75.9526C152.23 75.9904 152.045 75.8736 151.907 75.7533C151.907 75.7533 151.883 75.7533 151.887 75.7739C151.928 76.042 152.079 76.2997 152.375 76.2928C152.67 76.286 152.794 76.011 152.814 75.7293C152.811 75.6777 152.749 75.6124 152.711 75.6537Z" fill="#263238"/>
<path d="M155.969 75.2617C155.969 75.2617 156.007 75.2789 156.01 75.2961C156.069 75.7325 156.206 76.2239 156.625 76.3064V76.3304C156.134 76.3442 155.955 75.6878 155.969 75.2617Z" fill="#263238"/>
<path d="M156.285 74.7406C156.973 74.5722 157.261 75.9708 156.629 76.1152C155.997 76.2595 155.704 74.8815 156.285 74.7406Z" fill="#263238"/>
<path d="M156.595 74.7749C156.722 74.8265 156.856 74.9364 156.99 74.9192C157.124 74.9021 157.227 74.7234 157.296 74.5584C157.296 74.5412 157.316 74.5584 157.32 74.5584C157.381 74.823 157.351 75.1186 157.103 75.2217C156.856 75.3247 156.66 75.122 156.543 74.878C156.529 74.8368 156.529 74.7543 156.595 74.7749Z" fill="#263238"/>
<path d="M154.33 79.2652C154.447 79.3546 154.57 79.4817 154.732 79.4748C154.894 79.4509 155.05 79.3935 155.189 79.3065C155.189 79.3065 155.216 79.3065 155.21 79.3271C155.158 79.4207 155.081 79.4985 154.989 79.5523C154.896 79.6062 154.791 79.634 154.684 79.6329C154.592 79.621 154.505 79.582 154.436 79.5208C154.366 79.4596 154.316 79.379 154.292 79.2893C154.282 79.2652 154.313 79.2515 154.33 79.2652Z" fill="#263238"/>
<path d="M155.842 77.3715C155.842 77.3715 156.052 78.0038 156.107 78.3096C156.107 78.3371 156.041 78.3646 155.938 78.3921C155.685 78.4892 155.409 78.5143 155.142 78.4646C154.875 78.4149 154.628 78.2922 154.426 78.1103C154.419 78.1048 154.415 78.0969 154.414 78.0882C154.413 78.0795 154.415 78.0707 154.421 78.0639C154.426 78.0571 154.434 78.0527 154.443 78.0517C154.452 78.0508 154.461 78.0533 154.467 78.0588C154.906 78.2543 155.397 78.3026 155.866 78.1962C155.866 78.1069 155.471 77.1241 155.522 77.1137C155.763 77.0911 156.006 77.1004 156.244 77.1412C155.849 75.8148 155.244 74.5605 154.869 73.2306C154.865 73.2206 154.864 73.2091 154.868 73.1988C154.872 73.1885 154.88 73.1802 154.89 73.1756C154.9 73.171 154.911 73.1707 154.922 73.1745C154.932 73.1784 154.94 73.1862 154.945 73.1962C155.636 74.5212 156.193 75.9118 156.608 77.3474C156.66 77.5055 155.99 77.3921 155.842 77.3715Z" fill="#263238"/>
<path d="M155.694 78.3587C155.575 78.6001 155.395 78.8063 155.172 78.9566C155.049 79.0349 154.905 79.0722 154.759 79.0631C154.44 79.0425 154.378 78.7642 154.388 78.5168C154.394 78.384 154.416 78.2525 154.454 78.125C154.832 78.3327 155.266 78.4145 155.694 78.3587Z" fill="#263238"/>
<path d="M155.172 78.9569C155.049 79.0352 154.905 79.0725 154.759 79.0635C154.44 79.0429 154.378 78.7645 154.388 78.5171C154.549 78.491 154.715 78.5203 154.857 78.6002C154.999 78.6801 155.11 78.8058 155.172 78.9569Z" fill="#FF9BBC"/>
<path d="M147.43 77.1516C148.629 77.2581 148.842 74.5124 148.842 74.5124C148.842 74.5124 153.904 73.4815 154.189 69.3097C154.89 70.9742 156.206 72.3046 157.863 73.0244C157.863 73.0244 157.519 68.4849 153.893 67.7289C153.893 67.7289 149.364 66.2547 146.973 69.8939C144.581 73.533 146.625 77.076 147.43 77.1516Z" fill="#263238"/>
<path d="M154.196 69.0039C154.279 69.6416 154.224 70.2898 154.034 70.9042C153.858 71.534 153.552 72.1195 153.134 72.6225C153.026 72.7437 152.912 72.8584 152.79 72.9661L152.622 73.1379C152.56 73.1929 152.495 73.241 152.43 73.2926C152.302 73.3888 152.179 73.4919 152.045 73.5847C151.911 73.6774 151.77 73.7496 151.629 73.8286L151.419 73.9489L151.196 74.0417L150.756 74.2307C150.45 74.3269 150.141 74.406 149.835 74.4816C150.124 74.3441 150.419 74.2376 150.701 74.1001L151.113 73.8802L151.32 73.7702C151.388 73.729 151.45 73.6843 151.515 73.6396L151.9 73.3785C152.021 73.2857 152.137 73.1826 152.244 73.0829L152.423 72.9352L152.581 72.7668C152.691 72.6589 152.794 72.5441 152.89 72.4231C153.284 71.9482 153.593 71.4088 153.804 70.8286C153.913 70.5371 153.998 70.2372 154.058 69.9317C154.132 69.6271 154.178 69.3166 154.196 69.0039Z" fill="#263238"/>
<path d="M147.718 79.4568C147.819 79.4829 147.923 79.4968 148.028 79.498C148.129 79.5038 148.231 79.4946 148.33 79.4705C148.455 79.4406 148.572 79.3844 148.674 79.3056C148.757 79.243 148.831 79.1689 148.893 79.0857C148.984 78.9698 149.051 78.8381 149.093 78.6973L148.543 77.0272C148.543 77.0272 146.893 75.1887 146.045 75.8004C145.196 76.4121 146.601 79.1922 147.718 79.4568Z" fill="#AD6359"/>
<path d="M146.467 76.5786C146.45 76.5786 146.45 76.6061 146.467 76.6095C147.254 76.8226 147.735 77.4686 148.1 78.1559C148.047 78.0862 147.979 78.0287 147.902 77.9875C147.825 77.9462 147.739 77.9222 147.652 77.917C147.564 77.9118 147.477 77.9255 147.395 77.9572C147.313 77.989 147.24 78.038 147.179 78.1009C147.179 78.1181 147.179 78.1456 147.206 78.1387C147.333 78.0831 147.474 78.0671 147.61 78.0928C147.746 78.1186 147.871 78.1849 147.969 78.283C148.13 78.4521 148.273 78.6375 148.395 78.8363C148.44 78.8982 148.557 78.8363 148.519 78.7744V78.7573C148.412 77.7985 147.505 76.5511 146.467 76.5786Z" fill="#263238"/>
<path d="M147.777 79.1746C147.795 79.2308 147.83 79.2801 147.877 79.3163C147.924 79.3526 147.98 79.3742 148.039 79.3784C148.098 79.3826 148.157 79.3693 148.208 79.34C148.26 79.3107 148.301 79.2668 148.328 79.2139C148.354 79.161 148.364 79.1015 148.357 79.0428C148.35 78.9841 148.325 78.929 148.286 78.8843C148.247 78.8396 148.196 78.8074 148.139 78.7918C148.082 78.7762 148.022 78.7779 147.966 78.7966C147.89 78.8217 147.828 78.8756 147.793 78.9465C147.757 79.0174 147.752 79.0994 147.777 79.1746Z" fill="white"/>
<path d="M147.11 78.8021C147.132 78.85 147.17 78.8882 147.219 78.9093C147.267 78.9304 147.321 78.9328 147.371 78.9162C147.421 78.8995 147.463 78.8649 147.489 78.8191C147.515 78.7733 147.523 78.7195 147.512 78.668C147.494 78.6149 147.456 78.571 147.406 78.5459C147.355 78.5208 147.297 78.5166 147.244 78.534C147.217 78.5425 147.193 78.5563 147.172 78.5745C147.15 78.5927 147.133 78.6149 147.121 78.6398C147.108 78.6648 147.101 78.692 147.099 78.7199C147.097 78.7477 147.101 78.7757 147.11 78.8021Z" fill="white"/>
<path d="M147.251 79.2476C147.282 79.5432 146.347 78.605 146.292 78.4573C146.237 78.3095 145.605 77.9177 145.447 77.636C145.215 77.2156 145.025 76.7737 144.88 76.3164C144.842 76.1136 144.43 75.6291 144.405 75.2614C144.381 74.8937 144.306 71.6566 146.33 69.3439C148.354 67.0311 150.268 66.7597 150.268 66.7597C151.227 66.5387 152.208 66.4235 153.192 66.416C154.784 66.416 157.316 69.9796 157.316 70.0586C157.277 70.2421 157.277 70.4319 157.316 70.6153C157.406 70.8353 157.66 71.0483 157.553 71.2717C157.447 71.4951 157.801 72.0208 157.811 72.2511C157.821 72.4813 157.766 72.5432 157.811 72.6978C157.856 72.8524 156.873 68.8937 151.935 67.8181C151.935 67.8181 146.564 72.904 147.251 79.2476Z" fill="#3752E9"/>
<path d="M157.828 72.6719C157.827 72.6867 157.827 72.7017 157.828 72.7165V72.6719Z" fill="#3752E9"/>
<path d="M157.828 72.6719V72.7165C157.828 72.7165 157.842 72.7131 157.828 72.6719Z" fill="#3752E9"/>
<path opacity="0.3" d="M144.873 74.5589C144.84 74.4716 144.779 74.3979 144.699 74.3493C144.619 74.3008 144.526 74.2802 144.433 74.2908C144.412 74.5795 144.406 74.8166 144.406 74.9781V75.0949C144.476 75.1153 144.551 75.1153 144.622 75.0949C144.674 75.0765 144.722 75.048 144.762 75.011C144.803 74.974 144.836 74.9292 144.859 74.8793C144.883 74.8295 144.896 74.7755 144.898 74.7204C144.901 74.6654 144.892 74.6105 144.873 74.5589ZM145.309 76.9644C145.286 76.901 145.249 76.8441 145.199 76.7986C145.149 76.7531 145.089 76.7204 145.024 76.7032C145.1 76.8922 145.196 77.1121 145.285 77.2977C145.311 77.2485 145.327 77.1943 145.331 77.1387C145.335 77.0831 145.328 77.0272 145.309 76.9747V76.9644ZM146.495 75.796C146.477 75.7461 146.449 75.7004 146.412 75.662C146.369 75.6114 146.313 75.5725 146.251 75.5486H146.206H146.155C146.091 75.5375 146.025 75.5447 145.966 75.5692C145.915 75.5876 145.868 75.6159 145.828 75.6525C145.788 75.6891 145.755 75.7332 145.732 75.7824C145.709 75.8316 145.696 75.8848 145.694 75.939C145.691 75.9932 145.7 76.0474 145.718 76.0984C145.735 76.1501 145.763 76.1972 145.801 76.2358C145.843 76.2836 145.897 76.3204 145.957 76.3431C146.016 76.3658 146.081 76.3738 146.144 76.3664C146.171 76.3607 146.196 76.3515 146.22 76.3389H146.237C146.334 76.3028 146.414 76.2317 146.461 76.1396C146.489 76.0896 146.507 76.0341 146.513 75.9766C146.519 75.9192 146.513 75.8611 146.495 75.8063V75.796ZM145.227 72.3114C145.2 72.2347 145.15 72.1679 145.084 72.1195C145.019 72.0712 144.94 72.0435 144.859 72.04C144.858 72.0491 144.858 72.0584 144.859 72.0675C144.828 72.1671 144.801 72.2633 144.773 72.3595L144.753 72.4352C144.725 72.5417 144.698 72.6482 144.674 72.7513C144.674 72.7754 144.674 72.796 144.656 72.82C144.706 72.8464 144.761 72.8618 144.817 72.8654C144.874 72.8689 144.93 72.8605 144.983 72.8407C145.083 72.8034 145.165 72.7282 145.211 72.6311C145.257 72.5341 145.262 72.423 145.227 72.3217V72.3114ZM147.732 74.3733C147.654 74.4027 147.586 74.4546 147.538 74.5226C147.49 74.5905 147.463 74.6714 147.46 74.7547C147.459 74.7992 147.466 74.8435 147.481 74.8853C147.506 74.9537 147.549 75.0142 147.605 75.0606C147.636 74.9403 147.67 74.8235 147.704 74.7169C147.739 74.6104 147.746 74.576 147.77 74.5073C147.77 74.5073 147.77 74.5073 147.77 74.4901C147.77 74.4729 147.797 74.3939 147.814 74.3458C147.785 74.3589 147.758 74.375 147.732 74.3939V74.3733ZM147.196 78.1327V78.064C147.196 77.9919 147.196 77.9197 147.196 77.8475C147.196 77.8132 147.196 77.7788 147.196 77.7444C147.181 77.741 147.166 77.741 147.151 77.7444C147.09 77.7292 147.027 77.7292 146.966 77.7444C146.87 77.7803 146.792 77.8501 146.745 77.9405C146.698 78.0309 146.686 78.1355 146.712 78.2341C146.737 78.3327 146.798 78.4183 146.883 78.4744C146.968 78.5306 147.071 78.5533 147.172 78.5382H147.199C147.199 78.418 147.196 78.2839 147.196 78.1534V78.1327ZM146.852 73.3767L146.821 73.3114C146.806 73.2854 146.787 73.2612 146.766 73.2393C146.712 73.1802 146.641 73.1386 146.562 73.1196C146.484 73.1007 146.402 73.1052 146.326 73.1327C146.275 73.1512 146.229 73.1795 146.188 73.2161C146.148 73.2527 146.116 73.2968 146.093 73.346C146.07 73.3951 146.057 73.4484 146.054 73.5026C146.052 73.5568 146.06 73.611 146.079 73.662C146.101 73.7206 146.136 73.7736 146.181 73.817C146.226 73.8604 146.281 73.8932 146.34 73.9128H146.423C146.457 73.9214 146.492 73.9214 146.526 73.9128C146.554 73.9121 146.582 73.9062 146.608 73.8956C146.705 73.8591 146.784 73.7875 146.83 73.695C146.876 73.6026 146.885 73.4963 146.856 73.3974L146.852 73.3767ZM146.667 70.2393C146.629 70.1363 146.553 70.0524 146.453 70.006C146.354 69.9596 146.24 69.9545 146.137 69.9919C146.034 70.0292 145.951 70.106 145.904 70.2052C145.858 70.3045 145.853 70.4181 145.89 70.5211C145.908 70.5721 145.937 70.619 145.973 70.6591C146.01 70.6992 146.054 70.7317 146.103 70.7546C146.152 70.7776 146.206 70.7907 146.26 70.7931C146.314 70.7954 146.368 70.7871 146.419 70.7685L146.478 70.741C146.549 70.7032 146.608 70.6445 146.645 70.5727C146.683 70.5008 146.697 70.4193 146.687 70.3389C146.684 70.3122 146.678 70.2857 146.67 70.2599L146.667 70.2393ZM149.722 69.5692C149.697 69.5008 149.655 69.4402 149.6 69.3937C149.544 69.3472 149.477 69.3164 149.406 69.3046H149.333C149.285 69.3045 149.238 69.3126 149.192 69.3286C149.156 69.3406 149.122 69.3593 149.093 69.3836C149.032 69.432 148.986 69.4962 148.959 69.5692C148.933 69.6429 148.928 69.7225 148.945 69.7987C148.963 69.875 149.001 69.9447 149.057 69.9998C149.112 70.055 149.182 70.0932 149.259 70.11C149.335 70.1268 149.414 70.1216 149.488 70.0949C149.59 70.0563 149.673 69.9793 149.719 69.8805C149.765 69.7817 149.771 69.6688 149.735 69.5657L149.722 69.5692ZM150.753 67.5073V67.4867C150.719 67.3979 150.653 67.3253 150.567 67.2839C150.519 67.2574 150.466 67.2412 150.412 67.2364C150.357 67.2317 150.303 67.2385 150.251 67.2565H150.234C150.153 67.2858 150.083 67.3397 150.035 67.4105C149.986 67.4814 149.961 67.5657 149.962 67.6516C149.961 67.6975 149.969 67.743 149.986 67.7857C150.003 67.829 150.026 67.8696 150.055 67.9059C150.108 67.9684 150.177 68.0148 150.254 68.04C150.338 68.0675 150.428 68.0675 150.512 68.04C150.566 68.0222 150.614 67.9915 150.653 67.9506C150.712 67.8957 150.753 67.8248 150.772 67.7466C150.791 67.6684 150.787 67.5865 150.759 67.5107L150.753 67.5073ZM152.918 66.418H152.869H152.584H152.45H152.306H152.134C152.129 66.4556 152.129 66.4937 152.134 66.5314C152.132 66.552 152.132 66.5726 152.134 66.5932L152.155 66.662C152.168 66.7031 152.189 66.7415 152.217 66.7754C152.253 66.8224 152.299 66.8608 152.352 66.8881C152.405 66.9155 152.463 66.9309 152.522 66.9334C152.583 66.9361 152.643 66.9255 152.699 66.9024C152.755 66.8792 152.805 66.8441 152.845 66.7994C152.887 66.7542 152.917 66.7002 152.935 66.6413C152.951 66.5734 152.95 66.5025 152.931 66.4351L152.918 66.418ZM148.296 71.6242C148.258 71.5212 148.181 71.4372 148.082 71.3908C147.983 71.3444 147.869 71.3394 147.766 71.3767C147.663 71.4141 147.579 71.4908 147.533 71.5901C147.487 71.6893 147.482 71.803 147.519 71.9059C147.562 72.0045 147.642 72.0822 147.742 72.1225C147.842 72.1628 147.953 72.1626 148.053 72.1217C148.152 72.0809 148.232 72.0028 148.275 71.9041C148.318 71.8053 148.32 71.6938 148.282 71.5932L148.296 71.6242ZM147.952 68.0846C147.943 68.0578 147.93 68.0324 147.914 68.009L147.89 67.9781C147.876 67.9573 147.858 67.9388 147.839 67.9231C147.787 67.9575 147.735 67.9987 147.684 68.04C147.543 68.1465 147.402 68.2668 147.258 68.3836L147.21 68.4248C147.231 68.4595 147.258 68.4907 147.289 68.5176C147.344 68.5706 147.413 68.6068 147.488 68.6221C147.562 68.6373 147.64 68.6308 147.711 68.6035C147.811 68.5669 147.893 68.4932 147.94 68.3979C147.986 68.3025 147.994 68.1927 147.962 68.0915L147.952 68.0846ZM156.887 70.1465C156.851 70.0492 156.78 69.9691 156.687 69.9219C156.595 69.8748 156.488 69.8642 156.388 69.8922H156.357H156.326H156.296C156.238 69.9248 156.19 69.9708 156.155 70.0262C156.342 70.2148 156.518 70.4132 156.684 70.6207C156.717 70.6042 156.749 70.5834 156.777 70.5589C156.798 70.5376 156.817 70.5146 156.835 70.4901C156.856 70.461 156.873 70.4285 156.883 70.3939C156.917 70.3185 156.927 70.2345 156.911 70.1534L156.887 70.1465ZM154.003 68.1843C153.989 68.143 153.966 68.1046 153.938 68.0709C153.884 68.003 153.811 67.9537 153.728 67.9296C153.644 67.9056 153.556 67.9081 153.474 67.9369H153.454C153.399 67.9587 153.351 67.9922 153.311 68.035C153.271 68.0777 153.241 68.1287 153.223 68.1843L153.378 68.2461L153.591 68.3321C153.663 68.3595 153.735 68.3939 153.808 68.4283L153.983 68.5073C154.011 68.4597 154.03 68.4069 154.037 68.352C154.045 68.2972 154.042 68.2413 154.028 68.1877L154.003 68.1843ZM156.1 68.5279L155.979 68.3905L155.832 68.229L155.718 68.1053C155.64 68.1011 155.563 68.1193 155.494 68.1576C155.426 68.196 155.37 68.2529 155.333 68.3217C155.319 68.349 155.309 68.3778 155.302 68.4077C155.286 68.4764 155.287 68.5484 155.306 68.6166C155.325 68.6847 155.361 68.7468 155.411 68.7969C155.462 68.8469 155.524 68.8833 155.592 68.9024C155.66 68.9215 155.732 68.9227 155.801 68.9059C155.815 68.9091 155.831 68.9091 155.845 68.9059L155.907 68.875C155.934 68.8618 155.958 68.8444 155.979 68.8235C156.061 68.7475 156.11 68.6428 156.117 68.5314L156.1 68.5279Z" fill="white"/>
<path opacity="0.1" d="M146.299 78.4603C146.245 78.1726 146.219 77.8801 146.223 77.5874C146.223 77.2953 146.223 77.0032 146.223 76.7111C146.223 76.1235 146.247 75.5393 146.285 74.9551C146.285 74.8108 146.302 74.663 146.323 74.5221C146.35 74.3822 146.394 74.2461 146.454 74.1166C146.567 73.8486 146.701 73.5874 146.832 73.3262C146.962 73.0651 147.1 72.8039 147.237 72.5462L147.649 71.7695C147.337 72.2644 147.041 72.773 146.759 73.2884C146.622 73.5462 146.488 73.8108 146.368 74.0788C146.305 74.2166 146.256 74.3605 146.223 74.5084C146.203 74.6561 146.192 74.8005 146.182 74.9482C146.151 75.5359 146.137 76.1235 146.144 76.7111C146.144 77.0032 146.144 77.2987 146.175 77.5908C146.175 77.7386 146.199 77.8829 146.217 78.0307C146.228 78.1764 146.256 78.3205 146.299 78.4603Z" fill="#050400"/>
<path opacity="0.1" d="M146.175 72.418C145.964 72.6968 145.773 72.9909 145.605 73.2977C145.431 73.603 145.28 73.9212 145.155 74.2496C145.022 74.5815 144.928 74.9274 144.873 75.2805C144.809 75.627 144.809 75.9821 144.873 76.3286C144.873 76.2427 144.873 76.1534 144.873 76.0675C144.868 76.0241 144.868 75.9802 144.873 75.9369V75.8097C144.873 75.7651 144.873 75.7204 144.873 75.6791L144.893 75.5486C144.893 75.4661 144.914 75.3767 144.935 75.2943L144.993 75.04L145.065 74.7925C145.089 74.7066 145.117 74.6276 145.148 74.5451C145.179 74.4626 145.203 74.3802 145.237 74.3011C145.361 73.9766 145.502 73.6588 145.66 73.3492C145.735 73.1912 145.818 73.04 145.904 72.8853C145.99 72.7307 146.086 72.5589 146.175 72.418Z" fill="#050400"/>
<path opacity="0.1" d="M157.275 70.4559C157.096 70.1753 156.891 69.9119 156.663 69.6689C156.443 69.4181 156.213 69.1775 155.976 68.9404C155.746 68.6983 155.503 68.4688 155.247 68.2531C154.983 68.0479 154.69 67.8823 154.378 67.7617C154.525 67.839 154.667 67.925 154.804 68.0195C154.943 68.1079 155.075 68.2067 155.199 68.315C155.323 68.4215 155.436 68.5384 155.543 68.6586L155.887 69.0023L156.574 69.7102C156.691 69.827 156.804 69.9473 156.918 70.071C157.044 70.1918 157.164 70.3203 157.275 70.4559Z" fill="#050400"/>
<path opacity="0.1" d="M157.56 71.4403C157.45 71.2268 157.328 71.0202 157.192 70.8217C157.058 70.622 156.914 70.4293 156.759 70.2444C156.68 70.152 156.597 70.0637 156.509 69.9798C156.419 69.9007 156.33 69.8217 156.237 69.7461L155.962 69.5124C155.869 69.4403 155.777 69.3612 155.68 69.2891L155.928 69.5502L156.186 69.8011C156.268 69.887 156.357 69.9695 156.443 70.0519C156.527 70.1337 156.606 70.2198 156.68 70.3097C156.835 70.4918 156.979 70.6808 157.127 70.8664C157.199 70.9626 157.275 71.0554 157.344 71.1516C157.412 71.2478 157.488 71.344 157.56 71.4403Z" fill="#050400"/>
<path opacity="0.1" d="M146.756 68.8872C147.595 69.1827 149.505 69.8357 149.928 69.7738C150.072 69.7473 150.213 69.7094 150.351 69.6604C150.831 69.0074 151.361 68.3916 151.935 67.8185C152.51 67.9412 153.073 68.1184 153.615 68.3477C154.054 68.0171 154.461 67.6467 154.832 67.2412C154.265 66.7704 153.687 66.4336 153.199 66.4336C152.215 66.4407 151.234 66.556 150.275 66.7772C150.275 66.7772 148.625 66.9937 146.756 68.8872Z" fill="#050400"/>
<path d="M151.595 66.9482C151.595 66.9482 153.1 64.7489 155.412 64.5977C155.412 64.5977 155.213 66.876 154.381 67.5873C153.962 67.931 152.151 68.0135 151.955 67.7042C151.809 67.4656 151.688 67.2122 151.595 66.9482Z" fill="#3752E9"/>
<path opacity="0.3" d="M152.931 66.4373C152.912 66.3842 152.882 66.3356 152.843 66.2948C152.804 66.254 152.757 66.2218 152.704 66.2002C152.607 66.1623 152.499 66.1623 152.402 66.2002C152.352 66.2169 152.307 66.2438 152.268 66.2793C152.207 66.3342 152.164 66.406 152.144 66.4855C152.139 66.5231 152.139 66.5612 152.144 66.5988C152.143 66.6194 152.143 66.6401 152.144 66.6607C152.141 66.6835 152.141 66.7066 152.144 66.7294C152.161 66.7701 152.183 66.8083 152.21 66.8428C152.246 66.8898 152.292 66.9283 152.345 66.9556C152.398 66.9829 152.456 66.9984 152.515 67.0009C152.576 67.0036 152.636 66.993 152.692 66.9698C152.748 66.9467 152.798 66.9115 152.839 66.8669C152.88 66.8217 152.911 66.7676 152.928 66.7088C152.96 66.6213 152.961 66.5256 152.931 66.4373ZM154.842 66.159C154.763 66.1883 154.695 66.241 154.647 66.3101C154.599 66.3792 154.573 66.4614 154.573 66.5456C154.573 66.6298 154.599 66.7119 154.647 66.781C154.695 66.8501 154.763 66.9029 154.842 66.9322C154.898 66.8208 154.948 66.706 154.99 66.5885C155.007 66.5473 155.021 66.5061 155.034 66.4648C155.069 66.3686 155.1 66.269 155.127 66.1693C155.036 66.1317 154.935 66.1281 154.842 66.159ZM153.931 65.0009L153.756 65.0868L153.588 65.1762L153.426 65.269C153.481 65.3192 153.548 65.3532 153.621 65.3672C153.694 65.3811 153.769 65.3745 153.839 65.348C153.925 65.3171 153.998 65.2585 154.047 65.1814C154.096 65.1042 154.118 65.013 154.11 64.9219L153.931 65.0009Z" fill="white"/>
<path opacity="0.1" d="M151.595 66.9487C151.685 67.2089 151.8 67.4597 151.938 67.6978C151.947 67.7136 151.96 67.7267 151.976 67.7356C151.99 67.7507 152.006 67.7634 152.024 67.7734L152.069 67.7906C152.391 67.8896 152.73 67.9234 153.065 67.8903C153.028 67.5516 152.96 67.2169 152.863 66.8903C152.72 66.6061 152.49 66.375 152.206 66.2305C151.982 66.4521 151.778 66.6923 151.595 66.9487Z" fill="#050400"/>
<path d="M151.031 67.2369C151.031 67.2369 147.845 66.5908 146.271 67.2094C146.271 67.2094 147.034 68.9276 148.619 69.4121C149.33 69.6321 151.495 68.4259 151.399 68.0375C151.314 67.7548 151.19 67.4852 151.031 67.2369Z" fill="#3752E9"/>
<path opacity="0.3" d="M149.337 69.3201C149.246 69.3198 149.158 69.3487 149.086 69.4025C149.189 69.3839 149.291 69.3598 149.392 69.3304L149.337 69.3201ZM150.766 67.5263V67.5056C150.733 67.4168 150.666 67.3442 150.581 67.3029C150.533 67.2763 150.48 67.2601 150.426 67.2554C150.371 67.2506 150.316 67.2575 150.265 67.2754H150.247C150.167 67.3047 150.097 67.3586 150.048 67.4295C150 67.5003 149.974 67.5846 149.976 67.6706C149.975 67.7164 149.983 67.762 150 67.8046C150.017 67.848 150.04 67.8885 150.069 67.9249C150.121 67.9873 150.19 68.0337 150.268 68.0589C150.352 68.0864 150.442 68.0864 150.526 68.0589C150.579 68.0411 150.628 68.0105 150.667 67.9696C150.725 67.9146 150.767 67.8437 150.786 67.7655C150.805 67.6874 150.8 67.6054 150.773 67.5297L150.766 67.5263ZM147.962 68.0933C147.953 68.0665 147.94 68.041 147.924 68.0177L147.9 67.9867C147.886 67.966 147.869 67.9475 147.849 67.9317C147.793 67.8844 147.725 67.8525 147.653 67.8392C147.58 67.826 147.506 67.8318 147.436 67.8561C147.385 67.8746 147.338 67.9029 147.298 67.9395C147.258 67.9761 147.226 68.0202 147.203 68.0694C147.18 68.1185 147.167 68.1718 147.164 68.226C147.162 68.2802 147.17 68.3344 147.189 68.3854C147.195 68.4078 147.206 68.4289 147.22 68.4472C147.24 68.4829 147.266 68.5154 147.296 68.5434C147.363 68.6075 147.451 68.6469 147.543 68.655C147.636 68.6631 147.729 68.6395 147.807 68.5881C147.884 68.5367 147.942 68.4604 147.971 68.3718C148 68.2832 147.998 68.1875 147.966 68.1001L147.962 68.0933Z" fill="white"/>
<path opacity="0.1" d="M150.289 67.1094C150.187 67.4561 150.187 67.8245 150.289 68.1712C150.38 68.3805 150.516 68.5671 150.687 68.7176C151.113 68.453 151.416 68.185 151.375 68.0303C151.29 67.7454 151.166 67.4736 151.007 67.2228C151.007 67.2228 150.732 67.1712 150.289 67.1094Z" fill="#050400"/>
<path d="M150.646 67.9453C150.733 68.1349 150.875 68.2944 151.053 68.4035C151.231 68.5127 151.437 68.5665 151.646 68.5584C151.854 68.5502 152.056 68.4804 152.225 68.3576C152.393 68.2349 152.522 68.0649 152.594 67.869C152.666 67.6732 152.679 67.4603 152.63 67.2573C152.581 67.0544 152.473 66.8705 152.32 66.7289C152.167 66.5874 151.975 66.4945 151.768 66.462C151.562 66.4296 151.351 66.4591 151.162 66.5467C151.036 66.6044 150.922 66.6864 150.828 66.7881C150.734 66.8897 150.661 67.0089 150.613 67.1389C150.565 67.2688 150.544 67.407 150.549 67.5454C150.555 67.6838 150.588 67.8197 150.646 67.9453Z" fill="#3752E9"/>
</svg>
