<svg width="78" height="113" viewBox="0 0 78 113" fill="none" xmlns="http://www.w3.org/2000/svg">
<path d="M77.293 10.6292H1.17871V111.802H77.293V10.6292Z" fill="white"/>
<path d="M77.3125 112H1.19821C1.14564 112 1.09523 111.979 1.05806 111.942C1.02089 111.905 1 111.854 1 111.802V10.6292C1 10.5767 1.02089 10.5263 1.05806 10.4891C1.09523 10.4519 1.14564 10.431 1.19821 10.431H77.3125C77.3651 10.431 77.4155 10.4519 77.4526 10.4891C77.4898 10.5263 77.5107 10.5767 77.5107 10.6292V111.802C77.5107 111.854 77.4898 111.905 77.4526 111.942C77.4155 111.979 77.3651 112 77.3125 112ZM1.39643 111.604H77.1143V10.8275H1.39643V111.604Z" fill="#263238"/>
<path d="M67.4497 62.7596H9.51562V65.1382H67.4497V62.7596Z" fill="#263238"/>
<path d="M67.4487 32.8015H20.2539V35.1801H67.4487V32.8015Z" fill="#263238"/>
<path d="M67.4497 47.7825H9.51562V50.1611H67.4497V47.7825Z" fill="#263238"/>
<path d="M52.5637 92.7137C51.8263 93.5066 51.0731 94.2995 50.304 95.0923H9.52344V92.7137H52.5637Z" fill="#263238"/>
<path d="M63.9451 77.7367C63.4377 78.5296 62.9184 79.3224 62.3792 80.1153H9.52344V77.7367H63.9451Z" fill="#263238"/>
<path d="M30.0031 109.07C30.0031 109.07 26.6176 110.716 17.135 111.604H1.37695" stroke="#263238" stroke-linecap="round" stroke-linejoin="round"/>
<path d="M75.6436 53.9946C76.2295 53.1151 76.584 52.102 76.6743 51.0491C76.7932 49.725 76.8804 48.1829 76.9082 47.2434L77.0588 42.0541V53.2017L75.6436 53.9946Z" fill="#263238"/>
<path d="M76.6153 52.7419C76.6153 53.2255 72.1832 64.9122 63.9295 77.7169C63.4221 78.5097 62.9028 79.3026 62.3637 80.0954C59.406 84.5306 56.1252 88.7415 52.5481 92.6939C51.8107 93.4868 51.0575 94.2797 50.2884 95.0725C44.4808 100.963 37.7891 105.978 30.2926 108.852C30.7207 108.634 37.2499 105.34 38.6731 95.0725C38.7788 94.3193 38.8541 93.5264 38.8991 92.6939C39.0893 89.2212 38.7167 85.0587 37.456 80.0954C37.2605 79.3237 37.0424 78.5309 36.8019 77.7169C34.9704 71.5286 31.8228 64.1947 26.808 55.5169L25.5156 52.7022L33.9596 55.0808C71.6718 63.8379 76.5954 52.7022 76.5954 52.7022C76.5954 52.7022 76.6153 52.734 76.6153 52.7419Z" fill="white" stroke="#263238" stroke-linecap="round" stroke-linejoin="round"/>
<path d="M44.1667 88.02C44.1931 88.722 44.1772 89.425 44.1191 90.1251L44.1667 88.02Z" fill="white"/>
<path d="M44.1667 88.02C44.1931 88.722 44.1772 89.425 44.1191 90.1251" stroke="#263238" stroke-linecap="round" stroke-linejoin="round"/>
<path d="M35.0967 61.0272C40.5753 68.1233 43.3384 80.1152 44.0599 85.804L35.0967 61.0272Z" fill="white"/>
<path d="M35.0967 61.0272C40.5753 68.1233 43.3384 80.1152 44.0599 85.804" stroke="#263238" stroke-linecap="round" stroke-linejoin="round"/>
<path d="M10.3638 21.6579C9.82975 21.6747 9.29778 21.5841 8.79945 21.3913C8.30112 21.1986 7.84661 20.9077 7.46289 20.5359C7.07917 20.1641 6.77408 19.719 6.56572 19.227C6.35737 18.7349 6.25 18.2061 6.25 17.6718C6.25 17.1375 6.35737 16.6086 6.56572 16.1166C6.77408 15.6246 7.07917 15.1795 7.46289 14.8077C7.84661 14.4359 8.30112 14.145 8.79945 13.9522C9.29778 13.7595 9.82975 13.6689 10.3638 13.6857C10.5215 13.6857 10.6728 13.7483 10.7843 13.8599C10.8958 13.9714 10.9584 14.1226 10.9584 14.2803C10.9584 14.4381 10.8958 14.5893 10.7843 14.7008C10.6728 14.8123 10.5215 14.875 10.3638 14.875C9.80926 14.8703 9.26582 15.0304 8.80244 15.3351C8.33907 15.6397 7.97665 16.0752 7.76116 16.5861C7.54567 17.0971 7.48684 17.6606 7.59213 18.2051C7.69742 18.7495 7.96209 19.2504 8.35254 19.6442C8.743 20.038 9.24164 20.307 9.78519 20.4169C10.3287 20.5268 10.8927 20.4728 11.4055 20.2617C11.9183 20.0506 12.3568 19.6919 12.6654 19.2311C12.974 18.7704 13.1388 18.2283 13.1388 17.6738C13.1388 17.5161 13.2014 17.3648 13.313 17.2533C13.4245 17.1418 13.5757 17.0791 13.7334 17.0791C13.8911 17.0791 14.0424 17.1418 14.1539 17.2533C14.2654 17.3648 14.3281 17.5161 14.3281 17.6738C14.327 18.7267 13.9097 19.7365 13.167 20.4828C12.4244 21.2292 11.4167 21.6516 10.3638 21.6579Z" fill="#263238"/>
<path d="M10.2682 20.0127C6.62504 20.0127 6.42682 12.1396 6.42285 10.5619V10.5143C6.42285 8.92857 6.60918 1 10.2682 1C13.9272 1 14.181 9.53907 14.2008 10.5143L11.0294 10.5737C11.023 8.73893 10.756 6.91432 10.2365 5.15457C9.76984 6.89647 9.55097 8.69545 9.58636 10.4984V10.546C9.5512 12.3583 9.77819 14.1662 10.2603 15.9136C10.296 15.7987 10.3316 15.6718 10.3713 15.5172L10.621 14.657L12.8331 15.3031C12.9428 15.335 13.0451 15.3882 13.1342 15.4597C13.2232 15.5312 13.2973 15.6195 13.3522 15.7197C13.4071 15.8199 13.4416 15.9299 13.4539 16.0434C13.4662 16.157 13.456 16.2718 13.4238 16.3814C12.7816 18.7877 11.7152 20.0127 10.2682 20.0127Z" fill="#BFBFBF" stroke="#263238" stroke-linecap="round" stroke-linejoin="round"/>
<path d="M13.7533 18.2684C13.5956 18.2684 13.4444 18.2058 13.3329 18.0942C13.2214 17.9827 13.1587 17.8315 13.1587 17.6738C13.1587 16.9356 12.8671 16.2273 12.3474 15.7031C11.8276 15.1789 11.1219 14.8813 10.3837 14.875C10.226 14.875 10.0747 14.8123 9.96323 14.7008C9.85171 14.5893 9.78906 14.4381 9.78906 14.2803C9.78906 14.1226 9.85171 13.9714 9.96323 13.8599C10.0747 13.7483 10.226 13.6857 10.3837 13.6857C11.437 13.693 12.4446 14.1163 13.1872 14.8633C13.9297 15.6103 14.347 16.6205 14.348 17.6738C14.348 17.8315 14.2853 17.9827 14.1738 18.0942C14.0623 18.2058 13.9111 18.2684 13.7533 18.2684Z" fill="#263238"/>
<path d="M29.1543 21.6579C28.1189 21.6252 27.1368 21.1909 26.416 20.447C25.6951 19.703 25.292 18.7077 25.292 17.6718C25.292 16.6359 25.6951 15.6406 26.416 14.8966C27.1368 14.1526 28.1189 13.7184 29.1543 13.6857C29.3121 13.6857 29.4633 13.7483 29.5748 13.8599C29.6863 13.9714 29.749 14.1226 29.749 14.2803C29.749 14.4381 29.6863 14.5893 29.5748 14.7008C29.4633 14.8123 29.3121 14.875 29.1543 14.875C28.6008 14.875 28.0597 15.0391 27.5994 15.3467C27.1392 15.6542 26.7804 16.0913 26.5686 16.6027C26.3568 17.1141 26.3013 17.6769 26.4093 18.2198C26.5173 18.7627 26.7839 19.2614 27.1753 19.6528C27.5667 20.0442 28.0654 20.3108 28.6083 20.4188C29.1512 20.5268 29.714 20.4713 30.2254 20.2595C30.7368 20.0477 31.1739 19.6889 31.4815 19.2287C31.789 18.7684 31.9531 18.2273 31.9531 17.6738C31.9531 17.5161 32.0158 17.3648 32.1273 17.2533C32.2388 17.1418 32.3901 17.0791 32.5478 17.0791C32.7055 17.0791 32.8567 17.1418 32.9682 17.2533C33.0798 17.3648 33.1424 17.5161 33.1424 17.6738C33.1403 18.7305 32.7193 19.7432 31.9718 20.49C31.2242 21.2369 30.211 21.6568 29.1543 21.6579Z" fill="#263238"/>
<path d="M29.0631 20.0127C25.42 20.0127 25.2178 12.1396 25.2178 10.5619V10.5143C25.2178 8.92857 25.4001 1 29.0631 1C32.7261 1 32.9759 9.53907 32.9957 10.5143L29.8243 10.5737C29.8183 8.7389 29.5513 6.91424 29.0314 5.15457C28.5665 6.89674 28.349 8.69565 28.3852 10.4984V10.546C28.3502 12.3662 28.5772 14.1819 29.0592 15.9374C29.0988 15.8225 29.1345 15.6956 29.1741 15.541L29.4239 14.6807L31.636 15.3269C31.7456 15.3588 31.8479 15.412 31.937 15.4835C32.0261 15.555 32.1002 15.6433 32.155 15.7435C32.2099 15.8437 32.2445 15.9537 32.2568 16.0672C32.2691 16.1808 32.2588 16.2956 32.2266 16.4052C31.5765 18.7877 30.5101 20.0127 29.0631 20.0127Z" fill="#BFBFBF" stroke="#263238" stroke-linecap="round" stroke-linejoin="round"/>
<path d="M32.5476 18.2684C32.3899 18.2684 32.2387 18.2058 32.1272 18.0942C32.0156 17.9827 31.953 17.8315 31.953 17.6738C31.9519 16.9318 31.6567 16.2205 31.1321 15.6959C30.6074 15.1712 29.8962 14.876 29.1542 14.875C28.9965 14.875 28.8453 14.8123 28.7337 14.7008C28.6222 14.5893 28.5596 14.4381 28.5596 14.2803C28.5596 14.1226 28.6222 13.9714 28.7337 13.8599C28.8453 13.7483 28.9965 13.6857 29.1542 13.6857C30.2116 13.6867 31.2254 14.1073 31.973 14.8549C32.7207 15.6026 33.1412 16.6164 33.1423 17.6738C33.1423 17.8315 33.0796 17.9827 32.9681 18.0942C32.8566 18.2058 32.7053 18.2684 32.5476 18.2684Z" fill="#263238"/>
<path d="M47.9493 21.6579C46.9138 21.6252 45.9318 21.1909 45.2109 20.447C44.49 19.703 44.0869 18.7077 44.0869 17.6718C44.0869 16.6359 44.49 15.6406 45.2109 14.8966C45.9318 14.1526 46.9138 13.7184 47.9493 13.6857C48.107 13.6857 48.2582 13.7483 48.3697 13.8599C48.4813 13.9714 48.5439 14.1226 48.5439 14.2803C48.5439 14.4381 48.4813 14.5893 48.3697 14.7008C48.2582 14.8123 48.107 14.875 47.9493 14.875C47.3957 14.875 46.8546 15.0391 46.3943 15.3467C45.9341 15.6542 45.5754 16.0913 45.3635 16.6027C45.1517 17.1141 45.0963 17.6769 45.2043 18.2198C45.3122 18.7627 45.5788 19.2614 45.9702 19.6528C46.3616 20.0442 46.8603 20.3108 47.4033 20.4188C47.9462 20.5268 48.5089 20.4713 49.0203 20.2595C49.5317 20.0477 49.9688 19.6889 50.2764 19.2287C50.5839 18.7684 50.748 18.2273 50.748 17.6738C50.748 17.5161 50.8107 17.3648 50.9222 17.2533C51.0337 17.1418 51.185 17.0791 51.3427 17.0791C51.5004 17.0791 51.6516 17.1418 51.7632 17.2533C51.8747 17.3648 51.9373 17.5161 51.9373 17.6738C51.9352 18.7305 51.5143 19.7432 50.7667 20.49C50.0191 21.2369 49.006 21.6568 47.9493 21.6579Z" fill="#263238"/>
<path d="M47.8542 20.0127C44.211 20.0127 44.0128 12.1396 44.0088 10.5619V10.5143C44.0088 8.92857 44.1951 1 47.8542 1C51.5132 1 51.7709 9.53907 51.7867 10.5143L48.6153 10.5737C48.6089 8.73893 48.342 6.91432 47.8224 5.15457C47.3583 6.90216 47.1434 8.70657 47.1842 10.5143V10.5619C47.149 12.3742 47.376 14.1821 47.8581 15.9295C47.8938 15.8145 47.9334 15.6877 47.9691 15.5331L48.2228 14.6728L50.4309 15.319C50.5406 15.3509 50.6429 15.4041 50.732 15.4756C50.8211 15.547 50.8952 15.6354 50.95 15.7356C51.0049 15.8357 51.0395 15.9457 51.0517 16.0593C51.064 16.1728 51.0538 16.2877 51.0216 16.3973C50.3556 18.7877 49.3051 20.0127 47.8542 20.0127Z" fill="#BFBFBF" stroke="#263238" stroke-linecap="round" stroke-linejoin="round"/>
<path d="M51.3426 18.2684C51.1849 18.2684 51.0336 18.2058 50.9221 18.0942C50.8106 17.9827 50.7479 17.8315 50.7479 17.6738C50.7469 16.9318 50.4517 16.2205 49.927 15.6959C49.4024 15.1712 48.6911 14.876 47.9491 14.875C47.7914 14.875 47.6402 14.8123 47.5287 14.7008C47.4172 14.5893 47.3545 14.4381 47.3545 14.2803C47.3545 14.1226 47.4172 13.9714 47.5287 13.8599C47.6402 13.7483 47.7914 13.6857 47.9491 13.6857C49.0072 13.6857 50.022 14.1057 50.7705 14.8535C51.5191 15.6013 51.9401 16.6157 51.9412 17.6738C51.9401 17.8318 51.8766 17.9831 51.7644 18.0945C51.6523 18.2059 51.5006 18.2684 51.3426 18.2684Z" fill="#263238"/>
<path d="M66.7437 21.6579C66.2096 21.6747 65.6777 21.5841 65.1793 21.3913C64.681 21.1986 64.2265 20.9077 63.8428 20.5359C63.4591 20.1641 63.154 19.719 62.9456 19.227C62.7373 18.7349 62.6299 18.2061 62.6299 17.6718C62.6299 17.1375 62.7373 16.6086 62.9456 16.1166C63.154 15.6246 63.4591 15.1795 63.8428 14.8077C64.2265 14.4359 64.681 14.145 65.1793 13.9522C65.6777 13.7595 66.2096 13.6689 66.7437 13.6857C66.9014 13.6857 67.0526 13.7483 67.1642 13.8599C67.2757 13.9714 67.3383 14.1226 67.3383 14.2803C67.3383 14.4381 67.2757 14.5893 67.1642 14.7008C67.0526 14.8123 66.9014 14.875 66.7437 14.875C66.19 14.8742 65.6485 15.0377 65.1877 15.3447C64.7269 15.6518 64.3675 16.0886 64.1551 16.6C63.9427 17.1113 63.8867 17.6742 63.9942 18.2174C64.1018 18.7605 64.368 19.2596 64.7593 19.6514C65.1505 20.0432 65.6492 20.3102 66.1922 20.4185C66.7353 20.5268 67.2982 20.4716 67.8098 20.2599C68.3215 20.0482 68.7588 19.6894 69.0665 19.2291C69.3742 18.7688 69.5385 18.2275 69.5385 17.6738C69.5385 17.5161 69.6012 17.3648 69.7127 17.2533C69.8242 17.1418 69.9754 17.0791 70.1331 17.0791C70.2909 17.0791 70.4421 17.1418 70.5536 17.2533C70.6651 17.3648 70.7278 17.5161 70.7278 17.6738C70.7267 18.7301 70.3067 19.7429 69.5597 20.4898C68.8128 21.2367 67.8 21.6568 66.7437 21.6579Z" fill="#263238"/>
<path d="M66.6481 20.0127C63.0049 20.0127 62.8067 12.1396 62.8027 10.5619V10.5143C62.8027 8.92857 62.9891 1 66.6481 1C70.3071 1 70.5727 9.55493 70.5727 10.5301L67.4013 10.5896C67.3929 8.75494 67.126 6.9306 66.6085 5.17043C66.1396 6.9119 65.9207 8.71119 65.9583 10.5143V10.5619C65.9287 12.3773 66.1596 14.1876 66.6441 15.9374C66.6838 15.8225 66.7195 15.6956 66.7591 15.541L67.0088 14.6807L69.2209 15.3269C69.3306 15.3588 69.4329 15.412 69.522 15.4835C69.611 15.555 69.6851 15.6433 69.74 15.7435C69.7949 15.8437 69.8294 15.9537 69.8417 16.0672C69.854 16.1808 69.8438 16.2956 69.8116 16.4052C69.1614 18.7877 68.0951 20.0127 66.6481 20.0127Z" fill="#BFBFBF" stroke="#263238" stroke-linecap="round" stroke-linejoin="round"/>
<path d="M70.1326 18.2684C69.9748 18.2684 69.8236 18.2058 69.7121 18.0942C69.6006 17.9827 69.5379 17.8315 69.5379 17.6738C69.5379 16.9322 69.2436 16.2209 68.7196 15.6961C68.1955 15.1714 67.4847 14.876 66.7431 14.875C66.5854 14.875 66.4341 14.8123 66.3226 14.7008C66.2111 14.5893 66.1484 14.4381 66.1484 14.2803C66.1484 14.1226 66.2111 13.9714 66.3226 13.8599C66.4341 13.7483 66.5854 13.6857 66.7431 13.6857C67.7998 13.6878 68.8125 14.1088 69.5594 14.8563C70.3062 15.6039 70.7261 16.6171 70.7272 17.6738C70.7272 17.8315 70.6645 17.9827 70.553 18.0942C70.4415 18.2058 70.2903 18.2684 70.1326 18.2684Z" fill="#263238"/>
</svg>
