<svg width="20" height="20" viewBox="0 0 20 20" fill="none" xmlns="http://www.w3.org/2000/svg">
<path d="M10 0L10.3993 6.20126L12.0791 0.218524L11.1803 6.36729L14.0674 0.864546L11.9098 6.69208L15.8779 1.90983L12.5559 7.16144L17.4314 3.30869L13.0902 7.75486L18.6603 5L13.4894 8.4464L19.5106 6.90983L13.7362 9.20585L19.9452 8.95472L13.8197 10L19.9452 11.0453L13.7362 10.7942L19.5106 13.0902L13.4894 11.5536L18.6603 15L13.0902 12.2451L17.4314 16.6913L12.5559 12.8386L15.8779 18.0902L11.9098 13.3079L14.0674 19.1355L11.1803 13.6327L12.0791 19.7815L10.3993 13.7987L10 20L9.60074 13.7987L7.92088 19.7815L8.81966 13.6327L5.93263 19.1355L8.09017 13.3079L4.12215 18.0902L7.44415 12.8386L2.56855 16.6913L6.90983 12.2451L1.33975 15L6.51057 11.5536L0.489435 13.0902L6.26381 10.7942L0.054781 11.0453L6.18034 10L0.054781 8.95472L6.26381 9.20585L0.489435 6.90983L6.51057 8.4464L1.33975 5L6.90983 7.75486L2.56855 3.30869L7.44415 7.16144L4.12215 1.90983L8.09017 6.69208L5.93263 0.864546L8.81966 6.36729L7.92088 0.218524L9.60074 6.20126L10 0Z" fill="#3ACBCC"/>
</svg>
