<svg width="50" height="50" viewBox="0 0 50 50" fill="none" xmlns="http://www.w3.org/2000/svg">
<path d="M25 0L25.9982 15.5032L30.1978 0.54631L27.9508 15.9182L35.1684 2.16136L29.7746 16.7302L39.6946 4.77457L31.3896 17.9036L43.5786 8.27173L32.7254 19.3871L46.6506 12.5L33.7236 21.116L48.7764 17.2746L34.3405 23.0146L49.863 22.3868L34.5491 25L49.863 27.6132L34.3405 26.9854L48.7764 32.7254L33.7236 28.884L46.6506 37.5L32.7254 30.6129L43.5786 41.7283L31.3896 32.0964L39.6946 45.2254L29.7746 33.2698L35.1684 47.8386L27.9508 34.0818L30.1978 49.4537L25.9982 34.4968L25 50L24.0018 34.4968L19.8022 49.4537L22.0492 34.0818L14.8316 47.8386L20.2254 33.2698L10.3054 45.2254L18.6104 32.0964L6.42138 41.7283L17.2746 30.6129L3.34937 37.5L16.2764 28.884L1.22359 32.7254L15.6595 26.9854L0.136953 27.6132L15.4508 25L0.136953 22.3868L15.6595 23.0146L1.22359 17.2746L16.2764 21.116L3.34937 12.5L17.2746 19.3871L6.42138 8.27173L18.6104 17.9036L10.3054 4.77457L20.2254 16.7302L14.8316 2.16136L22.0492 15.9182L19.8022 0.54631L24.0018 15.5032L25 0Z" fill="#3ACBCC"/>
</svg>
