<svg width="147" height="147" viewBox="0 0 147 147" fill="none" xmlns="http://www.w3.org/2000/svg">
<path d="M51.4145 4.18567L65.5309 21.0179L73.9506 0.727303L82.1747 21.0979L96.4523 4.40224L97.9791 26.3173L116.717 14.8508L111.397 36.1649L132.761 31.0501L121.115 49.6771L143.015 51.4145L126.182 65.5309L146.473 73.9506L126.102 82.1747L142.798 96.4523L120.883 97.9791L132.35 116.717L111.035 111.397L116.717 132.35L97.5232 121.115L95.7858 143.015L81.6693 126.182L73.2497 146.473L65.0256 126.102L50.7479 142.798L49.2212 120.883L30.4831 132.35L35.8032 111.035L14.4388 116.15L26.085 97.5232L4.18567 95.7858L21.0179 81.6693L0.727303 73.2497L21.0979 65.0256L4.40224 50.7479L26.3173 49.2212L14.8508 30.4831L36.1649 35.8032L31.0501 14.4388L49.6771 26.085L51.4145 4.18567Z" fill="#CFD7FE"/>
</svg>
