<svg width="94" height="86" viewBox="0 0 94 86" fill="none" xmlns="http://www.w3.org/2000/svg">
<path d="M-12.0505 -72.4061L3.59827 -53.7467L12.9319 -76.2398L22.0487 -53.658L37.8762 -72.166L39.5687 -47.8721L60.3409 -60.5833L54.4432 -36.9554L78.1267 -42.6255L65.2164 -21.9765L89.4929 -20.0505L70.8335 -4.40173L93.3266 4.93187L70.7448 14.0487L89.2528 29.8762L64.9589 31.5687L77.6701 52.3409L54.0422 46.4433L59.7123 70.1267L39.0633 57.2164L37.1373 81.4929L21.4885 62.8335L12.1549 85.3266L3.0381 62.7448L-12.7894 81.2528L-14.4819 56.9589L-35.2541 69.6701L-29.3564 46.0422L-53.0399 51.7123L-40.1296 31.0633L-64.4061 29.1373L-45.7467 13.4885L-68.2398 4.15494L-45.658 -4.9619L-64.166 -20.7894L-39.8721 -22.4819L-52.5833 -43.2541L-28.9554 -37.3564L-34.6255 -61.0399L-13.9765 -48.1296L-12.0505 -72.4061Z" fill="#3ACBCC"/>
</svg>
