<svg width="101" height="114" viewBox="0 0 101 114" fill="none" xmlns="http://www.w3.org/2000/svg">
<path d="M-5.05054 4.42999L10.5983 23.0894L19.9319 0.596213L29.0487 23.1781L44.8762 4.67007L46.5687 28.964L67.3409 16.2528L61.4432 39.8806L85.1267 34.2105L72.2164 54.8595L96.4929 56.7855L77.8335 72.4343L100.327 81.7679L77.7448 90.8847L96.2528 106.712L71.9589 108.405L84.6701 129.177L61.0422 123.279L66.7123 146.963L46.0633 134.052L44.1373 158.329L28.4885 139.67L19.1549 162.163L10.0381 139.581L-5.78945 158.089L-7.48189 133.795L-28.2541 146.506L-22.3564 122.878L-46.0399 128.548L-33.1296 107.899L-57.4061 105.973L-38.7467 90.3246L-61.2398 80.991L-38.658 71.8741L-57.166 56.0466L-32.8721 54.3542L-45.5833 33.582L-21.9554 39.4796L-27.6255 15.7961L-6.97655 28.7065L-5.05054 4.42999Z" fill="#3ACBCC"/>
</svg>
