<svg width="100" height="100" viewBox="0 0 100 100" fill="none" xmlns="http://www.w3.org/2000/svg">
<path d="M46.732 4.6303C48.3256 2.37234 51.6744 2.37234 53.268 4.63031L59.4 13.3184C60.4226 14.7673 62.2772 15.3699 63.9561 14.7988L74.0238 11.3743C76.6402 10.4842 79.3494 12.4526 79.3115 15.216L79.1656 25.8492C79.1413 27.6224 80.2875 29.2 81.9815 29.7248L92.1393 32.8719C94.7792 33.6898 95.814 36.8747 94.159 39.0881L87.791 47.6047C86.729 49.025 86.729 50.975 87.791 52.3953L94.159 60.9119C95.814 63.1253 94.7792 66.3102 92.1393 67.1281L81.9815 70.2752C80.2875 70.8 79.1413 72.3776 79.1656 74.1508L79.3115 84.784C79.3494 87.5474 76.6402 89.5158 74.0238 88.6257L63.9561 85.2012C62.2772 84.6301 60.4226 85.2327 59.4 86.6816L53.268 95.3697C51.6744 97.6277 48.3256 97.6277 46.732 95.3697L40.6 86.6816C39.5774 85.2327 37.7228 84.6301 36.0439 85.2012L25.9762 88.6257C23.3598 89.5158 20.6506 87.5474 20.6885 84.784L20.8344 74.1508C20.8587 72.3776 19.7125 70.8 18.0185 70.2752L7.86073 67.1281C5.22081 66.3102 4.186 63.1253 5.84098 60.9119L12.209 52.3953C13.271 50.975 13.271 49.025 12.209 47.6047L5.84098 39.0881C4.186 36.8747 5.22082 33.6898 7.86073 32.8719L18.0185 29.7248C19.7125 29.2 20.8587 27.6224 20.8344 25.8492L20.6885 15.216C20.6506 12.4526 23.3598 10.4842 25.9762 11.3743L36.0439 14.7988C37.7228 15.3699 39.5774 14.7673 40.6 13.3184L46.732 4.6303Z" fill="#3ACBCC"/>
<path fill-rule="evenodd" clip-rule="evenodd" d="M65.9104 38.518C66.379 38.9868 66.6423 39.6225 66.6423 40.2855C66.6423 40.9484 66.379 41.5841 65.9104 42.053L47.172 60.7913C46.9244 61.039 46.6304 61.2355 46.3068 61.3695C45.9833 61.5036 45.6364 61.5726 45.2862 61.5726C44.936 61.5726 44.5891 61.5036 44.2656 61.3695C43.942 61.2355 43.648 61.039 43.4004 60.7913L34.0904 51.483C33.8516 51.2523 33.6611 50.9765 33.5301 50.6715C33.3991 50.3665 33.3301 50.0384 33.3272 49.7065C33.3244 49.3745 33.3876 49.0453 33.5133 48.7381C33.639 48.4308 33.8247 48.1517 34.0594 47.917C34.2941 47.6822 34.5732 47.4966 34.8805 47.3709C35.1877 47.2452 35.5169 47.1819 35.8489 47.1848C36.1808 47.1877 36.5089 47.2567 36.8139 47.3877C37.1189 47.5187 37.3948 47.7092 37.6254 47.948L45.2854 55.608L62.3737 38.518C62.6059 38.2856 62.8815 38.1013 63.185 37.9756C63.4884 37.8499 63.8136 37.7852 64.142 37.7852C64.4705 37.7852 64.7957 37.8499 65.0991 37.9756C65.4025 38.1013 65.6782 38.2856 65.9104 38.518Z" fill="white"/>
</svg>
