<svg width="90" height="88" viewBox="0 0 90 88" fill="none" xmlns="http://www.w3.org/2000/svg">
<path d="M0.423499 3.90087C2.93804 2.18334 4.00911 0.829519 5.08243 0.829776C9.07935 0.830872 13.2056 0.737603 17.0495 1.65965C27.4233 4.14807 36.1992 9.74295 44.1027 16.8032C57.547 28.8128 66.9431 43.6832 74.7052 59.724C75.5342 61.4371 76.4514 63.1082 77.3593 64.7817C77.4159 64.8859 77.7498 64.8403 78.2522 64.8995C79.0965 62.0075 79.8229 58.9788 80.892 56.0763C81.4599 54.5344 82.3965 52.9625 83.5969 51.8799C84.3651 51.1873 86.232 50.8182 87.0433 51.2843C88.1229 51.9045 88.9278 53.3935 89.3276 54.6714C89.6043 55.5561 89.0666 56.7349 88.7746 57.7479C86.4883 65.6809 84.3285 73.6552 81.8201 81.5176C79.6696 88.2583 76.6697 89.0557 70.985 85.2318C65.1672 81.3184 59.141 77.7155 53.2533 73.9039C51.4317 72.7245 49.7648 71.3064 47.7997 69.8264C51.1484 67.444 59.3586 69.3312 72.4303 75.4878C68.65 63.5965 62.7493 53.653 56.4746 43.9358C50.1952 34.211 42.5346 25.678 33.5498 18.3012C24.3306 10.7322 13.3869 6.97247 0.423499 3.90087Z" fill="#3ACBCC"/>
</svg>
