<svg width="90" height="88" viewBox="0 0 90 88" fill="none" xmlns="http://www.w3.org/2000/svg">
<path d="M0.423255 3.90111C2.9378 2.18359 4.00886 0.829763 5.08219 0.83002C9.07911 0.831116 13.2054 0.737847 17.0493 1.65989C27.423 4.14832 36.199 9.7432 44.1025 16.8035C57.5467 28.813 66.9428 43.6834 74.7049 59.7243C75.5339 61.4374 76.4512 63.1084 77.3591 64.782C77.4156 64.8861 77.7496 64.8405 78.252 64.8997C79.0962 62.0078 79.8226 58.979 80.8917 56.0766C81.4597 54.5347 82.3963 52.9627 83.5966 51.8802C84.3649 51.1875 86.2317 50.8185 87.0431 51.2846C88.1227 51.9047 88.9276 53.3937 89.3274 54.6717C89.604 55.5563 89.0664 56.7351 88.7744 57.7482C86.488 65.6811 84.3283 73.6554 81.8199 81.5179C79.6694 88.2586 76.6694 89.0559 70.9847 85.232C65.167 81.3186 59.1408 77.7157 53.2531 73.9041C51.4315 72.7248 49.7645 71.3067 47.7995 69.8267C51.1482 67.4443 59.3584 69.3314 72.4301 75.488C68.6497 63.5967 62.749 53.6532 56.4744 43.936C50.195 34.2112 42.5344 25.6782 33.5495 18.3015C24.3303 10.7324 13.3867 6.97272 0.423255 3.90111Z" fill="#3ACBCC"/>
</svg>
